<?xml version="1.0" encoding="UTF-8"?>
<svg id="Layer_2" data-name="Layer 2" xmlns="http://www.w3.org/2000/svg" viewBox="0 0 398 585">
  <defs>
    <style>
      .cls-1 {
        fill: #00af3f;
      }

      .cls-2 {
        fill: #6fd4e4;
      }

      .cls-3 {
        fill: #ff7900;
      }

      .cls-4 {
        opacity: .18;
      }

      .cls-5 {
        fill: #44697d;
      }

      .cls-6 {
        fill: #ff0e49;
      }

      .cls-7 {
        fill: #a71930;
      }
    </style>
  </defs>
  <circle class="cls-5" cx="184.57" cy="282.39" r="117.82"/>
  <polyline class="cls-3" points="8.38 433.59 338.19 131.51 220.95 31"/>
  <polyline class="cls-6" points="74.43 396.79 128.02 362.08 113.65 346.86"/>
  <polyline class="cls-6" points="255.58 230.85 309.17 196.13 294.8 180.91"/>
  <g class="cls-4">
    <g>
      <path d="M143.88,235.84c2.07-2.13,4.47-3.33,7.35-2.61-.56-1.8-1.59-3.59-1.52-5.32.07-1.65.97-3.53,2.08-4.81,2-2.3,5.6-2.43,8.15-.74,2.48,1.65,3.63,4.79,2.8,7.65-.96,3.3-3.67,4.91-7.71,4.74.63,2.36,1.28,4.8,1.84,6.88,1.94-.49,4.39-1.11,6.87-1.74-2.01-2.76-2.72-6.11.05-9.37,2.21-2.61,5.05-2.77,8.1-1.71.36.1.72.19,1.08.29,1.17,2.34,2.35,4.68,3.49,6.95,1.49-.4,3.62-.98,5.83-1.57-1.95-2.52-2.04-5.35-.71-8.28l.14-.18c2.79-3.52,6.25-3.52,10.02-1.84,0,0-.1-.06-.1-.06.48.66.98,1.31,1.44,1.98,2.63,3.78.77,9.25-3.59,10.43-1.06.29-2.2.27-3.01.36.58,2.28,1.16,4.52,1.66,6.46,2.01-.51,4.28-1.1,6.5-1.67-3.51-6.39-.85-11.31,6.87-11.8-1.82-2.42-2.15-5.03-1.39-7.8.24-.29.49-.58.73-.87,1.21-2.13,3.16-3.09,5.48-3.24,1.8-.11,3.27-.05,3.66,2.65.48,3.31,1.85,6.5,2.9,9.72,1.75,5.36,3.7,10.65,5.3,16.05,2.62,8.87,4.33,17.9,3.99,27.64-.35-.81-.59-1.24-.72-1.7-.15-.56-.21-1.14-.33-1.86-1.35.29-2.68.57-4.13.88.47,1.51.92,2.99,1.37,4.44,1.3-.34,2.54-.66,4.14-1.08-.19,5.66-.3,11-.55,16.33-.47,10.18-.72,20.45-3.76,30.22-1.93,6.22-4.69,12.22-7.57,18.06-1.92,3.89-4.52,7.49-7.18,10.94-3.81,4.94-8.97,6.9-15.2,5.73-.53-.1-1.08-.04-1.73.35,1.75.69,3.51,1.38,5.26,2.07-.05.2-.11.41-.16.61-7.01-1.89-14.02-3.78-21.03-5.68.03-.25.06-.49.09-.74,3.23.41,6.46.82,9.78,1.24-2.82-2.51-5.49-5.14-8.41-7.42-3.01-2.35-3.31-5.72-4.04-8.99-.07-.31-.12-.63-.22-1.14-1.95.99-3.21.73-4.16-1.55-1.28-3.08-3.34-5.84-4.58-8.93-4.06-10.19-7.66-20.56-11.9-30.66-2.44-5.82-5.75-11.28-8.66-16.91-.18-.36-.28-.75-.53-1.44,1.34-.25,2.49-.47,3.76-.71-.44-1.65-.9-3.35-1.42-5.27-1.82.66-3.72,1.36-5.84,2.13-1.87-2.94-7.17-4.24-5.79-10.35-3.36,3.34-5.53.73-7.78-.86-2.16-1.54-5.75-2.21-4.11-6.66-3.02,3.4-5.63,1.19-8.18-.16-2.6-1.38-5.43-2.79-3.74-6.88-4.21,2.54-7.61,2.38-10.42-.27-1.82-1.72-2.09-5.48-.57-7.9,1.54-2.47,4.78-3.65,7.55-2.75,3.29,1.07,4.85,3.85,4.55,8.46,2.59-2.22,5.36-2.95,8.44-1.6.4.18.79.36,1.19.54,2.14,2.2,3.31,4.73,2.59,7.47,2.39-.61,4.84-1.23,7.32-1.86-1.92-2.02-2.25-4.77-1.24-7.72.2-.42.39-.85.59-1.27,4.45-3.65,8.92-3.56,11.43.44.9,1.44,1.11,3.33,1.53,4.7,2.15-.47,4.45-.98,6.81-1.5-2.26-2.42-2.29-5.33-1.02-8.38.1-.19.2-.38.3-.57ZM173.47,240.92c-2.03.45-4.31.96-6.22,1.38.59,2.03,1.27,4.34,1.85,6.34,1.97-.48,4.28-1.05,6.61-1.62-.69-1.89-1.51-4.13-2.23-6.11ZM155.94,251.93c-.45-2.09-.96-4.41-1.36-6.27-2.08.53-4.44,1.13-6.52,1.65.56,1.78,1.27,4.05,1.9,6.08,1.93-.47,4.1-1,5.97-1.46ZM135.17,251.33c-2.14.42-4.38.87-6.17,1.22.63,2.13,1.27,4.32,1.82,6.17,2.11-.47,4.34-.97,6.52-1.46-.68-1.86-1.48-4.04-2.17-5.93ZM179.18,249.28c.66,1.79,1.4,3.83,2.08,5.68,2.03-.46,3.94-.9,5.59-1.28-.43-2.08-.86-4.13-1.22-5.87-2.08.47-4.39,1-6.45,1.46ZM160.58,254.7c.55,1.86,1.12,3.8,1.66,5.63,1.79-.42,3.78-.88,5.5-1.28-.42-2.08-.84-4.18-1.2-5.94-1.95.52-4.02,1.08-5.95,1.59ZM204.14,243.32c-1.92.33-3.88.67-5.54.95.59,2.01,1.23,4.17,1.79,6.08,1.86-.5,3.83-1.02,5.76-1.54-.66-1.81-1.33-3.65-2.01-5.5ZM141.07,259.57c.67,1.83,1.41,3.85,2.09,5.72,1.79-.56,3.55-1.1,5.15-1.6-.4-1.88-.8-3.74-1.15-5.4-2.12.45-4.17.88-6.09,1.28ZM198.77,260.95c-.44-1.94-.87-3.85-1.29-5.67-1.81.47-3.74.98-5.5,1.44.55,1.79,1.11,3.63,1.64,5.38,1.77-.4,3.51-.79,5.14-1.15ZM173.2,278.18c-.62-1.71-1.25-3.43-1.85-5.05-1.6.49-3.13.97-4.67,1.45.41,1.59.83,3.24,1.25,4.88,1.69-.41,3.41-.82,5.27-1.27ZM178.18,260.86c-1.88.46-3.64.89-5.39,1.31.6,1.64,1.19,3.25,1.79,4.88,1.52-.48,3.18-1,4.76-1.49-.4-1.63-.77-3.14-1.15-4.71ZM199.14,281.37c1.64-.44,3.3-.89,4.85-1.31-.45-1.84-.87-3.55-1.29-5.26l-4.8,1.75c.39,1.52.82,3.17,1.24,4.81ZM147.17,279.31c.48,1.75.94,3.39,1.36,4.93,1.7-.46,3.38-.92,5-1.36-.4-1.61-.79-3.19-1.18-4.74-1.72.39-3.46.78-5.18,1.18ZM183.46,280.04c-1.62.41-3.26.83-5.09,1.29.59,1.61,1.19,3.25,1.77,4.84,1.58-.4,3.12-.79,4.64-1.18-.43-1.61-.86-3.2-1.33-4.95ZM192.06,293.54c1.6-.42,3.23-.84,4.85-1.26-.43-1.65-.87-3.29-1.3-4.93-1.63.42-3.25.85-4.88,1.27.43,1.59.86,3.18,1.33,4.92ZM195.26,323.79c-.44-1.67-.88-3.31-1.32-4.95-1.57.4-3.2.81-4.83,1.23.43,1.62.87,3.32,1.31,4.98,1.61-.42,3.17-.82,4.84-1.25ZM188.21,335.98c-.46-1.73-.89-3.36-1.31-4.98-1.63.43-3.26.86-4.88,1.29.41,1.59.84,3.25,1.28,4.92,1.54-.39,3.18-.8,4.91-1.23ZM188.52,299.53c-1.6.42-3.24.84-4.89,1.27.42,1.63.87,3.34,1.36,5.21,1.64-.6,3.2-1.17,4.73-1.73-.4-1.6-.8-3.18-1.2-4.75ZM176.86,313c.57,1.56,1.14,3.13,1.7,4.64,1.62-.41,3.15-.8,4.62-1.17-.46-1.74-.89-3.38-1.32-5.02-1.64.51-3.24,1.01-5,1.55ZM159.1,265.53c-1.5.55-3.07,1.12-4.63,1.69.43,1.64.86,3.31,1.31,5.03,1.47-.44,2.99-.89,4.41-1.31-.37-1.84-.72-3.59-1.09-5.42ZM204.25,264.08c.52,1.83,1.03,3.6,1.57,5.47,1.56-.57,3.12-1.14,4.52-1.65-.5-1.67-.96-3.21-1.4-4.69-1.6.29-3.1.57-4.69.87ZM165.73,290.32c-.42-1.63-.85-3.27-1.28-4.92-1.58.43-3.19.87-4.69,1.27.45,1.7.88,3.31,1.29,4.85,1.56-.4,3.04-.78,4.68-1.21ZM202.87,295.85c.43,1.65.87,3.35,1.31,5.02,1.69-.47,3.29-.91,4.82-1.33-.59-1.63-1.15-3.15-1.72-4.69-1.42.33-2.92.67-4.42,1.01ZM191.4,272.81c-.4-1.64-.78-3.23-1.19-4.89-1.5.41-3.02.82-4.53,1.23.45,1.72.89,3.35,1.32,4.98,1.5-.45,2.95-.89,4.4-1.33ZM171.54,293.95c.53,1.45,1.08,2.95,1.6,4.37,1.57-.38,3.06-.73,4.59-1.1-.43-1.44-.87-2.92-1.32-4.42-1.55.37-3.12.74-4.87,1.15ZM196.3,308.06c.38,1.59.77,3.18,1.16,4.82,1.41-.44,2.87-.89,4.35-1.35-.38-1.59-.76-3.17-1.14-4.79-1.45.44-2.91.87-4.38,1.32ZM176.1,328.65c-.47-1.52-.91-2.96-1.34-4.36-1.65.41-3.19.79-4.76,1.17.43,1.47.86,2.93,1.29,4.4,1.56-.39,3.12-.78,4.81-1.21ZM205.48,232.29c.63,1.73,1.27,3.47,1.91,5.24,1.17-.43,2.44-.89,3.76-1.38-.38-1.61-.73-3.1-1.07-4.55-1.55.23-3,.45-4.61.69ZM169.29,304.88c-1.27.46-2.54.93-3.76,1.37.37,1.61.71,3.1,1.05,4.61,1.47-.42,2.83-.81,4.19-1.2-.5-1.63-.98-3.17-1.48-4.79ZM194.06,339.52c.44,1.48.87,2.96,1.32,4.49,1.36-.5,2.72-.99,4.12-1.51-.29-1.41-.57-2.73-.85-4.06-1.54.36-2.96.69-4.59,1.08ZM202.47,331.86c1.33-.38,2.77-.79,4.32-1.24-.51-1.39-.98-2.69-1.49-4.09-1.37.28-2.75.55-4.13.83.44,1.53.85,2.95,1.3,4.5ZM216.48,255.27c-.38-1.5-.75-2.97-1.11-4.37-1.62.24-3.1.46-4.5.67l1.78,4.88c1.24-.38,2.52-.78,3.82-1.18ZM214.59,282.54c-1.7.42-3.2.8-4.72,1.18.54,1.49,1.02,2.78,1.47,4.02,1.55-.35,2.97-.67,4.44-1.01-.4-1.41-.78-2.74-1.19-4.19ZM214.78,302.86c.56,1.53,1.05,2.88,1.54,4.21,1.34-.49,2.53-.93,3.8-1.39-.34-1.3-.66-2.48-.96-3.63-1.52.28-2.88.54-4.37.82ZM180.73,347.36c-.33-1.57-.61-2.9-.89-4.25-1.56.49-3.01.94-4.45,1.38l1.41,3.85c1.31-.32,2.56-.63,3.93-.97ZM159.24,318.44c.38,1.51.72,2.84,1.07,4.21,1.34-.25,2.59-.48,3.85-.71-.46-1.6-.91-3.14-1.39-4.79l-3.53,1.29ZM209.64,318.99c1.34-.41,2.61-.8,3.94-1.21-.38-1.36-.7-2.51-1.02-3.66-1.51.44-2.86.82-4.25,1.23.46,1.25.87,2.39,1.33,3.65ZM153.68,299.01c.39,1.41.73,2.66,1.1,3.99,1.24-.26,2.41-.51,3.65-.77-.39-1.54-.77-3.01-1.16-4.53l-3.59,1.31ZM189.32,355.16c1.12-.31,2.15-.6,3.23-.9-.26-1.44-.47-2.61-.71-3.89-1.23.45-2.36.86-3.55,1.3.33,1.13.65,2.21,1.03,3.49Z"/>
      <path d="M124.82,241.15c-.2.42-.39.85-.59,1.27-2.5,2.29-5.33,3.27-8.68,2.12-.4-.18-.79-.36-1.19-.54-2.91-3.04-3.47-6.43-1.6-10.19l-.05.11c2.21-2,4.65-3.35,8.11-2.28-.6-.92-.99-1.44-1.31-2.01-1.6-2.78-1.34-5.86.68-8.08,1.98-2.18,5.3-2.77,7.92-1.4,2.63,1.37,4.02,4.27,3.52,7.35-.09.56-.14,1.12-.2,1.68,0,0,.06-.12.06-.12-2.14,2.72-4.71,4.46-9.01,3.42,2.97,2.78,3.17,5.62,2.33,8.66Z"/>
      <path d="M143.88,235.84c-.1.19-.2.38-.3.57-.6.56-1.16,1.16-1.79,1.66-3.54,2.83-8.98,1.55-10.4-2.77-.61-1.87.04-4.15.11-6.24,0,0-.06.12-.06.12,2.17-2.46,4.72-3.91,8.35-3.09-2.42-2.49-2.49-5.35-1.98-8.34l-.05.12c.37-.42.76-.82,1.12-1.26,2.16-2.6,5.55-3.32,8.39-1.78,2.74,1.49,4.15,4.84,3.28,7.84-.9,3.11-3.78,5.02-7.16,4.74-.46-.04-.91-.11-1.9-.24,2.97,2.62,3.06,5.55,2.37,8.66Z"/>
      <path d="M197.6,211.37c-.8-1.25-1.89-2.39-2.35-3.75-1.45-4.24,1.55-8.54,6.02-8.85.64-.04,1.28-.04,1.95-.06-2.31-6.11-2.06-8.1.98-10.38,1.44,9.61,2.91,19.38,4.35,28.97-1.91-1.35-2.04-3.8-2.16-6.55-2.93,2.34-5.89,1.88-8.89.58,0,0,.11.05.11.05Z"/>
      <path d="M172.95,229.12c-.36-.1-.72-.19-1.08-.29-2.6-2.3-3.75-5.12-3.1-8.6.18-.41.35-.82.53-1.23,1.32-.95,2.51-2.26,3.97-2.77,4.65-1.64,9.31,2.39,8.73,7.36-.1.81-.21,1.63-.32,2.44l-.14.18c-2.36,2.48-5.05,3.96-8.6,2.9Z"/>
      <path d="M200.82,221.24c-.24.29-.49.58-.73.87-2.47,2.13-5.31,2.77-8.48,2.03,0,0,.1.06.1.06-.33-.34-.64-.71-1-1.02-2.61-2.18-3.46-5.31-2.2-8.17,1.29-2.95,4.27-4.38,7.69-3.73.45.09.93.06,1.39.09,0,0-.11-.05-.1-.05,3.33,2.56,4.36,5.89,3.33,9.91Z"/>
      <path d="M112.76,233.81c-.38.4-.79.78-1.15,1.2-2.25,2.66-5.74,3.33-8.6,1.63-2.68-1.59-3.95-4.98-2.98-7.94,1.04-3.16,4.14-4.98,7.55-4.44.54.09,1.09.11,1.64.16l-.12-.05c3.3,2.4,4.52,5.58,3.6,9.57,0,0,.05-.11.05-.11Z"/>
      <path d="M169.31,219.01c-.18.41-.35.82-.53,1.23-.82.52-1.61,1.12-2.48,1.55-2.86,1.39-6.1.65-8.01-1.77-1.92-2.42-1.95-5.88-.06-8.3,1.86-2.4,5.24-3.17,7.99-1.83,2.75,1.34,4.23,4.4,3.59,7.48-.12.56-.33,1.1-.5,1.65Z"/>
      <path d="M84.97,229.99c3.46-1.29,7.12.39,8.45,3.87,1.37,3.58-.35,7.37-3.91,8.63-3.46,1.22-7.11-.53-8.38-4.03-1.27-3.5.4-7.19,3.84-8.47Z"/>
      <path d="M77.49,235.12c-3.48,1.3-7.14-.41-8.43-3.94-1.29-3.53.41-7.2,3.91-8.45,3.4-1.21,6.97.46,8.27,3.87,1.35,3.53-.28,7.23-3.75,8.52Z"/>
      <path d="M184.75,216.65c-3.47,1.29-7.12-.43-8.4-3.95-1.28-3.52.43-7.18,3.92-8.42,3.38-1.2,6.96.48,8.24,3.88,1.33,3.51-.3,7.21-3.76,8.49Z"/>
      <path d="M100.02,221.99c1.29,3.52-.44,7.21-3.95,8.43-3.39,1.18-6.96-.55-8.22-3.98-1.29-3.52.44-7.21,3.95-8.43,3.39-1.18,6.97.55,8.22,3.98Z"/>
      <path d="M109.23,224.41c-.69-.92-1.54-1.76-2.04-2.77-1.45-2.94-.56-6.35,1.99-8.18,2.46-1.76,5.95-1.53,8.19.56,2.25,2.09,2.77,5.53,1.23,8.19-1.54,2.66-4.67,3.83-7.65,2.85-.62-.2-1.22-.46-1.84-.7,0,0,.11.05.11.05Z"/>
      <path d="M176.56,201.54c1.2,3.39-.54,7.08-3.89,8.27-3.34,1.18-7.02-.61-8.22-4-1.2-3.39.54-7.08,3.89-8.27,3.34-1.18,7.02.61,8.22,4Z"/>
      <path d="M87.81,214.68c1.26,3.35-.41,7.09-3.72,8.33-3.31,1.24-7.02-.47-8.28-3.82-1.26-3.35.41-7.09,3.72-8.33,3.31-1.24,7.02.47,8.28,3.82Z"/>
      <path d="M137.82,217.76c-.44.36-.88.7-1.31,1.07-2.57,2.18-6.09,2.17-8.54-.03-2.37-2.13-2.89-5.7-1.21-8.37,1.74-2.76,5.27-3.78,8.21-2.36,2.94,1.42,4.36,4.75,3.39,7.96-.19.62-.39,1.24-.59,1.85,0,0,.05-.12.05-.12Z"/>
      <path d="M157.33,206.49c1.16,3.38-.65,7.12-3.99,8.23-3.35,1.11-7.05-.79-8.15-4.18-1.07-3.31.69-6.93,3.92-8.07,3.32-1.18,7.06.65,8.22,4.02Z"/>
      <path d="M187.37,192.23c3.29-1.18,7.1.68,8.23,4.02,1.1,3.27-.65,6.96-3.84,8.12-3.29,1.18-7.1-.68-8.23-4.02-1.1-3.27.65-6.96,3.84-8.12Z"/>
      <path d="M141.26,207.36c-3.21,1.1-6.93-.72-8.08-3.94-1.18-3.32.69-7.21,3.98-8.25,3.25-1.03,6.94.86,8.01,4.09,1.08,3.27-.72,7-3.91,8.09Z"/>
      <path d="M122.39,212.65c-3.13,1.21-6.9-.48-8.17-3.67-1.29-3.24.46-7.18,3.72-8.35,3.17-1.14,6.91.63,8.1,3.83,1.19,3.19-.49,6.97-3.64,8.19Z"/>
      <path d="M106.88,209.47c1.16,3.34-.71,7.17-4,8.22-3.24,1.04-6.9-.8-8.02-4.03-1.16-3.34.71-7.17,4-8.22,3.24-1.04,6.9.8,8.02,4.03Z"/>
      <path d="M68.67,220.06c1.22,3.19-.46,7-3.62,8.23-2.93,1.14-7.25-1.07-8.39-4.28-1-2.84.87-6.59,3.85-7.71,3.16-1.18,6.93.56,8.16,3.76Z"/>
      <path d="M164.24,194.17c1.23,3.2-.47,7-3.66,8.17-3.18,1.18-6.94-.61-8.09-3.84-1.12-3.16.5-6.79,3.58-8.02,3.14-1.25,6.93.46,8.16,3.68Z"/>
      <path d="M105.84,193.4c3.21-1.14,6.95.68,8.06,3.92,1.12,3.27-.69,7.02-3.9,8.07-3.16,1.04-6.74-.71-7.91-3.85-1.19-3.22.54-7.01,3.74-8.15Z"/>
      <path d="M94.81,202.69c1.13,3.27-.65,6.98-3.86,8.05-3.25,1.08-6.92-.79-7.96-4.05-1.03-3.21.68-6.77,3.79-7.89,3.21-1.15,6.91.64,8.04,3.89Z"/>
      <path d="M75.54,207.41c1.24,3.2-.45,6.99-3.64,8.18-3.18,1.18-6.94-.59-8.1-3.83-1.13-3.15.49-6.79,3.57-8.02,3.13-1.26,6.93.45,8.17,3.67Z"/>
      <path d="M179.25,197.06c-3.18,1.25-6.92-.47-8.11-3.73-1.16-3.17.44-6.78,3.56-8,3.18-1.25,6.92.47,8.11,3.73,1.16,3.17-.44,6.78-3.56,8Z"/>
      <path d="M202.14,184.52c.99,3.38-.94,6.92-4.25,7.81-3.28.88-6.67-1.02-7.62-4.26-.99-3.38.94-6.92,4.25-7.81,3.28-.88,6.67,1.02,7.62,4.26Z"/>
      <path d="M132.99,192.35c1.21,3.28-.49,6.91-3.75,8.03-3.18,1.09-6.65-.59-7.83-3.78-1.21-3.28.49-6.91,3.75-8.03,3.18-1.09,6.65.59,7.83,3.78Z"/>
      <path d="M151.51,187.13c1.22,3.26-.32,6.72-3.53,7.93-3.22,1.21-6.66-.38-7.88-3.64-1.22-3.26.32-6.72,3.53-7.93,3.22-1.21,6.66.38,7.88,3.64Z"/>
      <path d="M162.88,178.59c3.22-1.19,6.65.41,7.86,3.67,1.21,3.27-.35,6.72-3.57,7.91-3.23,1.19-6.65-.41-7.86-3.67-1.21-3.27.35-6.72,3.57-7.91Z"/>
      <path d="M63.48,200.78c1.18,3.28-.42,6.71-3.65,7.87-3.23,1.16-6.65-.48-7.82-3.76-1.18-3.28.42-6.71,3.65-7.87,3.23-1.16,6.65.48,7.82,3.76Z"/>
      <path d="M182.35,173.19c3.16-.98,6.38.74,7.45,3.99,1.09,3.29-.64,6.61-3.97,7.65-3.25,1.01-6.53-.84-7.52-4.23-.94-3.2.81-6.4,4.04-7.41Z"/>
      <path d="M120.28,185.52c1.05,3.15-.59,6.49-3.72,7.56-3.21,1.1-6.59-.67-7.64-3.98-1-3.16.71-6.46,3.88-7.48,3.12-1.01,6.42.71,7.48,3.9Z"/>
      <path d="M82.45,195.43c1.18,3.27-.39,6.64-3.64,7.79-3.23,1.14-6.56-.52-7.7-3.82-1.1-3.18.44-6.47,3.57-7.63,3.22-1.2,6.59.39,7.78,3.66Z"/>
      <path d="M139.49,180.53c1.1,3.17-.48,6.51-3.62,7.63-3.22,1.15-6.61-.56-7.7-3.88-1.04-3.17.61-6.48,3.78-7.55,3.13-1.06,6.44.61,7.54,3.8Z"/>
      <path d="M101.64,190.48c1.21,3.27-.36,6.66-3.61,7.81-3.14,1.1-6.43-.47-7.6-3.64-1.21-3.27.36-6.66,3.61-7.81,3.14-1.1,6.43.47,7.6,3.64Z"/>
      <path d="M43.6,189.9c3.07-1.1,6.49.55,7.6,3.66,1.11,3.11-.49,6.55-3.56,7.65-3.07,1.1-6.49-.55-7.6-3.66-1.11-3.11.49-6.55,3.56-7.65Z"/>
      <path d="M196.72,164.83c1.1,3.07-.58,6.62-3.63,7.64-2.97.99-6.36-.68-7.43-3.65-1.1-3.07.58-6.62,3.63-7.64,2.97-.99,6.36.68,7.43,3.65Z"/>
      <path d="M177.68,170.21c1.11,3.09-.58,6.63-3.64,7.65-2.98.99-6.37-.68-7.44-3.67-1.11-3.09.58-6.63,3.64-7.65,2.98-.99,6.37.68,7.44,3.67Z"/>
      <path d="M107.99,177.96c1.18,3.05-.42,6.63-3.46,7.73-2.95,1.07-6.38-.51-7.53-3.48-1.18-3.05.42-6.63,3.46-7.73,2.95-1.07,6.38.51,7.53,3.48Z"/>
      <path d="M69.74,188.24c1.18,3.09-.37,6.6-3.43,7.73-3.06,1.14-6.53-.5-7.65-3.61-1.09-3.02.42-6.41,3.36-7.57,3.04-1.2,6.54.37,7.72,3.45Z"/>
      <path d="M88.98,183.44c1.12,3.08-.55,6.63-3.61,7.66-2.98,1.01-6.37-.64-7.46-3.63-1.12-3.08.55-6.63,3.61-7.66,2.98-1.01,6.37.64,7.46,3.63Z"/>
      <path d="M158.45,175.08c1.12,3.08-.5,6.59-3.55,7.66-3.05,1.08-6.52-.63-7.58-3.73-1.03-3.01.54-6.39,3.48-7.5,3.03-1.14,6.53.49,7.65,3.57Z"/>
      <path d="M50.14,178c2.91-1.13,6.39.43,7.58,3.38,1.21,3.01-.41,6.66-3.44,7.75-2.94,1.06-6.39-.57-7.5-3.54-1.11-2.96.44-6.45,3.36-7.59Z"/>
      <path d="M127.2,173.21c1.07,2.98-.53,6.45-3.46,7.51-2.94,1.06-6.39-.59-7.47-3.56-1.07-2.98.53-6.45,3.46-7.51,2.94-1.06,6.39.59,7.47,3.56Z"/>
      <path d="M146.29,168.01c.98,3.05-.75,6.48-3.73,7.39-3.04.93-6.42-.88-7.3-3.9-.88-3,.77-6.27,3.64-7.23,2.98-1,6.43.75,7.39,3.74Z"/>
      <path d="M73.15,183.72c-3.01.96-6.39-.8-7.31-3.81-.94-3.07.8-6.44,3.78-7.31,2.96-.86,6.18.81,7.16,3.72,1.01,3.03-.67,6.45-3.63,7.4Z"/>
      <path d="M165.47,163.04c1.03,3.01-.65,6.47-3.61,7.43-3,.98-6.41-.78-7.35-3.79-.93-2.97.67-6.25,3.53-7.27,2.96-1.05,6.41.64,7.42,3.63Z"/>
      <path d="M88.61,167.83c2.99-1.06,6.36.61,7.36,3.65.98,2.98-.58,6.22-3.48,7.25-2.99,1.06-6.37-.61-7.36-3.65-.98-2.98.58-6.22,3.48-7.25Z"/>
      <path d="M180.87,165.01c-2.96.97-6.15-.65-7.17-3.64-1.05-3.09.62-6.39,3.7-7.32,3-.9,6.14.77,7.08,3.78.95,3.02-.66,6.21-3.61,7.17Z"/>
      <path d="M134.13,161.02c1.11,2.97-.31,6.19-3.23,7.32-3.01,1.16-6.32-.39-7.39-3.48-1.05-2.99.44-6.18,3.39-7.24,2.94-1.06,6.12.43,7.24,3.4Z"/>
      <path d="M114.94,166.08c1.04,3.02-.49,6.19-3.48,7.22-2.98,1.02-6.14-.55-7.18-3.58-1.04-3.02.49-6.19,3.48-7.22,2.98-1.02,6.14.55,7.18,3.58Z"/>
      <path d="M153.1,155.69c1.12,3.02-.3,6.16-3.29,7.24-2.98,1.08-6.09-.43-7.16-3.47-1.03-2.93.36-5.99,3.22-7.09,2.97-1.14,6.11.3,7.24,3.31Z"/>
      <path d="M195.97,149.48c2.99-1.05,6.12.5,7.16,3.55,1.04,3.04-.51,6.16-3.54,7.17-2.91.96-5.94-.54-7-3.48-1.1-3.03.37-6.18,3.38-7.24Z"/>
      <path d="M64.59,169.58c1.05,3.02-.48,6.11-3.52,7.1-2.89.94-5.88-.59-6.91-3.54-1.05-3.02.48-6.11,3.52-7.1,2.89-.94,5.88.59,6.91,3.54Z"/>
      <path d="M164.8,147.62c2.99-1.06,6.08.49,7.11,3.56.99,2.94-.48,5.96-3.39,7-2.99,1.06-6.08-.49-7.11-3.56-.99-2.94.48-5.96,3.39-7Z"/>
      <path d="M102.78,159.2c1.08,2.91-.33,6.02-3.2,7.08-2.87,1.06-5.97-.38-7.04-3.29-1.08-2.91.33-6.02,3.2-7.08,2.87-1.06,5.97.38,7.04,3.29Z"/>
      <path d="M42.08,181.52c-3,1.1-6.1-.4-7.16-3.47-1.02-2.95.4-5.98,3.3-7.05,3-1.1,6.1.4,7.16,3.47,1.02,2.95-.4,5.98-3.3,7.05Z"/>
      <path d="M73.15,167.53c-.91-2.95.67-5.93,3.65-6.87,3-.95,6.04.76,6.95,3.9.85,2.95-.81,5.9-3.8,6.79-2.91.86-5.86-.8-6.79-3.82Z"/>
      <path d="M187.72,152.74c-2.97,1.14-6.09-.31-7.19-3.34-1.06-2.93.31-5.98,3.17-7.07,2.97-1.14,6.09.31,7.18,3.34,1.06,2.93-.31,5.98-3.17,7.07Z"/>
      <path d="M52.37,162.29c1.01,2.87-.51,6.03-3.36,7-2.85.96-5.98-.64-6.92-3.53-.91-2.8.55-5.84,3.29-6.84,2.83-1.03,5.98.49,6.99,3.37Z"/>
      <path d="M121.84,153.93c1.01,2.88-.5,6.03-3.36,7-2.85.96-5.97-.63-6.92-3.53-.92-2.81.55-5.85,3.29-6.84,2.84-1.03,5.98.49,7,3.37Z"/>
      <path d="M137.33,156.16c-2.84,1.01-6.03-.56-6.99-3.46-.93-2.81.54-5.89,3.29-6.87,2.84-1.01,6.03.56,6.99,3.46.93,2.81-.55,5.89-3.29,6.87Z"/>
      <path d="M171.82,135.65c2.67-1.03,5.9.43,6.95,3.15,1.04,2.7-.38,5.95-3.06,6.99-2.67,1.03-5.9-.43-6.95-3.15-1.04-2.7.38-5.95,3.06-6.99Z"/>
      <path d="M149.4,147.29c-.93-2.88.71-6.07,3.56-6.91,2.78-.82,5.82.8,6.72,3.57.93,2.88-.71,6.07-3.56,6.91-2.78.82-5.82-.8-6.72-3.57Z"/>
      <path d="M71.36,156.86c1,2.74-.42,5.92-3.12,6.95-2.77,1.06-6.07-.52-7.03-3.36-.93-2.76.57-5.92,3.28-6.87,2.72-.96,5.86.55,6.87,3.29Z"/>
      <path d="M53.05,221.05c-2.65-3.17-5.23-6.26-7.79-9.31,1.66-2.64,3.92-3.66,6.66-3.08,2.63.55,4.71,2.76,5.12,5.43.43,2.85-.86,5.21-3.99,6.96Z"/>
      <path d="M86.99,159.05c-2.66,1.01-5.89-.47-6.92-3.18-1.03-2.7.41-5.94,3.09-6.96,2.66-1.01,5.89.47,6.92,3.18,1.03,2.7-.41,5.94-3.09,6.96Z"/>
      <path d="M33.21,151.79c2.66-1.03,5.87.45,6.88,3.17,1.01,2.71-.46,5.93-3.16,6.89-2.61.93-5.67-.48-6.73-3.09-1.08-2.67.33-5.93,3-6.96Z"/>
      <path d="M197.79,133.53c1,2.72-.49,5.93-3.18,6.88-2.7.95-5.88-.62-6.8-3.35-.9-2.67.52-5.73,3.11-6.72,2.66-1.02,5.87.47,6.87,3.19Z"/>
      <path d="M55.71,157.08c-2.71.97-5.89-.59-6.8-3.35-.89-2.69.57-5.74,3.18-6.68,2.71-.97,5.89.59,6.8,3.35.89,2.69-.57,5.74-3.18,6.68Z"/>
      <path d="M106.02,153.64c-2.67,1.01-5.89-.5-6.87-3.22-.99-2.72.52-5.95,3.21-6.88,2.62-.91,5.69.53,6.72,3.15,1.06,2.68-.37,5.94-3.05,6.95Z"/>
      <path d="M128.33,141.89c1,2.72-.49,5.93-3.18,6.88-2.7.95-5.88-.62-6.8-3.35-.9-2.67.52-5.73,3.11-6.72,2.66-1.02,5.87.47,6.87,3.19Z"/>
      <path d="M206.14,168.64c-.38,3.37-.82,6.59-1.06,9.83-.12,1.59-.83,1.96-2.21,1.8-2.52-.3-4.3-1.58-5.22-3.98-.92-2.4-.55-4.63,1.23-6.43,1.97-2,4.34-2.47,7.26-1.22Z"/>
      <path d="M147.29,136.56c.98,2.69-.37,5.69-3.01,6.7-2.73,1.04-5.83-.45-6.78-3.25-.92-2.72.5-5.69,3.17-6.62,2.67-.94,5.64.49,6.62,3.18Z"/>
      <path d="M77.85,144.87c1,2.66-.37,5.75-2.99,6.77-2.7,1.05-5.89-.46-6.85-3.23-.93-2.7.51-5.75,3.15-6.69,2.65-.95,5.69.49,6.69,3.16Z"/>
      <path d="M46.44,142.97c1.03,2.68-.16,5.49-2.77,6.52-2.74,1.08-5.59-.22-6.6-3.01-.97-2.69.28-5.46,2.93-6.45,2.66-.99,5.42.27,6.44,2.93Z"/>
      <path d="M109.5,131.64c2.74-1,5.55.38,6.51,3.19.92,2.7-.37,5.43-3.03,6.39-2.75,1-5.55-.38-6.51-3.19-.92-2.7.37-5.43,3.03-6.39Z"/>
      <path d="M185.51,126.34c1,2.77-.36,5.66-3.11,6.62-2.74.95-5.6-.48-6.54-3.27-.91-2.69.4-5.48,3.03-6.46,2.72-1.02,5.62.35,6.62,3.11Z"/>
      <path d="M201.61,127.97c-2.67.94-5.42-.38-6.4-3.09-1.02-2.79.35-5.64,3.16-6.56,2.68-.88,5.39.51,6.33,3.25.93,2.71-.39,5.45-3.08,6.4Z"/>
      <path d="M203.19,137.76c2.73-.98,5.63.42,6.59,3.2.97,2.77-.44,5.67-3.19,6.6-2.65.89-5.44-.46-6.44-3.13-1.03-2.76.3-5.69,3.03-6.67Z"/>
      <path d="M151.24,130.93c-2.66.96-5.41-.34-6.41-3.02-1.04-2.78.3-5.62,3.09-6.57,2.66-.9,5.38.47,6.33,3.18.94,2.7-.35,5.44-3.01,6.41Z"/>
      <path d="M166.44,131.74c.99,2.77-.37,5.63-3.13,6.58-2.73.94-5.57-.5-6.5-3.29-.9-2.69.42-5.45,3.06-6.42,2.73-1,5.58.36,6.57,3.13Z"/>
      <path d="M132.23,136.28c-2.66.98-5.41-.29-6.43-2.96-1.06-2.78.26-5.63,3.03-6.59,2.66-.92,5.39.42,6.36,3.12.96,2.69-.3,5.45-2.95,6.43Z"/>
      <path d="M93.94,146.64c-2.73.99-5.58-.38-6.56-3.16-.98-2.77.4-5.62,3.15-6.56,2.65-.9,5.4.43,6.4,3.09,1.04,2.76-.26,5.64-3,6.64Z"/>
      <path d="M25.63,172.76c-.72-2.72-1.32-4.51-1.62-6.35-.1-.6.43-1.53.95-1.95,1.77-1.43,4.52-1.26,6.39.22,1.88,1.49,2.59,3.99,1.78,6.24-.81,2.24-3.07,3.91-5.32,3.45-1.01-.2-1.85-1.34-2.18-1.61Z"/>
      <path d="M191.99,114.42c.93,2.63-.48,5.54-3.1,6.39-2.53.82-5.3-.57-6.19-3.11-.93-2.63.48-5.54,3.1-6.39,2.53-.82,5.3.57,6.19,3.11Z"/>
      <path d="M65.62,138.09c1.02,2.65-.24,5.52-2.86,6.5-2.62.98-5.46-.35-6.42-3.02-.93-2.57.29-5.34,2.79-6.34,2.6-1.04,5.48.23,6.49,2.86Z"/>
      <path d="M173.37,119.46c1.02,2.65-.24,5.52-2.86,6.5-2.62.98-5.46-.35-6.42-3.02-.93-2.57.29-5.34,2.79-6.34,2.6-1.04,5.48.23,6.49,2.86Z"/>
      <path d="M78.31,129.86c2.47-.93,5.35.37,6.33,2.87,1.01,2.59-.35,5.6-2.94,6.49-2.5.87-5.35-.51-6.26-3.03-.91-2.52.39-5.4,2.87-6.33Z"/>
      <path d="M97.76,124.88c2.51-.8,5.34.66,6.18,3.17.87,2.62-.64,5.58-3.24,6.33-2.53.73-5.33-.8-6.1-3.33-.77-2.55.68-5.39,3.16-6.17Z"/>
      <path d="M116.83,119.53c2.49-.79,5.33.68,6.16,3.16.86,2.6-.66,5.58-3.24,6.31-2.52.72-5.33-.81-6.08-3.32-.76-2.53.7-5.38,3.16-6.16Z"/>
      <path d="M72.48,125.68c.85,2.51-.6,5.43-3.07,6.19-2.42.74-5.18-.68-6-3.08-.85-2.51.6-5.43,3.07-6.19,2.42-.74,5.18.68,6,3.08Z"/>
      <path d="M135.78,114.78c2.4-.96,5.38.38,6.32,2.85.94,2.45-.41,5.43-2.85,6.32-2.35.86-5.18-.42-6.16-2.77-1-2.41.27-5.43,2.69-6.39Z"/>
      <path d="M157.74,118.72c-2.48.84-5.36-.64-6.13-3.15-.75-2.45.61-5.21,2.99-6.01,2.48-.84,5.36.64,6.13,3.15.75,2.46-.61,5.21-2.99,6.01Z"/>
      <path d="M173.71,104.71c2.44-.91,5.36.49,6.21,2.99.82,2.42-.47,5.2-2.83,6.09-2.44.91-5.36-.49-6.21-2.99-.82-2.42.47-5.2,2.83-6.09Z"/>
      <path d="M53.42,131.05c.85,2.51-.6,5.44-3.07,6.19-2.42.74-5.18-.68-6-3.08-.85-2.51.6-5.44,3.07-6.19,2.42-.74,5.18.68,6,3.08Z"/>
      <path d="M211.12,109.46c.93,2.47-.43,5.45-2.89,6.33-2.46.88-5.4-.55-6.25-3.05-.83-2.42.46-5.25,2.81-6.17,2.42-.95,5.4.41,6.33,2.89Z"/>
      <path d="M31.44,142.08c-2.41.95-5.38-.4-6.32-2.87-.93-2.46.42-5.44,2.87-6.32,2.36-.85,5.19.43,6.16,2.8,1,2.42-.28,5.43-2.71,6.39Z"/>
      <path d="M91.54,120.68c.94,2.47-.25,5.16-2.69,6.09-2.44.93-5.11-.3-6.05-2.77-.94-2.47.25-5.16,2.69-6.09,2.44-.93,5.11.3,6.05,2.77Z"/>
      <path d="M29.61,183.7c3.4-1.94,6.65-1.19,8.45,1.65,1.67,2.64.85,6.35-1.79,8.09-.95.62-1.93,1.11-2.59-.39-1.35-3.07-2.68-6.15-4.07-9.36Z"/>
      <path d="M107.94,121.31c-2.47.97-5.08-.2-6.02-2.71-.95-2.51.22-5.12,2.71-6.02,2.39-.87,4.9.25,5.87,2.63,1.01,2.49-.1,5.14-2.55,6.1Z"/>
      <path d="M57.58,124.73c-2.41.89-4.9-.26-5.82-2.69-.96-2.52.24-5.11,2.76-5.98,2.42-.83,4.88.39,5.75,2.85.87,2.45-.28,4.93-2.69,5.82Z"/>
      <path d="M198.8,102.41c.87,2.54-.42,5.1-2.98,5.91-2.43.76-4.87-.51-5.72-2.98-.87-2.54.42-5.1,2.98-5.91,2.43-.76,4.87.51,5.72,2.98Z"/>
      <path d="M148.34,105.4c.85,2.45-.33,4.93-2.74,5.79-2.5.9-5.05-.39-5.88-2.98-.79-2.45.46-4.9,2.9-5.72,2.41-.8,4.87.44,5.72,2.9Z"/>
      <path d="M123.39,107.9c2.49-.92,5.05.32,5.92,2.87.84,2.44-.32,4.92-2.72,5.8-2.49.92-5.05-.32-5.92-2.87-.84-2.44.32-4.92,2.72-5.8Z"/>
      <path d="M38.33,129.74c-2.49.88-5.08-.39-5.95-2.93-.86-2.53.41-5.12,2.93-5.94,2.42-.79,4.89.43,5.79,2.86.93,2.52-.28,5.13-2.77,6.02Z"/>
      <path d="M76.07,119.52c-2.39.83-4.88-.41-5.73-2.84-.84-2.42.36-4.93,2.76-5.76,2.39-.83,4.88.41,5.73,2.84.84,2.42-.36,4.93-2.76,5.76Z"/>
      <path d="M29.12,117.03c.85,2.46-.33,4.95-2.75,5.82-2.27.82-4.95-.3-5.57-2.32-.77-2.52.51-5.73,2.57-6.42,2.43-.81,4.9.44,5.75,2.91Z"/>
      <path d="M180.8,92.37c2.33-.85,4.96.45,5.75,2.83.76,2.29-.44,4.82-2.68,5.63-2.33.85-4.96-.45-5.75-2.83-.76-2.29.44-4.82,2.68-5.63Z"/>
      <path d="M167.49,100.48c.85,2.4-.37,4.96-2.76,5.77-2.37.81-4.91-.49-5.7-2.92-.76-2.32.42-4.78,2.69-5.61,2.36-.87,4.92.35,5.77,2.76Z"/>
      <path d="M61.01,104.27c2.18-.86,4.83.32,5.71,2.54.87,2.21-.27,4.88-2.47,5.75-2.18.86-4.83-.31-5.71-2.54-.87-2.21.27-4.88,2.47-5.75Z"/>
      <path d="M117.06,103.45c.86,2.41-.38,5-2.78,5.8-2.3.76-4.77-.47-5.6-2.79-.86-2.41.38-5,2.78-5.8,2.3-.76,4.77.47,5.6,2.79Z"/>
      <path d="M133.58,104.27c-2.26.79-4.85-.48-5.64-2.75-.8-2.28.43-4.89,2.68-5.68,2.26-.79,4.85.48,5.64,2.75.8,2.28-.43,4.89-2.68,5.68Z"/>
      <path d="M205.77,90.28c.8,2.38-.52,5-2.89,5.72-2.27.69-4.76-.61-5.53-2.89-.8-2.38.52-5,2.89-5.72,2.27-.69,4.76.6,5.53,2.89Z"/>
      <path d="M92.22,106.09c2.36-.88,4.92.32,5.79,2.72.86,2.4-.34,4.96-2.73,5.79-2.28.79-4.75-.37-5.63-2.65-.92-2.38.21-4.98,2.57-5.86Z"/>
      <path d="M21.65,155.28c-.39-2.8-.76-5.58-1.15-8.35-.19-1.35.38-1.95,1.72-2.02,2.17-.11,3.83.71,4.96,2.58,1.08,1.79,1.07,3.65,0,5.39-1.23,2.02-3.06,2.82-5.53,2.39Z"/>
      <path d="M47.56,111.91c.76,2.26-.51,4.88-2.73,5.62-2.23.75-4.83-.56-5.58-2.81-.76-2.26.51-4.87,2.73-5.62,2.23-.75,4.83.56,5.58,2.81Z"/>
      <path d="M155.27,93.21c.8,2.25-.45,4.91-2.68,5.66-2.24.76-4.87-.58-5.59-2.83-.7-2.19.49-4.7,2.6-5.5,2.2-.83,4.86.43,5.66,2.67Z"/>
      <path d="M174.45,88.21c.86,2.2-.34,4.89-2.53,5.71-2.19.81-4.85-.45-5.64-2.68-.76-2.15.37-4.7,2.46-5.55,2.15-.88,4.85.31,5.71,2.53Z"/>
      <path d="M104.84,96.61c.86,2.19-.24,4.71-2.43,5.52-2.18.82-4.66-.35-5.45-2.58-.76-2.13.28-4.52,2.35-5.36,2.15-.88,4.67.22,5.53,2.42Z"/>
      <path d="M85.69,101.65c.77,2.21-.41,4.69-2.58,5.44-2.18.76-4.64-.46-5.41-2.65-.77-2.21.41-4.69,2.58-5.44,2.18-.76,4.64.46,5.41,2.65Z"/>
      <path d="M193.41,82.9c.83,2.17-.29,4.72-2.44,5.54-2.14.82-4.67-.34-5.51-2.51-.83-2.17.29-4.72,2.44-5.54,2.14-.82,4.68.34,5.51,2.51Z"/>
      <path d="M213.32,125.18c-.51,3.63-1,7.08-1.48,10.52-3.27-.13-5.4-2.45-5.23-5.58.19-3.39,2.84-5.44,6.72-4.95Z"/>
      <path d="M137.68,84.02c2.15-.85,4.43.14,5.31,2.28.92,2.26-.12,4.65-2.37,5.47-2.16.79-4.41-.26-5.24-2.44-.83-2.19.16-4.47,2.29-5.31Z"/>
      <path d="M123.83,91.45c.76,2.2-.29,4.42-2.45,5.2-2.25.81-4.55-.36-5.29-2.68-.7-2.2.42-4.4,2.61-5.13,2.17-.72,4.37.39,5.14,2.6Z"/>
      <path d="M49.21,97.26c2.17-.74,4.37.37,5.12,2.59.75,2.2-.33,4.41-2.52,5.15-2.17.74-4.37-.37-5.12-2.59-.75-2.2.33-4.41,2.52-5.15Z"/>
      <path d="M211.93,78.05c.89,2.42-.03,4.66-2.26,5.5-2.15.81-4.42-.2-5.27-2.36-.89-2.27.17-4.63,2.44-5.42,2.09-.73,4.35.28,5.08,2.28Z"/>
      <path d="M32.62,109.77c-2,.71-4.31-.4-5.03-2.42-.72-2.03.36-4.35,2.35-5.06,2-.71,4.31.4,5.03,2.42.72,2.03-.36,4.35-2.35,5.06Z"/>
      <path d="M180.72,76.3c.85,2.16-.17,4.48-2.32,5.26-2.06.75-4.25-.25-5.07-2.31-.85-2.16.17-4.48,2.32-5.26,2.06-.75,4.25.25,5.07,2.31Z"/>
      <path d="M109.25,89.22c-1.98.74-4.27-.3-5.05-2.3-.82-2.09.29-4.5,2.38-5.21,2.01-.68,4.26.43,4.98,2.46.72,2.03-.32,4.31-2.31,5.05Z"/>
      <path d="M61.27,87.54c.77,1.98-.26,4.35-2.23,5.11-1.96.76-4.31-.3-5.08-2.29-.77-1.98.26-4.35,2.23-5.11,1.96-.76,4.31.3,5.08,2.29Z"/>
      <path d="M87.35,87.1c2.05-.79,4.27.17,5.11,2.21.89,2.14-.09,4.49-2.21,5.31-2.14.82-4.43-.25-5.2-2.44-.74-2.09.26-4.29,2.3-5.07Z"/>
      <path d="M199.77,70.96c.83,2.13-.22,4.46-2.34,5.22-2.03.72-4.24-.3-5.03-2.33-.83-2.13.22-4.46,2.34-5.22,2.03-.72,4.24.3,5.03,2.33Z"/>
      <path d="M73.31,94.38c.8,2.17-.25,4.43-2.4,5.19-2.15.76-4.38-.36-5.12-2.55-.7-2.09.3-4.25,2.33-5.03,2.13-.82,4.39.22,5.19,2.39Z"/>
      <path d="M156.87,78.7c2.16-.79,4.4.29,5.17,2.49.77,2.19-.31,4.43-2.5,5.16-2.08.7-4.22-.33-5.01-2.42-.83-2.18.18-4.45,2.34-5.24Z"/>
      <path d="M130.75,79.28c.71,1.99-.42,4.38-2.39,5.04-1.98.67-4.34-.54-4.98-2.54-.61-1.93.46-4.18,2.32-4.88,1.95-.73,4.34.4,5.05,2.38Z"/>
      <path d="M144.45,71.68c1.98-.64,4.35.61,4.92,2.61.56,1.95-.6,4.19-2.47,4.8-1.98.64-4.35-.61-4.92-2.61-.56-1.95.6-4.19,2.47-4.8Z"/>
      <path d="M166.06,74.19c-1.92.58-4.17-.6-4.78-2.51-.65-2.02.6-4.39,2.6-4.92,1.96-.51,4.15.73,4.7,2.65.55,1.96-.63,4.2-2.51,4.77Z"/>
      <path d="M75.34,79.94c1.87-.69,4.18.37,4.91,2.26.77,1.97-.37,4.42-2.35,5.07-1.9.62-4.18-.52-4.84-2.42-.66-1.91.4-4.22,2.27-4.91Z"/>
      <path d="M39.55,97.56c-1.92.58-4.18-.6-4.8-2.51-.66-2.03.6-4.41,2.6-4.93,1.96-.51,4.17.73,4.71,2.66.56,1.96-.63,4.22-2.52,4.78Z"/>
      <path d="M94.03,75.33c1.89-.77,4.16.24,4.91,2.18.74,1.93-.27,4.2-2.2,4.9-1.83.67-3.98-.28-4.75-2.1-.81-1.9.14-4.21,2.04-4.98Z"/>
      <path d="M182.68,61.65c1.89-.7,3.9.21,4.66,2.09.8,1.98-.13,4.12-2.1,4.85-1.98.73-4.07-.3-4.75-2.33-.64-1.93.3-3.92,2.19-4.62Z"/>
      <path d="M115.73,76.94c-1.99.71-4.03-.33-4.69-2.37-.62-1.94.33-3.89,2.24-4.56,1.99-.71,4.03.33,4.69,2.37.62,1.94-.33,3.88-2.24,4.56Z"/>
      <path d="M135.1,71.98c-1.9.76-3.91-.09-4.7-1.99-.84-2.01.07-4.12,2.08-4.85,1.92-.7,3.89.21,4.63,2.15.74,1.94-.11,3.94-2.01,4.69Z"/>
      <path d="M67.62,75.92c.58,1.86-.38,3.74-2.2,4.37-1.92.66-3.89-.37-4.5-2.34-.6-1.94.48-3.91,2.44-4.44,1.84-.5,3.69.54,4.27,2.41Z"/>
      <path d="M48.8,80.56c.62,1.84-.31,3.78-2.12,4.42-1.9.67-3.92-.37-4.52-2.33-.56-1.85.44-3.76,2.27-4.35,1.82-.58,3.74.41,4.36,2.25Z"/>
      <path d="M156.07,62.02c.69,1.92-.27,3.93-2.2,4.55-1.82.59-3.71-.35-4.37-2.18-.69-1.92.27-3.93,2.2-4.55,1.82-.59,3.71.35,4.37,2.18Z"/>
      <path d="M206.49,59.11c.62,1.84-.31,3.78-2.12,4.42-1.9.67-3.92-.37-4.52-2.33-.56-1.85.44-3.76,2.27-4.35,1.82-.58,3.74.41,4.36,2.25Z"/>
      <path d="M213.98,103.83c-3.19-.33-4.98-1.95-5.19-4.37-.23-2.6,1.19-4.47,4.47-5.44.24,3.32.48,6.53.72,9.81Z"/>
      <path d="M194.33,51.8c.62,1.79-.3,3.78-2.05,4.42-1.84.68-3.93-.36-4.52-2.26-.56-1.8.44-3.77,2.21-4.35,1.77-.58,3.74.4,4.36,2.19Z"/>
      <path d="M175.23,57.04c.69,1.76-.15,3.79-1.88,4.51-1.81.75-3.93-.21-4.6-2.09-.63-1.78.28-3.78,2.03-4.43,1.75-.65,3.75.25,4.44,2.01Z"/>
      <path d="M82.13,68.27c1.77-.64,3.74.28,4.42,2.06.71,1.87-.27,3.97-2.15,4.57-1.78.58-3.73-.42-4.35-2.22-.62-1.8.31-3.77,2.08-4.41Z"/>
      <path d="M124.69,60.1c.65,1.66-.23,3.68-1.88,4.32-1.64.64-3.65-.26-4.29-1.93-.65-1.66.23-3.68,1.88-4.32,1.64-.64,3.65.27,4.3,1.93Z"/>
      <path d="M105.77,65.55c.61,1.76-.4,3.84-2.15,4.41-1.75.57-3.88-.5-4.32-2.29-.48-1.94.22-3.45,2.06-4.22,1.69-.72,3.8.35,4.41,2.11Z"/>
      <path d="M139.75,53.24c1.67-.57,3.63.4,4.2,2.08.58,1.69-.37,3.66-2.03,4.23-1.67.57-3.63-.4-4.2-2.08-.58-1.69.37-3.66,2.03-4.23Z"/>
      <path d="M162.91,50.03c.45,1.92-.17,3.31-1.98,4.01-1.72.67-3.63-.35-4.08-2.17-.47-1.92.28-3.33,2.12-3.9,1.86-.57,3.18.28,3.94,2.05Z"/>
      <path d="M74.21,63.4c.46,1.66-.07,3.06-1.85,3.82-1.7.73-3.59-.17-4.12-1.97-.55-1.88.13-3.25,1.92-3.95,1.64-.64,3.35.22,4.05,2.09Z"/>
      <path d="M181.95,44.82c.61,1.98.16,3.45-1.66,4.18-1.79.72-3.26.12-4-1.71-.73-1.81-.14-3.28,1.65-4.03,1.81-.76,3.14.02,4.01,1.56Z"/>
      <path d="M55.13,68.8c.39,1.89-.26,3.28-2.11,3.83-1.87.55-3.25-.25-3.81-2.12-.57-1.89.22-3.28,2.06-3.83,1.87-.57,3.14.31,3.86,2.12Z"/>
      <path d="M131.55,48.14c.38,1.78-.11,3.19-1.86,3.78-1.74.59-3.14-.1-3.74-1.85-.61-1.75.07-3.16,1.8-3.76,1.75-.61,3,.19,3.81,1.83Z"/>
      <path d="M89.11,56.54c1.98-.58,3.43-.11,4.14,1.76.7,1.85.05,3.28-1.78,3.96-1.71.64-3.09.02-3.82-1.68-.79-1.84-.03-3.16,1.46-4.04Z"/>
      <path d="M112.37,52.96c.49,1.88-.03,3.32-1.89,3.95-1.85.63-3.25-.11-3.87-1.97-.59-1.75.06-3.12,1.77-3.78,1.83-.7,3.15.04,4,1.8Z"/>
      <path d="M98.19,50.46c-1.1-.74-2.6-1.25-3.2-2.29-.84-1.45-.06-2.98,1.51-3.6,1.58-.62,3.19,0,3.55,1.63.26,1.17-.5,2.56-.81,3.85-.35.14-.71.28-1.06.42Z"/>
      <path d="M76.52,49.49c2.49-.54,3.91-.04,4.51,1.71.55,1.62-.1,3.03-1.69,3.61-1.7.62-3.33-.06-3.67-1.82-.23-1.17.59-2.55.85-3.51Z"/>
      <path d="M59.78,60.75c-1.07-.79-2.55-1.36-3.1-2.42-.77-1.48.05-2.99,1.66-3.54,1.6-.55,3.19.13,3.48,1.78.21,1.18-.61,2.53-.96,3.81-.36.12-.72.24-1.08.37Z"/>
      <path d="M169.78,38.33c-.71,1.12-1.2,2.52-2.17,3.29-1.16.91-3.34-.18-3.76-1.67-.46-1.65.09-3.22,1.7-3.54,1.16-.23,2.54.55,3.81.88.14.35.28.69.42,1.04Z"/>
      <path d="M145.92,41.15c2.5-.6,3.94-.12,4.57,1.64.58,1.63-.05,3.05-1.64,3.66-1.71.66-3.35,0-3.72-1.76-.25-1.18.55-2.57.79-3.54Z"/>
      <path d="M199.57,43.51c-2.49.6-3.92.13-4.56-1.63-.59-1.62.04-3.04,1.62-3.66,1.7-.67,3.34-.02,3.72,1.75.25,1.18-.54,2.58-.78,3.54Z"/>
      <path d="M70.12,43.98c-1.24,1.82-1.76,3.33-2.79,3.92-1.44.82-2.94,0-3.61-1.6-.79-1.91.56-3.21,1.95-3.63,1-.3,2.37.64,4.46,1.31Z"/>
      <path d="M206.37,166.82c-3.46-4.29-2.72-8.25,1.77-10.83-.59,3.58-1.13,6.91-1.77,10.83Z"/>
      <path d="M44.29,210.41c-2.09-3.13-3.99-5.98-5.95-8.91,4.77-.18,7.56,3.85,5.95,8.91Z"/>
      <path d="M119.21,41.36c-.67,1.05-1.1,2.5-2.06,3.07-1.47.87-2.94.12-3.54-1.55-.56-1.55.02-3.04,1.58-3.34,1.11-.22,2.4.49,3.6.79.14.34.27.69.41,1.03Z"/>
      <path d="M154.76,34.71c-.9-.72-2.37-1.32-2.56-2.19-.2-.92.55-2.55,1.38-3.06,1.38-.85,2.89-.04,3.14,1.58.16,1.03-.55,2.2-.87,3.31-.37.12-.73.23-1.1.35Z"/>
      <path d="M182.52,33.88c.79-.93,1.4-2.24,2.4-2.71,1.46-.7,2.73.2,3.18,1.78.47,1.61-.23,2.99-1.8,3.16-1.1.12-2.3-.7-3.46-1.1-.11-.37-.21-.75-.32-1.12Z"/>
      <path d="M138.34,36.51c-.68,1.01-1.14,2.37-2.08,2.94-1.39.84-2.97.14-3.21-1.48-.15-1,.52-2.72,1.32-3.11.88-.43,2.31.29,3.51.52.16.38.31.76.47,1.13Z"/>
      <path d="M105.5,38.38c-1.64-1.03-3.22-1.5-3.36-2.25-.19-.97.77-2.15,1.23-3.24,1.02.48,2.51.71,2.92,1.51.39.76-.36,2.1-.79,3.98Z"/>
      <path d="M176.86,25.69c-1.09,1.59-1.62,3.15-2.36,3.25-.97.13-2.1-.9-3.16-1.42.52-1,.81-2.49,1.61-2.86.76-.35,2.06.49,3.91,1.03Z"/>
      <path d="M19.91,135.13c.03-2.92.06-5.62.09-8.42,3.56,1.75,3.56,5.78-.09,8.42Z"/>
      <path d="M84.38,37.42c.91.61,2.37,1.08,2.57,1.87.22.84-.52,2.39-1.29,2.86-.53.32-2.35-.46-2.68-1.17-.37-.81.27-2.09.47-3.17l.93-.39Z"/>
      <path d="M126.24,28.82c-1.15,1.48-1.64,2.69-2.42,2.92-.68.2-2.3-.61-2.4-1.16-.14-.84.45-2.28,1.15-2.64.65-.34,1.86.39,3.67.88Z"/>
      <path d="M145.31,23.82c-1.03,1.46-1.45,2.69-2.21,2.95-.65.22-1.68-.66-2.55-1.06.41-.92.59-2.2,1.3-2.65.54-.35,1.74.34,3.46.77Z"/>
      <path d="M164.2,18.73c-1.01,1.27-1.48,2.4-2.21,2.6-.61.17-2.14-.71-2.17-1.19-.05-.81.57-2.01,1.27-2.39.52-.29,1.6.46,3.11.97Z"/>
      <path d="M94.59,26.89c-.86,1.31-1.21,2.49-1.85,2.67-.67.18-1.61-.59-2.43-.95.35-.83.48-2.04,1.1-2.37.58-.32,1.65.29,3.18.65Z"/>
      <path d="M209.77,51.78c-3.31-1.78-3.76-3.31-2.03-6.58.72,2.33,1.29,4.18,2.03,6.58Z"/>
      <path d="M110.28,20.31c1.1.8,2.03,1.14,2.25,1.74.18.5-.48,1.3-.77,1.97-.72-.32-1.69-.47-2.06-1.02-.27-.4.26-1.34.59-2.69Z"/>
      <path d="M131.28,19.69c-1.1-.66-2.08-.92-2.24-1.43-.18-.55.41-1.35.66-2.04.69.26,1.67.34,1.97.83.28.47-.16,1.37-.38,2.64Z"/>
      <path d="M151.29,11.6c-.62.93-.95,1.89-1.35,1.92-.62.04-1.29-.56-1.94-.89.32-.59.52-1.47,1.01-1.67.46-.2,1.22.31,2.28.64Z"/>
    </g>
  </g>
  <g class="cls-4">
    <g>
      <path d="M244.02,347.63c-1.95,2.66-4.38,4.53-7.59,4.71.85,1.55,2.22,2.95,2.38,4.62.15,1.6-.56,3.67-1.58,5.22-1.84,2.8-5.72,4.01-8.71,3.16-2.91-.82-4.59-3.49-4.08-6.47.59-3.44,3.3-5.8,7.69-6.86-1.01-2.07-2.05-4.2-2.94-6.02-2.03,1.05-4.6,2.38-7.19,3.73,2.56,2.03,3.79,5.02,1.24,8.97-2.04,3.16-5.08,4.17-8.53,4.07-.4.02-.81.03-1.21.05-1.59-1.88-3.19-3.76-4.73-5.59-1.56.83-3.78,2.02-6.09,3.26,2.46,1.82,2.95,4.49,1.91,7.7l-.13.22c-2.54,4.2-6.27,5.25-10.58,4.78,0,0,.12.03.12.03-.61-.49-1.24-.96-1.84-1.46-3.37-2.82-2.11-8.61,2.45-11.05,1.11-.59,2.34-.92,3.2-1.25-.95-2-1.88-3.97-2.68-5.67-2.1,1.1-4.48,2.34-6.8,3.55,4.68,5.05,2.47,10.56-5.81,13.35,2.3,1.76,3.02,4.16,2.58,7.03-.22.35-.45.7-.67,1.05-1.01,2.4-3,3.91-5.48,4.74-1.94.65-3.53,1.03-4.32-1.43-.97-3.02-2.89-5.65-4.47-8.41-2.63-4.59-5.47-9.06-7.94-13.74-4.05-7.69-7.15-15.8-8.12-25.21.49.67.81,1,1.01,1.41.24.49.38,1.03.61,1.68,1.42-.68,2.82-1.35,4.35-2.08-.71-1.3-1.41-2.57-2.1-3.83-1.36.72-2.66,1.4-4.33,2.28-.58-5.46-1.18-10.6-1.65-15.77-.9-9.87-2.03-19.76-.09-30.01,1.24-6.52,3.39-13.09,5.71-19.54,1.54-4.3,3.86-8.52,6.26-12.62,3.45-5.87,8.75-9.3,15.66-10.05.58-.06,1.17-.28,1.82-.85-1.99-.13-3.99-.26-5.98-.39.03-.21.06-.42.09-.64,7.85-.31,15.69-.61,23.54-.92,0,.24,0,.49,0,.73-3.55.58-7.1,1.16-10.75,1.76,3.4,1.55,6.64,3.26,10.12,4.55,3.58,1.34,4.36,4.47,5.6,7.37.12.28.22.57.4,1.02,1.98-1.54,3.38-1.67,4.72.23,1.81,2.56,4.42,4.57,6.18,7.16,5.79,8.51,11.12,17.33,17.09,25.71,3.44,4.83,7.77,9.04,11.7,13.54.25.28.41.64.77,1.21-1.41.64-2.63,1.2-3.97,1.81.71,1.44,1.44,2.93,2.26,4.61,1.88-1.18,3.84-2.42,6.02-3.8,2.43,2.24,8.34,1.89,7.69,8.14,3.18-4.2,5.89-2.37,8.54-1.52,2.55.82,6.53.38,5.37,5.13,2.8-4.16,5.93-2.84,8.87-2.31,3.01.54,6.26,1.03,4.99,5.45,4.2-3.7,7.91-4.57,11.31-2.88,2.2,1.1,3.01,4.6,1.7,7.38-1.33,2.82-4.67,4.92-7.79,4.9-3.71-.03-5.78-2.22-6.09-6.71-2.5,2.91-5.39,4.43-8.92,4.07-.45-.05-.91-.1-1.36-.15-2.62-1.46-4.24-3.52-3.83-6.35-2.51,1.3-5.07,2.64-7.67,3.99,2.35,1.36,3.09,3.88,2.4,7-.15.46-.31.93-.46,1.39-4.32,4.83-9.16,6.09-12.43,3.02-1.18-1.11-1.66-2.85-2.31-4.03-2.26,1.1-4.68,2.28-7.17,3.49,2.78,1.64,3.22,4.4,2.26,7.7-.08.21-.16.42-.25.64ZM211.3,351.7c2.13-1.04,4.53-2.21,6.54-3.19-.92-1.77-1.97-3.77-2.88-5.5-2.07,1.06-4.49,2.29-6.93,3.53,1.01,1.6,2.2,3.49,3.26,5.16ZM228.76,335.89c.78,1.86,1.64,3.93,2.33,5.58,2.18-1.13,4.65-2.41,6.82-3.54-.85-1.53-1.93-3.49-2.89-5.24-2.02,1.03-4.29,2.19-6.26,3.2ZM251.31,330.21c2.25-1.05,4.62-2.15,6.51-3.03-.97-1.85-1.97-3.75-2.81-5.35-2.21,1.09-4.56,2.24-6.86,3.36.99,1.57,2.15,3.41,3.16,5.01ZM203.97,345.43c-.96-1.52-2.04-3.23-3.03-4.8-2.13,1.05-4.14,2.05-5.87,2.91.75,1.85,1.5,3.69,2.12,5.24,2.19-1.08,4.62-2.28,6.78-3.34ZM223.36,334.64c-.85-1.61-1.73-3.3-2.57-4.88-1.88.94-3.97,1.98-5.77,2.88.74,1.86,1.49,3.74,2.12,5.32,2.04-1.09,4.2-2.24,6.22-3.32ZM177.79,358.65c2.03-.89,4.11-1.81,5.86-2.58-.92-1.75-1.9-3.61-2.77-5.27-1.94,1.03-4.01,2.13-6.02,3.2.96,1.53,1.95,3.09,2.93,4.65ZM243.79,324.11c-.97-1.54-2.06-3.26-3.05-4.83-1.86,1.07-3.69,2.13-5.36,3.09.69,1.67,1.38,3.33,1.99,4.81,2.24-1.07,4.39-2.1,6.41-3.06ZM181.17,340.19c.74,1.72,1.47,3.41,2.17,5.03,1.89-1,3.91-2.07,5.75-3.04-.84-1.55-1.7-3.14-2.52-4.65-1.86.91-3.69,1.81-5.41,2.65ZM206.47,316.01c.91,1.44,1.83,2.9,2.69,4.27,1.66-.95,3.26-1.87,4.86-2.79-.66-1.4-1.35-2.85-2.03-4.28-1.77.9-3.57,1.81-5.52,2.8ZM203.47,334.06c1.97-1,3.82-1.95,5.66-2.88-.87-1.38-1.73-2.74-2.6-4.13-1.58.92-3.3,1.91-4.95,2.86.66,1.43,1.27,2.77,1.89,4.15ZM177.96,320.78c-1.71.92-3.44,1.84-5.07,2.71.74,1.62,1.43,3.13,2.12,4.64,1.69-1.07,3.31-2.09,4.95-3.12-.64-1.34-1.32-2.78-2.01-4.22ZM234.47,307.09c-.76-1.52-1.48-2.95-2.15-4.3-1.78.96-3.53,1.9-5.22,2.8.66,1.42,1.3,2.81,1.93,4.18,1.81-.89,3.63-1.79,5.44-2.68ZM195.11,317.33c1.7-.88,3.41-1.77,5.32-2.77l-2.58-4.09c-1.66.86-3.27,1.7-4.86,2.52.69,1.41,1.37,2.8,2.12,4.33ZM183.95,307.02c-1.68.88-3.38,1.78-5.07,2.67.7,1.44,1.39,2.89,2.08,4.32,1.7-.89,3.4-1.79,5.1-2.68-.68-1.39-1.37-2.78-2.11-4.3ZM176.32,279.08c.71,1.47,1.41,2.9,2.11,4.34,1.65-.86,3.35-1.74,5.06-2.63-.68-1.42-1.4-2.91-2.1-4.36-1.69.89-3.32,1.74-5.07,2.66ZM182.28,265.31c.73,1.52,1.42,2.95,2.11,4.37,1.7-.9,3.4-1.8,5.1-2.7-.67-1.4-1.36-2.85-2.06-4.32-1.62.83-3.33,1.72-5.15,2.66ZM186.96,300.22c1.68-.88,3.39-1.78,5.12-2.68-.68-1.43-1.4-2.93-2.19-4.57-1.69,1.07-3.3,2.08-4.88,3.08.66,1.41,1.3,2.79,1.95,4.18ZM197.72,283.84c-.83-1.32-1.67-2.64-2.47-3.92-1.7.88-3.3,1.71-4.84,2.51.73,1.52,1.42,2.96,2.12,4.4,1.7-.98,3.36-1.94,5.19-2.99ZM223.46,323.85c1.55-.98,3.16-2,4.77-3.01-.69-1.44-1.38-2.9-2.1-4.41-1.53.86-3.11,1.75-4.59,2.58.65,1.65,1.28,3.22,1.92,4.85ZM174.82,338.84c-.82-1.59-1.61-3.13-2.45-4.76-1.61,1.02-3.21,2.03-4.66,2.94.77,1.45,1.48,2.78,2.16,4.06,1.69-.76,3.27-1.48,4.95-2.24ZM212.88,302.16c.68,1.43,1.37,2.87,2.06,4.32,1.65-.89,3.33-1.79,4.9-2.63-.72-1.49-1.41-2.9-2.07-4.25-1.63.85-3.18,1.67-4.9,2.56ZM171.94,308.07c-.69-1.45-1.4-2.93-2.1-4.4-1.76.95-3.43,1.86-5.04,2.73.87,1.37,1.68,2.67,2.5,3.97,1.49-.74,3.07-1.52,4.64-2.3ZM187.52,326.63c.66,1.45,1.29,2.85,1.96,4.31,1.57-.84,3.16-1.7,4.73-2.54-.73-1.5-1.42-2.93-2.11-4.37-1.56.89-3.07,1.74-4.57,2.6ZM206.1,300.44c-.77-1.23-1.57-2.49-2.33-3.7-1.64.83-3.21,1.62-4.82,2.44.66,1.25,1.35,2.53,2.04,3.83,1.63-.82,3.28-1.65,5.11-2.57ZM177.37,294.42c-.64-1.41-1.27-2.81-1.92-4.26-1.47.84-2.98,1.71-4.53,2.6.63,1.41,1.25,2.8,1.9,4.24,1.51-.85,3.03-1.71,4.55-2.58ZM196.38,268.66c.71,1.31,1.39,2.56,2.05,3.76,1.73-.89,3.35-1.71,4.99-2.55-.67-1.27-1.34-2.54-2-3.82-1.63.84-3.27,1.69-5.04,2.6ZM177.86,369.59c-.92-1.46-1.85-2.94-2.79-4.43l-3.88,2.45c.63,1.42,1.21,2.74,1.78,4.03,1.65-.69,3.18-1.33,4.89-2.05ZM207.02,289.33c1.31-.83,2.62-1.65,3.88-2.45-.62-1.43-1.19-2.75-1.77-4.09-1.53.84-2.95,1.62-4.37,2.41.77,1.4,1.49,2.73,2.26,4.13ZM175.46,263.69c-.68-1.29-1.35-2.57-2.04-3.89-1.4.88-2.8,1.77-4.25,2.68.51,1.25.99,2.44,1.47,3.62,1.61-.81,3.1-1.55,4.82-2.41ZM167.41,273.54c-1.39.76-2.88,1.59-4.51,2.49.74,1.18,1.44,2.28,2.18,3.46,1.45-.68,2.9-1.36,4.35-2.04-.69-1.33-1.33-2.56-2.03-3.9ZM162.8,350.95c.62,1.32,1.23,2.61,1.8,3.84,1.72-.72,3.29-1.37,4.77-2-.87-1.37-1.71-2.72-2.6-4.12-1.28.74-2.62,1.5-3.97,2.28ZM161.09,324.32c1.78-.92,3.36-1.73,4.95-2.55-.79-1.26-1.48-2.35-2.14-3.4-1.63.8-3.12,1.54-4.67,2.3.63,1.23,1.22,2.38,1.86,3.64ZM158.08,304.97c-.81-1.29-1.54-2.44-2.24-3.56-1.38.87-2.61,1.65-3.92,2.47.55,1.14,1.05,2.17,1.54,3.18,1.6-.73,3.04-1.38,4.62-2.1ZM188.8,252.18c.57,1.4,1.06,2.59,1.55,3.8,1.63-.94,3.13-1.8,4.62-2.66-.71-1.13-1.37-2.17-2.05-3.25-1.37.7-2.68,1.38-4.12,2.11ZM216.03,273.33c-.62-1.32-1.17-2.5-1.74-3.7-1.42.64-2.74,1.24-4.07,1.84.72,1.39,1.42,2.73,2.16,4.16,1.2-.75,2.35-1.48,3.64-2.3ZM161.42,288c-1.39.8-2.71,1.55-4.09,2.34.6,1.19,1.1,2.18,1.61,3.19,1.58-.87,2.98-1.65,4.43-2.45l-1.95-3.08ZM224.72,290.23c-.61-1.23-1.16-2.32-1.74-3.48-1.31.62-2.54,1.21-3.84,1.84.64,1.35,1.25,2.65,1.88,3.98,1.24-.78,2.4-1.51,3.7-2.34ZM178.43,247.31c-1.16.63-2.25,1.23-3.37,1.84.48,1.3.87,2.36,1.3,3.5,1.27-.8,2.43-1.53,3.67-2.31-.52-.98-1.01-1.92-1.6-3.03Z"/>
      <path d="M263.91,336.82c.15-.46.31-.93.46-1.39,2.39-2.94,5.31-4.73,9.1-4.64.45.05.91.1,1.36.15,3.56,2.02,4.64,5.1,3.14,9.25l.04-.12c-2.12,2.58-4.56,4.6-8.46,4.62.78.7,1.27,1.08,1.69,1.52,2.12,2.17,2.25,5.19.37,7.93-1.84,2.68-5.35,4.24-8.38,3.73-3.03-.51-4.94-2.87-4.82-5.96.02-.56,0-1.11-.01-1.67,0,0-.05.13-.05.13,1.94-3.24,4.48-5.69,9.28-5.98-3.6-1.76-4.2-4.41-3.71-7.57Z"/>
      <path d="M244.02,347.63c.08-.21.16-.42.25-.64.57-.71,1.09-1.45,1.71-2.13,3.44-3.77,9.5-4.19,11.63-.49.92,1.6.53,3.97.74,6,0,0,.05-.13.05-.13-2.01,3-4.57,5.16-8.61,5.47,2.96,1.65,3.43,4.36,3.29,7.37l.04-.13c-.35.51-.71,1.02-1.04,1.54-1.98,3.14-5.55,4.85-8.84,4.23-3.17-.6-5.16-3.38-4.63-6.5.54-3.24,3.4-5.94,7.09-6.69.5-.1,1-.17,2.08-.35-3.57-1.61-4.07-4.39-3.76-7.56Z"/>
      <path d="M189.27,387.2c1.04.95,2.37,1.72,3.06,2.88,2.15,3.62-.51,8.63-5.29,10.27-.68.23-1.37.42-2.1.64,3.34,5.15,3.35,7.12.37,10.21-2.88-8.74-5.81-17.64-8.69-26.37,2.25.71,2.73,3.01,3.24,5.61,2.85-3.12,6.12-3.57,9.53-3.23,0,0-.12-.01-.12-.01Z"/>
      <path d="M213.49,362.81c.4-.02.81-.03,1.21-.05,3.13,1.41,4.77,3.76,4.53,7.28-.13.44-.27.89-.4,1.33-1.29,1.3-2.4,2.91-3.92,3.85-4.81,2.97-10.41.52-10.46-4.4,0-.81,0-1.62,0-2.43l.13-.22c2.21-3.08,4.92-5.31,8.91-5.37Z"/>
      <path d="M184.42,378.75c.22-.35.45-.7.67-1.05,2.38-2.79,5.36-4.25,8.9-4.49,0,0-.12-.03-.12-.03.41.23.79.49,1.22.67,3.12,1.3,4.47,4.04,3.51,7.15-.99,3.21-4.02,5.48-7.81,5.88-.5.05-1.01.22-1.52.34,0,0,.12.01.12.01-3.96-1.44-5.53-4.32-4.97-8.47Z"/>
      <path d="M277.96,340.2c.36-.5.75-.98,1.07-1.49,2.06-3.22,5.75-4.91,9.09-4.15,3.12.71,4.96,3.57,4.32,6.69-.69,3.33-3.8,6.01-7.56,6.52-.6.08-1.2.23-1.8.35l.13.02c-3.9-1.3-5.66-3.97-5.21-8.06,0,0-.04.12-.04.12Z"/>
      <path d="M218.83,371.38c.13-.44.27-.89.4-1.33.82-.75,1.58-1.56,2.47-2.22,2.9-2.19,6.51-2.45,8.91-.72,2.41,1.73,2.91,5.03,1.21,7.92-1.69,2.85-5.23,4.61-8.4,4.15-3.16-.45-5.18-2.93-4.91-6.06.05-.57.21-1.15.31-1.73Z"/>
      <path d="M308.57,335.46c-3.56,2.27-7.76,1.77-9.68-1.15-1.97-3.01-.63-7.15,3.05-9.42,3.57-2.21,7.77-1.63,9.62,1.33,1.86,2.96.56,6.99-2.99,9.25Z"/>
      <path d="M315.95,328.32c3.59-2.29,7.79-1.76,9.67,1.23,1.88,2.99.55,7-3.07,9.25-3.51,2.18-7.61,1.66-9.48-1.2-1.94-2.97-.69-6.99,2.89-9.27Z"/>
      <path d="M202.44,378.29c3.58-2.28,7.77-1.74,9.63,1.24,1.87,2.98.53,6.98-3.08,9.22-3.49,2.16-7.59,1.63-9.45-1.22-1.93-2.96-.66-6.98,2.9-9.25Z"/>
      <path d="M293.38,347.65c-1.88-2.98-.52-7.02,3.11-9.24,3.51-2.15,7.61-1.57,9.44,1.33,1.88,2.98.52,7.02-3.11,9.24-3.51,2.15-7.61,1.57-9.44-1.33Z"/>
      <path d="M283.09,348.11c.87.67,1.91,1.21,2.59,2.03,1.98,2.37,1.48,5.9-1.03,8.42-2.42,2.43-6.23,3.25-8.94,1.94-2.73-1.32-3.76-4.45-2.46-7.45,1.3-3,4.53-5.07,7.89-5.03.7,0,1.39.07,2.08.12,0,0-.13-.02-.13-.02Z"/>
      <path d="M213.38,390.26c-1.76-2.88-.39-6.93,3.07-9.07,3.45-2.14,7.68-1.54,9.44,1.34,1.76,2.88.39,6.93-3.07,9.07-3.45,2.14-7.68,1.54-9.44-1.34Z"/>
      <path d="M307.6,350.96c-1.82-2.82-.53-6.9,2.87-9.08,3.41-2.18,7.66-1.66,9.48,1.16,1.82,2.82.53,6.9-2.87,9.08-3.41,2.18-7.66,1.66-9.48-1.16Z"/>
      <path d="M253.07,363.08c.42-.47.86-.94,1.27-1.42,2.48-2.86,6.29-3.9,9.24-2.54,2.86,1.32,3.91,4.58,2.46,7.63-1.5,3.16-5.19,5.2-8.55,4.73-3.38-.47-5.37-3.22-4.76-6.58.12-.65.25-1.3.38-1.95,0,0-.04.13-.04.13Z"/>
      <path d="M233.51,379.73c-1.72-2.88-.28-7,3.19-9.07,3.47-2.07,7.74-1.37,9.39,1.54,1.61,2.84.21,6.82-3.13,8.89-3.43,2.13-7.73,1.51-9.45-1.36Z"/>
      <path d="M202.97,402.41c-3.39,2.12-7.78,1.49-9.45-1.37-1.64-2.8-.26-6.85,3.04-8.91,3.39-2.12,7.78-1.49,9.45,1.37,1.64,2.79.26,6.85-3.04,8.91Z"/>
      <path d="M250.77,374.06c3.32-2.02,7.6-1.41,9.28,1.33,1.74,2.82.24,7.1-3.17,9.08-3.37,1.96-7.62,1.27-9.23-1.5-1.62-2.8-.18-6.91,3.11-8.91Z"/>
      <path d="M270.47,363.32c3.22-2.1,7.53-1.62,9.35,1.04,1.85,2.7.49,7-2.87,9.1-3.28,2.04-7.56,1.48-9.29-1.22-1.73-2.69-.43-6.81,2.82-8.92Z"/>
      <path d="M287.68,361.68c-1.71-2.84-.22-7.06,3.2-9.06,3.36-1.97,7.57-1.31,9.23,1.44,1.71,2.84.22,7.06-3.2,9.06-3.36,1.97-7.57,1.31-9.23-1.44Z"/>
      <path d="M327.56,340.05c-1.76-2.68-.47-6.82,2.78-8.95,3.01-1.97,8-1.17,9.66,1.56,1.48,2.42-.03,6.56-3.1,8.53-3.25,2.08-7.58,1.56-9.34-1.14Z"/>
      <path d="M227.73,393.59c-1.77-2.69-.46-6.83,2.83-8.91,3.28-2.08,7.59-1.51,9.28,1.23,1.65,2.68.39,6.64-2.77,8.74-3.22,2.14-7.56,1.65-9.34-1.06Z"/>
      <path d="M291.02,376.72c-3.31,2.06-7.62,1.44-9.26-1.32-1.66-2.78-.22-6.92,3.1-8.89,3.27-1.94,7.39-1.35,9.08,1.29,1.74,2.72.38,6.86-2.92,8.91Z"/>
      <path d="M301.67,364.52c-1.67-2.78-.25-6.87,3.07-8.85,3.36-2.01,7.6-1.33,9.17,1.47,1.55,2.76.2,6.68-3.01,8.68-3.31,2.07-7.57,1.47-9.23-1.29Z"/>
      <path d="M321.87,354.2c-1.78-2.68-.47-6.82,2.81-8.92,3.28-2.09,7.59-1.53,9.29,1.22,1.66,2.67.41,6.63-2.76,8.74-3.21,2.14-7.55,1.66-9.34-1.04Z"/>
      <path d="M211.08,395.35c3.27-2.15,7.55-1.63,9.29,1.12,1.69,2.68.45,6.61-2.75,8.72-3.27,2.15-7.55,1.63-9.29-1.13-1.69-2.68-.45-6.61,2.75-8.72Z"/>
      <path d="M188.05,414.23c-1.54-2.93.06-6.9,3.52-8.74,3.42-1.82,7.36-1.03,8.83,1.78,1.54,2.93-.06,6.9-3.52,8.74-3.42,1.82-7.36,1.03-8.83-1.78Z"/>
      <path d="M261.78,385.91c-1.76-2.77-.42-6.75,2.95-8.8,3.29-2,7.28-1.44,8.99,1.25,1.76,2.77.42,6.75-2.95,8.8-3.29,2-7.28,1.44-8.99-1.25Z"/>
      <path d="M242.47,396.47c-1.77-2.75-.58-6.52,2.73-8.64,3.32-2.12,7.25-1.64,9.02,1.1,1.77,2.75.58,6.52-2.73,8.64-3.32,2.12-7.25,1.64-9.02-1.1Z"/>
      <path d="M231.34,408.07c-3.32,2.11-7.25,1.61-9.01-1.14-1.76-2.76-.55-6.52,2.78-8.63,3.33-2.11,7.25-1.62,9.01,1.14,1.76,2.76.55,6.52-2.78,8.63Z"/>
      <path d="M335.83,356.9c-1.72-2.78-.47-6.54,2.87-8.62,3.34-2.08,7.26-1.54,8.98,1.23,1.72,2.78.47,6.54-2.87,8.62-3.34,2.08-7.26,1.55-8.98-1.23Z"/>
      <path d="M211.02,419.09c-3.28,1.89-7,1.21-8.61-1.57-1.63-2.81-.22-6.51,3.24-8.5,3.37-1.94,7.18-1.17,8.72,1.78,1.46,2.78,0,6.36-3.36,8.3Z"/>
      <path d="M276.48,388.61c-1.57-2.7-.26-6.38,2.99-8.35,3.32-2.02,7.23-1.35,8.81,1.5,1.51,2.72.12,6.39-3.16,8.32-3.24,1.9-7.04,1.26-8.63-1.47Z"/>
      <path d="M316.04,367.74c-1.73-2.77-.49-6.46,2.87-8.54,3.34-2.06,7.17-1.49,8.86,1.33,1.62,2.71.41,6.31-2.81,8.36-3.32,2.12-7.18,1.62-8.92-1.16Z"/>
      <path d="M256.38,399.16c-1.63-2.7-.37-6.36,2.87-8.38,3.32-2.06,7.23-1.45,8.87,1.38,1.56,2.72.23,6.38-3.05,8.35-3.24,1.95-7.05,1.36-8.69-1.36Z"/>
      <path d="M295.97,378.24c-1.76-2.76-.53-6.48,2.83-8.55,3.24-2,7.02-1.49,8.73,1.19,1.76,2.76.53,6.48-2.83,8.55-3.24,2-7.02,1.49-8.73-1.19Z"/>
      <path d="M358.84,361.31c-3.17,1.98-7.1,1.43-8.73-1.21-1.63-2.64-.38-6.4,2.8-8.38,3.17-1.98,7.1-1.43,8.73,1.21,1.63,2.64.38,6.4-2.8,8.38Z"/>
      <path d="M196.62,431.41c-1.62-2.6-.28-6.51,2.87-8.39,3.08-1.84,6.98-1.27,8.55,1.25,1.62,2.6.28,6.51-2.87,8.39-3.08,1.84-6.98,1.27-8.55-1.25Z"/>
      <path d="M216.48,420.53c-1.62-2.62-.29-6.51,2.89-8.4,3.09-1.85,6.99-1.27,8.56,1.26,1.62,2.62.29,6.51-2.89,8.4-3.09,1.85-6.99,1.27-8.56-1.26Z"/>
      <path d="M290.81,392.12c-1.7-2.56-.46-6.46,2.68-8.43,3.05-1.91,6.97-1.43,8.62,1.06,1.7,2.56.46,6.46-2.68,8.43-3.05,1.91-6.97,1.43-8.62-1.06Z"/>
      <path d="M330.79,370.78c-1.71-2.6-.51-6.42,2.65-8.42,3.15-2.01,7.13-1.49,8.77,1.15,1.59,2.56.43,6.25-2.59,8.25-3.12,2.06-7.13,1.62-8.83-.97Z"/>
      <path d="M310.63,381.16c-1.64-2.61-.32-6.5,2.85-8.41,3.08-1.86,6.98-1.3,8.57,1.22,1.64,2.61.32,6.5-2.85,8.41-3.08,1.86-6.98,1.3-8.57-1.22Z"/>
      <path d="M236.62,410.09c-1.64-2.61-.36-6.44,2.79-8.39,3.16-1.95,7.14-1.36,8.71,1.28,1.52,2.57.29,6.27-2.73,8.22-3.12,2-7.13,1.5-8.77-1.11Z"/>
      <path d="M353.4,374.65c-2.99,1.95-6.97,1.52-8.66-.95-1.72-2.52-.48-6.48,2.65-8.44,3.04-1.9,7-1.38,8.61,1.12,1.6,2.5.41,6.3-2.6,8.26Z"/>
      <path d="M270.69,402.45c-1.57-2.53-.32-6.33,2.71-8.22,3.04-1.9,7-1.37,8.57,1.15,1.57,2.53.32,6.33-2.71,8.22-3.04,1.9-7,1.37-8.57-1.15Z"/>
      <path d="M250.75,413.17c-1.48-2.62-.08-6.42,3.01-8.18,3.16-1.8,7.07-1.09,8.44,1.53,1.36,2.6.03,6.23-2.94,8.01-3.09,1.85-7.06,1.22-8.51-1.35Z"/>
      <path d="M327.72,376.12c3.13-1.83,7.02-1.17,8.44,1.43,1.44,2.65.02,6.4-3.09,8.13-3.09,1.72-6.8,1.09-8.26-1.4-1.51-2.59-.17-6.37,2.91-8.16Z"/>
      <path d="M230.68,423.71c-1.52-2.57-.18-6.38,2.88-8.19,3.12-1.84,7.04-1.19,8.47,1.41,1.41,2.56.14,6.18-2.82,8.01-3.06,1.89-7.02,1.32-8.53-1.23Z"/>
      <path d="M313.18,395.97c-3.09,1.92-6.97,1.34-8.47-1.27-1.47-2.55-.23-6.12,2.77-7.97,3.09-1.92,6.97-1.34,8.47,1.27,1.47,2.55.23,6.12-2.77,7.97Z"/>
      <path d="M213.75,426.46c3.07-1.82,6.75-1.23,8.25,1.31,1.56,2.63.21,6.29-2.99,8.1-3.12,1.77-6.75,1.11-8.18-1.48-1.44-2.6-.14-6.13,2.92-7.94Z"/>
      <path d="M264.87,416.18c-1.61-2.5-.51-6.01,2.49-7.97,3.09-2.02,6.89-1.53,8.48,1.09,1.54,2.54.37,6.04-2.67,7.94-3.04,1.9-6.69,1.43-8.3-1.07Z"/>
      <path d="M284.94,405.57c-1.54-2.57-.32-6.07,2.77-7.95,3.09-1.88,6.72-1.32,8.26,1.25,1.54,2.57.32,6.07-2.77,7.95-3.09,1.88-6.72,1.32-8.26-1.25Z"/>
      <path d="M245.08,427c-1.63-2.54-.52-5.98,2.56-7.91,3.08-1.93,6.65-1.43,8.23,1.15,1.52,2.49.44,5.83-2.51,7.74-3.06,1.98-6.66,1.56-8.29-.98Z"/>
      <path d="M199.55,445.85c-3.09,1.91-6.69,1.37-8.24-1.24-1.54-2.59-.3-6.04,2.84-7.91,3.02-1.8,6.5-1.27,8.06,1.21,1.61,2.57.45,6.02-2.66,7.94Z"/>
      <path d="M338.93,387.05c-1.55-2.57-.32-5.98,2.83-7.85,3-1.77,6.44-1.21,7.96,1.3,1.55,2.57.32,5.98-2.83,7.85-3,1.78-6.44,1.21-7.96-1.3Z"/>
      <path d="M233.53,438.23c-3.09,1.91-6.65,1.37-8.19-1.26-1.47-2.51-.3-5.84,2.71-7.71,3.09-1.91,6.65-1.37,8.19,1.26,1.47,2.51.3,5.84-2.71,7.71Z"/>
      <path d="M299.04,408.48c-1.57-2.46-.47-5.85,2.49-7.73,2.96-1.88,6.51-1.43,8.07,1.02,1.57,2.46.47,5.85-2.49,7.73-2.96,1.88-6.51,1.43-8.07-1.02Z"/>
      <path d="M361.64,368.86c3.09-1.95,6.65-1.45,8.23,1.16,1.51,2.51.39,5.84-2.6,7.73-3.09,1.95-6.65,1.45-8.23-1.16-1.51-2.51-.39-5.84,2.6-7.73Z"/>
      <path d="M329.94,391.59c1.39,2.55.09,5.87-3,7.66-3.12,1.81-6.64,1.09-8.05-1.64-1.32-2.56.06-5.88,3.18-7.63,3.03-1.7,6.45-1,7.87,1.6Z"/>
      <path d="M208.02,440.25c3.06-1.98,6.63-1.54,8.23,1.02,1.55,2.48.49,5.81-2.46,7.71-3.06,1.98-6.63,1.54-8.23-1.03-1.55-2.48-.49-5.81,2.46-7.71Z"/>
      <path d="M353.15,390.33c-1.49-2.44-.28-5.92,2.67-7.7,2.95-1.78,6.55-1.19,7.97,1.29,1.37,2.4.21,5.75-2.61,7.52-2.92,1.83-6.54,1.33-8.03-1.12Z"/>
      <path d="M279.14,419.26c-1.49-2.45-.29-5.92,2.67-7.7,2.95-1.78,6.55-1.2,7.98,1.29,1.38,2.4.21,5.75-2.62,7.53-2.93,1.84-6.54,1.34-8.03-1.12Z"/>
      <path d="M262.07,421.8c2.93-1.82,6.6-1.28,8.04,1.2,1.39,2.4.22,5.79-2.62,7.56-2.93,1.82-6.6,1.28-8.04-1.2-1.39-2.4-.22-5.79,2.62-7.56Z"/>
      <path d="M227.58,451.79c-2.74,1.79-6.44,1.36-7.95-.92-1.5-2.27-.41-5.8,2.35-7.6,2.74-1.79,6.44-1.36,7.95.92,1.5,2.27.41,5.8-2.35,7.6Z"/>
      <path d="M250.24,433.91c1.4,2.47.06,6.02-2.9,7.67-2.89,1.62-6.41.99-7.76-1.39-1.4-2.47-.06-6.02,2.9-7.67,2.89-1.62,6.41-.99,7.76,1.39Z"/>
      <path d="M333.35,401.25c-1.46-2.32-.36-5.78,2.42-7.58,2.85-1.84,6.64-1.33,8.07,1.1,1.39,2.36.19,5.83-2.6,7.55-2.81,1.73-6.42,1.24-7.88-1.07Z"/>
      <path d="M344.33,334.39c3.31,2.23,6.53,4.4,9.71,6.55-1.43,3.02-3.73,4.68-6.78,4.95-2.92.27-5.48-1.22-6.28-3.65-.86-2.6.22-5.24,3.36-7.86Z"/>
      <path d="M316.14,403.86c2.74-1.77,6.43-1.33,7.92.95,1.48,2.27.37,5.8-2.38,7.58-2.74,1.77-6.43,1.33-7.92-.95-1.48-2.27-.37-5.8,2.38-7.58Z"/>
      <path d="M375.33,394.59c-2.73,1.79-6.42,1.34-7.88-.95-1.47-2.29-.31-5.81,2.47-7.53,2.69-1.67,6.2-1.25,7.7.93,1.53,2.22.46,5.76-2.29,7.56Z"/>
      <path d="M199.77,461.64c-1.46-2.3-.29-5.82,2.49-7.53,2.79-1.72,6.45-1.18,7.82,1.15,1.34,2.28.22,5.63-2.44,7.36-2.74,1.78-6.42,1.32-7.88-.98Z"/>
      <path d="M350.26,396.31c2.8-1.75,6.46-1.21,7.82,1.15,1.33,2.31.18,5.66-2.53,7.34-2.8,1.75-6.46,1.21-7.82-1.15-1.33-2.31-.18-5.66,2.53-7.34Z"/>
      <path d="M296.29,414.77c2.75-1.77,6.44-1.3,7.88,1.01,1.44,2.31.26,5.84-2.53,7.54-2.71,1.65-6.22,1.21-7.7-.98-1.51-2.24-.41-5.79,2.34-7.56Z"/>
      <path d="M273.78,432.72c-1.46-2.3-.29-5.82,2.49-7.53,2.79-1.72,6.45-1.18,7.82,1.15,1.34,2.28.22,5.63-2.44,7.36-2.74,1.78-6.42,1.32-7.88-.98Z"/>
      <path d="M185.9,430.61c-.06-3.33-.02-6.55-.2-9.71-.09-1.55.62-2.12,2.14-2.39,2.77-.48,4.87.21,6.2,2.23,1.32,2.01,1.23,4.26-.45,6.52-1.86,2.5-4.36,3.67-7.69,3.35Z"/>
      <path d="M254,443.53c-1.43-2.27-.38-5.55,2.34-7.31,2.81-1.81,6.37-1.33,7.78,1.06,1.37,2.32.24,5.59-2.52,7.28-2.76,1.7-6.17,1.23-7.6-1.04Z"/>
      <path d="M327.98,414.66c-1.44-2.25-.39-5.6,2.31-7.37,2.78-1.82,6.44-1.34,7.85,1.03,1.37,2.3.24,5.64-2.49,7.34-2.74,1.7-6.22,1.25-7.67-1Z"/>
      <path d="M362.23,407.01c-1.48-2.25-.58-5.29,2.1-7.07,2.81-1.86,6.08-1.48,7.56.89,1.42,2.28.44,5.3-2.28,7.04-2.74,1.75-5.9,1.38-7.38-.86Z"/>
      <path d="M295.56,436.84c-2.83,1.78-6.06,1.31-7.49-1.09-1.37-2.3-.34-5.3,2.4-7.02,2.83-1.78,6.06-1.31,7.49,1.09,1.37,2.3.34,5.3-2.4,7.02Z"/>
      <path d="M214.05,464.81c-1.46-2.34-.39-5.52,2.45-7.26,2.83-1.74,6.13-1.23,7.53,1.16,1.35,2.3.32,5.36-2.39,7.09-2.81,1.79-6.13,1.36-7.59-.98Z"/>
      <path d="M196.41,468.1c2.76-1.71,5.91-1.27,7.35,1.02,1.48,2.36.39,5.49-2.51,7.22-2.77,1.65-5.9,1.14-7.29-1.2-1.38-2.31-.32-5.33,2.46-7.04Z"/>
      <path d="M193.35,459.23c-2.82,1.76-6.14,1.29-7.58-1.07-1.43-2.36-.31-5.55,2.55-7.27,2.75-1.65,5.95-1.2,7.39,1.05,1.49,2.32.46,5.52-2.37,7.29Z"/>
      <path d="M250.49,450.1c2.74-1.72,5.9-1.31,7.35.95,1.5,2.35.45,5.46-2.44,7.2-2.76,1.66-5.89,1.18-7.29-1.13-1.39-2.3-.37-5.31,2.38-7.03Z"/>
      <path d="M233.94,453.9c-1.45-2.35-.37-5.49,2.48-7.23,2.83-1.72,6.09-1.2,7.49,1.19,1.34,2.3.3,5.33-2.42,7.05-2.82,1.78-6.09,1.34-7.54-1.01Z"/>
      <path d="M270.33,439.25c2.74-1.74,5.9-1.36,7.37.89,1.53,2.33.5,5.46-2.37,7.21-2.75,1.68-5.89,1.23-7.31-1.06-1.41-2.28-.42-5.3,2.31-7.04Z"/>
      <path d="M310.33,417.82c2.82-1.77,6.09-1.32,7.53,1.04,1.44,2.35.35,5.49-2.51,7.22-2.74,1.66-5.9,1.22-7.35-1.02-1.5-2.33-.49-5.47,2.33-7.25Z"/>
      <path d="M380.64,372.27c1.16,2.38,2.05,3.91,2.63,5.58.19.54-.25,1.59-.76,2.15-1.72,1.9-4.72,2.57-6.95,1.71-2.24-.86-3.35-3.04-2.78-5.43.57-2.39,2.78-4.66,5.28-4.9,1.12-.11,2.18.73,2.58.88Z"/>
      <path d="M208.68,478.15c-1.37-2.23-.24-5.44,2.48-7.04,2.62-1.55,5.81-1.05,7.13,1.11,1.37,2.23.24,5.44-2.48,7.04-2.62,1.55-5.81,1.05-7.13-1.11Z"/>
      <path d="M342.14,417.45c-1.47-2.22-.5-5.35,2.2-7.07,2.7-1.73,5.95-1.31,7.36.95,1.36,2.18.42,5.19-2.14,6.9-2.67,1.78-5.96,1.43-7.42-.78Z"/>
      <path d="M228.13,467.72c-1.47-2.22-.5-5.35,2.2-7.07,2.7-1.73,5.95-1.31,7.36.95,1.36,2.18.42,5.19-2.14,6.9-2.67,1.78-5.96,1.43-7.42-.78Z"/>
      <path d="M329.55,429.14c-2.55,1.64-5.84,1.26-7.25-.83-1.45-2.17-.39-5.45,2.29-7.09,2.59-1.58,5.86-1.12,7.19,1.01,1.33,2.14.32,5.28-2.23,6.92Z"/>
      <path d="M309.19,439.76c-2.6,1.52-5.87.98-7.12-1.17-1.31-2.24-.07-5.52,2.64-7.02,2.64-1.46,5.88-.84,7.05,1.34,1.19,2.2,0,5.35-2.57,6.85Z"/>
      <path d="M289.3,450.62c-2.58,1.5-5.86.96-7.1-1.17-1.29-2.23-.05-5.53,2.63-7,2.63-1.44,5.87-.83,7.04,1.34,1.17,2.19-.01,5.35-2.57,6.83Z"/>
      <path d="M336.44,431.37c-1.27-2.14-.1-5.37,2.48-6.84,2.52-1.44,5.7-.91,6.91,1.13,1.27,2.14.1,5.37-2.48,6.84-2.52,1.44-5.7.91-6.91-1.13Z"/>
      <path d="M269.44,460.86c-2.46,1.64-5.87,1.25-7.23-.82-1.35-2.06-.31-5.31,2.21-6.9,2.42-1.52,5.66-1.16,7.04.79,1.42,2,.46,5.26-2.03,6.92Z"/>
      <path d="M245.14,463.72c2.57-1.55,5.89-1,7.07,1.16,1.15,2.12.05,5.16-2.4,6.64-2.57,1.55-5.89,1-7.07-1.16-1.15-2.12-.05-5.16,2.4-6.64Z"/>
      <path d="M229.79,481.92c-2.51,1.61-5.87,1.14-7.13-.98-1.22-2.07-.21-5.12,2.23-6.67,2.51-1.61,5.87-1.14,7.13.98,1.22,2.07.21,5.12-2.23,6.67Z"/>
      <path d="M356.32,420.5c-1.27-2.14-.1-5.37,2.47-6.84,2.52-1.44,5.7-.92,6.91,1.13,1.27,2.14.1,5.37-2.47,6.84-2.52,1.44-5.7.92-6.91-1.13Z"/>
      <path d="M188.66,488.66c-1.34-2.08-.28-5.34,2.25-6.92,2.54-1.58,5.92-1.1,7.19,1.03,1.23,2.06.22,5.15-2.19,6.74-2.49,1.64-5.9,1.24-7.24-.85Z"/>
      <path d="M378.58,403.34c2.48-1.64,5.88-1.24,7.23.84,1.34,2.07.29,5.32-2.23,6.9-2.43,1.52-5.67,1.15-7.05-.82-1.41-2.01-.44-5.28,2.05-6.93Z"/>
      <path d="M316.5,441.9c-1.35-2.08-.44-5.01,2.07-6.63,2.51-1.62,5.57-1.26,6.93.82,1.35,2.08.44,5.01-2.07,6.63-2.51,1.62-5.57,1.26-6.92-.82Z"/>
      <path d="M374.83,363.02c-3.41,2.88-7.03,3.14-9.37.97-2.17-2.02-1.8-5.82.82-8.27.94-.88,1.93-1.65,2.85-.41,1.88,2.53,3.75,5.07,5.7,7.71Z"/>
      <path d="M298.67,446.24c2.54-1.67,5.52-1.33,6.89.77,1.37,2.11.47,4.96-2.1,6.57-2.47,1.56-5.34,1.24-6.71-.75-1.43-2.07-.6-4.94,1.92-6.6Z"/>
      <path d="M352.69,427.79c2.49-1.57,5.33-1.22,6.67.81,1.38,2.12.45,4.96-2.17,6.54-2.5,1.52-5.33,1.09-6.61-.99-1.28-2.08-.38-4.8,2.11-6.37Z"/>
      <path d="M202.96,491.68c-1.29-2.17-.24-5,2.41-6.54,2.52-1.46,5.34-.98,6.59,1.12,1.29,2.17.24,5-2.41,6.54-2.52,1.46-5.34.98-6.59-1.12Z"/>
      <path d="M257.15,473.62c-1.25-2.08-.32-4.8,2.17-6.36,2.59-1.61,5.51-1.15,6.77,1.07,1.19,2.1.18,4.82-2.35,6.34-2.5,1.5-5.33,1.05-6.59-1.05Z"/>
      <path d="M283.8,463.71c-2.57,1.63-5.51,1.21-6.8-.96-1.24-2.08-.33-4.79,2.15-6.36,2.57-1.63,5.51-1.21,6.8.96,1.24,2.08.33,4.79-2.15,6.36Z"/>
      <path d="M372.82,417.2c2.57-1.6,5.55-1.16,6.84,1.01,1.28,2.16.26,5.02-2.35,6.56-2.5,1.48-5.35,1.06-6.66-.98-1.35-2.12-.41-4.99,2.17-6.59Z"/>
      <path d="M333.4,438.34c2.47-1.51,5.34-1.08,6.59.99,1.24,2.06.29,4.82-2.2,6.34-2.47,1.51-5.34,1.08-6.59-.99-1.24-2.06-.29-4.82,2.2-6.34Z"/>
      <path d="M384.53,426.57c-1.26-2.09-.33-4.83,2.18-6.39,2.34-1.46,5.4-1.21,6.35.53,1.19,2.17.23,5.63-1.9,6.91-2.52,1.51-5.36,1.06-6.62-1.05Z"/>
      <path d="M223.83,495.85c-2.4,1.51-5.43,1.07-6.61-.97-1.14-1.96-.19-4.73,2.13-6.19,2.41-1.51,5.43-1.07,6.61.97,1.14,1.96.19,4.73-2.13,6.19Z"/>
      <path d="M237.11,484.09c-1.25-2.04-.28-4.85,2.19-6.35,2.46-1.49,5.38-1.01,6.57,1.07,1.14,1.99.21,4.69-2.14,6.17-2.44,1.54-5.37,1.15-6.63-.9Z"/>
      <path d="M351.79,448.38c-2.24,1.48-5.27,1.16-6.53-.7-1.25-1.85-.38-4.74,1.88-6.24,2.24-1.48,5.27-1.16,6.53.7,1.25,1.85.38,4.74-1.88,6.24Z"/>
      <path d="M291.26,466.06c-1.27-2.04-.27-4.9,2.21-6.38,2.38-1.42,5.23-.99,6.45.97,1.27,2.04.27,4.9-2.21,6.38-2.38,1.42-5.23.99-6.45-.97Z"/>
      <path d="M273.27,470.25c2.33-1.43,5.31-1.01,6.48.93,1.18,1.94.21,4.8-2.12,6.23-2.33,1.43-5.31,1.01-6.48-.93-1.18-1.94-.21-4.8,2.12-6.23Z"/>
      <path d="M197.09,505.37c-1.2-2.03-.12-4.93,2.34-6.34,2.36-1.35,5.24-.86,6.38,1.09,1.2,2.03.12,4.93-2.34,6.34-2.36,1.35-5.24.86-6.38-1.09Z"/>
      <path d="M317.77,456.05c-2.43,1.56-5.37,1.18-6.64-.86-1.26-2.03-.31-4.85,2.15-6.35,2.36-1.44,5.19-1.07,6.46.83,1.33,2,.45,4.82-1.97,6.38Z"/>
      <path d="M387.35,387.78c.8,2.56,1.59,5.1,2.4,7.63.39,1.23-.14,1.98-1.58,2.44-2.33.75-4.24.47-5.72-.98-1.42-1.39-1.65-3.16-.75-5.15,1.05-2.3,2.93-3.62,5.65-3.95Z"/>
      <path d="M365.29,437.03c-1.13-1.93-.12-4.81,2.18-6.19,2.31-1.39,5.3-.92,6.43,1,1.13,1.93.12,4.81-2.18,6.19-2.31,1.39-5.3.92-6.43-1Z"/>
      <path d="M251.33,487.35c-1.18-1.91-.18-4.83,2.12-6.21,2.31-1.4,5.34-.92,6.44,1.02,1.06,1.88.12,4.64-2.06,6.04-2.27,1.45-5.32,1.06-6.49-.85Z"/>
      <path d="M231.27,497.91c-1.23-1.85-.31-4.78,1.95-6.22,2.26-1.44,5.31-1.03,6.47.87,1.11,1.82.24,4.6-1.9,6.04-2.21,1.49-5.29,1.16-6.53-.69Z"/>
      <path d="M305.42,468.91c-1.23-1.84-.39-4.57,1.86-6.01,2.25-1.44,5.09-1.07,6.26.82,1.12,1.81.31,4.4-1.81,5.84-2.2,1.49-5.08,1.2-6.31-.64Z"/>
      <path d="M325.45,458.32c-1.13-1.88-.2-4.6,2.04-5.98,2.25-1.38,5.09-.96,6.22.91,1.13,1.88.2,4.6-2.04,5.98-2.25,1.38-5.09.96-6.22-.91Z"/>
      <path d="M211.48,508.7c-1.2-1.82-.33-4.6,1.88-6.03,2.2-1.43,5.1-1.09,6.3.74,1.2,1.82.33,4.6-1.88,6.03-2.2,1.43-5.1,1.09-6.3-.74Z"/>
      <path d="M184.12,474.3c.05-3.62.11-7.07.16-10.5,3.55-.86,6.18.71,6.43,3.75.27,3.3-2.33,6.06-6.59,6.75Z"/>
      <path d="M271.63,490.83c-2.21,1.46-4.82,1.21-6.06-.58-1.31-1.88-.51-4.48,1.81-5.93,2.23-1.4,4.81-1.08,6,.75,1.2,1.84.44,4.31-1.75,5.76Z"/>
      <path d="M285.59,479.56c-1.13-1.87-.3-4.31,1.94-5.71,2.32-1.45,4.98-1.03,6.1.96,1.06,1.89.15,4.34-2.12,5.69-2.25,1.34-4.78.94-5.92-.94Z"/>
      <path d="M365.52,451.52c-2.25,1.36-4.78.96-5.9-.93-1.11-1.88-.25-4.31,2.02-5.68,2.25-1.36,4.78-.96,5.9.93,1.11,1.87.25,4.31-2.02,5.68Z"/>
      <path d="M192.12,518.91c-1.3-2.05-.61-4.46,1.68-5.94,2.22-1.43,4.81-1.14,6.02.67,1.28,1.9.45,4.48-1.89,5.92-2.16,1.33-4.74,1.04-5.81-.65Z"/>
      <path d="M381.75,434.57c2.07-1.29,4.72-.92,5.78.8,1.06,1.72.21,4.26-1.85,5.55-2.07,1.29-4.72.92-5.78-.8-1.06-1.72-.21-4.26,1.85-5.55Z"/>
      <path d="M226.12,511.18c-1.22-1.81-.43-4.33,1.79-5.72,2.13-1.34,4.64-1.04,5.8.68,1.22,1.81.43,4.33-1.79,5.72-2.13,1.34-4.64,1.04-5.8-.68Z"/>
      <path d="M301.67,477.29c2.05-1.31,4.66-1,5.79.67,1.17,1.75.31,4.39-1.86,5.69-2.08,1.25-4.67.87-5.73-.84-1.06-1.72-.24-4.21,1.81-5.52Z"/>
      <path d="M353.81,464.44c-1.1-1.66-.31-4.23,1.71-5.55,2.01-1.31,4.7-1.01,5.81.66,1.1,1.66.31,4.23-1.71,5.55-2.01,1.31-4.7,1.01-5.81-.66Z"/>
      <path d="M325.66,472.72c-2.11,1.37-4.64,1.12-5.84-.57-1.26-1.78-.53-4.31,1.67-5.74,2.2-1.43,4.83-1.1,5.96.77,1.09,1.78.31,4.17-1.79,5.54Z"/>
      <path d="M206.24,522.03c-1.19-1.78-.38-4.33,1.81-5.69,2.1-1.3,4.63-.99,5.76.71,1.19,1.78.38,4.33-1.81,5.69-2.1,1.3-4.63.99-5.76-.71Z"/>
      <path d="M339.84,461.53c-1.16-1.83-.34-4.3,1.89-5.68,2.22-1.37,4.79-.98,5.89.89,1.05,1.78.26,4.15-1.83,5.51-2.2,1.43-4.78,1.11-5.94-.72Z"/>
      <path d="M251.59,501.7c-2.23,1.41-4.8,1.05-5.93-.82-1.13-1.86-.27-4.33,2-5.69,2.15-1.29,4.61-.95,5.75.8,1.2,1.84.42,4.3-1.81,5.71Z"/>
      <path d="M279.78,493.27c-1.04-1.69-.15-4.31,1.9-5.54,2.05-1.23,4.77-.79,5.73.93.93,1.66.08,4.13-1.84,5.36-2,1.29-4.75.93-5.79-.75Z"/>
      <path d="M266,504.66c-2.06,1.21-4.79.73-5.69-1.01-.87-1.69.07-4.18,2.01-5.33,2.06-1.21,4.79-.73,5.69,1.01.87,1.69-.07,4.18-2.01,5.33Z"/>
      <path d="M242.27,508.78c1.99-1.13,4.59-.68,5.52.95.99,1.74-.04,4.38-2.13,5.48-2.05,1.08-4.6.56-5.45-1.12-.87-1.7.1-4.21,2.06-5.32Z"/>
      <path d="M339.64,475.94c-1.93,1.22-4.57.9-5.63-.68-1.1-1.65-.21-4.33,1.84-5.55,1.97-1.17,4.59-.77,5.57.85.98,1.62.14,4.15-1.78,5.37Z"/>
      <path d="M375.93,448.33c2-1.13,4.61-.68,5.54.95.99,1.74-.05,4.39-2.14,5.5-2.05,1.08-4.61.55-5.46-1.12-.87-1.71.1-4.22,2.07-5.33Z"/>
      <path d="M320.05,485.98c-1.94,1.3-4.54,1.02-5.61-.6-1.07-1.62-.28-4.1,1.7-5.35,1.89-1.19,4.34-.93,5.43.58,1.13,1.57.43,4.06-1.52,5.37Z"/>
      <path d="M226.01,525.77c-1.95,1.23-4.25.98-5.33-.59-1.14-1.65-.43-3.98,1.61-5.27,2.04-1.29,4.45-.94,5.46.79.96,1.65.21,3.84-1.73,5.07Z"/>
      <path d="M296.35,490.98c2.06-1.27,4.41-.9,5.4.85.94,1.66.18,3.81-1.79,5.03-2.06,1.27-4.41.9-5.4-.85-.94-1.66-.18-3.81,1.79-5.03Z"/>
      <path d="M276.08,501.56c1.95-1.3,4.24-1.09,5.36.48,1.18,1.67.49,3.96-1.58,5.26-1.98,1.25-4.24.97-5.3-.66-1.07-1.63-.42-3.8,1.52-5.09Z"/>
      <path d="M348.54,477.46c-.88-1.6-.11-3.69,1.78-4.84,1.98-1.21,4.26-.82,5.19.88.92,1.68.02,3.88-2.03,4.98-1.93,1.04-4.06.6-4.95-1.02Z"/>
      <path d="M368.27,467.35c-.93-1.57-.19-3.7,1.68-4.86,1.96-1.22,4.3-.83,5.21.87.86,1.6.04,3.73-1.86,4.84-1.89,1.1-4.1.73-5.03-.84Z"/>
      <path d="M254.76,517.39c-1.02-1.63-.24-3.84,1.75-5.01,1.89-1.11,4.06-.78,5.03.77,1.02,1.63.24,3.84-1.75,5.01-1.89,1.11-4.06.78-5.03-.77Z"/>
      <path d="M200.61,535.37c-.93-1.57-.19-3.7,1.68-4.86,1.96-1.22,4.3-.83,5.21.87.86,1.6.04,3.73-1.86,4.84-1.89,1.1-4.1.73-5.03-.84Z"/>
      <path d="M186.35,494.9c3.49-.65,5.66.36,6.22,2.61.6,2.42-.67,4.62-4.09,6.54-.72-3.1-1.42-6.09-2.13-9.16Z"/>
      <path d="M214.76,538.69c-.92-1.52-.19-3.7,1.61-4.84,1.9-1.21,4.3-.84,5.2.8.85,1.55.04,3.73-1.79,4.82-1.84,1.09-4.1.74-5.02-.78Z"/>
      <path d="M234.71,527.93c-.99-1.47-.35-3.67,1.41-4.87,1.86-1.27,4.29-.99,5.26.61.93,1.51.21,3.7-1.59,4.85-1.8,1.15-4.09.89-5.08-.58Z"/>
      <path d="M333.89,489.14c-1.83,1.14-4.09.86-5.07-.64-1.03-1.57-.25-3.87,1.7-5.02,1.85-1.09,4.1-.72,5.01.81.92,1.53.18,3.7-1.65,4.84Z"/>
      <path d="M288.97,509.77c-.93-1.39-.26-3.59,1.44-4.7,1.68-1.1,3.98-.85,4.91.55.93,1.39.26,3.59-1.44,4.7-1.68,1.1-3.98.85-4.91-.55Z"/>
      <path d="M308.69,498.87c-.9-1.5-.09-3.79,1.72-4.86,1.82-1.07,4.27-.69,4.99.88.79,1.71.23,3.36-1.65,4.66-1.73,1.2-4.16.81-5.06-.69Z"/>
      <path d="M273.62,520.87c-1.73,1.05-3.98.71-4.84-.72-.86-1.44-.11-3.61,1.61-4.65,1.73-1.05,3.98-.71,4.84.72.86,1.44.11,3.61-1.61,4.65Z"/>
      <path d="M249,530.91c-.75-1.7-.27-3.22,1.59-4.43,1.77-1.15,3.98-.76,4.71.84.78,1.69.16,3.27-1.75,4.36-1.93,1.11-3.48.69-4.55-.77Z"/>
      <path d="M343.14,491.41c-.72-1.44-.35-2.95,1.48-4.21,1.74-1.21,3.91-.92,4.72.64.85,1.63.31,3.14-1.54,4.35-1.68,1.1-3.66.8-4.67-.78Z"/>
      <path d="M229.12,541.64c-.93-1.71-.64-3.25,1.22-4.49,1.84-1.23,3.51-1.1,4.56.42,1.04,1.51.61,3.09-1.23,4.35-1.86,1.27-3.4.93-4.55-.28Z"/>
      <path d="M363.03,480.5c-.68-1.69-.17-3.21,1.76-4.3,1.94-1.09,3.55-.74,4.42.87.88,1.63.21,3.2-1.7,4.28-1.95,1.11-3.44.65-4.47-.86Z"/>
      <path d="M283.2,523.27c-.66-1.58-.32-3.08,1.49-4.17,1.8-1.08,3.41-.85,4.3.64.9,1.49.36,3.04-1.43,4.14-1.81,1.11-3.28.73-4.37-.61Z"/>
      <path d="M327.96,502.45c-2.06,1.16-3.7,1.14-4.72-.43-1.01-1.55-.51-3.12,1.38-4.32,1.76-1.12,3.34-.95,4.36.45,1.11,1.52.47,3.01-1.02,4.3Z"/>
      <path d="M303.28,512.89c-.79-1.65-.42-3.18,1.5-4.34,1.91-1.16,3.53-.88,4.46.72.88,1.5.36,3-1.39,4.14-1.89,1.23-3.42.91-4.57-.51Z"/>
      <path d="M318.97,511c1.29.38,2.98.42,3.77,1.22,1.11,1.13.48,2.83-1.14,3.9-1.63,1.07-3.45.96-4.07-.49-.44-1.04.19-2.59.35-3.92.36-.24.73-.48,1.09-.72Z"/>
      <path d="M342.55,505.4c-2.62,1.27-4.23,1.22-5.11-.28-.82-1.38-.31-2.92,1.33-3.96,1.76-1.11,3.61-.95,4.22.63.41,1.05-.29,2.61-.44,3.61Z"/>
      <path d="M359.12,489.59c1.26.43,2.94.53,3.69,1.38,1.04,1.18.36,2.87-1.31,3.88-1.66,1-3.47.84-4.01-.65-.39-1.06.31-2.6.52-3.93.37-.23.74-.45,1.12-.68Z"/>
      <path d="M243.18,544.16c.61-1.28.95-2.77,1.9-3.8,1.13-1.22,3.63-.83,4.29.46.73,1.44.34,3.1-1.35,3.9-1.23.57-2.82.24-4.25.31-.2-.29-.4-.58-.59-.87Z"/>
      <path d="M268.61,534.28c-2.63,1.32-4.24,1.3-5.17-.19-.86-1.38-.37-2.92,1.27-3.99,1.76-1.15,3.62-1.02,4.27.56.43,1.05-.24,2.62-.37,3.62Z"/>
      <path d="M210.24,548.19c2.61-1.32,4.23-1.31,5.16.18.86,1.37.37,2.92-1.25,3.98-1.74,1.15-3.61,1.02-4.27-.55-.44-1.05.23-2.62.36-3.61Z"/>
      <path d="M350.24,508.73c1.09-2.11,1.44-3.72,2.48-4.59,1.45-1.22,3.19-.88,4.12.44,1.12,1.58-.16,3.24-1.61,4.06-1.04.59-2.65.1-5,.09Z"/>
      <path d="M185.91,432.42c4.34,3.06,4.08,7.06-.43,10.88.14-3.59.27-6.95.43-10.88Z"/>
      <path d="M355.27,341.92c2.69,2.36,5.14,4.51,7.66,6.72-5.14,1.61-8.71-1.4-7.66-6.72Z"/>
      <path d="M297.48,526.02c.58-1.21.85-2.72,1.8-3.55,1.47-1.28,3.16-1,4.05.42.82,1.32.39,2.91-1.25,3.67-1.17.54-2.66.25-4.01.33-.2-.29-.39-.58-.59-.86Z"/>
      <path d="M259.93,543.1c1.08.41,2.75.55,3.07,1.32.34.82-.25,2.6-1.08,3.34-1.38,1.23-3.12.91-3.62-.57-.32-.94.29-2.27.49-3.43.38-.22.76-.44,1.14-.67Z"/>
      <path d="M230.02,552.25c-.72,1.13-1.21,2.56-2.22,3.32-1.49,1.11-2.98.63-3.69-.74-.73-1.4-.17-2.93,1.52-3.56,1.17-.44,2.59-.02,3.9,0,.17.33.33.65.5.98Z"/>
      <path d="M277.45,536.43c.59-1.17.91-2.61,1.84-3.44,1.39-1.22,3.19-1.02,3.68.45.3.91-.19,2.76-1,3.37-.89.67-2.54.42-3.87.56-.22-.31-.44-.63-.66-.94Z"/>
      <path d="M312.72,524.74c1.91.49,3.69.46,3.95,1.13.34.87-.54,2.29-.89,3.47-1.17-.15-2.82.08-3.37-.56-.52-.61.1-2.12.3-4.04Z"/>
      <path d="M237.26,558.38c.96-1.85,1.32-3.5,2.11-3.82,1.03-.42,2.39.22,3.61.41-.42,1.11-.53,2.63-1.35,3.22-.78.56-2.3.16-4.37.19Z"/>
      <path d="M392.01,406.5c.37,2.8.71,5.39,1.06,8.07-4.1-.6-4.65-4.45-1.06-8.07Z"/>
      <path d="M335.7,519.3c-1.06-.31-2.71-.32-3.04-1.02-.35-.74.23-2.44,1.01-3.12.53-.46,2.61-.27,3.06.31.52.66,0,2.08-.08,3.17-.32.22-.64.44-.96.66Z"/>
      <path d="M291.6,540.13c1.04-1.76,1.4-3.07,2.21-3.52.7-.39,2.58-.11,2.75.39.27.76-.17,2.31-.88,2.87-.66.52-2.06.18-4.09.26Z"/>
      <path d="M271.65,550.65c.91-1.7,1.2-3.01,1.98-3.48.68-.41,1.91.13,2.9.25-.32,1-.34,2.28-1.04,2.93-.54.5-1.93.2-3.84.31Z"/>
      <path d="M251.92,561.21c.92-1.52,1.27-2.74,2.04-3.16.64-.35,2.41.04,2.51.48.16.76-.34,2.09-1.04,2.67-.52.43-1.79.05-3.5,0Z"/>
      <path d="M326.11,532.43c.74-1.51.97-2.75,1.63-3.11.7-.38,1.82.08,2.76.17-.26.89-.24,2.09-.86,2.59-.58.48-1.83.22-3.54.34Z"/>
      <path d="M198.06,543.36c3.82.7,4.52,2.03,3.1,5.67-1.1-2.01-1.97-3.6-3.1-5.67Z"/>
      <path d="M310.04,543.45c-1.29-.43-2.35-.48-2.67-.98-.26-.42.34-1.39.56-2.12.82.09,1.89-.06,2.37.36.35.3-.09,1.36-.27,2.74Z"/>
      <path d="M287.4,550.38c1.28.3,2.37.25,2.63.69.27.47-.25,1.41-.43,2.15-.78-.04-1.85.18-2.24-.2-.37-.36-.01-1.36.05-2.64Z"/>
      <path d="M266.86,564.13c.54-1.07.77-2.1,1.2-2.25.66-.23,1.47.15,2.22.27-.27.66-.36,1.56-.86,1.9-.47.33-1.36.07-2.56.07Z"/>
    </g>
  </g>
  <path class="cls-1" d="M359.23,175.67c-.6-5.4-1.33-6.05-4.37-5.02-2.41-1.34-3.55-3.77-5.94-3.07-1.65.49-2.78,3.03-4.41,5.04-.23-3.05-.51-5.91-.64-8.78-.13-2.84,0-5.7-.25-8.53-.08-.85-.66-2.41-1.68-2.41-1.5-.17-1.87,1.19-2.18,2.02-.54,1.44-.72,3.05-.8,4.61-.36,6.85-.63,13.71-.91,20.57-.06,1.46-.1,3,.09,4.38,1.29,9.45-1.86,15.28-1.86,15.28-4.44,7.03-9.04,15.46-13.27,20.71-4.42,5.49-9.61,10.36-14.15,15.76-1.98,2.35-4.15,3.7-7.06,4.3-6.15,1.27-12.26,2.72-18.41,3.97-1.19.24-2.4.42-3.61.59-.28-1.27-.66-2.27-1.17-2.66-1.76-1.34-6.82-.44-9-.44-3.63,0-7.29-.16-10.92-.34-3.62-.18-7.16-.76-10.69-1.54-3.01-.66-7.07,1.22-10.01.88-3.68-.42-7.96-2.86-11.71-2.45-1.57.17-4.53-.16-7.42-.4l-1.82-9.92c2.21-2.39,4.62-4.64,6.54-7.25,1.03-1.4,1.5-3.39,1.7-5.17.35-3.04.17-6.14.43-9.19.41-4.91,1.11-9.8,1.42-14.71.1-1.6-.24-3.59-1.18-4.77-.59-.75-2.66-.33-4.67-.48-3.36-7.66-10.37-8.95-18.35-8.25-.73.06-1.55-.56-2.3-.92-3.51-1.68-6.96-3.78-11.08-2.09-2.08.85-4.12,1.8-6.13,2.81-1.95.98-2.84,2.28-1.38,4.48.42.64.39,2.05-.04,2.72-2.26,3.52-4.73,6.9-2.32,11.37.2.37.04.95.02,1.43-.12,3.02-.24,6.05-.38,9.07-.05,1.16.33,2.74-.28,3.4-3.39,3.69-.75,7.27.06,10.8.17.74,1.8,1.15,2.84,1.7.01.02.02.04.03.06.46.77,1.05,1.41,1.64,2.05.18,1.21.37,2.42.58,3.63.81,4.61,2.22,9.12,3.12,13.72.03.17,0,.39-.07.63-2.52.14-4.97.4-6.53.28-1.78-.14-3.14-.45-4.36-.86-2.66.05-5.31.21-7.96.5-4.5.49-8.87,1.56-13.34,2.23-4.09.61-8.21,1.09-12.36,1.09-1.62,0-3.23-.03-4.83-.31-1.26-.22-2.51-.49-3.78-.68-.03,0-.08-.01-.11-.02-2.04-.12-4.18-.1-5.2.68-.52.4-.89,1.39-1.17,2.66-1.21-.16-2.42-.34-3.61-.59-6.15-1.25-12.26-2.7-18.41-3.97-2.91-.6-5.08-1.95-7.06-4.3-4.54-5.41-9.73-10.27-14.15-15.76-4.22-5.25-8.83-13.68-13.27-20.71,0,0-3.15-5.83-1.86-15.28.19-1.38.15-2.91.09-4.38-.27-6.86-.55-13.71-.91-20.57-.08-1.55-.27-3.17-.8-4.61-.31-.83-.68-2.2-2.18-2.02-1.01,0-1.6,1.56-1.68,2.41-.26,2.83-.12,5.69-.25,8.53-.13,2.87-.41,5.73-.64,8.78-1.63-2.01-2.76-4.55-4.41-5.04-2.39-.71-3.53,1.72-5.94,3.07-3.03-1.03-3.76-.38-4.37,5.02-3.67.76-4.47,2.98-2.47,6.14.99,1.56,1.71,3.3,2.13,5.1,1.18,5.08,2.33,10.05,6.16,14.06,1.46,1.53,2.02,3.99,2.81,6.09,5.54,14.69,13.02,28.33,21.94,41.23,1.32,1.92,2.03,4.27,3.4,6.14,1.08,1.48,2.54,3.09,4.18,3.68,9.59,3.41,19.17,6.96,28.99,9.57,5.03,1.34,8.65,1.25,9.66,5.58.49,2.11,5.32-1.09,7-1,6.55.35,7.97,6.88,14.44,7.82,1.41.21,2.81.57,4.2,1.04.17-.13.38-.2.65-.13,3.44.97,6.02,2.97,7.19,6.41.53,1.56.78,3.2,1.11,4.82.44,2.22,1.24,4.26,2.09,6.35,1.66,4.12,2.03,8.52,2.25,12.92.24,4.74.17,9.49.36,14.23.19,4.79.96,9.53,1.59,14.28.51,3.84,1.18,7.76,1.26,11.63.07,3.64-1.36,6.72-2.69,10.02-1.58,3.94-2.82,8.01-4.06,12.06-1.12,3.66-2.26,7.36-3.63,10.95,1.61.2,3.22.43,4.83.68-1.61,5.45-4.09,10.57-5.82,15.99-.01.02-.02.03-.04.06-.08.17-.17.48-.26.86-.65,2.15-1.18,4.35-1.47,6.65-.36,2.86-.44,5.6-.27,8.3-.01,1.86.14,3.67.6,5.6.35,1.45.85,3.17,1.44,4.94.93,4.05.98,8.41.98,12.29,0,2.6-.12,5.19-.26,7.79-.24,4.45,0,9.11-1.33,13.25-2.75,8.6-2.4,17.01-.37,25.54,3.87,16.22,7.74,32.43,11.72,48.62,1.11,4.5,1.46,9.03-.07,13.34-1.05,2.99-.67,5.72-.13,8.43-.07.26-.17.52-.3.81-1.4,2.86-3.16,5.4-3.95,8.4-1.54,1.96-1.94,4.07-.84,6.41.46.96,1.95,1.99,2.98,2.01,2.27.03,4.55-.54,6.81-.91,2.77-.46,5.55-.93,8.31-1.46,1.49-.29,2.95-.98,4.44-1.02,5.07-.13,6.79-2.42,5.15-7.14-.23-.65-.49-1.28-.73-1.93,0,0-.02-.01-.03-.02.44-2.02,1.33-4.08,1.2-6.06-.41-6.09-.73-12.32-3.58-17.87-2.75-5.36-3.86-10.89-3.04-16.79,1.52-10.96,3.16-21.91,4.72-32.86.19-1.35.2-2.74.25-4.11.33-8.27,10.77-12.73,8.89-20.65-.47-1.98,2.47-9.46,2.64-11.45,1.03-11.99-9.77-19.5.05-25.61,1.18,12.96,2.4,26.36,3.59,39.45-.86.72-1.85,1.28-2.47,2.12-2.69,3.58-3.28,7.56-2.59,11.99.47,3.01,1.6,6.12.7,9.15-.32,0-.68.05-1.15.11-2.23.31-6.48-.08-7.35,2.28-.02-.04-.03-.06-.05-.1-1.6,4.47-1.86,7.89-1.05,11.43.33,1.42.94,2.97.67,4.31-1.36,6.83-.02,13.86-2.85,20.74-2.43,5.92.87,11.98,3.64,17.52,1.23,2.47,3.24,4.02,6.07,3.96,2.99-.07,5.08-1.9,5.94-4.56,1.77-5.49,3.45-11.03,4.63-16.66.39-1.85.34-3.78.24-5.73.13-1.14.29-2.29.52-3.41.78-3.71,1.68-7.32.73-11.07-.18-.73-.45-1.42-.68-2.11-.12-.37-.21-.76-.29-1.16.15-1.36.81-2.52,1.75-3.62,4.71-5.51,9.47-10.97,14.23-16.42.3-.35.83-.51,1.24-.77,3.34-2.12,5.12-5.14,5.84-9.06.75-4.12,1.63-8.27,3.07-12.18,2.27-6.15,5.18-12.06,7.6-18.16,4.14-10.47,3.19-21.76,4.87-32.63,1.14-7.33,1.24-14.84,1.53-22.29.74-1.23,1.34-2.55,1.72-3.95.1-.36.14-.72.15-1.09.4-.09.87-.12,1.45-.08,2.2.14,3.36-.63,2.69-3.39-1.59-6.54-2.93-13.15-4.11-19.78-.28-1.55-.21-3.16-.14-4.82-.35-1.43-.65-2.88-.86-4.35-.24-1.68-.5-3.36-.78-5.04-.29-4.52.41-9.86-.83-14.25-1.14-4.02-1.17-6.67-1.34-11.11-.27-6.73-3.74-12.88-5.46-19.33,1.11-1.65,1.3-4.84,1.46-7.68,1.61-4.29,1.63-5.08,4.7-9.78.35-.54,4.47-5.67,4.77-5.28,3.08-1.7,6.5-3.09,9.91-3.59,6.47-.94,13.08-.92,19.63-1.27,1.68-.09,2.73-.39,3.22-2.5,1.01-4.34,3.22-7.29,8.25-8.63,9.82-2.61,19.4-6.16,28.99-9.57,1.64-.58,3.1-2.2,4.18-3.68,1.37-1.87,2.07-4.22,3.4-6.14,8.91-12.9,16.4-26.54,21.94-41.23.79-2.1,1.35-4.56,2.81-6.09,3.83-4.02,4.98-8.98,6.16-14.06.42-1.8,1.13-3.54,2.13-5.1,2-3.16,1.2-5.38-2.47-6.14ZM187.83,565.7c-.05-.25-.1-.5-.15-.75.13.28.27.58.41.9-.09-.05-.18-.1-.26-.15Z"/>
  <path class="cls-5" d="M342.93,172.98c-.6-5.4-1.33-6.05-4.37-5.02-2.41-1.34-3.55-3.77-5.94-3.07-1.65.49-2.78,3.03-4.41,5.04-.23-3.05-.51-5.91-.64-8.78-.13-2.84,0-5.7-.25-8.53-.08-.85-.66-2.41-1.68-2.41-1.5-.17-1.87,1.19-2.18,2.02-.54,1.44-.72,3.05-.8,4.61-.36,6.85-.63,13.71-.91,20.57-.06,1.46-.1,3,.09,4.38,1.29,9.45-1.86,15.28-1.86,15.28-4.44,7.03-9.04,15.46-13.27,20.71-4.42,5.49-9.61,10.36-14.15,15.76-1.98,2.35-4.15,3.7-7.06,4.3-6.15,1.27-12.26,2.72-18.41,3.97-1.19.24-2.4.42-3.61.59-.28-1.27-.66-2.27-1.17-2.66-1.76-1.34-6.82-.44-9-.44-3.63,0-7.29-.16-10.92-.34-3.62-.18-7.16-.76-10.69-1.54-3.01-.66-6.49-2.45-9.43-2.79-3.68-.42-8.53.81-12.29,1.22-1.57.17-4.53-.16-7.42-.4l-1.82-9.92c2.21-2.39,4.62-4.64,6.54-7.25,1.03-1.4,1.5-3.39,1.7-5.17.35-3.04.17-6.14.43-9.19.41-4.91,1.11-9.8,1.42-14.71.1-1.6-.24-3.59-1.18-4.77-.59-.75-2.66-.33-4.67-.48-3.36-7.66-10.37-8.95-18.35-8.25-.73.06-1.55-.56-2.3-.92-3.51-1.68-6.96-3.78-11.08-2.09-2.08.85-4.12,1.8-6.13,2.81-1.95.98-2.84,2.28-1.38,4.48.42.64.39,2.05-.04,2.72-2.26,3.52-4.73,6.9-2.32,11.37.2.37.04.95.02,1.43-.12,3.02-.24,6.05-.38,9.07-.05,1.16.33,2.74-.28,3.4-3.39,3.69-.75,7.27.06,10.8.17.74,1.8,1.15,2.84,1.7.01.02.02.04.03.06.46.77,1.05,1.41,1.64,2.05.18,1.21.37,2.42.58,3.63.81,4.61,2.22,9.12,3.12,13.72.03.17,0,.39-.07.63-2.52.14-4.97.4-6.53.28-1.78-.14-3.14-.45-4.36-.86-2.66.05-5.31.21-7.96.5-4.5.49-8.87,1.56-13.34,2.23-4.09.61-8.21,1.09-12.36,1.09-1.62,0-3.23-.03-4.83-.31-1.26-.22-2.51-.49-3.78-.68-.03,0-.08-.01-.11-.02-2.04-.12-4.18-.1-5.2.68-.52.4-.89,1.39-1.17,2.66-1.21-.16-2.42-.34-3.61-.59-6.15-1.25-12.26-2.7-18.41-3.97-2.91-.6-5.08-1.95-7.06-4.3-4.54-5.41-9.73-10.27-14.15-15.76-4.22-5.25-8.83-13.68-13.27-20.71,0,0-3.15-5.83-1.86-15.28.19-1.38.15-2.91.09-4.38-.27-6.86-.55-13.71-.91-20.57-.08-1.55-.27-3.17-.8-4.61-.31-.83-.68-2.2-2.18-2.02-1.01,0-1.6,1.56-1.68,2.41-.26,2.83-.12,5.69-.25,8.53-.13,2.87-.41,5.73-.64,8.78-1.63-2.01-2.76-4.55-4.41-5.04-2.39-.71-3.53,1.72-5.94,3.07-3.03-1.03-3.76-.38-4.37,5.02-3.67.76-4.47,2.98-2.47,6.14.99,1.56,1.71,3.3,2.13,5.1,1.18,5.08,2.33,10.05,6.16,14.06,1.46,1.53,2.02,3.99,2.81,6.09,5.54,14.69,13.02,28.33,21.94,41.23,1.32,1.92,2.03,4.27,3.4,6.14,1.08,1.48,2.54,3.09,4.18,3.68,9.59,3.41,19.17,6.96,28.99,9.57,5.03,1.34,7.24,4.3,8.25,8.63.49,2.11,1.54,2.41,3.22,2.5,6.55.35,13.16.33,19.63,1.27,1.41.21,2.81.57,4.2,1.04.17-.13.38-.2.65-.13,3.44.97,6.02,2.97,7.19,6.41.53,1.56.78,3.2,1.11,4.82.44,2.22,1.24,4.26,2.09,6.35,1.66,4.12,2.03,8.52,2.25,12.92.24,4.74.17,9.49.36,14.23.19,4.79.96,9.53,1.59,14.28.51,3.84,1.18,7.76,1.26,11.63.07,3.64-1.36,6.72-2.69,10.02-1.58,3.94-2.82,8.01-4.06,12.06-1.12,3.66-2.26,7.36-3.63,10.95,1.61.2,3.22.43,4.83.68-1.61,5.45-4.09,10.57-5.82,15.99-.01.02-.02.03-.04.06-.08.17-.17.48-.26.86-.65,2.15-1.18,4.35-1.47,6.65-.36,2.86-.44,5.6-.27,8.3-.01,1.86.14,3.67.6,5.6.35,1.45.85,3.17,1.44,4.94.93,4.05.98,8.41.98,12.29,0,2.6-.12,5.19-.26,7.79-.24,4.45,0,9.11-1.33,13.25-2.75,8.6-2.4,17.01-.37,25.54,3.87,16.22,7.74,32.43,11.72,48.62,1.11,4.5,1.46,9.03-.07,13.34-1.05,2.99-.67,5.72-.13,8.43-.07.26-.17.52-.3.81-1.4,2.86-3.16,5.4-3.95,8.4-1.54,1.96-1.94,4.07-.84,6.41.46.96,1.95,1.99,2.98,2.01,2.27.03,4.55-.54,6.81-.91,2.77-.46,5.55-.93,8.31-1.46,1.49-.29,2.95-.98,4.44-1.02,5.07-.13,6.79-2.42,5.15-7.14-.23-.65-.49-1.28-.73-1.93,0,0-.02-.01-.03-.02.44-2.02,1.33-4.08,1.2-6.06-.41-6.09-.73-12.32-3.58-17.87-2.75-5.36-3.86-10.89-3.04-16.79,1.52-10.96,3.16-21.91,4.72-32.86.19-1.35.2-2.74.25-4.11.33-8.27-2-16.11-3.88-24.04-.47-1.98-.95-4.09-.78-6.08,1.03-11.99,6.42-21.49,16.23-27.6,1.18,12.96,2.4,26.36,3.59,39.45-.86.72-1.85,1.28-2.47,2.12-2.69,3.58-3.28,7.56-2.59,11.99.47,3.01,1.6,6.12.7,9.15-.32,0-.68.05-1.15.11-2.23.31-6.48-.08-7.35,2.28-.02-.04-.03-.06-.05-.1-1.6,4.47-1.86,7.89-1.05,11.43.33,1.42.94,2.97.67,4.31-1.36,6.83-.02,13.86-2.85,20.74-2.43,5.92.87,11.98,3.64,17.52,1.23,2.47,3.24,4.02,6.07,3.96,2.99-.07,5.08-1.9,5.94-4.56,1.77-5.49,3.45-11.03,4.63-16.66.39-1.85.34-3.78.24-5.73.13-1.14.29-2.29.52-3.41.78-3.71,1.68-7.32.73-11.07-.18-.73-.45-1.42-.68-2.11-.12-.37-.21-.76-.29-1.16.15-1.36.81-2.52,1.75-3.62,4.71-5.51,9.47-10.97,14.23-16.42.3-.35.83-.51,1.24-.77,3.34-2.12,5.12-5.14,5.84-9.06.75-4.12,1.63-8.27,3.07-12.18,2.27-6.15,5.18-12.06,7.6-18.16,4.14-10.47,3.19-21.76,4.87-32.63,1.14-7.33,1.24-14.84,1.53-22.29.74-1.23,1.34-2.55,1.72-3.95.1-.36.14-.72.15-1.09.4-.09.87-.12,1.45-.08,2.2.14,3.36-.63,2.69-3.39-1.59-6.54-2.93-13.15-4.11-19.78-.28-1.55-.21-3.16-.14-4.82-.35-1.43-.65-2.88-.86-4.35-.24-1.68-.5-3.36-.78-5.04-.29-4.52.41-9.86-.83-14.25-1.14-4.02-1.17-6.67-1.34-11.11-.27-6.73-3.74-12.88-5.46-19.33,1.11-1.65,1.3-4.84,1.46-7.68,1.61-4.29,1.63-5.08,4.7-9.78.35-.54,4.47-5.67,4.77-5.28,3.08-1.7,6.5-3.09,9.91-3.59,6.47-.94,13.08-.92,19.63-1.27,1.68-.09,2.73-.39,3.22-2.5,1.01-4.34,3.22-7.29,8.25-8.63,9.82-2.61,19.4-6.16,28.99-9.57,1.64-.58,3.1-2.2,4.18-3.68,1.37-1.87,2.07-4.22,3.4-6.14,8.91-12.9,16.4-26.54,21.94-41.23.79-2.1,1.35-4.56,2.81-6.09,3.83-4.02,4.98-8.98,6.16-14.06.42-1.8,1.13-3.54,2.13-5.1,2-3.16,1.2-5.38-2.47-6.14ZM171.54,563.02c-.05-.25-.1-.5-.15-.75.13.28.27.58.41.9-.09-.05-.18-.1-.26-.15Z"/>
  <path class="cls-2" d="M53.18,195.52c-.3-.12-.6-.22-.9-.23-1.3-.06-1.2,1.95-1.16,2.82.17,3.58.98,7.18,2.41,10.47,1.57,3.59,3.72,6.88,5.72,10.24,2.18,3.65,4.04,7.47,6.26,11.09,2.41,3.94,5.17,8.31,9.06,10.97,1.37.94,3.02,1.7,4.72,1.39,1.93-.35,3.34-1.9,4.41-3.47-.49-.45-.97-.94-1.44-1.49-4.54-5.41-9.73-10.27-14.15-15.76-4.22-5.25-8.83-13.68-13.27-20.71,0,0-1.03-1.91-1.67-5.31Z"/>
  <path class="cls-2" d="M40.89,174.62c.87-.16,1.8-.25,2.6.2.88.5,1.58,1.31,2.16,2.11,2.16,2.97,3.3,6.51,3.94,10.09.29,1.65.51,3.36.4,5.04-.06.93-.28,2.22-1.11,2.74-.05,0-.09-.03-.14-.03-1.81,0-4.15.06-5.69-1.08-1.25-.92-1.29-2.58-1.17-3.99.18-2.12,1.05-4.19,1.02-6.33-.03-1.65-.97-3.04-1.72-4.45-.31-.59-.57-1.22-.95-1.78-.23-.33-.55-.62-.76-.96-.59-.98.69-1.43,1.43-1.56Z"/>
  <path class="cls-2" d="M189.5,195.94c-.03,1.54,1.09,2.88,2.61,3.13,2.03.34,4.02,1.11,5.59,2.29,2.27,1.72,3.6,5.08,2.22,7.74-1.14,2.2-3.5,3.27-5.16,4.99-1,1.04-1.68,2.47-2.28,3.79-1.01,2.22-1.83,4.51-2.43,6.88-.44,1.75-.81,3.61-.61,5.41.12,1.13.55,2.22,1.85,2.13,1.23-.09,2.12-1.02,2.88-1.91.94-1.1,1.35-2.91,2.72-3.41,3.86-1.43,4.68-2.29,7.03-5.03.24-.28.63-.39.87-.66.88-.96,1.73-1.94,2.5-2.98,1.03-1.4,1.5-3.39,1.7-5.17.05-.42.07-.85.1-1.27-.41-.21-.8-.45-1.15-.66-1.39-.86-2.58-2-3.52-3.33-1.81-2.58-2.53-5.78-2.69-8.89-.12-2.27.45-5.03-.48-7.17-.48-1.1-1.44-1.85-2.47-2.42-1.55-.86-3.26-1.5-4.92-2.1-.01,0-.03-.01-.04-.02-2.07-.75-4.22.82-4.2,3.02.01,1.89-.08,3.78-.11,5.67Z"/>
  <path class="cls-2" d="M306.36,253.58c-1.57.26-3.09.62-4.63,1.02-3.37.87-6.76,1.65-10.1,2.62-4.46,1.3-8.82,3.02-12.87,5.3-1.43.8-2.91,1.68-4.09,2.84.37-.13.72-.26,1.13-.37,9.82-2.61,19.4-6.16,28.99-9.57,1.03-.37,1.99-1.14,2.83-2.03-.42.07-.84.13-1.25.19Z"/>
  <path class="cls-2" d="M171.54,563.02c-.05-.25-.1-.5-.15-.75.13.28.27.58.41.9-.09-.05-.18-.1-.26-.15Z"/>
  <path class="cls-7" d="M264.54,255.3c-.09-4.46.4-8.89,1.3-13.25-.78.13-1.56.25-2.35.36-.28-1.27-.66-2.27-1.17-2.66-1.76-1.34-6.82-.44-9-.44-3.63,0-7.29-.16-10.92-.34-3.62-.18-7.16-.76-10.69-1.54-3.01-.66-6.49-2.45-9.43-2.79-3.38-.39-7.75.62-11.36,1.1-.68.7-1.38,1.38-2.13,2.02-6.73,5.68-15.54,8.22-24.15,9.21-3.54.41-7.39.51-10.77-.8-2.66-1.03-4.55-2.94-5.57-5.42-1.5.1-2.87.18-3.86.1-1.78-.14-3.14-.45-4.36-.86-2.66.05-5.31.21-7.96.5-4.5.49-8.87,1.56-13.34,2.23-4.09.61-8.21,1.09-12.36,1.09-1.62,0-3.23-.03-4.83-.31-1.26-.22-2.51-.49-3.78-.68-.03,0-.08-.01-.11-.02-2.04-.12-4.18-.1-5.2.68-.52.4-.89,1.39-1.17,2.66-1.21-.16-2.42-.34-3.61-.59-.02,0-.04,0-.07-.01,0,8.91-1.16,17.74-2.91,26.47,1.26,1.43,2.04,3.22,2.54,5.34.49,2.11,1.54,2.41,3.22,2.5,6.55.35,13.16.33,19.63,1.27,1.41.21,2.81.57,4.2,1.04.17-.13.38-.2.65-.13,3.44.97,6.02,2.97,7.19,6.41.53,1.56.78,3.2,1.11,4.82.44,2.22,1.24,4.26,2.09,6.35,1.66,4.12,2.03,8.52,2.25,12.92.24,4.74.17,9.49.36,14.23.19,4.79.96,9.53,1.59,14.28.51,3.84,1.18,7.76,1.26,11.63.07,3.64-1.36,6.72-2.69,10.02-1.58,3.94-2.82,8.01-4.06,12.06-1.12,3.66-2.26,7.36-3.63,10.95,1.28.16,2.56.35,3.84.54,2.68-1.02,5.62-1.44,8.43-1.64,4.3-.32,8.65-.1,12.95.16,9.62.58,18.45,4.81,27.77,6.84,4.06.89,8.31,1.22,12.46,1.39,3.66.15,7.34.05,10.99-.4,5.52-.68,10.88-2.27,15.86-4.69.11-.32.25-.63.34-.95.1-.36.14-.72.15-1.09.4-.09.87-.12,1.45-.08,2.2.14,3.36-.63,2.69-3.39-1.59-6.54-2.93-13.15-4.11-19.78-.28-1.55-.21-3.16-.14-4.82-.35-1.43-.65-2.88-.86-4.35-.24-1.68-.5-3.36-.78-5.04-.29-4.52.41-9.86-.83-14.25-1.14-4.02-1.17-6.67-1.34-11.11-.27-6.73-3.74-12.88-5.46-19.33,1.11-1.65,1.3-4.84,1.46-7.68,1.61-4.29,1.63-5.08,4.7-9.78.35-.54,4.47-5.67,4.77-5.28,3.08-1.7,6.5-3.09,9.91-3.59,6.47-.94,13.08-.92,19.63-1.27,1.68-.09,2.73-.39,3.22-2.5.03-.12.07-.24.1-.36-1.79-5.83-2.99-11.85-3.11-17.96Z"/>
  <path class="cls-3" d="M171.54,563.02c-.05-.25-.1-.5-.15-.75.13.28.27.58.41.9-.09-.05-.18-.1-.26-.15Z"/>
  <path class="cls-6" d="M102.46,247.45c4.21,1.81,8.87,2.7,13.45,2.49,5.1-.24,9.96-2.19,15.07-2.37,4.31-.15,8.63.01,12.94-.13,5.61-.18,11.41-.49,16.84-2.04,1.89-.54,3.98-1.26,5.39-2.7.57-.58.87-1.21.98-1.89-1.03.06-1.97.09-2.69.03-1.78-.14-3.14-.45-4.36-.86-2.66.05-5.31.21-7.96.5-4.5.49-8.87,1.56-13.34,2.23-4.09.61-8.21,1.09-12.36,1.09-1.62,0-3.23-.03-4.83-.31-1.26-.22-2.51-.49-3.78-.68-.03,0-.08-.01-.11-.02-2.04-.12-4.18-.1-5.2.68-.52.4-.89,1.39-1.17,2.66-1.21-.16-2.42-.34-3.61-.59-4.45-.91-8.89-1.9-13.33-2.87,2.49,1.88,5.15,3.51,8.05,4.76Z"/>
  <path class="cls-6" d="M134.34,282.18c.17-.13.38-.2.65-.13,3.44.97,6.02,2.97,7.19,6.41.53,1.56.78,3.2,1.11,4.82.44,2.22,1.24,4.26,2.09,6.35,1.66,4.12,2.03,8.52,2.25,12.92.24,4.74.17,9.49.36,14.23.19,4.79.96,9.53,1.59,14.28.51,3.84,1.18,7.76,1.26,11.63.07,3.64-1.36,6.72-2.69,10.02-1.58,3.94-2.82,8.01-4.06,12.06-1.12,3.66-2.26,7.36-3.63,10.95,1.61.2,3.22.43,4.83.68-.03.1-.07.2-.1.3,3.28-2.39,6.51-4.85,9.66-7.4,4.47-3.63,8.64-7.53,12.82-11.48,1.75-1.65,3.63-3.35,4.88-5.43,1.28-2.11.61-4.67.21-6.96-.46-2.64-.65-5.25-1.55-7.8-.92-2.6-1.97-5.09-2.31-7.85-.07-.56.39-.79.83-.72.2-.66-.84-2.16-1.14-2.62-.95-1.44-2.1-2.76-3.3-4.01-1-1.04-2.04-2.08-3.2-2.95-1.21-.91-2.6-1.9-3.32-3.29-.59-1.14-.56-2.42-.46-3.67.18-2.2.45-4.41.82-6.59.89-5.23,2.22-10.47,3.88-15.51.8-2.42,1.68-4.81,2.41-7.25.73-2.42,1.29-4.8.87-7.34-.4-2.41-1.4-4.66-2.53-6.81-1.03-1.96-2.02-4.13-3.56-5.74-2.37-2.47-5.62-2.56-8.83-2.4-4.83.25-9.65.6-14.48.85-10.15.52-20.38,1.04-30.27,3.52.25.66.48,1.35.65,2.1.49,2.11,1.54,2.41,3.22,2.5,6.55.35,13.16.33,19.63,1.27,1.41.21,2.81.57,4.2,1.04Z"/>
  <path class="cls-6" d="M230.01,286.26c.35-.54,4.47-5.67,4.77-5.28,2.93-1.62,6.18-2.94,9.42-3.49-3.19-.88-6.39-1.71-9.62-2.39-2.5-.53-4.92-.95-7.39-.07-1.8.65-3.29,1.9-4.57,3.29-2.79,3.02-4.75,6.84-7.9,9.53-3.35,2.86-7.14,5.18-10.31,8.26-1.53,1.48-3.04,3.18-3.81,5.2-.78,2.04-.4,4.09.27,6.11.82,2.47,2.04,4.79,3.27,7.07,1.19,2.2,2.35,4.42,3.58,6.6,3.12,5.56,6.48,10.99,9.92,16.36,5.09,7.93,10.38,15.73,15.48,23.65-.06-1.08-.03-2.18.02-3.31-.35-1.43-.65-2.88-.86-4.35-.24-1.68-.5-3.36-.78-5.04-.29-4.52.41-9.86-.83-14.25-1.14-4.02-1.17-6.67-1.34-11.11-.27-6.73-3.74-12.88-5.46-19.33,1.11-1.65,1.3-4.84,1.46-7.68,1.61-4.29,1.63-5.08,4.7-9.78Z"/>
  <path class="cls-6" d="M205.72,235.74c.09.43.22.85.42,1.24.65,1.27,1.92,1.92,3.25,2.26,1.77.45,3.64.46,5.46.44,2.88-.04,5.71-.22,8.59.02,5.37.46,10.57,1.83,15.72,3.34,5.29,1.54,10.57,3.14,15.93,4.41,2.65.63,5.32,1.18,8.02,1.57,2.2.32,4.45.5,6.65.04,3.82-.79,6.84-3.41,9.31-6.31,1.23-1.44,2.48-2.88,3.72-4.31-5.23,1.12-10.45,2.32-15.7,3.39-1.19.24-2.4.42-3.61.59-.28-1.27-.66-2.27-1.17-2.66-1.76-1.34-6.82-.44-9-.44-3.63,0-7.29-.16-10.92-.34-3.62-.18-7.16-.76-10.69-1.54-3.01-.66-6.49-2.45-9.43-2.79-3.68-.42-8.53.81-12.29,1.22-.99.11-2.54.02-4.27-.13Z"/>
  <path class="cls-7" d="M171.54,563.02c-.05-.25-.1-.5-.15-.75.13.28.27.58.41.9-.09-.05-.18-.1-.26-.15Z"/>
  <path class="cls-2" d="M156.21,411.3c1.52-1.58,3.07-3.14,4.62-4.69.89-.89,1.83-1.61,2.81-2.38,1.1-.86,2.17-1.75,3.17-2.72.82-.8,1.9-1.77,2.26-2.91.62-1.97-2.9-3.2-4.2-3.62-2.53-.82-5.18-1.21-7.8-1.63-3.57-.57-7.12-1.09-10.74-1.24-1.01-.04-2.02-.05-3.03-.04-1.31,3.43-2.73,6.82-3.86,10.33-.01.02-.02.03-.04.06-.08.17-.17.48-.26.86-.65,2.15-1.18,4.35-1.47,6.65-.36,2.86-.44,5.6-.27,8.3-.01,1.86.14,3.67.6,5.6.35,1.45.85,3.17,1.44,4.94.2.86.34,1.74.46,2.62,2.34-3.53,4.88-6.92,7.56-10.18,2.81-3.41,5.66-6.75,8.72-9.93Z"/>
  <path class="cls-3" d="M191.53,507.22c-.12-.37-.21-.76-.29-1.16.1-.91.44-1.72.93-2.5-2.5-.42-4.96-.94-7.01-2.66-1.67-1.39-2.57-3.29-2.92-5.4-.23-1.37-.36-2.75-.59-4.12-.14-.26-.29-.52-.43-.79-.05,0-.09.01-.15.02-2.23.31-6.48-.08-7.35,2.28-.02-.04-.03-.06-.05-.1-1.6,4.47-1.86,7.89-1.05,11.43.33,1.42.94,2.97.67,4.31-1.36,6.83-.02,13.86-2.85,20.74-2.43,5.92.87,11.98,3.64,17.52,1.23,2.47,3.24,4.02,6.07,3.96,2.99-.07,5.08-1.9,5.94-4.56,1.77-5.49,3.45-11.03,4.63-16.66.39-1.85.34-3.78.24-5.73.13-1.14.29-2.29.52-3.41.78-3.71,1.68-7.32.73-11.07-.18-.73-.45-1.42-.68-2.11Z"/>
  <path class="cls-3" d="M171.88,563.21s-.02-.01-.03-.02c.44-2.02,1.33-4.08,1.2-6.06-.19-2.77-.37-5.56-.76-8.31-.84-1.88-1.62-3.8-2.52-5.65-2.11-4.31-6.48-12.29-12.51-9.23-3.15,1.6-4.92,5.2-6.11,8.36,0,0,0,.01,0,.02.11,2.47-.14,4.91-.98,7.29-1.05,2.99-.67,5.72-.13,8.43-.07.26-.17.52-.3.81-1.4,2.86-3.16,5.4-3.95,8.4-1.54,1.96-1.94,4.07-.84,6.41.46.96,1.95,1.99,2.98,2.01,2.27.03,4.55-.54,6.81-.91,2.77-.46,5.55-.93,8.31-1.46,1.49-.29,2.95-.98,4.44-1.02,5.07-.13,6.79-2.42,5.15-7.14-.23-.65-.49-1.28-.73-1.93Z"/>
  <path class="cls-2" d="M165.61,528.04c.22-.33.41-.68.58-1.05-.04-1.48.03-2.99.25-4.52.83-6.03,1.71-12.06,2.59-18.09.12-1.11.24-2.23.32-3.35.3-4.22.22-8.46-.08-12.68-.3-4.21-.74-8.43-1.29-12.61-.33-2.57-.54-5.16-.93-7.72-.41-2.71-.97-5.56-2.4-7.94-.63-1.04-1.44-1.92-2.49-2.53-.96-.56-2.21-1.21-3.37-1.02-1.8.29-2.21,2.8-2.46,4.25-.17.99-.27,1.99-.35,2.99.08,3.94.58,7.87,1.25,11.76,1.59,9.24,4.09,18.33,4.96,27.69.77,8.37-1.41,17.4,3.43,24.82Z"/>
  <path class="cls-2" d="M182.53,488.47s.06.09.08.15c.24.74.39,1.48.52,2.23.34.62.67,1.24,1.02,1.85.42-2.27,1.02-4.5,1.44-6.77.54-2.91.47-5.71-.13-8.6-.35-1.67-.69-3.35-1.25-4.96-.2-.58-.46-1.3-.82-1.94-2.06,3.3-2.49,6.92-1.87,10.91.36,2.34,1.12,4.74,1.02,7.12Z"/>
  <path class="cls-2" d="M190.11,450.18c.84-2.92,1.93-5.8,3.04-8.63,2.41-6.12,5.35-12.05,9.35-17.29-2.33-2.88-5.64-5.41-9.51-4.11-3.34,1.13-5.74,4.32-7.45,7.24-.84,1.44-1.54,2.95-2.18,4.5.96,10.51,1.93,21.24,2.89,31.84.87-1.74,1.45-3.65,1.93-5.51.68-2.67,1.17-5.38,1.93-8.03Z"/>
  <path class="cls-2" d="M179.48,405.26c-.91-2.11-2.23-4.13-4.24-5.29-3.05,3.05-6.13,6.11-8.71,9.58-2.17,2.92-4.25,6.22-3.65,10,.59,3.68,2.89,6.94,4.99,9.92,1.67,2.38,3.61,4.94,5.16,7.66,2.23-3.19,5.04-5.99,8.45-8.34.56-4.63.63-9.33.2-13.92-.31-3.25-.9-6.59-2.19-9.61Z"/>
  <path class="cls-2" d="M171.54,563.02c-.05-.25-.1-.5-.15-.75.13.28.27.58.41.9-.09-.05-.18-.1-.26-.15Z"/>
  <path class="cls-7" d="M233.98,366.47c-13.34-2.39-27.15-2.19-40.62-1.51-16.06.81-32.11,2.23-47.89,5.31-.47,1.49-.94,2.99-1.4,4.49-1.12,3.66-2.26,7.36-3.63,10.95,1.61.2,3.22.43,4.83.68-1.61,5.45-4.09,10.57-5.82,15.99-.01.02-.02.03-.04.06-.08.17-.17.48-.26.86-.65,2.15-1.18,4.35-1.47,6.65-.36,2.86-.44,5.6-.27,8.3-.01,1.86.14,3.67.6,5.6.24,1.01.56,2.16.93,3.36,1.72-.66,3.48-1.24,5.27-1.67,7.6-1.82,15.78-1.55,23,1.59,3.42,1.48,6.4,3.62,8.92,6.2,1.98-2.07,4.25-3.93,6.84-5.54.23,2.53.46,5.09.69,7.64,3.74,1.25,7.24,3.09,10.68,5.02,3.65,2.04,7.3,4.11,11.28,5.42,4.11,1.35,8.45,1.65,12.74,2.01,1.84.15,3.7.28,5.58.38.34-.81.68-1.61,1-2.42,4.14-10.47,3.19-21.76,4.87-32.63,1.14-7.33,1.24-14.84,1.53-22.29.74-1.23,1.34-2.55,1.72-3.95.1-.36.14-.72.15-1.09.4-.09.87-.12,1.45-.08,2.2.14,3.36-.63,2.69-3.39-1.28-5.27-2.4-10.59-3.4-15.92Z"/>
  <path class="cls-6" d="M138.01,423.82c2.07-.6,4.18-1.03,6.34-1.26.74-.08,1.49-.13,2.23-.17.31-.38.59-.78.91-1.15,2.81-3.41,5.66-6.75,8.72-9.93,1.52-1.58,3.07-3.14,4.62-4.69.89-.89,1.83-1.61,2.81-2.38,1.1-.86,2.17-1.75,3.17-2.72.82-.8,1.9-1.77,2.26-2.91.62-1.97-2.9-3.2-4.2-3.62-2.53-.82-5.18-1.21-7.8-1.63-3.57-.57-7.12-1.09-10.74-1.24-1.01-.04-2.02-.05-3.03-.04-1.31,3.43-2.73,6.82-3.86,10.33-.01.02-.02.03-.04.06-.08.17-.17.48-.26.86-.65,2.15-1.18,4.35-1.47,6.65-.36,2.86-.44,5.6-.27,8.3-.01,1.85.13,3.65.59,5.56Z"/>
  <path class="cls-6" d="M164.77,424.69s.04.01.06.02c4.95,1.41,9.78,3.37,14.29,5.87.75-.62,1.53-1.22,2.35-1.78.56-4.63.63-9.33.2-13.92-.31-3.25-.9-6.59-2.19-9.61-.91-2.11-2.23-4.13-4.24-5.29-3.05,3.05-6.13,6.11-8.71,9.58-2.17,2.92-4.25,6.22-3.65,10,.29,1.81,1,3.52,1.89,5.14Z"/>
  <path class="cls-6" d="M213.66,407.62c-.64-.49-.3-1.75.6-1.42,4.84,1.75,9.31,4.3,13.8,6.78-2.51-4.44-5.87-8.32-10.03-11.34-4.11-2.98-8.76-5.12-13.56-6.72-.4-.13-.81-.25-1.21-.37-1.31-.14-2.63-.17-3.94-.02-2.25.25-8.58,2.15-6.27,5.4.43.61.98,1.13,1.57,1.61,1.25.58,2.5,1.17,3.72,1.82,11.25,5.89,20.88,14.13,30.27,22.6.09-1.29.19-2.58.28-3.87-.74-.92-1.51-1.82-2.29-2.68-3.9-4.35-8.31-8.24-12.95-11.78Z"/>
  <path class="cls-2" d="M171.54,563.02c-.05-.25-.1-.5-.15-.75.13.28.27.58.41.9-.09-.05-.18-.1-.26-.15Z"/>
</svg>