<?xml version="1.0" encoding="UTF-8"?>
<svg id="Layer_1" data-name="Layer 1" xmlns="http://www.w3.org/2000/svg" viewBox="0 0 377 568">
  <defs>
    <style>
      .cls-1 {
        fill: #00af3f;
      }

      .cls-2 {
        fill: #ff7900;
      }

      .cls-3 {
        opacity: .18;
      }

      .cls-4 {
        fill: #456a7d;
      }

      .cls-5 {
        fill: #44697d;
      }

      .cls-6 {
        fill: #ff0e49;
      }

      .cls-7 {
        fill: #a71930;
      }
    </style>
  </defs>
  <circle class="cls-1" cx="178.56" cy="308.66" r="171.43"/>
  <circle class="cls-5" cx="233.46" cy="219.31" r="128.89"/>
  <g class="cls-3">
    <g>
      <path d="M153.85,238.1c2.9-1.38,5.8-1.71,8.46.08.1-2.01-.29-4.19.43-5.91.69-1.64,2.31-3.2,3.91-4.07,2.89-1.58,6.61-.39,8.58,2.25,1.91,2.57,1.91,6.16,0,8.72-2.21,2.96-5.57,3.59-9.62,1.93-.24,2.61-.48,5.3-.69,7.6,2.16.22,4.89.5,7.64.78-1.02-3.51-.5-7.14,3.54-9.41,3.23-1.81,6.18-.93,8.89,1.26.33.23.66.46.99.69.33,2.78.65,5.57.97,8.27,1.67.14,4.05.35,6.52.56-1.05-3.25-.09-6.13,2.36-8.59l.21-.13c4.16-2.51,7.68-1.24,10.89,1.83,0,0-.08-.1-.08-.1.25.84.51,1.68.73,2.52,1.27,4.77-2.66,9.59-7.55,9.17-1.19-.1-2.34-.53-3.2-.74-.25,2.51-.5,4.98-.72,7.11,2.24.22,4.77.47,7.24.71-1.2-7.72,3.35-11.69,11.39-9.34-.95-3.1-.32-5.85,1.49-8.35.36-.2.71-.4,1.07-.61,2.03-1.7,4.37-1.95,6.79-1.24,1.88.55,3.35,1.16,2.74,4.01-.74,3.5-.54,7.21-.67,10.84-.21,6.03-.2,12.07-.58,18.09-.64,9.88-2.25,19.59-6.23,29.26-.05-.94-.14-1.46-.1-1.97.05-.62.21-1.22.35-1.99-1.48-.21-2.94-.42-4.54-.64-.09,1.69-.17,3.34-.25,4.97,1.45.14,2.83.27,4.62.43-2.3,5.62-4.41,10.95-6.64,16.22-4.27,10.07-8.36,20.3-15.09,29.01-4.29,5.54-9.33,10.57-14.45,15.38-3.41,3.21-7.4,5.87-11.39,8.36-5.73,3.57-11.71,3.65-17.62.17-.5-.29-1.08-.44-1.89-.29,1.53,1.34,3.06,2.68,4.59,4.02-.13.19-.26.37-.39.56-6.44-4.48-12.88-8.96-19.32-13.44.12-.24.25-.47.37-.71,3.14,1.6,6.28,3.2,9.5,4.85-1.94-3.57-3.68-7.19-5.81-10.56-2.2-3.47-1.24-6.97-.76-10.52.05-.34.11-.68.2-1.23-2.36.28-3.55-.45-3.66-3.09-.16-3.57-1.23-7.1-1.34-10.67-.34-11.74-.15-23.49-.7-35.21-.31-6.75-1.66-13.46-2.53-20.19-.05-.43,0-.86,0-1.64,1.46.24,2.72.44,4.09.67.16-1.82.33-3.7.52-5.82h-6.74c-.81-3.65-5.73-6.89-2.05-12.53-4.67,2.12-5.91-1.3-7.61-3.73-1.63-2.34-5.04-4.34-1.71-8.21-4.35,2.31-6.18-.87-8.27-3.16-2.14-2.35-4.5-4.8-1.25-8.29-5.24,1.01-8.64-.4-10.51-4.1-1.21-2.4-.09-6.27,2.36-8.16,2.49-1.92,6.23-1.91,8.71.01,2.96,2.29,3.51,5.65,1.49,10.18,3.47-1.28,6.55-.99,9.2,1.49.34.32.67.65,1.01.97,1.36,3,1.61,5.97-.14,8.46,2.67.27,5.39.54,8.16.82-1.2-2.74-.52-5.62,1.62-8.22.36-.35.71-.71,1.07-1.06,5.89-2.03,10.41-.31,11.48,4.65.38,1.78-.11,3.75-.19,5.29,2.37.31,4.9.65,7.5,1-1.4-3.27-.35-6.2,2.08-8.8.17-.15.35-.31.52-.46ZM182.12,254.09c-2.23-.29-4.75-.62-6.86-.9-.15,2.26-.33,4.83-.48,7.06,2.19.24,4.76.52,7.33.8v-6.96ZM160.15,258.71c.32-2.27.67-4.79.95-6.81-2.32-.24-4.95-.5-7.26-.74-.1,1.99-.22,4.54-.33,6.82,2.14.23,4.55.5,6.63.73ZM139.21,250.47c-2.33-.36-4.79-.74-6.74-1.04-.15,2.37-.31,4.82-.45,6.87,2.32.3,4.78.62,7.19.93v-6.76ZM184.82,264.59v6.48c2.24.28,4.35.54,6.17.77.33-2.25.67-4.47.95-6.35-2.3-.29-4.85-.61-7.12-.9ZM163.84,263.21c-.14,2.07-.28,4.24-.41,6.27,1.98.24,4.18.51,6.08.74.35-2.25.7-4.51.99-6.42-2.19-.19-4.49-.4-6.66-.59ZM212.47,267.77c-2.08-.37-4.21-.76-6-1.08-.15,2.24-.3,4.64-.44,6.78,2.08.19,4.29.38,6.44.57v-6.27ZM142.15,260.93v6.52c2.04.1,4.03.19,5.85.28.29-2.04.58-4.06.83-5.85-2.33-.33-4.58-.65-6.68-.95ZM200.44,283.53c.27-2.12.54-4.19.8-6.17-2.02-.19-4.18-.39-6.14-.57-.11,2-.22,4.06-.33,6.01,1.95.25,3.87.5,5.67.73ZM167.96,291.46v-5.76c-1.81-.09-3.56-.18-5.3-.26-.18,1.75-.36,3.57-.54,5.36,1.87.21,3.78.43,5.84.66ZM179.48,275.87c-2.08-.23-4.04-.45-5.99-.66v5.57c1.73.08,3.61.17,5.41.25.2-1.78.39-3.45.58-5.16ZM193.2,304.21c1.84.16,3.69.32,5.43.47.22-2.02.43-3.89.64-5.77h-5.54c-.17,1.68-.35,3.49-.53,5.3ZM141.02,283.03c-.16,1.94-.31,3.75-.44,5.46,1.91.16,3.79.32,5.6.47.19-1.77.38-3.5.56-5.21-1.9-.24-3.81-.48-5.72-.72ZM177.72,297.1c-1.8-.18-3.63-.36-5.66-.57v5.51c1.76.18,3.48.35,5.17.52.16-1.78.32-3.53.49-5.47ZM181.45,313.84c1.79.17,3.6.34,5.41.51.17-1.81.34-3.63.51-5.43-1.81-.17-3.63-.34-5.44-.52-.16,1.76-.31,3.51-.48,5.44ZM173.45,345.44c.17-1.85.34-3.66.51-5.47-1.75-.18-3.57-.36-5.38-.54-.17,1.79-.35,3.66-.52,5.49,1.8.17,3.54.34,5.4.52ZM161.72,355.1c.18-1.91.35-3.71.52-5.49-1.82-.17-3.64-.33-5.45-.5-.17,1.75-.35,3.58-.53,5.42,1.72.18,3.54.37,5.46.57ZM175.61,318.56c-1.79-.17-3.61-.35-5.45-.52-.17,1.8-.36,3.67-.56,5.74h5.46c.19-1.76.37-3.49.55-5.22ZM158.71,327.82v5.29c1.81.18,3.51.36,5.14.52.18-1.92.35-3.72.53-5.54-1.86-.09-3.67-.18-5.67-.27ZM158.31,273.55h-5.35c-.18,1.81-.36,3.64-.54,5.54,1.66.1,3.38.21,4.98.31.31-1.99.6-3.88.91-5.85ZM204.85,288.69c-.15,2.03-.29,4-.44,6.08h5.22c.11-1.87.22-3.58.32-5.23-1.74-.29-3.37-.56-5.1-.85ZM155.83,300.93c.17-1.79.35-3.6.53-5.42-1.77-.15-3.57-.3-5.25-.44-.17,1.88-.34,3.66-.49,5.36,1.74.17,3.39.33,5.22.51ZM191.6,320.14c-.18,1.82-.36,3.68-.54,5.52,1.89.15,3.69.29,5.41.43v-5.35c-1.57-.2-3.22-.4-4.88-.61ZM188.5,292.75c.21-1.8.4-3.53.61-5.35-1.68-.14-3.39-.28-5.07-.42-.18,1.89-.34,3.69-.51,5.5,1.7.1,3.34.19,4.97.28ZM160.39,306.71v4.99c1.74.2,3.39.39,5.09.58.1-1.61.2-3.26.3-4.93-1.72-.2-3.46-.41-5.39-.63ZM180.36,330c-.2,1.74-.4,3.48-.61,5.28,1.6.08,3.26.16,4.94.25.21-1.74.41-3.47.62-5.24-1.64-.09-3.29-.19-4.95-.29ZM152.11,343.28c.09-1.7.18-3.32.26-4.88-1.84-.2-3.55-.38-5.29-.57-.11,1.63-.21,3.26-.33,4.9,1.73.18,3.47.36,5.36.56ZM217.95,257.17v5.97h4.34c.21-1.76.41-3.38.61-4.97-1.67-.34-3.22-.65-4.95-1ZM154.03,316.87h-4.34c-.23,1.75-.43,3.37-.65,5.02,1.65.12,3.18.23,4.71.34.09-1.82.18-3.54.28-5.36ZM166.36,360.82c-.11,1.65-.22,3.3-.33,5h4.76c.23-1.52.44-2.96.65-4.39-1.7-.2-3.27-.39-5.08-.61ZM177.79,356.2c1.5.11,3.11.22,4.87.35v-4.66c-1.5-.23-3-.45-4.52-.68-.12,1.71-.23,3.28-.35,5ZM220.59,284.33c.17-1.65.34-3.27.5-4.8-1.74-.35-3.33-.67-4.83-.98v5.56c1.4.07,2.86.14,4.33.22ZM208.51,311.06c-1.89-.2-3.56-.37-5.25-.55v4.58c1.71.22,3.27.41,4.9.62.12-1.57.23-3.04.35-4.65ZM201.14,331.56v4.8h4.39c.13-1.44.25-2.73.37-4.01-1.65-.27-3.13-.52-4.76-.79ZM149.86,363.8c.25-1.7.46-3.14.67-4.61-1.78-.09-3.42-.17-5.05-.25v4.38c1.45.16,2.84.31,4.37.47ZM138.74,326.82c-.17,1.66-.32,3.12-.48,4.62,1.46.25,2.82.47,4.19.7.12-1.78.24-3.49.37-5.33h-4.08ZM189.89,345.9c1.52.08,2.96.15,4.46.23.12-1.51.22-2.78.33-4.06-1.7-.12-3.22-.22-4.79-.33v4.16ZM140.31,305.23c-.13,1.56-.24,2.94-.37,4.42,1.36.19,2.64.37,4.01.57.17-1.69.34-3.31.5-4.98h-4.15ZM155.71,374.81c1.25.1,2.42.19,3.63.28.27-1.54.49-2.8.73-4.17h-4.11c-.08,1.26-.16,2.47-.25,3.89Z"/>
      <path d="M132.46,236.42c-.36.35-.71.71-1.07,1.06-3.4,1.38-6.65,1.33-9.63-1.06-.34-.33-.67-.65-1.01-.97-1.83-4.12-1.14-7.74,2.16-10.84l-.1.1c3-1.19,5.98-1.66,9.11.69-.27-1.15-.47-1.82-.59-2.5-.6-3.38.82-6.38,3.71-7.88,2.83-1.46,6.43-.83,8.59,1.5,2.17,2.34,2.5,5.78.85,8.69-.3.53-.56,1.08-.83,1.62,0,0,.1-.09.1-.09-3.19,1.95-6.46,2.76-10.45.13,1.99,3.89,1.14,6.81-.85,9.56Z"/>
      <path d="M153.85,238.1c-.17.15-.35.31-.52.46-.81.34-1.61.74-2.45,1.01-4.66,1.54-9.73-1.74-9.56-6.61.07-2.1,1.58-4.16,2.44-6.24,0,0-.1.09-.1.09,3.12-1.67,6.27-2.2,9.66-.03-1.54-3.39-.54-6.3,1.09-9.11l-.1.1c.54-.28,1.08-.55,1.61-.85,3.17-1.82,6.89-1.3,9.22,1.3,2.24,2.51,2.42,6.4.43,9.09-2.07,2.8-5.72,3.66-9.06,2.13-.45-.21-.89-.45-1.84-.94,2.05,3.72,1.05,6.71-.81,9.58Z"/>
      <path d="M217.71,233.23c-.35-1.55-1.03-3.1-1-4.64.1-4.8,4.76-8.02,9.43-6.69.66.19,1.31.43,2.01.66-.07-7,.92-8.9,4.86-10.08-2.11,10.19-4.26,20.56-6.36,30.73-1.44-2.06-.67-4.57.24-7.38-3.86,1.28-6.7-.28-9.27-2.68,0,0,.09.09.09.09Z"/>
      <path d="M185.98,242.03c-.33-.23-.66-.46-.99-.69-1.79-3.27-1.92-6.53.05-9.78.33-.35.66-.69,1-1.04,1.69-.47,3.39-1.35,5.08-1.33,5.35.06,8.6,5.83,6.15,10.62-.4.78-.82,1.56-1.23,2.34l-.21.13c-3.32,1.63-6.62,2.13-9.85-.24Z"/>
      <path d="M217.32,244.35c-.36.2-.71.4-1.07.61-3.32,1.24-6.44.84-9.4-1.08,0,0,.08.1.08.1-.21-.46-.38-.95-.64-1.39-1.84-3.15-1.54-6.62.8-9.03,2.42-2.49,5.98-2.84,9.23-.92.43.25.92.4,1.39.6,0,0-.09-.09-.09-.09,2.44,3.8,2.25,7.53-.3,11.2Z"/>
      <path d="M122.91,224.61c-.54.26-1.09.49-1.62.79-3.28,1.85-7.09,1.24-9.37-1.53-2.14-2.59-2.17-6.46-.08-9.08,2.24-2.8,6.08-3.49,9.35-1.69.52.29,1.08.51,1.61.76l-.1-.1c2.47,3.63,2.53,7.27.1,10.95,0,0,.1-.1.1-.1Z"/>
      <path d="M186.03,230.52c-.33.35-.66.69-1,1.04-1.03.22-2.06.54-3.1.64-3.43.34-6.45-1.59-7.5-4.73-1.05-3.14.21-6.63,3.03-8.37,2.79-1.73,6.52-1.26,8.82,1.1,2.3,2.36,2.67,5.98.87,8.84-.33.52-.75.99-1.12,1.48Z"/>
      <path d="M96.01,210.55c4-.02,7.11,3.02,7.17,7,.06,4.1-3.11,7.28-7.2,7.24-3.98-.04-7.05-3.15-7.04-7.14,0-3.99,3.09-7.08,7.07-7.1Z"/>
      <path d="M86.48,212.96c-4.03.03-7.13-3.04-7.12-7.07,0-4.03,3.1-7.09,7.13-7.06,3.91.03,6.93,3.03,6.99,6.93.06,4.04-2.98,7.16-7,7.19Z"/>
      <path d="M202.65,233.82c-4.02.02-7.1-3.05-7.09-7.06,0-4.01,3.11-7.06,7.13-7.02,3.89.04,6.91,3.04,6.96,6.93.05,4.02-2.99,7.14-7,7.16Z"/>
      <path d="M114.33,208.04c0,4.01-3.13,7.09-7.16,7.03-3.9-.06-6.89-3.11-6.89-7.03,0-4.02,3.13-7.09,7.16-7.03,3.9.06,6.89,3.11,6.89,7.03Z"/>
      <path d="M122.81,213.86c-.36-1.18-.91-2.33-1.05-3.53-.39-3.49,1.79-6.6,5.08-7.5,3.17-.87,6.63.65,8.14,3.57,1.52,2.93.76,6.58-1.8,8.69-2.56,2.1-6.19,2.13-8.86.05-.56-.43-1.07-.92-1.61-1.38,0,0,.1.09.1.09Z"/>
      <path d="M199.93,215.61c-.04,3.85-3.19,6.93-7.04,6.89-3.85-.04-6.93-3.19-6.89-7.04.04-3.85,3.19-6.93,7.04-6.89,3.85.04,6.93,3.19,6.89,7.04Z"/>
      <path d="M104.61,196.2c.03,3.83-3.06,6.98-6.89,7.01-3.83.03-6.98-3.06-7.01-6.89-.03-3.83,3.06-6.98,6.89-7.01,3.83-.03,6.98,3.06,7.01,6.89Z"/>
      <path d="M154.41,217.68c-.58.2-1.16.38-1.73.59-3.43,1.24-7.01-.06-8.69-3.17-1.62-3.01-.82-6.8,1.88-8.86,2.8-2.14,6.78-1.86,9.24.64,2.47,2.51,2.68,6.38.49,9.25-.42.55-.86,1.1-1.29,1.65,0,0,.1-.1.1-.1Z"/>
      <path d="M178.49,213.52c-.07,3.83-3.32,6.92-7.13,6.81-3.82-.11-6.89-3.39-6.74-7.2.15-3.72,3.28-6.71,7-6.68,3.83.03,6.95,3.24,6.88,7.07Z"/>
      <path d="M214.42,210.23c3.79.02,6.98,3.3,6.88,7.07-.1,3.7-3.25,6.77-6.94,6.75-3.79-.02-6.98-3.3-6.88-7.07.1-3.7,3.25-6.77,6.94-6.75Z"/>
      <path d="M161.8,208.49c-3.68-.07-6.8-3.27-6.77-6.93.03-3.78,3.39-6.99,7.13-6.83,3.69.16,6.75,3.41,6.63,7.06-.12,3.68-3.35,6.77-7,6.7Z"/>
      <path d="M140.6,206.87c-3.64.07-6.85-3.02-6.96-6.7-.11-3.73,3.15-7.05,6.9-7.03,3.66.02,6.81,3.17,6.83,6.83.02,3.65-3.1,6.83-6.76,6.89Z"/>
      <path d="M125.98,197.97c-.07,3.78-3.39,6.95-7.14,6.8-3.69-.15-6.73-3.34-6.67-7,.07-3.78,3.39-6.95,7.14-6.8,3.69.15,6.73,3.34,6.67,7Z"/>
      <path d="M83.11,194.57c.05,3.65-3.07,6.87-6.75,6.94-3.41.07-6.99-3.74-6.95-7.39.04-3.23,3.34-6.31,6.79-6.34,3.66-.03,6.86,3.11,6.91,6.78Z"/>
      <path d="M190.12,203.67c.06,3.67-3.08,6.86-6.77,6.88-3.68.01-6.84-3.16-6.81-6.84.03-3.59,3.04-6.64,6.64-6.74,3.66-.1,6.89,3.01,6.94,6.71Z"/>
      <path d="M130.9,181.43c3.69.03,6.83,3.24,6.76,6.91-.08,3.7-3.32,6.81-6.98,6.69-3.6-.12-6.61-3.19-6.62-6.78-.02-3.68,3.16-6.85,6.84-6.82Z"/>
      <path d="M116.21,186.72c-.06,3.7-3.27,6.78-6.93,6.67-3.71-.11-6.76-3.34-6.6-7,.15-3.61,3.22-6.56,6.8-6.54,3.69.02,6.8,3.19,6.74,6.87Z"/>
      <path d="M94.81,184.38c.07,3.67-3.07,6.87-6.76,6.89-3.68.02-6.85-3.14-6.82-6.82.02-3.59,3.02-6.65,6.62-6.76,3.66-.11,6.89,3,6.96,6.69Z"/>
      <path d="M204.35,212.1c-3.71.09-6.87-3.02-6.87-6.74,0-3.62,2.98-6.65,6.6-6.74,3.71-.09,6.87,3.02,6.87,6.74,0,3.62-2.98,6.65-6.6,6.74Z"/>
      <path d="M232.34,207.9c-.25,3.77-3.53,6.62-7.24,6.29-3.66-.32-6.42-3.48-6.17-7.09.25-3.77,3.53-6.62,7.24-6.29,3.66.32,6.42,3.48,6.17,7.09Z"/>
      <path d="M158.96,190.36c0,3.75-3.07,6.77-6.81,6.7-3.64-.07-6.56-3.04-6.57-6.68,0-3.75,3.07-6.77,6.81-6.7,3.64.07,6.56,3.04,6.57,6.68Z"/>
      <path d="M179.77,191.91c.03,3.73-2.83,6.64-6.55,6.67-3.73.03-6.64-2.83-6.67-6.55-.03-3.73,2.83-6.64,6.55-6.67,3.73-.03,6.64,2.83,6.67,6.55Z"/>
      <path d="M194.55,187.5c3.73-.01,6.63,2.86,6.64,6.59.01,3.73-2.86,6.63-6.59,6.64-3.73.01-6.63-2.86-6.64-6.59-.01-3.73,2.86-6.63,6.59-6.64Z"/>
      <path d="M85,173.28c-.02,3.73-2.93,6.59-6.66,6.57-3.73-.02-6.59-2.93-6.57-6.66.02-3.73,2.93-6.59,6.66-6.57,3.73.02,6.59,2.92,6.57,6.66Z"/>
      <path d="M216.39,189.23c3.58.17,6.22,3.09,6.1,6.76-.12,3.7-3.12,6.41-6.9,6.23-3.68-.18-6.34-3.24-6.09-7.02.23-3.57,3.21-6.14,6.88-5.96Z"/>
      <path d="M148.56,178.81c-.1,3.56-3.01,6.31-6.61,6.24-3.68-.07-6.47-3.09-6.3-6.81.16-3.55,3.13-6.24,6.74-6.1,3.55.13,6.27,3.07,6.17,6.67Z"/>
      <path d="M106.32,174.86c-.01,3.72-2.87,6.53-6.61,6.49-3.71-.04-6.5-2.93-6.43-6.68.07-3.6,2.86-6.34,6.48-6.36,3.73-.02,6.57,2.81,6.56,6.54Z"/>
      <path d="M169.99,180.86c-.06,3.59-2.92,6.37-6.53,6.34-3.7-.03-6.53-3-6.4-6.73.12-3.57,3.04-6.29,6.66-6.2,3.58.09,6.33,2.98,6.27,6.6Z"/>
      <path d="M127.71,176.95c.02,3.73-2.85,6.57-6.59,6.52-3.61-.04-6.38-2.84-6.39-6.46-.02-3.73,2.85-6.57,6.59-6.52,3.61.04,6.37,2.84,6.39,6.46Z"/>
      <path d="M68.79,155.02c3.54.02,6.41,2.93,6.38,6.48-.02,3.54-2.93,6.41-6.48,6.38-3.54-.02-6.41-2.93-6.38-6.48.02-3.54,2.93-6.41,6.48-6.38Z"/>
      <path d="M234.15,186.11c-.02,3.49-3.06,6.45-6.54,6.35-3.39-.1-6.23-3.02-6.21-6.41.02-3.49,3.06-6.45,6.54-6.35,3.39.1,6.23,3.02,6.21,6.41Z"/>
      <path d="M212.75,184.51c-.02,3.51-3.06,6.45-6.56,6.35-3.41-.1-6.24-3.02-6.22-6.42.02-3.51,3.06-6.45,6.56-6.35,3.41.1,6.24,3.02,6.22,6.42Z"/>
      <path d="M138.85,166.69c.07,3.5-2.89,6.52-6.4,6.51-3.41,0-6.3-2.86-6.37-6.27-.07-3.5,2.89-6.52,6.4-6.51,3.41,0,6.3,2.86,6.37,6.27Z"/>
      <path d="M96.04,162.96c.06,3.54-2.84,6.5-6.38,6.52-3.54.02-6.47-2.91-6.45-6.45.02-3.43,2.82-6.29,6.25-6.38,3.54-.09,6.53,2.77,6.58,6.31Z"/>
      <path d="M117.44,165.21c0,3.51-3.03,6.47-6.53,6.38-3.41-.08-6.25-2.99-6.25-6.4,0-3.51,3.03-6.47,6.53-6.38,3.41.08,6.25,2.99,6.25,6.4Z"/>
      <path d="M191.34,182.34c0,3.51-2.97,6.44-6.48,6.4-3.51-.04-6.41-3.04-6.33-6.54.08-3.41,2.94-6.23,6.34-6.26,3.51-.03,6.47,2.9,6.46,6.41Z"/>
      <path d="M79.89,145.46c3.38-.06,6.35,2.78,6.46,6.19.11,3.48-2.89,6.55-6.39,6.53-3.39-.02-6.3-2.93-6.33-6.32-.02-3.38,2.86-6.33,6.25-6.39Z"/>
      <path d="M160.19,168.97c-.02,3.39-2.94,6.3-6.33,6.28-3.39-.02-6.3-2.94-6.28-6.33.02-3.39,2.94-6.3,6.33-6.28,3.39.02,6.3,2.94,6.28,6.33Z"/>
      <path d="M181.58,170.76c-.14,3.43-3.18,6.24-6.55,6.06-3.44-.19-6.21-3.25-5.99-6.61.22-3.34,3.12-6.03,6.4-5.94,3.41.09,6.27,3.12,6.14,6.48Z"/>
      <path d="M101.2,159.67c-3.43-.14-6.21-3.15-6.03-6.52.18-3.43,3.22-6.18,6.58-5.96,3.34.22,6,3.09,5.91,6.37-.09,3.42-3.08,6.24-6.45,6.11Z"/>
      <path d="M202.98,172.81c-.08,3.41-3.08,6.27-6.44,6.15-3.42-.12-6.24-3.14-6.07-6.51.16-3.33,3.01-6.04,6.31-6.01,3.4.03,6.29,3,6.21,6.38Z"/>
      <path d="M122.88,149.37c3.45.03,6.26,2.95,6.14,6.38-.11,3.35-2.91,6.04-6.24,6.01-3.45-.03-6.26-2.95-6.14-6.38.11-3.35,2.91-6.04,6.24-6.01Z"/>
      <path d="M217.93,180.46c-3.38-.12-6.03-2.92-5.95-6.29.08-3.49,3.01-6.2,6.49-6,3.39.19,5.96,3.03,5.81,6.41-.16,3.38-2.98,6-6.35,5.88Z"/>
      <path d="M171.79,159.27c.03,3.39-2.62,6.11-6.02,6.17-3.5.06-6.29-2.72-6.24-6.22.05-3.39,2.76-6.05,6.15-6.04,3.4.01,6.08,2.68,6.11,6.08Z"/>
      <path d="M150.35,157.3c-.07,3.42-2.81,6.05-6.24,5.98-3.42-.07-6.05-2.81-5.98-6.24.07-3.42,2.81-6.05,6.24-5.98,3.42.07,6.05,2.81,5.98,6.24Z"/>
      <path d="M193.11,160.87c.02,3.45-2.61,6.09-6.05,6.08-3.44-.01-6.05-2.67-6.01-6.12.04-3.33,2.59-5.89,5.92-5.94,3.45-.05,6.12,2.55,6.14,5.99Z"/>
      <path d="M239.1,170.39c3.44.04,6.05,2.75,5.97,6.21-.07,3.44-2.81,6.01-6.27,5.91-3.33-.1-5.85-2.72-5.84-6.07,0-3.45,2.68-6.08,6.14-6.04Z"/>
      <path d="M97.75,142.3c-.06,3.43-2.77,5.97-6.23,5.85-3.3-.11-5.77-2.75-5.72-6.1.06-3.43,2.77-5.97,6.23-5.85,3.3.11,5.77,2.75,5.72,6.1Z"/>
      <path d="M208.03,157.07c3.44.03,6.02,2.73,5.92,6.2-.09,3.32-2.71,5.82-6.06,5.79-3.44-.03-6.02-2.73-5.92-6.2.09-3.32,2.71-5.82,6.06-5.79Z"/>
      <path d="M140.53,145.9c.01,3.33-2.58,5.94-5.9,5.95-3.32.01-5.94-2.58-5.95-5.9-.01-3.32,2.58-5.94,5.9-5.95,3.32-.01,5.94,2.58,5.95,5.9Z"/>
      <path d="M70.36,146.03c-3.46,0-6.06-2.65-6.01-6.12.06-3.34,2.64-5.87,5.99-5.87,3.46,0,6.06,2.65,6.01,6.12-.06,3.34-2.64,5.87-5.99,5.87Z"/>
      <path d="M107.24,143.39c.18-3.3,2.89-5.72,6.27-5.57,3.41.15,5.88,2.99,5.62,6.48-.24,3.28-3.02,5.64-6.4,5.43-3.29-.2-5.68-2.96-5.5-6.34Z"/>
      <path d="M229.49,170.64c-3.45.05-6.09-2.56-6.08-6,.01-3.33,2.54-5.9,5.87-5.94,3.45-.05,6.09,2.56,6.08,6-.01,3.33-2.54,5.9-5.87,5.94Z"/>
      <path d="M88.01,130.48c-.04,3.26-2.77,5.88-6.03,5.8-3.26-.08-5.85-2.84-5.73-6.1.11-3.15,2.74-5.68,5.9-5.67,3.27,0,5.91,2.7,5.87,5.96Z"/>
      <path d="M161.91,147.61c-.04,3.27-2.76,5.88-6.03,5.81-3.27-.08-5.85-2.83-5.74-6.1.11-3.16,2.73-5.68,5.9-5.67,3.27,0,5.92,2.69,5.87,5.97Z"/>
      <path d="M176.87,155.55c-3.27-.02-5.93-2.78-5.83-6.05.1-3.17,2.75-5.72,5.91-5.7,3.27.02,5.93,2.78,5.83,6.05-.1,3.16-2.75,5.72-5.91,5.7Z"/>
      <path d="M219.65,147.61c3.1-.06,5.85,2.6,5.9,5.72.06,3.1-2.6,5.85-5.72,5.9-3.1.06-5.85-2.6-5.9-5.72-.06-3.1,2.6-5.85,5.72-5.9Z"/>
      <path d="M192.47,151.07c.13-3.24,2.99-5.84,6.2-5.64,3.14.2,5.63,2.95,5.51,6.06-.13,3.24-2.99,5.84-6.2,5.64-3.14-.2-5.63-2.95-5.51-6.06Z"/>
      <path d="M109.39,132c0,3.12-2.64,5.8-5.77,5.84-3.21.04-5.99-2.76-5.91-5.97.08-3.12,2.79-5.75,5.9-5.71,3.13.04,5.77,2.71,5.77,5.83Z"/>
      <path d="M66.81,189.82c-1.52-4.16-3-8.22-4.47-12.23,2.67-2.05,5.35-2.24,7.94-.65,2.48,1.52,3.78,4.51,3.19,7.34-.62,3.03-2.82,4.92-6.66,5.54Z"/>
      <path d="M124.5,139.95c-3.09.04-5.82-2.64-5.87-5.74-.04-3.09,2.64-5.82,5.74-5.87,3.09-.04,5.82,2.64,5.87,5.74.04,3.09-2.64,5.82-5.74,5.87Z"/>
      <path d="M72.4,112.87c3.09-.06,5.82,2.61,5.83,5.72.02,3.1-2.68,5.8-5.78,5.77-3-.03-5.6-2.57-5.7-5.58-.1-3.08,2.54-5.84,5.65-5.9Z"/>
      <path d="M246.9,155.02c0,3.1-2.71,5.79-5.8,5.75-3.11-.04-5.77-2.78-5.68-5.87.08-3.01,2.66-5.57,5.67-5.62,3.1-.05,5.81,2.63,5.82,5.74Z"/>
      <path d="M93.35,126.47c-3.13-.02-5.79-2.76-5.68-5.87.1-3.03,2.72-5.57,5.73-5.55,3.13.02,5.79,2.76,5.68,5.87-.1,3.03-2.72,5.57-5.73,5.55Z"/>
      <path d="M145.9,141.5c-3.09.04-5.81-2.67-5.8-5.77,0-3.1,2.74-5.79,5.83-5.74,3,.05,5.6,2.62,5.67,5.63.08,3.08-2.59,5.84-5.7,5.87Z"/>
      <path d="M173.01,137.89c0,3.1-2.71,5.79-5.8,5.75-3.11-.04-5.77-2.78-5.68-5.87.08-3.01,2.66-5.57,5.67-5.62,3.1-.05,5.81,2.63,5.82,5.74Z"/>
      <path d="M242.33,193.4c-1.64,3.25-3.29,6.33-4.74,9.5-.71,1.55-1.57,1.67-2.92,1-2.46-1.22-3.79-3.17-3.84-5.92-.04-2.75,1.16-4.86,3.65-6.02,2.75-1.28,5.35-.89,7.85,1.44Z"/>
      <path d="M194.31,139.5c0,3.06-2.5,5.59-5.56,5.63-3.17.04-5.77-2.6-5.69-5.76.08-3.07,2.63-5.53,5.7-5.49,3.07.04,5.56,2.57,5.56,5.63Z"/>
      <path d="M120.47,122.33c.02,3.05-2.51,5.64-5.57,5.71-3.14.06-5.83-2.62-5.77-5.77.06-3.05,2.66-5.59,5.7-5.57,3.05.02,5.62,2.58,5.64,5.64Z"/>
      <path d="M89.17,108.87c.05,3.08-2.21,5.46-5.25,5.54-3.19.08-5.62-2.27-5.61-5.45.01-3.07,2.32-5.39,5.39-5.41,3.07-.02,5.42,2.26,5.47,5.32Z"/>
      <path d="M157.64,120.65c3.17,0,5.52,2.42,5.45,5.61-.07,3.05-2.4,5.32-5.47,5.31-3.17,0-5.52-2.42-5.45-5.61.07-3.05,2.4-5.32,5.47-5.31Z"/>
      <path d="M237.06,143.27c-.01,3.15-2.48,5.56-5.63,5.52-3.14-.05-5.53-2.54-5.45-5.7.08-3.04,2.45-5.36,5.5-5.38,3.15-.02,5.6,2.41,5.58,5.57Z"/>
      <path d="M252.86,150.84c-3.07-.04-5.38-2.37-5.37-5.46,0-3.18,2.46-5.54,5.66-5.44,3.06.1,5.3,2.5,5.24,5.59-.07,3.07-2.43,5.34-5.53,5.3Z"/>
      <path d="M250.82,161.26c3.15.01,5.58,2.49,5.53,5.64-.05,3.14-2.56,5.54-5.71,5.46-3.04-.08-5.37-2.47-5.39-5.51-.02-3.15,2.43-5.61,5.58-5.59Z"/>
      <path d="M200.44,135.29c-3.07-.01-5.38-2.33-5.4-5.39-.02-3.18,2.4-5.55,5.59-5.47,3.05.07,5.31,2.45,5.27,5.52-.04,3.06-2.38,5.35-5.46,5.34Z"/>
      <path d="M215.62,141.69c-.03,3.15-2.48,5.52-5.64,5.46-3.14-.06-5.49-2.55-5.4-5.7.09-3.03,2.45-5.32,5.5-5.33,3.16,0,5.56,2.41,5.53,5.57Z"/>
      <path d="M179.07,133.68c-3.07.01-5.41-2.28-5.45-5.34-.04-3.18,2.36-5.57,5.54-5.52,3.06.05,5.34,2.4,5.32,5.47-.02,3.07-2.34,5.37-5.41,5.39Z"/>
      <path d="M136.2,130.02c-3.15,0-5.55-2.43-5.51-5.59.04-3.14,2.5-5.51,5.66-5.44,3.03.07,5.35,2.42,5.37,5.46.03,3.16-2.37,5.58-5.52,5.57Z"/>
      <path d="M56.87,131.18c.28-3,.33-5.02.71-6.99.12-.64,1.01-1.38,1.7-1.61,2.34-.79,5.08.39,6.43,2.57,1.36,2.19,1.15,4.97-.51,6.93-1.67,1.96-4.58,2.8-6.71,1.52-.96-.58-1.38-2.03-1.62-2.42Z"/>
      <path d="M248.11,133.67c-.03,2.99-2.56,5.39-5.54,5.29-2.88-.1-5.18-2.52-5.15-5.41.03-2.99,2.56-5.39,5.54-5.29,2.88.1,5.18,2.52,5.15,5.41Z"/>
      <path d="M110.53,111.01c.06,3.04-2.3,5.46-5.33,5.48-3.04.02-5.43-2.36-5.42-5.4.01-2.93,2.28-5.27,5.2-5.35,3.04-.09,5.5,2.24,5.55,5.27Z"/>
      <path d="M227.26,131.89c.06,3.04-2.3,5.46-5.33,5.48-3.04.02-5.43-2.36-5.42-5.4.01-2.93,2.28-5.27,5.2-5.35,3.04-.09,5.5,2.24,5.55,5.27Z"/>
      <path d="M126.52,107.4c2.87-.03,5.32,2.34,5.38,5.22.07,2.97-2.44,5.5-5.42,5.45-2.87-.05-5.26-2.48-5.25-5.35,0-2.87,2.41-5.29,5.28-5.31Z"/>
      <path d="M148.2,109.55c2.85.12,5.19,2.63,5.11,5.46-.09,2.96-2.73,5.37-5.66,5.17-2.85-.2-5.13-2.76-4.97-5.59.16-2.84,2.7-5.16,5.52-5.04Z"/>
      <path d="M169.62,111.17c2.83.13,5.18,2.64,5.1,5.45-.09,2.93-2.75,5.37-5.65,5.15-2.83-.21-5.12-2.78-4.96-5.57.17-2.83,2.71-5.16,5.51-5.03Z"/>
      <path d="M122.14,101.05c-.07,2.84-2.64,5.24-5.44,5.09-2.74-.15-5.03-2.59-4.96-5.3.07-2.84,2.64-5.24,5.44-5.09,2.74.15,5.03,2.59,4.96,5.3Z"/>
      <path d="M190.7,113.37c2.8-.08,5.34,2.36,5.37,5.19.04,2.81-2.44,5.31-5.25,5.31-2.71,0-5.12-2.33-5.24-5.05-.12-2.79,2.29-5.36,5.12-5.44Z"/>
      <path d="M211.61,125.41c-2.84-.07-5.22-2.61-5.07-5.42.15-2.75,2.57-5.01,5.28-4.95,2.84.07,5.22,2.61,5.07,5.42-.15,2.75-2.56,5.01-5.28,4.95Z"/>
      <path d="M233.1,117.18c2.83-.02,5.28,2.47,5.21,5.29-.06,2.74-2.42,5.06-5.15,5.08-2.83.02-5.28-2.47-5.21-5.29.06-2.74,2.42-5.06,5.15-5.08Z"/>
      <path d="M100.72,99.44c-.07,2.84-2.64,5.25-5.44,5.1-2.74-.15-5.03-2.59-4.97-5.3.07-2.84,2.63-5.25,5.44-5.1,2.74.15,5.03,2.59,4.97,5.3Z"/>
      <path d="M269.45,135.72c.02,2.82-2.47,5.32-5.3,5.3-2.84-.02-5.3-2.54-5.24-5.37.06-2.74,2.43-5.11,5.16-5.17,2.82-.07,5.35,2.39,5.37,5.23Z"/>
      <path d="M74.21,102.45c-2.81.07-5.34-2.38-5.37-5.21-.03-2.82,2.46-5.31,5.28-5.3,2.72.01,5.12,2.34,5.23,5.08.11,2.8-2.31,5.36-5.14,5.43Z"/>
      <path d="M143.42,103.03c.04,2.83-2.18,5.1-5.01,5.13-2.83.04-5.1-2.18-5.13-5.01-.04-2.83,2.18-5.1,5.01-5.13,2.83-.04,5.1,2.18,5.13,5.01Z"/>
      <path d="M56.85,143.64c4.19-.7,7.22,1.25,7.99,4.77.72,3.26-1.5,6.7-4.84,7.48-1.2.28-2.38.41-2.49-1.34-.23-3.59-.44-7.17-.67-10.91Z"/>
      <path d="M159.9,109.69c-2.87.07-5.1-2.07-5.13-4.94-.03-2.87,2.13-5.06,5-5.06,2.77,0,4.9,2.05,5,4.8.1,2.87-2.01,5.13-4.87,5.2Z"/>
      <path d="M107.31,94.62c-2.79,0-4.89-2.06-4.93-4.84-.04-2.89,2.15-5.05,5.04-4.99,2.77.06,4.82,2.19,4.79,4.98-.03,2.78-2.12,4.86-4.91,4.86Z"/>
      <path d="M259.52,124.1c-.06,2.87-2.33,4.98-5.23,4.84-2.76-.13-4.78-2.3-4.71-5.1.06-2.87,2.33-4.98,5.23-4.84,2.76.13,4.78,2.3,4.71,5.1Z"/>
      <path d="M206.99,108.55c-.05,2.77-2.17,4.83-4.95,4.82-2.89-.02-5-2.25-4.88-5.15.11-2.75,2.29-4.76,5.09-4.68,2.76.08,4.8,2.23,4.75,5.02Z"/>
      <path d="M180.64,101.89c2.88,0,5.02,2.18,4.96,5.07-.06,2.76-2.16,4.82-4.93,4.83-2.88,0-5.02-2.18-4.96-5.07.06-2.76,2.16-4.82,4.93-4.83Z"/>
      <path d="M85.83,92.58c-2.87-.03-5.03-2.26-4.97-5.13.06-2.86,2.33-5,5.2-4.9,2.76.09,4.83,2.23,4.83,5,0,2.87-2.19,5.06-5.07,5.03Z"/>
      <path d="M128.09,96.18c-2.74-.04-4.82-2.2-4.78-4.96.04-2.74,2.2-4.82,4.96-4.78,2.74.04,4.82,2.2,4.78,4.96-.04,2.74-2.2,4.82-4.96,4.78Z"/>
      <path d="M81.19,76.42c-.05,2.79-2.18,4.86-4.98,4.84-2.62-.01-4.94-2.12-4.82-4.38.15-2.82,2.66-5.57,5.01-5.51,2.78.08,4.82,2.24,4.78,5.04Z"/>
      <path d="M244.92,107.37c2.69,0,4.89,2.27,4.81,4.96-.08,2.58-2.24,4.68-4.83,4.68-2.69,0-4.89-2.27-4.81-4.96.08-2.58,2.24-4.68,4.83-4.68Z"/>
      <path d="M228.33,110.64c-.03,2.73-2.23,4.85-4.96,4.79-2.72-.06-4.82-2.3-4.72-5.03.09-2.61,2.2-4.65,4.83-4.66,2.73,0,4.88,2.16,4.86,4.9Z"/>
      <path d="M118.43,75.3c2.54-.07,4.81,2.09,4.87,4.65.07,2.54-2.09,4.81-4.65,4.87-2.54.07-4.81-2.09-4.87-4.65-.07-2.54,2.09-4.81,4.65-4.87Z"/>
      <path d="M175.85,95.09c-.02,2.74-2.25,4.89-5,4.81-2.62-.08-4.69-2.23-4.67-4.86.02-2.74,2.25-4.89,5-4.81,2.62.08,4.69,2.23,4.67,4.86Z"/>
      <path d="M192.37,101.98c-2.59-.04-4.76-2.26-4.72-4.84.04-2.59,2.26-4.76,4.85-4.72,2.59.04,4.76,2.26,4.72,4.85-.04,2.59-2.26,4.76-4.84,4.72Z"/>
      <path d="M271.14,114.46c-.07,2.69-2.39,4.83-5.08,4.69-2.57-.14-4.63-2.36-4.56-4.94.07-2.69,2.39-4.83,5.08-4.69,2.57.14,4.63,2.36,4.56,4.94Z"/>
      <path d="M149.56,88.61c2.73-.02,4.9,2.13,4.88,4.87-.01,2.73-2.2,4.86-4.93,4.82-2.62-.05-4.7-2.12-4.75-4.74-.05-2.73,2.07-4.93,4.8-4.95Z"/>
      <path d="M59.32,112.13c.65-2.96,1.3-5.89,1.94-8.83.31-1.43,1.11-1.82,2.5-1.39,2.25.69,3.64,2.13,4.09,4.42.43,2.2-.27,4.06-2.01,5.43-2,1.58-4.17,1.71-6.52.37Z"/>
      <path d="M101.88,78.04c-.07,2.55-2.34,4.71-4.88,4.64-2.55-.07-4.71-2.34-4.64-4.88.07-2.56,2.34-4.71,4.88-4.64,2.55.07,4.71,2.34,4.64,4.88Z"/>
      <path d="M218.59,98.84c-.02,2.56-2.29,4.77-4.84,4.71-2.56-.06-4.74-2.37-4.64-4.9.1-2.46,2.25-4.55,4.7-4.57,2.55-.02,4.79,2.22,4.77,4.77Z"/>
      <path d="M240,100.86c.05,2.53-2.16,4.8-4.71,4.81-2.54.01-4.77-2.24-4.74-4.77.03-2.44,2.13-4.58,4.57-4.68,2.52-.1,4.82,2.09,4.88,4.64Z"/>
      <path d="M165.94,83.71c.06,2.52-2,4.64-4.53,4.66-2.53.02-4.62-2.07-4.6-4.6.02-2.42,1.97-4.44,4.4-4.53,2.52-.1,4.67,1.93,4.73,4.46Z"/>
      <path d="M144.55,81.74c-.04,2.5-2.17,4.56-4.66,4.52-2.5-.04-4.56-2.17-4.52-4.66.04-2.5,2.17-4.56,4.66-4.52,2.5.04,4.56,2.17,4.52,4.66Z"/>
      <path d="M261.3,102.49c.04,2.48-2.06,4.64-4.55,4.68-2.48.04-4.64-2.06-4.68-4.55-.04-2.48,2.06-4.64,4.55-4.68,2.48-.04,4.64,2.06,4.68,4.55Z"/>
      <path d="M265.84,152.33c-1.87,3.46-3.66,6.76-5.43,10.04-3.28-1.33-4.59-4.45-3.26-7.53,1.45-3.34,4.93-4.43,8.69-2.51Z"/>
      <path d="M204.09,83.13c2.5-.06,4.47,1.77,4.56,4.25.1,2.61-1.85,4.63-4.45,4.63-2.5,0-4.4-1.89-4.43-4.38-.03-2.5,1.82-4.43,4.31-4.49Z"/>
      <path d="M187.22,85.51c-.04,2.49-1.94,4.34-4.44,4.33-2.59-.01-4.51-2.03-4.4-4.64.11-2.47,2.07-4.27,4.57-4.2,2.48.07,4.31,2,4.26,4.51Z"/>
      <path d="M109.02,63.91c2.49.06,4.31,1.98,4.26,4.49-.06,2.49-1.98,4.31-4.49,4.26-2.49-.06-4.31-1.98-4.26-4.49.06-2.49,1.98-4.31,4.49-4.26Z"/>
      <path d="M281.97,104.43c0,2.77-1.77,4.68-4.35,4.7-2.5.03-4.43-1.83-4.49-4.31-.06-2.61,1.9-4.6,4.51-4.56,2.41.03,4.33,1.88,4.33,4.17Z"/>
      <path d="M87.46,70.4c-2.3-.02-4.24-1.98-4.23-4.28.02-2.31,1.98-4.24,4.28-4.23,2.31.02,4.24,1.98,4.23,4.28-.02,2.31-1.98,4.24-4.28,4.23Z"/>
      <path d="M250.83,91.19c.06,2.49-1.84,4.44-4.32,4.43-2.38,0-4.24-1.82-4.3-4.19-.06-2.49,1.84-4.44,4.32-4.43,2.38,0,4.24,1.82,4.3,4.19Z"/>
      <path d="M173.19,77.9c-2.3.02-4.24-1.87-4.29-4.17-.06-2.4,1.97-4.42,4.37-4.36,2.3.06,4.18,2,4.16,4.3-.02,2.3-1.93,4.21-4.24,4.23Z"/>
      <path d="M124.93,58.57c.04,2.27-1.89,4.27-4.17,4.32-2.27.04-4.27-1.89-4.32-4.17-.04-2.27,1.89-4.27,4.17-4.32,2.27-.04,4.27,1.89,4.32,4.17Z"/>
      <path d="M151.66,67.72c2.38-.04,4.28,1.74,4.39,4.1.11,2.48-1.76,4.48-4.23,4.52-2.49.04-4.42-1.88-4.39-4.37.03-2.38,1.86-4.22,4.23-4.26Z"/>
      <path d="M272.23,92.82c.05,2.45-1.88,4.41-4.33,4.39-2.34-.02-4.21-1.86-4.26-4.2-.05-2.45,1.88-4.41,4.33-4.39,2.34.02,4.21,1.86,4.26,4.2Z"/>
      <path d="M134.64,69.88c0,2.48-1.9,4.36-4.38,4.33-2.47-.03-4.33-1.97-4.27-4.45.06-2.36,1.88-4.16,4.25-4.2,2.48-.04,4.39,1.84,4.4,4.31Z"/>
      <path d="M225.63,84.83c2.5,0,4.37,1.9,4.34,4.4-.03,2.49-1.97,4.34-4.47,4.27-2.38-.06-4.17-1.89-4.2-4.27-.03-2.5,1.84-4.4,4.34-4.4Z"/>
      <path d="M198.8,75.81c-.02,2.27-2.06,4.25-4.32,4.19-2.27-.06-4.22-2.14-4.12-4.38.1-2.16,2.02-4.04,4.18-4.06,2.26-.02,4.28,1.99,4.26,4.25Z"/>
      <path d="M215.59,73.21c2.26.08,4.21,2.22,4.04,4.44-.16,2.16-2.17,3.99-4.3,3.92-2.26-.08-4.21-2.22-4.04-4.44.16-2.16,2.17-3.99,4.3-3.92Z"/>
      <path d="M236.68,83.67c-2.17-.12-4.02-2.14-3.94-4.28.09-2.27,2.25-4.2,4.48-3.99,2.18.21,3.96,2.26,3.8,4.39-.16,2.17-2.2,4-4.34,3.88Z"/>
      <path d="M142.09,56.1c2.16,0,4.12,1.91,4.16,4.08.05,2.26-2.02,4.31-4.28,4.23-2.17-.08-4.07-2.06-4.03-4.21.03-2.17,1.98-4.09,4.14-4.1Z"/>
      <path d="M99.06,60.66c-2.17-.12-4.03-2.14-3.95-4.29.09-2.28,2.26-4.21,4.49-4,2.19.21,3.97,2.27,3.81,4.41-.16,2.18-2.21,4.01-4.35,3.89Z"/>
      <path d="M162.86,58.33c2.21-.08,4.15,1.77,4.19,4,.04,2.22-1.84,4.13-4.06,4.12-2.11,0-3.95-1.75-4.06-3.86-.12-2.2,1.71-4.18,3.93-4.26Z"/>
      <path d="M258.28,77.17c2.18,0,3.9,1.64,3.97,3.82.08,2.29-1.67,4.1-3.95,4.11-2.29,0-4.04-1.8-3.97-4.09.06-2.18,1.77-3.83,3.95-3.84Z"/>
      <path d="M184.36,67.94c-2.29-.02-3.99-1.81-3.9-4.11.09-2.18,1.79-3.79,3.98-3.76,2.29.02,3.99,1.81,3.9,4.11-.09,2.18-1.78,3.78-3.98,3.76Z"/>
      <path d="M205.95,70.07c-2.22.07-3.95-1.53-4.05-3.73-.1-2.32,1.61-4.12,3.93-4.12,2.22,0,3.88,1.64,3.92,3.86.03,2.22-1.58,3.92-3.79,3.98Z"/>
      <path d="M135.72,49.22c-.1,2.08-1.78,3.62-3.87,3.58-2.2-.04-3.83-1.8-3.72-4.01.11-2.18,1.94-3.76,4.14-3.57,2.07.17,3.56,1.9,3.45,4Z"/>
      <path d="M114.82,46.97c-.05,2.08-1.72,3.69-3.8,3.67-2.18-.02-3.86-1.82-3.73-4,.12-2.07,1.85-3.62,3.93-3.53,2.07.09,3.65,1.79,3.6,3.87Z"/>
      <path d="M231.03,67.76c0,2.19-1.74,3.85-3.94,3.77-2.07-.07-3.65-1.72-3.64-3.8,0-2.19,1.74-3.85,3.94-3.77,2.07.07,3.65,1.72,3.64,3.8Z"/>
      <path d="M283.48,83.38c-.05,2.08-1.72,3.69-3.8,3.67-2.18-.02-3.86-1.82-3.73-4,.12-2.07,1.85-3.62,3.93-3.53,2.07.09,3.65,1.79,3.6,3.87Z"/>
      <path d="M274.46,131.1c-3.12-1.5-4.35-3.79-3.66-6.31.74-2.7,2.87-4.05,6.58-3.83-.99,3.42-1.94,6.74-2.92,10.13Z"/>
      <path d="M273.82,71.55c-.03,2.02-1.71,3.69-3.74,3.69-2.13,0-3.87-1.81-3.76-3.94.1-2.02,1.85-3.63,3.87-3.56,2.02.07,3.66,1.78,3.63,3.8Z"/>
      <path d="M252.41,69.8c.05,2.02-1.57,3.76-3.59,3.84-2.13.09-3.93-1.66-3.91-3.79.02-2.02,1.7-3.7,3.72-3.71,2.03-.01,3.73,1.63,3.78,3.66Z"/>
      <path d="M153.36,46.86c2.04,0,3.71,1.66,3.74,3.7.03,2.14-1.76,3.89-3.9,3.81-2.03-.08-3.65-1.79-3.61-3.83.04-2.04,1.72-3.68,3.77-3.67Z"/>
      <path d="M199.77,54.3c.04,1.91-1.61,3.62-3.52,3.66-1.91.04-3.62-1.61-3.66-3.52-.04-1.91,1.61-3.62,3.52-3.66,1.91-.04,3.62,1.61,3.66,3.52Z"/>
      <path d="M178.47,52.82c-.04,2-1.84,3.72-3.83,3.64-1.99-.07-3.77-1.93-3.55-3.89.23-2.13,1.51-3.38,3.67-3.49,1.99-.1,3.74,1.75,3.71,3.74Z"/>
      <path d="M217.67,52.93c1.91.04,3.55,1.74,3.51,3.64-.04,1.91-1.74,3.55-3.64,3.51-1.91-.04-3.55-1.74-3.51-3.64.04-1.91,1.74-3.55,3.64-3.51Z"/>
      <path d="M242.47,58.22c-.26,2.09-1.4,3.27-3.51,3.31-2,.04-3.57-1.69-3.35-3.68.23-2.1,1.53-3.25,3.61-3.14,2.11.11,3.14,1.45,3.26,3.51Z"/>
      <path d="M147.1,39.05c-.15,1.83-1.21,3.05-3.31,3.16-2,.11-3.59-1.49-3.46-3.5.14-2.09,1.34-3.22,3.43-3.26,1.91-.04,3.33,1.45,3.34,3.59Z"/>
      <path d="M263.81,59.98c-.12,2.21-1.12,3.52-3.25,3.59-2.09.07-3.37-1.08-3.44-3.19-.07-2.09,1.08-3.35,3.19-3.45,2.13-.09,3.19,1.17,3.5,3.04Z"/>
      <path d="M125.65,37.47c-.31,2.05-1.49,3.2-3.58,3.07-2.11-.13-3.22-1.45-3.1-3.53.12-2.11,1.45-3.21,3.53-3.1,2.12.12,3.08,1.47,3.15,3.55Z"/>
      <path d="M211.21,44.79c-.27,1.93-1.3,3.17-3.31,3.12-1.99-.05-3.16-1.25-3.12-3.24.04-1.99,1.25-3.15,3.24-3.13,2.01.03,2.99,1.29,3.19,3.24Z"/>
      <path d="M164.84,37.64c2.24.14,3.54,1.15,3.56,3.29.02,2.11-1.17,3.32-3.29,3.33-1.98.01-3.16-1.11-3.27-3.09-.12-2.14,1.15-3.19,2.99-3.53Z"/>
      <path d="M189.88,42.58c-.2,2.07-1.27,3.33-3.4,3.28-2.12-.05-3.27-1.3-3.21-3.4.06-1.98,1.23-3.12,3.21-3.15,2.13-.03,3.2,1.2,3.4,3.27Z"/>
      <path d="M176.36,34.86c-.84-1.15-2.18-2.22-2.4-3.48-.31-1.76,1.05-3.02,2.89-3.07,1.84-.04,3.25,1.18,3.01,2.94-.17,1.27-1.46,2.39-2.26,3.57-.41,0-.82.02-1.24.03Z"/>
      <path d="M154.64,25.91c2.74.37,4,1.4,3.95,3.38-.04,1.83-1.23,3.01-3.06,3.01-1.97,0-3.37-1.28-3.07-3.18.2-1.27,1.55-2.35,2.18-3.22Z"/>
      <path d="M133.38,31.08c-.79-1.18-2.09-2.3-2.26-3.57-.24-1.77,1.16-2.99,3.01-2.94,1.84.04,3.2,1.3,2.89,3.07-.22,1.26-1.56,2.33-2.4,3.48-.41,0-.82-.02-1.24-.03Z"/>
      <path d="M253.82,48.98c-1.14.87-2.16,2.1-3.44,2.51-1.52.49-3.33-1.41-3.2-3.06.14-1.83,1.29-3.2,3.05-2.94,1.27.19,2.38,1.49,3.56,2.29.01.4.02.8.04,1.2Z"/>
      <path d="M228.46,43.04c2.77.32,4.06,1.33,4.04,3.33-.01,1.86-1.18,3.04-3.03,3.08-1.99.04-3.42-1.22-3.14-3.14.19-1.28,1.52-2.39,2.12-3.27Z"/>
      <path d="M282.24,65.14c-2.76-.31-4.05-1.31-4.04-3.31,0-1.85,1.18-3.04,3.01-3.08,1.98-.05,3.41,1.21,3.14,3.13-.18,1.28-1.51,2.39-2.11,3.27Z"/>
      <path d="M150.17,18.02c-1.94,1.38-3.03,2.71-4.31,2.92-1.78.29-3-1.09-3.08-2.94-.1-2.21,1.77-3.03,3.34-2.94,1.13.06,2.18,1.52,4.05,2.96Z"/>
      <path d="M243.24,191.65c-1.93-5.59.3-9.3,5.84-10.24-1.93,3.38-3.73,6.54-5.84,10.24Z"/>
      <path d="M61.85,175.9c-.96-3.91-1.84-7.48-2.74-11.15,4.93,1.58,6.27,6.65,2.74,11.15Z"/>
      <path d="M201.16,33.43c-1.07.81-2.06,2.11-3.24,2.33-1.82.34-3.04-.96-3.03-2.86,0-1.77,1.15-3.05,2.86-2.78,1.21.19,2.26,1.38,3.38,2.12.01.4.02.79.03,1.19Z"/>
      <path d="M239.87,39.81c-.65-1.06-1.93-2.2-1.79-3.14.14-1,1.51-2.36,2.55-2.57,1.73-.35,2.95,1.02,2.61,2.75-.22,1.1-1.38,2.01-2.12,3.01-.42-.02-.83-.03-1.25-.05Z"/>
      <path d="M268.46,49.19c1.15-.65,2.26-1.74,3.46-1.85,1.75-.16,2.7,1.2,2.58,2.96-.12,1.8-1.35,2.93-3.01,2.51-1.16-.29-2.09-1.55-3.12-2.38.03-.42.06-.83.09-1.25Z"/>
      <path d="M222.46,35.59c-1.06.77-2.04,1.97-3.21,2.19-1.73.33-3.07-.95-2.72-2.67.22-1.06,1.55-2.55,2.5-2.64,1.05-.11,2.25,1.15,3.38,1.81.02.44.04.88.06,1.31Z"/>
      <path d="M188.31,25.4c-1.28-1.64-2.72-2.69-2.59-3.5.17-1.04,1.58-1.88,2.46-2.81.86.86,2.3,1.64,2.41,2.59.11.91-1.15,1.98-2.28,3.71Z"/>
      <path d="M265.74,38.87c-1.7,1.2-2.83,2.57-3.62,2.4-1.03-.22-1.8-1.67-2.69-2.59.9-.82,1.75-2.21,2.71-2.28.91-.07,1.92,1.25,3.6,2.47Z"/>
      <path d="M65.05,91.23c1.12-2.92,2.16-5.63,3.23-8.43,2.98,3.07,1.48,7.12-3.23,8.43Z"/>
      <path d="M167.15,16.66c.7.95,2.01,1.96,1.92,2.83-.09.93-1.42,2.21-2.38,2.4-.66.13-2.22-1.32-2.29-2.16-.08-.95,1.05-2,1.66-3.01.37-.02.73-.04,1.1-.05Z"/>
      <path d="M213,23.41c-1.73,1.06-2.67,2.1-3.55,2.05-.76-.05-2.12-1.47-2.01-2.05.17-.9,1.31-2.13,2.16-2.23.79-.1,1.75,1.08,3.41,2.24Z"/>
      <path d="M234.3,25.39c-1.59,1.09-2.48,2.17-3.35,2.15-.75-.02-1.47-1.29-2.2-2,.76-.78,1.42-1.99,2.31-2.19.68-.15,1.65.98,3.24,2.04Z"/>
      <path d="M255.44,27.21c-1.51.9-2.41,1.87-3.22,1.81-.69-.05-1.91-1.5-1.77-1.99.25-.83,1.33-1.81,2.18-1.94.64-.1,1.46,1.05,2.81,2.12Z"/>
      <path d="M181.47,9.83c-1.36,1.01-2.17,2.06-2.88,2-.75-.06-1.42-1.19-2.13-1.85.66-.7,1.25-1.87,2-1.98.71-.1,1.58.9,3,1.82Z"/>
      <path d="M289.56,77.21c-2.71-3-2.6-4.71.38-7.36-.13,2.61-.24,4.67-.38,7.36Z"/>
      <path d="M199.91,8.98c.82,1.2,1.64,1.89,1.64,2.58,0,.57-.98,1.13-1.52,1.7-.61-.59-1.54-1.09-1.72-1.79-.13-.5.76-1.25,1.6-2.49Z"/>
      <path d="M221.54,16.07c-.88-1.07-1.77-1.68-1.75-2.27.02-.62.92-1.21,1.43-1.81.6.51,1.58.95,1.69,1.56.11.57-.68,1.32-1.37,2.51Z"/>
      <path d="M244.94,15.3c-.97.7-1.67,1.56-2.1,1.44-.65-.18-1.1-1.04-1.64-1.61.55-.47,1.08-1.28,1.65-1.31.54-.03,1.13.76,2.09,1.49Z"/>
    </g>
  </g>
  <g class="cls-3">
    <g>
      <path d="M251.26,382.77c-3.91.39-7.26-.62-10.04-4.46-.23,4.6-1.79,7.97-5.79,9.54-3.97,1.56-7.39.38-10.51-2.84-.84,5.27-3.25,8.99-8.83,9.35-3.7.24-6.52-1.53-8.15-4.83-1.95-3.96-1-7.53,2-10.63-2.58-.97-5.13-1.93-7.47-2.81-1.26,2.15-2.64,4.52-3.89,6.67,1.23.46,2.86.87,4.29,1.65,4.74,2.57,7.22,10.69-.65,15.66-.5.24-1,.49-1.51.73-6.58-.6-7.36-1.01-10.66-5.92.6,4.94-.62,8.78-5.09,10.7-4.33,1.86-7.91.27-10.86-3.25-1.14,6.37-3.41,9.19-7.76,9.77-3.61.49-7.24-1.46-8.83-4.74-1.9-3.92-.73-7.51,4.08-11.99-1.2.03-2.09.11-2.97.08-4.82-.17-7.24-2.63-7.05-7.44.38-9.74.49-19.52,1.46-29.2.61-6.04,2.57-11.95,3.96-17.91.73-3.11,1.4-6.24,2.35-9.27.97-3.1,2.25-6.1,3.5-9.43.76.24,1.46.46,2.15.69.87-1.77,1.74-3.54,2.72-5.53-.46-.3-1.09-.71-1.73-1.12,4.52-8.35,10.6-15.32,17.35-21.82,2.56-2.47,4.73-2.76,7.54-1.03.52.32,1.09.59,1.66.9.95-1.87,1.89-3.7,2.91-5.69-.77-.35-1.59-.73-3.36-1.54,5.2-2.65,9.77-4.98,14.34-7.32-.78,2.09-1.57,4.18-2.36,6.28,1.65.8,3.58,1.73,5.48,2.65.94-1.92,1.88-3.85,2.77-5.68-1.99-1.07-3.99-2.14-5.99-3.21,5.21-1.41,10.42-2.82,15.62-4.23.21.34.41.69.62,1.03-.61,1.12-1.23,2.23-1.91,3.48,1.88.92,3.79,1.86,5.89,2.89.55-1.22,1.18-2.59,1.85-4.07,12.73,1.79,26.15.04,36.56,8.4,1.5-.51,2.57-1.29,3.28-1.04,5.44,1.89,10.81,3.98,16.47,6.11-.76,1.4-1.39,2.54-2,3.67,1.98.97,3.93,1.92,6.09,2.97.51-1.36,1.05-2.79,1.66-4.42,5.87,2.62,11.51,5.13,17.45,7.78-.86,1.67-1.55,3-2.24,4.33,1.94.94,3.88,1.89,6,2.92.49-1.31,1-2.66,1.81-4.81,5.68,3.39,11.07,6.61,16.62,9.92-.73,1.32-1.25,2.28-1.76,3.2,2.02.99,3.97,1.94,6.02,2.95.29-.58.59-1.2.88-1.79,14.44,11.63,20.27,27.21,21.33,46.34-3.42-1.71-6.1-3.05-8.76-4.38-.2,3.48-1.71,6.79-5.68,8.36-3.98,1.58-7.39.43-10.6-2.87-.59,4.52-2.44,7.97-6.91,9.12-4.39,1.13-7.66-.76-10.47-4.84.28,5.41-1.56,9.06-6.37,10.45-4.42,1.28-7.76-.61-10.52-4.82-.02,5.33-1.62,9.3-6.78,10.58-4.34,1.08-7.5-.88-10.4-5.24,1.13,5.93-1.14,9.45-5.39,11.9l.14-.07c-.62.02-1.23.02-1.85.06-3.94.3-7.22-1.46-8.81-4.75-1.58-3.27-.92-7.01,1.77-9.84.43-.45.89-.87,1.07-1.05-2.88-1.3-5.82-2.62-8.06-3.63-1.84,2.57-3.88,5.42-5.92,8.28-.58.05-1.16.1-1.74.14ZM172.2,398.54c1.32-2.87,2.66-5.77,3.81-8.27-2.23-.98-5.09-2.25-7.4-3.27-1.68,2.59-3.58,5.5-5.33,8.2,3.37-.67,6.7.57,8.93,3.34ZM189.48,392.87c.95-2.52,2.07-5.5,3.11-8.26-2.25-1.02-4.76-2.16-7.09-3.22-1.28,2.31-2.7,4.84-3.81,6.84,2.67,1.59,5.43,3.24,7.79,4.64ZM271.45,376c2.55,1.24,5.47,2.66,7.86,3.81.95-2.53,2.03-5.4,3.02-8.04-2.23-.97-4.56-1.97-6.56-2.84-1.51,2.47-3.05,4.98-4.33,7.06ZM316.32,359.91c-2.23-1.04-4.79-2.23-7.13-3.33-1.07,2.35-2.2,4.84-3.13,6.87,2.47,1.55,5.02,3.15,7.22,4.52.85-2.27,1.95-5.2,3.04-8.07ZM296.29,373.8c.81-2.15,1.87-4.96,2.87-7.63-2.28-1.08-4.77-2.25-7.13-3.36-1.07,2.17-2.24,4.53-3.15,6.37,2.59,1.61,5.23,3.25,7.41,4.61ZM239.7,374.17c.96-2.24,2.1-4.92,3.13-7.33-2.17-1.03-4.61-2.19-6.8-3.22-.97,2.19-2,4.52-2.94,6.65,2.18,1.29,4.55,2.68,6.61,3.9ZM349.45,348.27c-2.01-.87-4.33-1.88-6.49-2.82-1.3,2.2-2.6,4.4-3.69,6.25,2.37,1.32,4.88,2.72,7.01,3.91.99-2.29,2.11-4.89,3.17-7.34ZM256.58,368.21c1.02-2.28,2.18-4.87,3.28-7.33-2-.75-4.36-1.64-6.57-2.47-1.27,2.16-2.51,4.25-3.54,5.99,2.39,1.33,4.78,2.66,6.83,3.81ZM329.39,361.04c1.1-2.33,2.27-4.79,3.4-7.18-2.06-.77-4.34-1.63-6.34-2.38-1.37,2.23-2.73,4.45-3.89,6.32,2.27,1.08,4.67,2.22,6.83,3.24ZM269.72,352.33c-1.24,2.19-2.48,4.38-3.72,6.57,2.39.9,4.76,1.79,7.01,2.64.97-2.08,1.96-4.21,2.94-6.31-2.03-.94-4.09-1.9-6.23-2.9ZM218.91,369.91c-1.07,2.11-2.22,4.36-3.21,6.31,2.38,1.11,4.9,2.3,7.33,3.43.83-2.2,1.72-4.56,2.45-6.52-2.2-1.08-4.41-2.16-6.57-3.22ZM289.82,356.07c1.01-2.26,2-4.48,2.96-6.63-2.03-.93-4.14-1.89-6.14-2.81-1.12,2.11-2.22,4.18-3.23,6.07,2.12,1.12,4.3,2.26,6.42,3.37ZM179.88,365.04c-.98,2.18-1.92,4.29-2.79,6.21,2.09,1.15,4.14,2.28,6.06,3.33.99-2.2,2.02-4.47,3.01-6.65-2.05-.95-4.11-1.9-6.28-2.9ZM159.92,377c2.13,1.2,4.33,2.43,6.48,3.63.78-2.07,1.6-4.25,2.41-6.4-2.04-.98-4.05-1.95-6.05-2.91-.96,1.92-1.91,3.84-2.83,5.68ZM303.57,341.19c-1.12,2.03-2.15,3.92-3.12,5.68,2.19,1.15,4.39,2.31,6.44,3.38.84-2.24,1.67-4.44,2.57-6.85-1.87-.7-3.89-1.46-5.89-2.22ZM216.36,362.45c1-2.11,1.97-4.16,2.95-6.23-1.89-.91-3.92-1.88-5.93-2.85-1.02,2.02-2.08,4.12-3.01,5.95,2.06,1.08,4.06,2.13,5.98,3.14ZM230.32,347.62c-.95,1.93-1.89,3.87-2.83,5.79,1.99,1.11,4.04,2.26,6.06,3.4.77-2.06,1.6-4.24,2.42-6.44-1.76-.85-3.62-1.76-5.66-2.74ZM336.9,328.39c-.79,2.1-1.57,4.17-2.29,6.08,1.95,1.06,3.76,2.05,5.53,3.02.97-2.01,1.95-4.05,2.93-6.09-1.87-.91-3.82-1.86-6.17-3ZM157.04,354.4c-.94,1.95-1.89,3.94-2.79,5.83,1.98.99,3.83,1.92,5.74,2.87.93-1.9,1.91-3.9,2.88-5.88-1.96-.95-3.89-1.88-5.82-2.82ZM184.71,311.56c-1.99-.97-3.9-1.9-5.77-2.81-.96,1.98-1.9,3.9-2.81,5.77,1.98.96,3.9,1.9,5.76,2.81.94-1.92,1.85-3.79,2.82-5.76ZM278.05,335.37c1.97.97,3.88,1.91,5.78,2.84.94-1.93,1.88-3.86,2.82-5.8-1.89-.92-3.86-1.88-5.75-2.81-.96,1.95-1.87,3.8-2.84,5.76ZM317.22,326.44c.93-1.9,1.87-3.83,2.8-5.75-1.93-.94-3.86-1.88-5.77-2.82-.94,1.93-1.88,3.86-2.82,5.78,1.86.9,3.74,1.8,5.79,2.78ZM241.02,310.55c-1.84-.92-3.79-1.89-5.75-2.86-.92,1.84-1.89,3.79-2.86,5.74,1.84.92,3.79,1.89,5.74,2.86.92-1.84,1.89-3.79,2.86-5.74ZM263.63,335.16c-.79,2.09-1.54,4.09-2.28,6.05,1.86.95,3.68,1.87,5.49,2.79.96-1.96,1.91-3.9,2.85-5.85-1.84-.91-3.79-1.87-6.07-3ZM258,304.79c-2.06-1-3.96-1.92-5.79-2.81-.98,2.02-1.9,3.93-2.79,5.75,2.02.98,3.92,1.9,5.74,2.78.98-1.97,1.9-3.83,2.84-5.73ZM210.58,344.93c.93-1.91,1.87-3.84,2.8-5.76-1.93-.94-3.86-1.88-5.77-2.81-.94,1.93-1.88,3.86-2.81,5.78,1.87.9,3.74,1.8,5.78,2.78ZM263.42,321.67c-1.91-.97-3.67-1.87-5.43-2.77-.92,1.86-1.89,3.81-2.87,5.77,1.9.93,3.9,1.92,6.05,2.97.77-2.04,1.5-3.98,2.25-5.98ZM193.09,308.78c1.93.94,3.86,1.88,5.78,2.82.94-1.94,1.89-3.88,2.93-6-1.97-.74-3.97-1.49-5.99-2.25-.87,1.74-1.75,3.5-2.71,5.44ZM238.05,330.67c1.95.73,3.96,1.49,5.98,2.25.9-1.78,1.83-3.6,2.75-5.42-1.94-.94-3.87-1.88-5.8-2.82-.93,1.91-1.88,3.85-2.93,5.99ZM199.52,368.14c1-2.11,1.98-4.2,3.02-6.41-1.97-.74-3.87-1.45-5.58-2.1-1.13,2.05-2.17,3.95-3.18,5.79,1.9.9,3.84,1.82,5.74,2.72ZM230.51,333.2c-2.09-.79-4.08-1.53-6.01-2.26-.95,1.91-1.86,3.72-2.73,5.45,2.02.98,3.94,1.91,5.76,2.8.97-1.95,1.89-3.81,2.97-6ZM190.15,328.46c-1.91-.97-3.67-1.87-5.43-2.77-.92,1.86-1.89,3.81-2.87,5.77,1.9.93,3.9,1.92,6.05,2.97.77-2.04,1.5-3.98,2.25-5.98ZM217.73,299.77c-1.73-.89-3.55-1.82-5.38-2.76-.94,1.91-1.92,3.9-3,6.08,2.06.77,4.05,1.52,6.25,2.35.69-1.84,1.41-3.74,2.13-5.67ZM243.98,290.85c1.79.9,3.61,1.82,5.44,2.74.94-1.94,1.91-3.93,2.96-6.1-2.08-.78-4.06-1.53-6.25-2.35-.72,1.91-1.43,3.8-2.15,5.71ZM294.55,315c1-1.99,1.9-3.78,2.78-5.53-2-.98-3.92-1.91-6.04-2.95-.77,2.04-1.54,4.1-2.3,6.1,1.9.81,3.69,1.58,5.56,2.37ZM173.92,348.97c-.91,1.85-1.83,3.71-2.71,5.48,2.09,1.01,4,1.93,6.07,2.94.79-2.09,1.53-4.08,2.36-6.27-1.85-.7-3.68-1.38-5.72-2.15ZM193.69,350.37c.9-1.79,1.82-3.61,2.74-5.44-1.94-.94-3.93-1.91-6.1-2.96-.78,2.08-1.53,4.06-2.35,6.25l5.71,2.15ZM319.96,334.87c-.91,1.91-1.83,3.84-2.73,5.74,2.11.79,4.1,1.54,6.1,2.29.83-1.75,1.65-3.49,2.48-5.23-1.92-.92-3.79-1.82-5.85-2.81ZM271.6,304.38c.97-1.95,1.87-3.77,2.8-5.63-1.77-.77-3.53-1.54-5.27-2.29-.96,1.92-1.86,3.74-2.78,5.6,1.71.76,3.41,1.51,5.25,2.33ZM170.7,339.84c.99-1.97,1.89-3.78,2.81-5.63-1.8-.79-3.56-1.56-5.27-2.3-.98,1.95-1.89,3.76-2.8,5.59,1.75.78,3.46,1.54,5.25,2.34ZM207.21,322.73c-1.92-.94-3.79-1.86-5.64-2.77-.81,1.87-1.54,3.56-2.26,5.25,1.86.95,3.68,1.87,5.57,2.84.77-1.75,1.55-3.52,2.33-5.32ZM300.27,332c.98-1.97,1.89-3.78,2.81-5.63-1.8-.79-3.56-1.56-5.27-2.3-.98,1.95-1.89,3.76-2.8,5.59,1.75.78,3.46,1.54,5.25,2.34ZM229.05,291.15c-.74,1.97-1.41,3.75-2.05,5.45,1.94.96,3.74,1.85,5.53,2.75.81-1.89,1.56-3.64,2.25-5.28-1.95-.99-3.7-1.88-5.74-2.92ZM272.53,318.43c1.94.95,3.81,1.87,5.66,2.78.84-1.94,1.59-3.7,2.39-5.56-2.03-.76-3.86-1.45-5.8-2.18-.73,1.6-1.49,3.27-2.26,4.96ZM216.32,319.58c1.68.76,3.34,1.5,4.94,2.22.99-1.97,1.89-3.78,2.81-5.6-1.83-.81-3.6-1.6-5.55-2.46-.73,1.93-1.42,3.78-2.2,5.84ZM249.97,349.68c.81-1.75,1.61-3.49,2.45-5.31-1.79-.78-3.53-1.53-5.25-2.28-.83,1.84-1.57,3.49-2.31,5.13,1.76.85,3.41,1.64,5.11,2.46Z"/>
      <path d="M251.26,382.77c.58-.05,1.16-.1,1.74-.14,6.89-.65,11.66,4.29,10,10.37-1,3.69-3.98,6.13-7.71,6.31-3.53.18-6.89-1.94-8.24-5.18-1.38-3.32-.41-7.31,2.36-9.73.62-.54,1.24-1.08,1.85-1.63Z"/>
      <path d="M352.9,381.32c-1.67,4.41-6.34,6.5-10.75,4.83-4.41-1.67-6.5-6.34-4.83-10.76,1.67-4.41,6.34-6.5,10.75-4.83,4.41,1.67,6.5,6.34,4.83,10.75Z"/>
      <path d="M234.94,404.42c-4.42-1.67-6.52-6.33-4.85-10.74,1.67-4.42,6.32-6.52,10.74-4.85,4.42,1.67,6.52,6.33,4.85,10.75-1.67,4.41-6.33,6.52-10.75,4.85Z"/>
      <path d="M335.93,386.88c-1.62,4.46-6.31,6.62-10.73,4.94-4.31-1.63-6.41-6.21-4.85-10.53,1.62-4.46,6.3-6.62,10.73-4.94,4.31,1.63,6.41,6.21,4.85,10.53Z"/>
      <path d="M200.71,400.79c.5-.24,1-.49,1.51-.73,1.35.07,2.73-.03,4.04.23,3.78.76,6.37,3.98,6.48,7.84.1,3.68-2.3,7-5.8,8.07-3.64,1.1-7.56-.42-9.5-3.7-1.93-3.25-1.37-7.42,1.37-10.1.59-.58,1.27-1.08,1.91-1.61Z"/>
      <path d="M308.37,397.56c-4.28-1.55-6.47-6.18-4.96-10.45,1.56-4.41,6.33-6.62,10.69-4.95,4.24,1.62,6.35,6.28,4.76,10.54-1.59,4.26-6.23,6.41-10.49,4.86Z"/>
      <path d="M218.71,410.36c-4.45-1.61-6.61-6.3-4.94-10.71,1.63-4.29,6.21-6.4,10.51-4.85,4.45,1.61,6.61,6.3,4.94,10.71-1.63,4.29-6.21,6.4-10.51,4.85Z"/>
      <path d="M291.48,403.27c-4.12-1.82-6.02-6.76-4.16-10.85,1.87-4.1,6.83-5.95,10.89-4.06,3.98,1.86,5.8,6.63,4.08,10.64-1.78,4.14-6.7,6.08-10.81,4.26Z"/>
      <path d="M194.92,417.65c-1.66,4.19-6.52,6.26-10.68,4.56-4.17-1.7-6.2-6.58-4.46-10.73,1.7-4.04,6.39-6.04,10.48-4.47,4.21,1.62,6.32,6.45,4.66,10.63Z"/>
      <path d="M274.66,393.62c.92-.06,1.84-.14,2.76-.17,3.94-.16,7.43,2.53,8.27,6.34.85,3.85-1.19,7.74-4.84,9.22-3.78,1.54-8.04.07-10.07-3.47-1.96-3.42-1.18-7.65,1.89-10.23.71-.59,1.42-1.17,2.14-1.76,0,0-.14.07-.14.07Z"/>
      <path d="M168,428.16c-4.03-1.58-6.17-6.38-4.64-10.41,1.57-4.16,6.59-6.34,10.66-4.63,4,1.68,6.05,6.53,4.44,10.51-1.63,4.02-6.45,6.11-10.46,4.54Z"/>
      <path d="M268.33,410.19c-1.58,4.03-6.43,6.16-10.43,4.58-4.03-1.58-6.16-6.43-4.58-10.43,1.58-4.03,6.43-6.16,10.43-4.58,4.03,1.58,6.16,6.43,4.58,10.43Z"/>
      <path d="M251.61,416.58c-1.54,4.12-6.23,6.2-10.31,4.58-3.98-1.58-5.98-6.1-4.49-10.11,1.54-4.12,6.23-6.2,10.31-4.58,3.98,1.58,5.98,6.1,4.49,10.11Z"/>
      <path d="M230.04,412.31c4.1,1.58,6.03,5.94,4.45,10.05-1.58,4.1-5.94,6.03-10.05,4.45-4.09-1.58-6.03-5.94-4.45-10.05,1.58-4.1,5.94-6.03,10.05-4.45Z"/>
      <path d="M341.38,403.23c-1.55,4.11-5.93,6.08-10.04,4.53-4.11-1.55-6.08-5.93-4.53-10.04,1.55-4.11,5.93-6.08,10.04-4.53,4.11,1.55,6.08,5.93,4.53,10.04Z"/>
      <path d="M191.05,438.33c-3.93-1.55-5.81-5.85-4.28-9.82,1.57-4.07,6.01-5.95,10.07-4.26,3.89,1.61,5.67,5.96,4.07,9.91-1.58,3.91-5.91,5.74-9.87,4.17Z"/>
      <path d="M309.75,403.98c1.6-4.08,5.95-5.93,10.05-4.29,4.05,1.62,5.87,6,4.19,10.09-1.61,3.92-5.85,5.73-9.84,4.2-4.1-1.57-6-5.89-4.39-10Z"/>
      <path d="M307.61,415.53c-1.53,3.95-5.81,5.86-9.79,4.36-4.08-1.54-6-5.97-4.35-10.03,1.59-3.9,5.92-5.73,9.88-4.16,3.93,1.56,5.79,5.86,4.26,9.83Z"/>
      <path d="M217.45,427.98c-1.54,4.11-5.85,6.04-9.95,4.47-4.09-1.57-5.98-5.89-4.37-10,1.55-3.95,5.75-5.84,9.75-4.38,4.13,1.51,6.11,5.8,4.57,9.9Z"/>
      <path d="M286.44,411.51c3.84,1.59,5.68,6.05,4.09,9.9-1.59,3.84-6.05,5.68-9.9,4.09-3.84-1.59-5.68-6.05-4.09-9.9,1.59-3.84,6.05-5.68,9.9-4.09Z"/>
      <path d="M179.69,429.96c3.88,1.54,5.79,6.02,4.21,9.89-1.58,3.86-6.08,5.73-9.94,4.11-3.74-1.57-5.58-5.9-4.12-9.69,1.5-3.91,5.95-5.86,9.85-4.31Z"/>
      <path d="M269.26,417.23c3.85,1.49,5.82,6.07,4.25,9.86-1.53,3.7-5.94,5.6-9.66,4.16-3.85-1.49-5.82-6.07-4.25-9.86,1.53-3.7,5.94-5.6,9.66-4.16Z"/>
      <path d="M162.23,436.26c3.76,1.33,5.86,5.71,4.56,9.51-1.33,3.89-5.91,6.02-9.76,4.55-3.74-1.43-5.74-5.84-4.36-9.6,1.38-3.75,5.78-5.8,9.55-4.46Z"/>
      <path d="M346.72,420.03c-1.4,3.75-5.82,5.73-9.54,4.28-3.74-1.45-5.67-5.89-4.18-9.59,1.46-3.61,5.68-5.51,9.34-4.19,3.76,1.35,5.79,5.75,4.38,9.5Z"/>
      <path d="M257.1,432.91c-1.46,3.71-5.95,5.67-9.63,4.22-3.71-1.46-5.67-5.95-4.22-9.63,1.46-3.71,5.95-5.67,9.63-4.22,3.71,1.46,5.67,5.95,4.22,9.63Z"/>
      <path d="M230.67,442.83c-3.79-1.38-5.79-5.81-4.31-9.56,1.44-3.66,5.67-5.56,9.36-4.22,3.79,1.38,5.79,5.81,4.31,9.56-1.44,3.66-5.67,5.56-9.36,4.22Z"/>
      <path d="M222.75,444.65c-1.35,3.81-5.34,5.72-9.13,4.37-3.81-1.35-5.72-5.34-4.37-9.13,1.35-3.81,5.34-5.72,9.13-4.37,3.81,1.35,5.72,5.34,4.37,9.13Z"/>
      <path d="M320.89,430.11c-3.77-1.44-5.58-5.48-4.14-9.26,1.44-3.77,5.48-5.58,9.26-4.14,3.77,1.44,5.58,5.48,4.14,9.26-1.44,3.77-5.48,5.58-9.26,4.14Z"/>
      <path d="M309.21,422.63c3.73,1.53,5.36,5.63,3.73,9.4-1.55,3.58-5.52,5.16-9.19,3.65-3.73-1.53-5.36-5.63-3.73-9.4,1.55-3.58,5.52-5.16,9.19-3.65Z"/>
      <path d="M206.19,450.75c-1.45,3.79-5.46,5.52-9.24,4-3.63-1.46-5.32-5.36-3.91-9.04,1.45-3.79,5.46-5.52,9.24-4,3.63,1.46,5.32,5.36,3.91,9.04Z"/>
      <path d="M185.15,447.46c3.65,1.4,5.41,5.36,4,9.02-1.4,3.65-5.36,5.41-9.02,4-3.65-1.4-5.41-5.36-4-9.02,1.4-3.65,5.36-5.41,9.02-4Z"/>
      <path d="M295.8,437.96c-1.39,3.66-5.33,5.44-9,4.05-3.66-1.39-5.44-5.33-4.05-9,1.39-3.66,5.33-5.44,9-4.05,3.66,1.39,5.44,5.33,4.05,9Z"/>
      <path d="M163.11,466.15c-3.58-1.41-5.32-5.5-3.87-9.07,1.45-3.56,5.56-5.26,9.11-3.77,3.43,1.44,5.11,5.38,3.78,8.86-1.38,3.6-5.44,5.39-9.02,3.97Z"/>
      <path d="M270.39,447.9c-3.59-1.39-5.36-5.46-3.94-9.03,1.42-3.56,5.53-5.3,9.08-3.84,3.44,1.42,5.15,5.34,3.84,8.83-1.35,3.6-5.4,5.42-8.98,4.04Z"/>
      <path d="M253.41,453.58c-3.43-1.35-5.23-5.39-3.93-8.83,1.34-3.55,5.6-5.39,9.08-3.92,3.39,1.43,5.11,5.54,3.73,8.92-1.39,3.4-5.47,5.16-8.87,3.83Z"/>
      <path d="M245.28,455.35c-1.31,3.41-5.46,5.24-8.84,3.88-3.4-1.36-5.18-5.54-3.78-8.89,1.37-3.28,5.32-5.01,8.64-3.79,3.42,1.26,5.29,5.39,3.98,8.8Z"/>
      <path d="M354.91,387.5c-.82,4.89-1.49,9.34-2.4,13.74-.12.59-1.5,1.32-2.27,1.29-4.05-.15-7.31-3.98-7.11-8.12.2-4.3,3.83-7.77,8.05-7.61,1.12.04,2.23.4,3.72.69Z"/>
      <path d="M326.97,446.65c-3.39-1.19-5.23-4.99-4.07-8.41,1.19-3.52,5.18-5.39,8.65-4.06,3.36,1.28,5.11,5.12,3.87,8.5-1.24,3.38-5.05,5.17-8.45,3.97Z"/>
      <path d="M228.74,461.23c-1.28,3.37-5.09,5.11-8.47,3.87-3.5-1.28-5.27-5.28-3.86-8.72,1.37-3.35,5.21-4.99,8.57-3.67,3.36,1.32,5.05,5.15,3.77,8.52Z"/>
      <path d="M194.39,473.07c-1.21,3.4-4.69,5.08-8.06,3.92-3.53-1.22-5.23-4.83-3.91-8.31,1.28-3.36,4.78-4.96,8.16-3.71,3.38,1.25,5.02,4.74,3.81,8.11Z"/>
      <path d="M203.09,471.26c-3.51-1.31-5.12-4.97-3.74-8.46,1.33-3.35,4.87-4.91,8.26-3.64,3.51,1.31,5.12,4.97,3.74,8.46-1.33,3.35-4.87,4.91-8.26,3.64Z"/>
      <path d="M301.18,454.21c-1.31,3.36-4.84,4.91-8.22,3.63-3.49-1.32-5.06-5-3.62-8.47,1.37-3.31,4.94-4.78,8.31-3.43,3.33,1.34,4.85,4.89,3.53,8.27Z"/>
      <path d="M314.46,440.03c3.49,1.29,5.15,4.94,3.82,8.41-1.32,3.47-5,5.08-8.46,3.72-3.33-1.31-4.94-4.84-3.73-8.21,1.25-3.5,4.89-5.21,8.37-3.92Z"/>
      <path d="M273.02,455.37c1.36-3.26,5.1-4.74,8.36-3.33,3.23,1.4,4.68,5.15,3.23,8.4-1.39,3.1-4.98,4.54-8.15,3.25-3.28-1.33-4.81-5.04-3.44-8.31Z"/>
      <path d="M177.94,478.99c-1.17,3.34-4.87,5.07-8.18,3.81-3.19-1.21-4.85-4.76-3.72-7.98,1.17-3.34,4.87-5.07,8.18-3.81,3.19,1.21,4.85,4.76,3.72,7.98Z"/>
      <path d="M263.92,458.33c3.1,1.21,4.75,4.91,3.58,8.02-1.21,3.22-5.11,4.91-8.26,3.57-3.07-1.3-4.63-5.04-3.38-8.11,1.26-3.09,4.97-4.69,8.06-3.48Z"/>
      <path d="M250.49,471.94c-1.08,3.11-4.82,4.87-7.93,3.74-3.1-1.13-4.82-4.89-3.64-7.98,1.14-2.98,4.69-4.65,7.73-3.65,3.12,1.03,4.93,4.75,3.84,7.89Z"/>
      <path d="M152.8,418.64c5.38-.33,9.19,3.03,9.11,7.78-.08,4.86-3.93,8.11-9.2,7.6.03-5.05.06-10.12.09-15.38Z"/>
      <path d="M233.87,478.04c-1.21,3.09-4.69,4.61-7.77,3.4-3.09-1.21-4.61-4.69-3.4-7.77,1.21-3.09,4.69-4.61,7.77-3.4,3.09,1.21,4.61,4.69,3.4,7.77Z"/>
      <path d="M216.8,483.6c-1.13,3.08-4.27,4.59-7.35,3.54-3.23-1.1-4.8-4.37-3.63-7.55,1.17-3.19,4.48-4.68,7.64-3.43,3.04,1.2,4.47,4.37,3.34,7.44Z"/>
      <path d="M323.42,465.16c-1.19,3.18-4.51,4.64-7.67,3.37-3.03-1.21-4.43-4.4-3.28-7.47,1.19-3.18,4.51-4.64,7.67-3.37,3.03,1.21,4.43,4.4,3.28,7.47Z"/>
      <path d="M306.97,470.99c-1.1,3.06-4.29,4.57-7.33,3.48-3.06-1.1-4.57-4.29-3.48-7.33,1.1-3.06,4.29-4.57,7.33-3.48,3.06,1.1,4.57,4.29,3.48,7.33Z"/>
      <path d="M199.61,489.59c-1.24,2.96-4.53,4.28-7.54,3.02-2.96-1.24-4.28-4.53-3.02-7.54,1.24-2.96,4.53-4.28,7.54-3.02,2.96,1.24,4.28,4.53,3.02,7.54Z"/>
      <path d="M160.62,485.94c-1.26.72-3.04,2.18-5.07,2.78-2.18.65-3.8-.37-3.92-3.07-.07-1.73-.25-3.56-.88-5.15-.87-2.17.34-2.92,1.87-3.54,2.45-.99,4.74-.68,6.68,1.23,1.92,1.88,2.24,4.16,1.32,7.74Z"/>
      <path d="M289.92,476.75c-1.05,2.87-4.24,4.41-7.13,3.44-3.01-1.01-4.62-4.35-3.53-7.33,1.09-2.99,4.47-4.5,7.42-3.33,2.84,1.12,4.29,4.35,3.24,7.22Z"/>
      <path d="M272.81,482.64c-1.14,2.79-4.53,4.23-7.3,3.1-2.79-1.14-4.23-4.53-3.1-7.3,1.14-2.79,4.53-4.23,7.3-3.1,2.79,1.14,4.23,4.53,3.1,7.3Z"/>
      <path d="M175.7,499.16c-2.85-1.09-4.34-4.36-3.28-7.23,1.09-2.98,4.55-4.49,7.48-3.27,2.82,1.17,4.21,4.49,3.08,7.32-1.13,2.83-4.43,4.27-7.28,3.18Z"/>
      <path d="M337.99,451.98c.3.61,1.45,1.82,1.35,2.93-.22,2.52-.95,5.03-1.73,7.46-.16.51-1.37.92-2.13.98-2.65.2-4.74-.89-5.93-3.29-1.19-2.4-.85-4.74.93-6.73,1.8-2.02,4.1-2.37,7.51-1.34Z"/>
      <path d="M165.97,501.68c-1.07,2.68-5.04,4.85-6.87,3.08-1.84-1.77-3.22-4.87-3.25-7.41-.03-2.57,4.24-4,6.92-2.97,2.83,1.09,4.32,4.49,3.2,7.3Z"/>
      <path d="M256.11,488.94c-.99,2.75-4.19,4.26-6.95,3.27-2.75-.99-4.26-4.19-3.27-6.95.99-2.75,4.19-4.26,6.95-3.27,2.75.99,4.26,4.19,3.27,6.95Z"/>
      <path d="M325.85,474.72c2.72,1.09,3.93,3.97,2.83,6.71-1.1,2.73-3.96,3.93-6.71,2.83-2.72-1.09-3.93-3.97-2.83-6.71,1.09-2.72,3.97-3.93,6.71-2.83Z"/>
      <path d="M232.11,497.72c-2.82-1.1-4.1-4.14-2.92-6.95,1.12-2.66,4.04-3.88,6.75-2.83,2.82,1.1,4.1,4.14,2.92,6.95-1.12,2.66-4.04,3.88-6.75,2.83Z"/>
      <path d="M305.62,490.8c-2.6-.92-3.98-3.75-3.1-6.37.92-2.73,3.93-4.14,6.61-3.09,2.57,1,3.86,3.87,2.9,6.46-.96,2.59-3.81,3.92-6.41,3Z"/>
      <path d="M218.78,493.75c2.78,1,4.1,3.86,3.06,6.62-1.04,2.76-3.91,4.03-6.66,2.96-2.62-1.03-3.89-3.76-2.97-6.42.97-2.79,3.81-4.16,6.57-3.16Z"/>
      <path d="M198.76,509.2c-2.56-1.04-3.8-3.93-2.8-6.5,1.05-2.69,4.12-3.95,6.75-2.78,2.52,1.11,3.67,4.06,2.59,6.59-1.08,2.54-3.99,3.74-6.55,2.69Z"/>
      <path d="M294.98,493.51c-.93,2.5-3.99,3.87-6.46,2.9-2.49-.98-3.81-4.06-2.8-6.51.97-2.36,3.86-3.65,6.26-2.81,2.51.88,3.93,3.92,3,6.42Z"/>
      <path d="M188.31,512.05c-.96,2.48-4.04,3.81-6.48,2.81-2.46-1.01-3.75-4.11-2.71-6.53,1-2.33,3.91-3.59,6.28-2.72,2.49.91,3.87,3.97,2.91,6.44Z"/>
      <path d="M277.84,499.29c-.95,2.39-3.88,3.66-6.26,2.72-2.39-.95-3.66-3.88-2.72-6.26.95-2.39,3.88-3.66,6.26-2.72,2.39.95,3.66,3.88,2.72,6.26Z"/>
      <path d="M149.49,459.12c4,.39,6.4,2.81,6.56,6.22.18,3.63-2.05,6.18-6.42,7.02-.05-4.36-.1-8.66-.15-13.23Z"/>
      <path d="M258.57,499.19c2.44.91,3.59,3.37,2.72,5.82-.92,2.58-3.53,3.74-6.07,2.71-2.4-.98-3.47-3.48-2.52-5.91.95-2.43,3.42-3.53,5.87-2.62Z"/>
      <path d="M244.13,510.9c-.97,2.39-3.59,3.45-5.97,2.4-2.24-.99-3.24-3.47-2.31-5.77.97-2.39,3.59-3.45,5.97-2.4,2.24.99,3.24,3.47,2.31,5.77Z"/>
      <path d="M345.99,427.84c-.92,4.23-1.81,8.37-2.71,12.52-3.25-.92-4.91-3.59-4.44-7.02.45-3.28,3.03-5.37,7.16-5.5Z"/>
      <path d="M317.28,503.86c-.74,2.09-3.25,3.31-5.37,2.61-2.22-.73-3.48-3.45-2.6-5.62.83-2.07,3.38-3.2,5.47-2.41,2.09.79,3.26,3.31,2.51,5.42Z"/>
      <path d="M226.87,517.06c-.82,2.2-3.49,3.4-5.68,2.54-2.19-.86-3.42-3.6-2.42-5.71,1.09-2.29,3.01-3.15,5.45-2.44,2.25.66,3.47,3.4,2.65,5.61Z"/>
      <path d="M162.58,513.52c2.59-2.84,5.51-3.14,7.63-.91,1.92,2.02,1.85,5.17-.2,6.98-1.24,1.09-2.42,1.57-3.54-.28-1.22-2-2.61-3.89-3.89-5.79Z"/>
      <path d="M210.37,522.92c-.75,2.11-3.25,3.3-5.38,2.55-2.11-.75-3.31-3.25-2.55-5.38.75-2.11,3.25-3.31,5.38-2.55,2.11.75,3.31,3.25,2.56,5.38Z"/>
      <path d="M193.16,528.69c-1.1,2.22-2.83,3.14-5.16,2.23-2.32-.91-3.15-2.78-2.24-5.1.9-2.32,2.78-3.14,5.1-2.25,2.34.9,2.99,2.76,2.3,5.12Z"/>
      <path d="M294.65,511.84c-1.98-.94-2.88-2.62-2.14-4.99.71-2.26,3.15-3.35,5.3-2.37,2.25,1.02,3,2.82,2.18,5.15-.75,2.12-3,3.08-5.35,2.21Z"/>
      <path d="M281.09,511.13c2.03,1.06,2.91,2.65,2.15,4.89-.71,2.12-3.07,3.14-5.09,2.17-2.11-1.01-2.85-2.76-1.97-4.93.89-2.19,2.67-2.75,4.91-2.14Z"/>
      <path d="M266.67,521.05c-1.67,2.81-3.36,3.73-5.5,2.74-1.96-.9-2.72-2.72-1.86-4.73.91-2.13,2.95-3.09,4.87-1.87,1.28.81,1.83,2.77,2.49,3.85Z"/>
      <path d="M152.12,402.34c5.72,3.03,5.97,9.9.61,13.93-.21-4.67-.41-9.22-.61-13.93Z"/>
      <path d="M247.74,522.6c.44,1.6,1.46,3.33,1.17,4.78-.41,2.07-2.61,3.08-4.39,1.97-1.16-.71-2.3-3.01-1.96-4.17.37-1.28,2.44-2.07,3.77-3.07.47.16.94.32,1.41.47Z"/>
      <path d="M227.24,535.36c-.32-1.43-1.12-2.95-.85-4.26.41-2.06,2.18-2.72,4.16-1.93,2,.8,2.75,2.53,1.65,4.28-.71,1.12-2.36,1.66-3.59,2.46-.45-.18-.91-.37-1.36-.55Z"/>
      <path d="M215.45,539.89c-1.44.29-3.15,1.19-4.23.7-.97-.44-2.04-2.86-1.62-3.59.61-1.06,2.66-2.09,3.8-1.83,1.07.25,1.74,2.19,2.59,3.38-.18.45-.36.89-.53,1.34Z"/>
      <path d="M356.67,364.95c-.14,4.5-.27,8.52-.4,12.66-4.15-2.64-4.12-8.19.4-12.66Z"/>
      <path d="M304.44,522.45c.3,1.35,1.23,3.07.72,3.96-.55.96-2.57,1.71-3.71,1.45-.76-.17-1.76-2.48-1.43-3.42.37-1.06,2.09-1.66,3.22-2.46l1.21.47Z"/>
      <path d="M286.87,527.43c.58,2.18,1.42,3.59,1.06,4.54-.31.82-2,1.12-3.08,1.64-.56-1.14-1.63-2.35-1.5-3.41.1-.81,1.73-1.43,3.52-2.77Z"/>
      <path d="M267.11,540.68c-.43-1.97-1.18-3.36-.77-4.1.43-.78,1.97-.95,3.03-1.39.44,1.06,1.41,2.26,1.16,3.12-.23.82-1.74,1.27-3.42,2.37Z"/>
      <path d="M319.97,516.57c-.93,1.75-1.87,3.49-2.8,5.24-.29.01-.58.03-.87.04-.04-1.35-.51-2.92.02-3.99.47-.95,2.05-1.36,3.14-2,.17.23.34.47.51.7Z"/>
      <path d="M197.83,545.32c-1.65-.91-3.29-1.83-4.94-2.74-.01-.27-.03-.54-.04-.81,1.18-.14,2.61-.76,3.47-.3,1.02.55,1.55,2.02,2.3,3.08-.26.25-.52.51-.78.76Z"/>
      <path d="M227.22,276.02c3.77-1.1,7.48-2.19,10.9-3.19-1.51,2.37-8.04,4.39-10.9,3.19Z"/>
      <path d="M254.77,544.63c-1.68.28-2.83.82-3.56.48-.6-.28-1.23-2.03-.94-2.39.55-.67,1.82-1.2,2.66-1.04.59.11.95,1.44,1.84,2.95Z"/>
      <path d="M232.68,548.23c1.36-.39,2.48-1.05,2.9-.75.64.46.8,1.59,1.17,2.44-.79.3-1.71.99-2.35.79-.61-.19-.95-1.29-1.71-2.48Z"/>
      <path d="M326.53,498.63c-1.23-3.08-.9-4.05,2.29-6.1l-2.29,6.1Z"/>
    </g>
  </g>
  <path class="cls-4" d="M197.54,194.16c11.1-5.39,17.53-8.48,17.56-8.42l-5.6-11.09s-2.93,1.53-8.23,4.31c-1.3,5.05-2.54,10.12-3.73,15.2Z"/>
  <path class="cls-4" d="M191.13,223.35c35.03-17.08,58.62-28.54,58.68-28.44l-5.6-11.09s-19.93,10.44-50.3,26.34c-.95,4.39-1.89,8.79-2.79,13.19Z"/>
  <path class="cls-4" d="M184.81,255.75c27.22-12.55,44.67-20.57,44.73-20.48l-5.36-11.2s-14.16,7.04-36.82,18.3c-.86,4.46-1.71,8.92-2.54,13.38Z"/>
  <path class="cls-5" d="M233.86,188.55c-.15-.58-.84-1.1-1.24-1.55-1.18-1.34-2.28-2.74-3.29-4.21-.07-.11-.16-.22-.24-.33-.4-.71-.81-1.41-1.21-2.12,0-.03-.02-.06-.02-.1.03-1.4.06-2.82.1-4.24.06-.59.13-1.18.19-1.78.2-1.46,0-2.89-.44-4.28-.23-.72-.78-1.31-1.04-2.01-.3-.81-.14-1.26-.18-2.03-.02-.27-.11-.53-.26-.76-3.8-5.96-13.48-15.43-28.3-14.28-7.98.62-15.4,3.65-20.16,10.32-.52.73-1.05,2.23-1.74,2.75-.31.24-.58.34-.84.37-.24-.03-.47-.06-.7-.09-.33-.11-.7-.28-1.16-.44-2.69-.94-5.53-1.41-8.21-2.39-5.01-1.82-9.53-5.11-15.21-4.77-9.36.58-20.23,2.73-27.29,13.51,3.34-1.7,6.98-2.8,10.71-3.25-1.79.92-3.48,2-5.02,3.31-4.66,3.96-4.98,8.19-6.43,10.4-6.34,9.59-13.91,15.88-17.95,18.56,5.76.4,19.14-7.38,18.33-6.85-6.17,4.02-9.16,14.17-10.18,21.13,4.18-6.42,15.62-12.66,15.66-12.19.4,4.96-4.52,10.28-8.25,13.64,2.49-.24,4.89-.93,7.07-2.21,2.46-1.45,4.52-3.52,6.35-5.69.83-.99,1.56-2.15,2.55-2.99.9-.77,1.99-1.18,3.13-1.46,2.49-.63,4.88-1.31,7.23-2.27l1.91,4.14c-1.98,1.5-3.95,3-5.93,4.5,1.74,1.31,3.48,2.63,5.22,3.94-.22.79-.43,1.58-.65,2.37-2.3.49-3.91,1.16-6.14,2.08-3.79,1.56-7.11,4.06-10.77,5.89-3.55,1.77-7.39,2.88-11.13,4.19-4.93,1.73-9.73,3.83-14.51,5.93-10.26,4.61-22.01,8.13-30.85,15.22-.85.99-3.35,5.48,1.52,10.08,14.43,13.66,30.27,17.78,40.58,23.53.22-.35,6.39,2.96,9.07,4.53,1.27.75,2.07.97,2.28,2.63.47,3.73.93,7.47.89,11.23-.02,1.86-.19,3.76-.99,5.44-1.44,2.97-4.5,4.56-6.6,6.99-2.46,2.85-4.52,6.35-6.06,9.76-2.3,5.09-.96,12.15.63,17.21.87,2.77,2.42,5.18,2.05,8.06-.44,3.4-2.14,6.94-3.96,9.8,1.29.9,2.64,1.71,4.01,2.49-.7,4.9-3.42,16.68-4.21,20.2-.93,4.15-1.71,8.33-2.32,12.53-.78,5.35-1.32,10.76-2.89,15.94-2.29,7.54-6.82,11.99-12.81,16.73-6.76,5.36-13.22,11.09-19.43,17.09-6.23,5.76-9.96,12.83-14.83,19.55-4.73,6.09-11.42,12.57-17.92,16.43-8.24,5-20.53,1.79-23.84,7.2-1.58,3.26-3.06,11.78,3.54,22.8l-.29,6.83c.03.48.05.95.08,1.43,1.28,8.76.68,18.72,3.97,27.14,6.58,11.43,14.59,14.62,18.81,8.4,3.25-4.71-.54-14.65,2.24-19.41.74-.97-3.29-6.31-3.36-7.36-.31-2.66,1.58-5.23,2.16-8,1.65-7.83,4.31-18.16,6.87-19.75-.12.07-.29.15-.03-.07,6.52-5.84,13.23-11.44,20.16-17.06,7.77-6.28,15.54-12.55,23.31-18.83,4.36-3.65,8.72-7.29,13.08-10.94,3.75-2.9,7.51-5.79,11.26-8.69,1.88-1.66,3.76-3.32,5.64-4.98,2.02-2.14,4.65-3.94,6.06-6.42,4.42-7.78,8.56-15.73,12.55-23.74,5.27-10.58,18.99-40.21,20.46-41.88,1.32-.34,2.73-.71,4.4-1.15-4.48-5.39-8.62-11.19-9.23-18.4-.37-4.33.69-8.45,2.38-12.41,1.7-3.99,3.88-7.79,5.13-11.96,3.01-10.04,3.81-20.73,4.97-31.09,1.11-9.89,2.39-19.83,5.43-29.34,5.26-16.44,14.61-31.54,25.76-44.62,8.75-10.26,18.86-19.55,30.17-26.97.2-.26.32-.55.22-.92ZM165.21,188.54c.9-1.07,1.62-2.29,2.64-3.25,1.96-1.83,7.5-7.9,7.87-5.17.43,3.14,1.06,6.48,1.44,8.5-1.09-.03-2.18-.02-3.26.04-3.45.2-6.88.73-10.24,1.52.54-.52,1.07-1.06,1.55-1.64Z"/>
  <g>
    <path class="cls-7" d="M72.71,506.51s-.02.02-.03.02c.09-.05.17-.1.03-.02Z"/>
    <path class="cls-7" d="M303.65,466.7c-2.33-4.62-8.67-5.53-11.25-9.8-.45-1.01-7.05-7.63-8.99-9.29-5.5-4.7-12.54-11.28-12.69-14.01,0,.13,0,.29-.07,0-.11-.48-1.05-11.18-1.52-16.13.16-6.34.54-12.66,1.1-18.89.11-7.37.31-15.9,1.73-21.8,1.17-6.63,4.02-13.14,5.28-19.85,5.86-15.05,3.81-21.75,1.58-24.92-5.39-7.66-65.92-17.95-69.4-19.12,1.35-10.64.55-15.11,2.24-17.35,4.79-6.35,10.85-14.94,16.07-24.87,5.27,5.64,20.12,15.65,24.52,15.28,3.17-.27,6.9-6.53,8.68-9.79,6.77-11.4,4.63-14.11,10.42-26.16,1.29-2.56,10.51-9.27,11.04-16.78-1.74-2.88-5.98-5.37-8.21-5.91-1.86-.64-4.29-1.44-6.4-1.82-3.52-.76-4.88,3.85-7.24,6.16-1.41,1.39-4.31-.05-5.1,1.62-.57,1.2-.48,2.61.27,3.71,1.64,2.4,3.79,6.55,5.05,7.76-1.6,2.64-3.14,5.19-4.68,7.74-1.05.64-2.11,1.29-3.16,1.93-1.53-.39-2.36-.61-3.89-1-3.04-5.31-6.08-10.63-9.12-15.94-.28-.49-.65-1.03-.6-1.6.81-8.79-5.14-11.74-7.05-14.59,0,0,1.18-.85,4.12-3.84,2.48-3.32,8.6,3.11,11.38-2.36,1.17-2.5.06-5.22.56-7.85.66-4.24.64-4,1.97-7.24-.02-.02-.04-.04-.05-.05.02.02.04.04.05.05.04-.06.08-.13.12-.19.39-.34.76-.72,1.1-1.05.6-.59,1.36-1.01,1.15-1.82-.15-.58-.84-1.1-1.24-1.55-1.18-1.34-2.28-2.74-3.29-4.21-.07-.11-.16-.22-.24-.33-.4-.71-.81-1.41-1.21-2.12,0-.03-.02-.06-.02-.1.03-1.4.06-2.82.1-4.24.06-.59.13-1.18.19-1.78.2-1.46,0-2.89-.44-4.28-.23-.72-.78-1.31-1.04-2.01-.3-.81-.13-1.26-.18-2.03-.02-.27-.11-.53-.26-.76-3.8-5.96-13.48-15.43-28.3-14.28-7.98.62-15.4,3.65-20.16,10.32-.52.73-1.05,2.23-1.74,2.75-.31.24-.58.34-.84.37-.24-.03-.47-.06-.7-.09-.33-.11-.7-.28-1.16-.44-2.69-.94-5.53-1.41-8.21-2.39-5.01-1.82-9.53-5.11-15.21-4.77-9.36.58-20.23,2.73-27.29,13.51,3.34-1.7,6.98-2.8,10.71-3.25-1.79.92-3.48,2-5.02,3.31-4.66,3.96-4.98,8.19-6.43,10.4-6.34,9.59-13.91,15.88-17.95,18.56,5.76.4,19.14-7.38,18.33-6.85-6.17,4.02-9.16,14.17-10.18,21.13,4.18-6.42,15.62-12.66,15.66-12.19.4,4.96-4.52,10.28-8.25,13.64,2.49-.24,4.89-.93,7.07-2.21,2.46-1.45,4.52-3.52,6.35-5.69.83-.99,1.56-2.15,2.55-2.99.9-.77,2-1.18,3.13-1.46,3.13-.79,6.09-1.64,9.02-3.03,2.69-1.28,5.35-2.65,8.01-3.99,2.33-1.17,4.63-2.42,6.66-4.07,1.07-.87,2.07-1.83,2.95-2.88.9-1.07,1.62-2.29,2.64-3.25,1.96-1.83,7.5-7.9,7.87-5.17.66,4.8,1.78,10.11,1.76,10.35,2.6,10.67,10.23,5.59,8.79,10.82-5.88,1.77-11.25,2.92-17.07,4.87-5.33,1.79-11.85,3.44-16.04,7.42-.46.44-1.32.87-1.96.92-5.54.49-7.49,1.33-10.99,2.77-3.79,1.56-7.11,4.06-10.77,5.89-3.55,1.77-7.39,2.88-11.13,4.19-4.93,1.73-9.73,3.83-14.51,5.93-10.26,4.61-22.01,8.13-30.85,15.22-.85.99-3.35,5.48,1.52,10.08,14.43,13.66,30.27,17.78,40.58,23.53.22-.35,6.39,2.96,9.07,4.53,1.27.75,2.07.97,2.28,2.63.47,3.73.93,7.47.89,11.23-.02,1.86-.19,3.76-.99,5.44-1.44,2.97-4.5,4.56-6.6,6.99-2.46,2.85-4.52,6.35-6.06,9.76-2.3,5.09-.96,12.15.63,17.21.87,2.77,2.42,5.18,2.05,8.06-.44,3.4-2.14,6.94-3.96,9.8,1.29.9,2.64,1.71,4.01,2.49-.7,4.9-3.42,16.68-4.21,20.2-.93,4.15-1.71,8.33-2.32,12.53-.78,5.35-1.32,10.76-2.89,15.94-2.29,7.54-6.82,11.99-12.81,16.73-6.76,5.36-13.22,11.09-19.43,17.09-6.23,5.76-9.96,12.83-14.83,19.55-4.73,6.09-11.42,12.57-17.92,16.43-8.24,5-20.53,1.79-23.84,7.2-1.58,3.26-3.06,11.78,3.54,22.8l-.29,6.83c.03.48.05.95.08,1.43,1.28,8.76.68,18.72,3.97,27.14,2.48,5.04,7.81,9.62,12.03,3.4,3.25-4.71.78-11.35,3.55-16.12.74-.97,2.16-4.61,2.09-5.66-.31-2.66,1.58-5.23,2.16-8,1.65-7.83,4.31-18.16,6.87-19.75-.12.07-.29.15-.03-.07,6.52-5.84,13.23-11.44,20.16-17.06,7.77-6.28,15.54-12.55,23.31-18.83,4.36-3.65,8.72-7.29,13.08-10.94,3.75-2.9,7.51-5.79,11.26-8.69,1.88-1.66,3.76-3.32,5.64-4.98,2.02-2.14,4.65-3.94,6.06-6.42,4.42-7.78,8.56-15.73,12.55-23.74,5.27-10.58,18.99-40.21,20.46-41.88,1.33-.35,2.74-.71,4.42-1.15.11-1.56-.27-7.01.68-8.25.54-.7,7.91.55,25.36-1.4,14.47-1.62,31.53-5.53,31.53-5.53,0,0-2.04,10.58-2.61,13.43-1.14,5.67-1.51,11.5-1.09,17.27.75,10.29,4.02,20.05,7.53,29.67,1.27,3.48,1.54,6.06,1.36,9.69-.04.7.24,3.27.51,6.04-.03,0-.06,0-.09,0,.25,8.62-7.44,16.87-4.61,21.8,1.91,2.66,8.02,7.52,19.62,7.07l5.29,3.19c.39.19.78.37,1.17.56,7.51,2.78,15.15,7.57,23.25,8.6,5.07.21,11.02-2.03,7.91-8.08ZM151.3,280.33c-3.15,2.89-6.43-.46-8.9-2.36-5.49-4.22-10.52-9.02-16.04-13.22,11.59-3.91,23.17-7.82,34.79-11.74,0,.04.02.09.03.13.33,0,.64.17.7.59,4.67,13.83-.46,17.46-10.58,26.6Z"/>
  </g>
  <g>
    <path class="cls-6" d="M72.71,506.51s-.02.02-.03.02c.09-.05.17-.1.03-.02Z"/>
    <path class="cls-6" d="M210.16,305.17c-7.16.19-14.31.92-21.41,1.84-7.06.92-14.15,1.87-21.16,3.07-7.8,1.34-15.71,3.18-23.22,5.96-1.58,2.27-4.1,3.74-5.91,5.83-2.46,2.85-4.52,6.35-6.06,9.76-2.3,5.09-.96,12.15.63,17.21.87,2.77,2.42,5.18,2.05,8.06-.44,3.4-2.14,6.94-3.96,9.8,1.13.79,2.31,1.5,3.5,2.19,1.07-.18,2.14-.33,3.21-.46,10.9-1.23,22.07.03,32.72,2.44,4.25.96,8.54,2.13,12.74,3.59.03-.05.07-.1.1-.13,1.33-.35,2.74-.71,4.42-1.15.11-1.56-.27-7.01.68-8.25.54-.7,7.91.55,25.36-1.4,1.96-.22,3.97-.48,5.97-.77-.84-7.67-.17-15.54,1.89-22.94,2.2-7.93,6.14-15.43,11.76-21.42-12.33-2.6-22.7-4.5-24.07-4.96.42-3.31.63-6.03.78-8.26Z"/>
    <path class="cls-6" d="M222.91,255.06c-1.77-.81-3.55-1.65-5.16-2.76-.82-.57-1.6-1.23-2.27-1.97-.56-.63-1.42-1.59-1.58-2.44-.15-.75.11-1.76.2-2.52.09-.76.19-1.53.31-2.28.26-1.6.59-3.19,1.03-4.75.82-2.94,2.01-5.81,3.7-8.36,3.16-4.77,7.94-7.75,13.41-8.86-4.43-1.9-9.06-2.62-13.96-2.43-5.81.23-11.55,1.38-17.34.21-2.07-.42-4.52-1.14-5.72-3.03-.58-.91-.69-1.88-.54-2.84-2.31.63-4.62,1.29-7.01,2.09-5.33,1.79-11.85,3.44-16.04,7.42-.46.44-1.32.87-1.96.92-1.91.17-3.37.38-4.64.65-.09.17-.18.34-.25.52-.54,1.3.11,2.74.36,4.04.26,1.35.18,2.78,0,4.13-.32,2.51-1.13,4.92-1.83,7.35-.7,2.44-1.08,4.86-1.19,7.39-.14,3.16.12,6.31.24,9.46,2.82,10.53-1.1,14.61-8.86,21.59-1.16,1.19-2.34,2.35-3.48,3.55-2.73,2.87-5.63,5.97-7.22,9.65-.47,1.08-.81,2.24-.89,3.42.24.13.46.26.66.38,1.27.75,2.07.97,2.28,2.63.32,2.58.64,5.17.79,7.77,12.31-2.54,24.81-4.19,37.37-4.81,9.02-.45,18.06-.35,27.07.34.18-2.66.41-4.32,1.24-5.42,4.72-6.26,10.68-14.71,15.85-24.46-.73-2.2-1.76-4.33-2.56-6.45-1.2-3.2-2.31-6.65-2.01-10.11Z"/>
  </g>
  <g>
    <path class="cls-2" d="M72.71,506.51s-.02.02-.03.02c.09-.05.17-.1.03-.02Z"/>
    <path class="cls-2" d="M219.35,160.5c10.63,3.43,17.5,5.9,21.7,13.43,1.9,3.4-.71,12.33-.7,16.25,0,2.18-.41,4.29-1.15,6.29-.93,2.55-.48,5.35,1.27,7.43.05.06.1.12.15.18,2.28,2.8,3.59,6.22,5.71,9.12.44.6.94,1.19,1.51,1.69,1.02-2.44,0-5.09.49-7.64.66-4.24.64-4,1.97-7.24-.02-.02-.04-.04-.05-.05.02.02.04.04.05.05.04-.06.08-.13.12-.19.39-.34.76-.72,1.1-1.05.6-.59,1.36-1.01,1.15-1.82-.15-.58-.84-1.1-1.24-1.55-1.18-1.34-2.28-2.74-3.29-4.21-.07-.11-.16-.22-.24-.33-.4-.71-.81-1.41-1.21-2.12l-.02-.1c.03-1.4.06-2.82.1-4.24.06-.59.13-1.18.19-1.78.2-1.46,0-2.89-.44-4.28-.23-.72-.78-1.31-1.04-2.01-.3-.81-.13-1.26-.18-2.03-.02-.27-.11-.53-.26-.76-3.73-5.84-13.11-15.03-27.44-14.31.59.42,1.08,1.03,1.76,1.25Z"/>
    <path class="cls-2" d="M142.4,277.97c-3.27-2.51-6.37-5.22-9.5-7.89-2.79-2.37-1.94-6.87,1.53-8.04,8.2-2.77,16.4-5.54,24.61-8.31-2.32-.6-4.71-.84-7.13-.73-6.29.29-12.36,2.58-18.08,5.07-3.14,1.37-6.23,2.86-9.35,4.3-3.22,1.48-3.71,5.85-.89,8.01.02.01.04.03.06.04,5.82,4.45,12.41,8.58,19.4,10.9,2.12.7,5.08,1.61,7.22.66.93-.42,1.38-1.21,1.57-2.12-.18.16-.36.32-.54.49-3.15,2.89-6.43-.46-8.9-2.36Z"/>
    <path class="cls-2" d="M182.23,374.32c-1.17-.87-2.59-1.62-4.1-1.49-1.3.11-2.37.91-3.3,1.78-13.92,13.18-31.86,60.92-34.31,72.79-.3,1.48-1.5,2.61-2.36,3.84.18-.14.37-.28.55-.43,1.88-1.66,3.76-3.32,5.64-4.98,2.02-2.14,4.65-3.94,6.06-6.42,4.42-7.78,8.56-15.73,12.55-23.74,4.83-9.69,16.73-35.33,19.83-40.88-.19-.16-.36-.33-.56-.47Z"/>
    <path class="cls-2" d="M274.19,227.32c-1.86-.64-4.29-1.44-6.4-1.82-1.82-.39-3.06.65-4.16,2.06.96-.04,1.89.18,2.63.9,1.46,1.4,1.16,3.67.7,5.43-.72,2.74-1.76,5.35-3.22,7.79-1.31,2.18-2.96,3.09-4.68,5.93-.99,1.64-1.98,3.27-2.96,4.89-1.05.64-2.11,1.29-3.16,1.93-1.53-.39-2.36-.61-3.89-1-3.04-5.31-6.08-10.63-9.12-15.94-.28-.49-.65-1.03-.6-1.6.78-8.44-4.66-11.49-6.79-14.24-.02,0-.04.02-.06.03-3.54.62-7.25,1.23-10.36,3.14,4.69,4.89,11.68,7.76,14.43,14.3,1.34,3.19,1.77,6.62,2.68,9.93.51,1.86,1.22,3.66,2.16,5.34,1.01,1.8,2.53,3.4,3.88,4.96,2.13,2.48,4.67,4.42,7.23,6.42,1.62,1.26,3.59,2.5,4.3,4.52.69,1.97.55,4.16.3,6.2-.3,2.44-.85,4.84-1.29,7.26,2.08-2.19,4.01-5.5,5.15-7.58,6.77-11.4,4.63-14.11,10.42-26.16,1.29-2.56,10.51-9.27,11.04-16.78-1.74-2.88-5.98-5.37-8.21-5.91Z"/>
  </g>
  <g>
    <path class="cls-7" d="M72.71,506.51s-.02.02-.03.02c.09-.05.17-.1.03-.02Z"/>
    <path class="cls-2" d="M270.72,433.61c0,.13,0,.29-.07,0-.11-.48-1.05-11.18-1.52-16.13.16-6.34.54-12.66,1.1-18.89.11-7.37.31-15.9,1.73-21.8,1.17-6.63,4.02-13.14,5.28-19.85,3.09-7.94,3.97-13.55,3.79-17.55h0s0,0,0,0c-.12-2.68-.71-4.65-1.44-6.09-.02-.04-.04-.07-.06-.11-.1-.2-.21-.39-.32-.57-.13-.22-.26-.42-.4-.61-.17-.24-.39-.48-.67-.73-.02-.01-.04-.03-.05-.04-.26-.23-.57-.46-.92-.7,0,0,0,0,0,0h0c-11.12-7.44-64.5-16.56-67.76-17.65,1.35-10.64.55-15.11,2.24-17.35,4.51-5.99,10.15-13.99,15.16-23.21-.7.55-1.4,1.1-2.11,1.64-12.79,9.83-26.27,19.11-37.46,30.83-4.64,4.85-8.2,10.75-8.57,17.59-.19,3.51.4,7.11,1.44,10.46.61,1.94,1.62,3.87,3.78,4.29,2.19.43,4.68.37,6.78-.3,38.88-12.42,54.89-.52,77.32,1.96,2.15.24,3.48,2.43,2.64,4.43-.11.27-.23.55-.34.82-2.23,5.59-3.28,11.34-4.14,17.27-1.81,12.44-2.92,25-2.88,37.57.03,9.14.87,18.14,3.38,27.02.75,2.65,1.69,5.25,2.9,7.73,1.48,3.04,3.45,6.08,6.38,7.91.47.29.97.5,1.48.68-3.6-3.45-6.62-6.85-6.71-8.62Z"/>
  </g>
</svg>