<?xml version="1.0" encoding="UTF-8"?>
<svg id="Layer_2" data-name="Layer 2" xmlns="http://www.w3.org/2000/svg" viewBox="0 0 469 441">
  <defs>
    <style>
      .cls-1 {
        fill: #a71e31;
      }

      .cls-2 {
        fill: #00af3f;
      }

      .cls-3 {
        fill: #6fd4e4;
      }

      .cls-4 {
        fill: #ff7900;
      }

      .cls-5 {
        fill: #a71e32;
      }

      .cls-6 {
        fill: none;
      }

      .cls-7 {
        opacity: .18;
      }

      .cls-8 {
        fill: #44697d;
      }

      .cls-9 {
        fill: #ff0e49;
      }

      .cls-10 {
        fill: #a71930;
      }
    </style>
  </defs>
  <circle class="cls-3" cx="116.03" cy="370.02" r="110.06"/>
  <ellipse class="cls-8" cx="250.33" cy="230.75" rx="154.48" ry="152.67"/>
  <g class="cls-7">
    <g>
      <path d="M207.51,230.51c1.72-2.48,3.93-4.1,6.93-3.89-.86-1.69-2.2-3.28-2.41-5.02-.21-1.66.38-3.68,1.28-5.15,1.62-2.64,5.21-3.4,8.04-2.17,2.76,1.2,4.44,4.12,4.08,7.11-.41,3.45-2.86,5.53-6.94,6.08,1.03,2.24,2.09,4.55,2.99,6.52,1.86-.83,4.22-1.88,6.6-2.94-2.48-2.39-3.75-5.59-1.51-9.32,1.79-2.98,4.6-3.64,7.84-3.13.38.03.75.07,1.13.1,1.57,2.12,3.13,4.24,4.65,6.29,1.43-.66,3.46-1.61,5.58-2.59-2.38-2.16-2.94-4.95-2.09-8.1l.11-.21c2.21-3.99,5.67-4.6,9.73-3.6,0,0-.11-.05-.11-.05.59.57,1.2,1.13,1.78,1.71,3.27,3.29,2.32,9.06-1.86,11-1.01.47-2.16.66-2.95.89.97,2.16,1.92,4.29,2.74,6.13,1.93-.87,4.11-1.85,6.24-2.8-4.59-5.73-2.73-11.09,4.92-12.94-2.23-2.08-2.99-4.62-2.69-7.5.2-.33.39-.66.59-.99.86-2.33,2.65-3.63,4.95-4.18,1.79-.43,3.27-.62,4.11,1.99,1.03,3.2,2.93,6.13,4.52,9.15,2.65,5.01,5.48,9.93,7.98,15.02,4.1,8.35,7.32,17.02,8.6,26.76-.48-.74-.8-1.12-1-1.56-.25-.53-.4-1.1-.64-1.79-1.31.52-2.59,1.04-4,1.6.72,1.42,1.42,2.8,2.12,4.17,1.25-.57,2.43-1.11,3.97-1.81.76,5.66,1.53,10.98,2.17,16.32,1.23,10.2,2.68,20.45,1.26,30.69-.9,6.52-2.66,12.97-4.58,19.29-1.28,4.21-3.28,8.25-5.38,12.14-3,5.59-7.84,8.45-14.29,8.38-.54,0-1.09.15-1.68.65,1.87.38,3.75.75,5.62,1.13-.02.21-.04.43-.06.64-7.34-.64-14.69-1.28-22.03-1.92-.01-.25-.02-.5-.03-.75,3.31-.16,6.61-.32,10.01-.49-3.25-2-6.36-4.14-9.67-5.89-3.41-1.8-4.27-5.1-5.54-8.22-.12-.3-.23-.61-.41-1.09-1.79,1.33-3.1,1.29-4.43-.81-1.8-2.84-4.33-5.21-6.08-8.07-5.76-9.41-11.11-19.07-17.03-28.37-3.41-5.36-7.64-10.19-11.5-15.27-.24-.32-.41-.7-.77-1.33,1.3-.49,2.42-.91,3.65-1.37-.72-1.56-1.46-3.17-2.3-4.99-1.71.98-3.5,2.01-5.49,3.15-2.37-2.59-7.89-2.94-7.53-9.26-2.82,3.91-5.42,1.71-7.95.52-2.42-1.14-6.13-1.18-5.23-5.89-2.46,3.92-5.45,2.18-8.22,1.29-2.84-.91-5.91-1.81-4.89-6.18-3.8,3.27-7.23,3.71-10.49,1.57-2.11-1.39-3-5.07-1.89-7.75,1.13-2.73,4.18-4.47,7.11-4.06,3.48.48,5.5,2.97,5.97,7.6,2.23-2.67,4.88-3.87,8.2-3.08.43.11.85.21,1.28.32,2.52,1.81,4.11,4.11,3.84,6.96,2.3-1.03,4.65-2.08,7.03-3.15-2.26-1.67-3.05-4.34-2.53-7.45.12-.46.25-.91.37-1.37,3.86-4.41,8.35-5.12,11.53-1.58,1.15,1.27,1.66,3.11,2.32,4.4,2.08-.85,4.3-1.76,6.58-2.69-2.67-2.01-3.19-4.89-2.42-8.15.07-.21.14-.41.21-.62ZM238.02,230.33c-1.96.8-4.16,1.71-6.01,2.47.93,1.92,1.99,4.09,2.91,5.98,1.9-.83,4.12-1.8,6.35-2.77-1.01-1.75-2.2-3.84-3.26-5.67ZM222.27,244.37c-.8-2-1.69-4.21-2.41-5.99-2,.89-4.27,1.9-6.26,2.79.85,1.67,1.94,3.8,2.92,5.71,1.86-.81,3.94-1.72,5.75-2.51ZM201.36,247.44c-2.07.8-4.25,1.63-5.98,2.3.98,2.01,2,4.07,2.85,5.81,2.03-.84,4.18-1.73,6.3-2.61-.99-1.73-2.15-3.75-3.16-5.51ZM245.13,237.62c.96,1.67,2.04,3.56,3.03,5.28,1.96-.82,3.8-1.59,5.39-2.26-.78-1.99-1.55-3.96-2.2-5.62-2.01.84-4.24,1.77-6.22,2.6ZM227.39,246.3c.86,1.75,1.76,3.58,2.6,5.3,1.72-.73,3.64-1.54,5.3-2.24-.77-1.99-1.54-4-2.19-5.7-1.87.87-3.85,1.78-5.7,2.64ZM269.16,227.29c-1.87.67-3.78,1.35-5.39,1.92.93,1.9,1.92,3.92,2.81,5.73,1.78-.82,3.67-1.69,5.52-2.54-.96-1.68-1.95-3.39-2.93-5.11ZM208.64,254.59c.97,1.7,2.05,3.58,3.05,5.31,1.7-.87,3.37-1.72,4.9-2.5-.72-1.79-1.43-3.58-2.06-5.16-2.06.82-4.03,1.61-5.89,2.35ZM266.71,245.76c-.77-1.85-1.52-3.67-2.23-5.41-1.73.79-3.59,1.64-5.27,2.41.85,1.68,1.72,3.41,2.54,5.06,1.71-.71,3.39-1.4,4.96-2.06ZM243.95,267.41c-.91-1.59-1.83-3.19-2.69-4.7-1.52.77-2.98,1.52-4.44,2.26.67,1.51,1.38,3.08,2.07,4.62,1.63-.7,3.28-1.42,5.07-2.19ZM246.06,249.32c-1.81.79-3.51,1.53-5.19,2.26l2.6,4.54c1.45-.74,3.02-1.55,4.52-2.32-.67-1.55-1.3-2.99-1.94-4.47ZM270.49,265.99c1.57-.73,3.16-1.46,4.64-2.15-.76-1.75-1.47-3.38-2.17-5l-4.52,2.59c.65,1.45,1.35,3,2.05,4.56ZM218.05,273.13c.78,1.65,1.51,3.2,2.19,4.65,1.63-.76,3.24-1.51,4.78-2.23-.67-1.53-1.33-3.03-1.98-4.51-1.66.69-3.33,1.39-5,2.08ZM254.55,267.44c-1.55.7-3.13,1.4-4.88,2.18.86,1.5,1.73,3.02,2.58,4.49,1.52-.68,3-1.34,4.46-1.99-.7-1.53-1.39-3.03-2.15-4.69ZM265.41,279.34c1.54-.7,3.1-1.41,4.65-2.11-.71-1.56-1.42-3.12-2.12-4.67-1.56.71-3.12,1.42-4.68,2.12.69,1.5,1.39,3.01,2.15,4.66ZM273.66,308.83c-.72-1.59-1.43-3.14-2.14-4.69-1.51.67-3.08,1.38-4.64,2.08.7,1.54,1.43,3.14,2.14,4.72,1.55-.7,3.04-1.38,4.65-2.1ZM268.62,322.2c-.75-1.64-1.45-3.19-2.15-4.72-1.56.72-3.12,1.43-4.68,2.14.68,1.51,1.39,3.08,2.1,4.67,1.48-.66,3.06-1.35,4.72-2.09ZM262.86,285.92c-1.54.7-3.11,1.41-4.69,2.12.7,1.54,1.43,3.16,2.23,4.94,1.55-.89,3.01-1.73,4.45-2.55-.67-1.52-1.33-3.02-1.99-4.51ZM253.41,301.36c.83,1.45,1.67,2.91,2.47,4.31,1.56-.7,3.03-1.35,4.44-1.98-.75-1.65-1.45-3.2-2.16-4.76-1.55.79-3.08,1.57-4.75,2.43ZM227.71,257.32c-1.41.81-2.89,1.66-4.36,2.5.7,1.56,1.41,3.13,2.15,4.77,1.4-.69,2.85-1.41,4.2-2.08-.68-1.77-1.32-3.44-1.99-5.19ZM272.72,247.91c.83,1.72,1.63,3.4,2.48,5.16,1.47-.84,2.93-1.68,4.26-2.44-.78-1.58-1.5-3.02-2.19-4.41-1.55.58-3.01,1.12-4.55,1.69ZM238.49,280.79c-.7-1.54-1.4-3.1-2.11-4.67-1.52.71-3.05,1.43-4.49,2.1.74,1.61,1.44,3.14,2.1,4.6,1.49-.67,2.92-1.32,4.49-2.03ZM276.63,279.72c.71,1.56,1.43,3.17,2.15,4.75,1.61-.76,3.14-1.48,4.61-2.18l-2.5-4.36c-1.37.58-2.81,1.18-4.26,1.79ZM261.3,258.85c-.67-1.56-1.32-3.07-2-4.65-1.44.67-2.89,1.35-4.33,2.03.74,1.63,1.45,3.17,2.15,4.72,1.43-.72,2.81-1.41,4.19-2.1ZM244.91,283.38c.77,1.35,1.57,2.74,2.33,4.06,1.51-.65,2.94-1.27,4.42-1.91-.67-1.35-1.36-2.75-2.06-4.16-1.49.64-3.01,1.28-4.69,2ZM272.08,293.02c.65,1.51,1.3,3.02,1.97,4.59,1.34-.68,2.73-1.39,4.14-2.11-.65-1.52-1.29-3.02-1.94-4.56-1.38.69-2.77,1.38-4.17,2.08ZM255.26,317.05c-.72-1.43-1.41-2.79-2.07-4.1-1.59.7-3.07,1.34-4.58,2.01.68,1.38,1.35,2.76,2.02,4.14,1.5-.66,3-1.33,4.62-2.05ZM268.66,216.09l2.79,4.87,3.54-2.03c-.65-1.53-1.25-2.95-1.83-4.34-1.52.51-2.93.98-4.5,1.5ZM244.48,294.63l-3.54,2.03c.64,1.53,1.22,2.95,1.82,4.39,1.4-.68,2.7-1.3,4-1.93-.78-1.53-1.51-2.97-2.28-4.5ZM275.07,324.68c.68,1.4,1.36,2.79,2.07,4.23l3.88-2.22c-.53-1.34-1.03-2.62-1.52-3.89-1.48.63-2.85,1.21-4.42,1.88ZM282.23,315.58c1.27-.61,2.64-1.28,4.13-1.99-.74-1.3-1.44-2.5-2.18-3.8-1.33.52-2.66,1.03-4,1.55.7,1.45,1.35,2.78,2.05,4.24ZM283.51,236.99c-.63-1.43-1.25-2.82-1.84-4.14-1.58.53-3.03,1.01-4.4,1.46.87,1.51,1.71,2.99,2.6,4.53,1.17-.6,2.4-1.22,3.63-1.85ZM286.16,264.43c-1.63.72-3.08,1.36-4.54,2.01l2.14,3.73c1.49-.62,2.86-1.19,4.29-1.79-.64-1.33-1.24-2.59-1.89-3.95ZM289.74,284.58l2.24,3.91c1.26-.72,2.38-1.37,3.57-2.05-.56-1.23-1.07-2.34-1.57-3.44-1.47.55-2.79,1.04-4.25,1.58ZM263.02,334.83c-.59-1.5-1.09-2.77-1.6-4.07-1.49.76-2.87,1.46-4.23,2.16l2.05,3.57c1.26-.55,2.46-1.08,3.78-1.66ZM236.66,309.89c.63,1.43,1.2,2.7,1.77,3.99,1.3-.48,2.52-.93,3.74-1.38-.73-1.51-1.44-2.96-2.19-4.51-1.09.63-2.15,1.23-3.32,1.91ZM287.28,301.52c1.27-.65,2.48-1.26,3.74-1.9-.61-1.29-1.12-2.37-1.63-3.46-1.44.7-2.73,1.32-4.06,1.97.67,1.16,1.27,2.22,1.94,3.39ZM227.85,291.55c.62,1.33,1.18,2.51,1.77,3.77,1.2-.48,2.33-.93,3.53-1.41-.65-1.46-1.28-2.86-1.92-4.3l-3.38,1.94ZM272.93,341.07c1.07-.51,2.06-.98,3.09-1.47-.5-1.38-.91-2.52-1.36-3.74-1.16.66-2.22,1.27-3.35,1.92.52,1.07,1.02,2.08,1.62,3.29Z"/>
      <path d="M189.29,239.15c-.12.46-.25.91-.37,1.37-2.13,2.72-4.79,4.2-8.35,3.64-.43-.11-.85-.21-1.28-.32-3.42-2.5-4.55-5.78-3.3-9.84l-.03.12c1.89-2.38,4.1-4.15,7.75-3.7-.76-.81-1.23-1.26-1.65-1.76-2.07-2.48-2.31-5.58-.66-8.15,1.62-2.51,4.85-3.69,7.71-2.8,2.86.89,4.74,3.54,4.76,6.68,0,.57.05,1.14.08,1.71,0,0,.04-.13.04-.13-1.69,3.08-3.98,5.27-8.46,4.99,3.44,2.24,4.11,5.02,3.78,8.19Z"/>
      <path d="M207.51,230.51c-.07.21-.14.41-.21.62-.5.66-.97,1.35-1.52,1.97-3.08,3.44-8.74,3.13-10.88-.92-.93-1.75-.65-4.13-.93-6.22,0,0-.04.13-.04.13,1.76-2.82,4.08-4.72,7.86-4.54-2.84-2.05-3.39-4.88-3.37-7.94l-.03.13c.31-.48.63-.95.92-1.45,1.74-2.97,5.01-4.28,8.12-3.25,3,1,4.97,4.08,4.6,7.21-.38,3.25-2.95,5.66-6.39,5.97-.47.04-.93.05-1.94.1,3.41,2.08,3.99,4.98,3.82,8.19Z"/>
      <path d="M257.27,196.69c-1.01-1.1-2.29-2.05-2.98-3.31-2.16-3.96.14-8.76,4.56-9.86.63-.16,1.27-.27,1.94-.4-3.33-5.67-3.42-7.69-.75-10.49,3.05,9.29,6.14,18.75,9.18,28.02-2.14-1-2.68-3.41-3.26-6.13-2.55,2.84-5.59,2.91-8.81,2.15,0,0,.11.03.11.03Z"/>
      <path d="M235.53,218.69c-.38-.03-.75-.07-1.13-.1-2.99-1.83-4.62-4.43-4.54-8,.11-.44.22-.88.33-1.31,1.16-1.17,2.14-2.69,3.52-3.46,4.39-2.45,9.73.73,9.98,5.77.04.83.06,1.65.09,2.48l-.11.21c-1.95,2.88-4.4,4.83-8.14,4.41Z"/>
      <path d="M262.15,205.93c-.2.33-.39.66-.59.99-2.12,2.56-4.86,3.7-8.16,3.51,0,0,.11.05.11.05-.39-.28-.76-.6-1.17-.83-2.98-1.7-4.35-4.67-3.57-7.73.81-3.16,3.55-5.11,7.09-5.06.47,0,.94-.1,1.41-.16,0,0-.11-.03-.11-.03,3.77,1.96,5.35,5.09,4.99,9.26Z"/>
      <path d="M175.98,233.99c-.32.46-.66.91-.95,1.4-1.81,3.04-5.2,4.32-8.35,3.14-2.95-1.11-4.79-4.25-4.31-7.37.51-3.32,3.32-5.68,6.83-5.75.56-.01,1.11-.09,1.67-.14l-.12-.03c3.71,1.8,5.46,4.74,5.2,8.87,0,0,.03-.12.03-.12Z"/>
      <path d="M230.19,209.29c-.11.44-.22.88-.33,1.31-.74.66-1.42,1.4-2.23,1.98-2.64,1.89-6,1.72-8.33-.34-2.33-2.07-2.93-5.5-1.45-8.24,1.47-2.71,4.72-4.08,7.71-3.23,2.98.85,4.97,3.63,4.84,6.8-.02.58-.15,1.15-.22,1.73Z"/>
      <path d="M147.48,235.11c3.25-1.89,7.21-.87,9.12,2.36,1.96,3.31.87,7.39-2.49,9.27-3.26,1.83-7.22.73-9.07-2.53-1.86-3.25-.8-7.21,2.44-9.1Z"/>
      <path d="M140.84,241.52c-3.28,1.91-7.23.85-9.11-2.43-1.88-3.28-.79-7.23,2.52-9.09,3.2-1.8,7.07-.77,8.94,2.38,1.94,3.27.92,7.23-2.34,9.13Z"/>
      <path d="M245.28,204.21c-3.26,1.89-7.21.83-9.08-2.44-1.87-3.27-.77-7.21,2.53-9.06,3.19-1.79,7.05-.75,8.91,2.4,1.92,3.26.9,7.22-2.36,9.1Z"/>
      <path d="M161.24,224.49c1.88,3.27.76,7.24-2.55,9.07-3.2,1.77-7.07.68-8.9-2.51-1.88-3.27-.76-7.24,2.55-9.08,3.2-1.77,7.07-.68,8.9,2.51Z"/>
      <path d="M170.87,225.27c-.84-.79-1.83-1.47-2.5-2.39-1.95-2.66-1.62-6.22.63-8.48,2.17-2.19,5.71-2.57,8.31-.9,2.61,1.68,3.7,5.01,2.6,7.92-1.1,2.91-4.05,4.63-7.2,4.19-.66-.09-1.3-.24-1.96-.37,0,0,.12.03.12.03Z"/>
      <path d="M234.55,190.64c1.77,3.15.64,7.14-2.52,8.9-3.15,1.77-7.14.64-8.9-2.52-1.76-3.15-.64-7.14,2.52-8.9,3.15-1.77,7.14-.64,8.9,2.52Z"/>
      <path d="M147.78,219.38c1.82,3.11.77,7.12-2.34,8.94-3.11,1.82-7.12.77-8.94-2.34-1.82-3.11-.77-7.12,2.34-8.94,3.11-1.82,7.12-.77,8.94,2.34Z"/>
      <path d="M198.42,213.61c-.38.43-.77.85-1.14,1.29-2.22,2.62-5.74,3.23-8.56,1.47-2.73-1.7-3.84-5.16-2.61-8.1,1.28-3.05,4.66-4.69,7.83-3.8,3.19.89,5.16,3.95,4.72,7.31-.08.65-.19,1.3-.28,1.95,0,0,.03-.12.03-.12Z"/>
      <path d="M216.1,198.96c1.73,3.15.53,7.19-2.63,8.89-3.17,1.7-7.2.46-8.86-2.72-1.62-3.1-.46-7,2.58-8.72,3.14-1.76,7.18-.61,8.91,2.54Z"/>
      <path d="M243.84,179.48c3.1-1.76,7.23-.58,8.92,2.55,1.65,3.06.51,7.04-2.5,8.74-3.1,1.76-7.23.58-8.92-2.54-1.65-3.06-.51-7.04,2.5-8.74Z"/>
      <path d="M200.14,202.67c-3.03,1.66-7.07.51-8.75-2.48-1.74-3.09-.51-7.29,2.62-8.9,3.09-1.6,7.1-.37,8.71,2.65,1.63,3.06.44,7.08-2.57,8.73Z"/>
      <path d="M182.1,211.25c-2.93,1.75-7,.74-8.8-2.2-1.84-2.99-.73-7.22,2.33-8.95,2.99-1.69,7.03-.6,8.76,2.37,1.72,2.96.67,7.01-2.29,8.78Z"/>
      <path d="M166.03,210.83c1.71,3.11.48,7.25-2.64,8.88-3.08,1.61-7.05.42-8.71-2.59-1.71-3.11-.48-7.25,2.64-8.88,3.08-1.61,7.05-.42,8.71,2.59Z"/>
      <path d="M129.5,228.11c1.75,2.95.71,7.03-2.25,8.82-2.75,1.65-7.45.22-9.12-2.77-1.48-2.65-.23-6.71,2.57-8.34,2.97-1.74,7.04-.67,8.8,2.3Z"/>
      <path d="M220.97,185.49c1.76,2.97.7,7.04-2.3,8.77-3,1.73-7.05.62-8.75-2.39-1.65-2.94-.63-6.83,2.26-8.6,2.94-1.8,7.02-.77,8.79,2.22Z"/>
      <path d="M162.3,195.05c3.02-1.7,7.08-.55,8.74,2.47,1.67,3.05.48,7.1-2.56,8.71-2.99,1.59-6.88.49-8.56-2.43-1.73-2.99-.62-7.06,2.39-8.76Z"/>
      <path d="M152.8,206.23c1.68,3.05.51,7.06-2.53,8.68-3.08,1.64-7.07.44-8.66-2.62-1.57-3.01-.45-6.85,2.48-8.51,3.02-1.71,7.04-.58,8.7,2.45Z"/>
      <path d="M134.27,214.33c1.77,2.96.71,7.03-2.29,8.78-2.99,1.74-7.05.64-8.75-2.37-1.66-2.93-.64-6.83,2.24-8.6,2.93-1.8,7.02-.78,8.8,2.2Z"/>
      <path d="M236.5,185.71c-2.98,1.8-7.01.75-8.75-2.28-1.69-2.95-.68-6.81,2.23-8.58,2.98-1.8,7.01-.75,8.75,2.28,1.69,2.95.69,6.81-2.23,8.58Z"/>
      <path d="M257.36,169.2c1.56,3.19.22,7.05-2.96,8.51-3.14,1.45-6.86.16-8.35-2.89-1.56-3.19-.22-7.05,2.96-8.51,3.14-1.45,6.86-.16,8.35,2.89Z"/>
      <path d="M189.35,189.21c1.76,3.05.66,6.96-2.42,8.64-3,1.65-6.77.59-8.47-2.37-1.76-3.05-.66-6.95,2.42-8.64,3-1.65,6.77-.59,8.47,2.37Z"/>
      <path d="M207.04,180.75c1.77,3.03.8,6.74-2.22,8.5-3.03,1.77-6.74.8-8.5-2.22-1.77-3.03-.8-6.74,2.22-8.5,3.03-1.77,6.74-.8,8.5,2.22Z"/>
      <path d="M217.02,170.25c3.03-1.76,6.74-.77,8.49,2.26,1.76,3.03.77,6.74-2.26,8.49-3.03,1.76-6.74.77-8.49-2.26-1.76-3.03-.77-6.74,2.26-8.49Z"/>
      <path d="M121.08,209.87c1.72,3.05.7,6.74-2.35,8.47-3.05,1.72-6.74.7-8.47-2.35-1.72-3.05-.7-6.74,2.35-8.47,3.05-1.72,6.74-.7,8.47,2.35Z"/>
      <path d="M235.63,161.44c3-1.53,6.52-.39,8.13,2.65,1.64,3.07.46,6.68-2.71,8.3-3.09,1.58-6.68.32-8.25-2.88-1.48-3.02-.26-6.51,2.82-8.08Z"/>
      <path d="M175.47,184.66c1.58,2.95.49,6.55-2.47,8.17-3.03,1.66-6.72.5-8.32-2.6-1.53-2.97-.36-6.55,2.64-8.12,2.96-1.55,6.55-.43,8.15,2.55Z"/>
      <path d="M139.2,201.2c1.73,3.04.71,6.67-2.35,8.38-3.05,1.7-6.67.65-8.36-2.44-1.63-2.97-.64-6.5,2.31-8.21,3.03-1.76,6.67-.78,8.4,2.27Z"/>
      <path d="M193.89,176.31c1.63,2.96.6,6.55-2.36,8.22-3.03,1.71-6.72.61-8.36-2.49-1.57-2.97-.46-6.55,2.53-8.17,2.96-1.6,6.55-.53,8.2,2.44Z"/>
      <path d="M157.61,192.89c1.76,3.03.75,6.69-2.32,8.4-2.96,1.65-6.52.67-8.23-2.27-1.76-3.03-.75-6.69,2.32-8.4,2.96-1.65,6.52-.67,8.23,2.27Z"/>
      <path d="M99.34,202.57c2.9-1.64,6.6-.6,8.23,2.29,1.64,2.9.6,6.6-2.29,8.23-2.9,1.64-6.6.6-8.23-2.29-1.64-2.9-.6-6.6,2.29-8.23Z"/>
      <path d="M248.65,150.6c1.62,2.86.52,6.69-2.36,8.23-2.81,1.51-6.49.45-8.06-2.32-1.62-2.86-.52-6.69,2.36-8.23,2.81-1.51,6.49-.45,8.06,2.32Z"/>
      <path d="M230.45,159.3c1.62,2.87.53,6.69-2.37,8.24-2.83,1.51-6.5.45-8.07-2.33-1.62-2.87-.53-6.69,2.37-8.24,2.83-1.51,6.5-.45,8.07,2.33Z"/>
      <path d="M161.9,179.32c1.7,2.82.69,6.66-2.18,8.3-2.78,1.59-6.48.62-8.13-2.13-1.7-2.82-.69-6.66,2.18-8.3,2.78-1.59,6.48-.62,8.13,2.13Z"/>
      <path d="M125.26,196.3c1.7,2.86.73,6.62-2.15,8.29-2.88,1.67-6.63.66-8.27-2.24-1.59-2.81-.65-6.45,2.11-8.12,2.84-1.73,6.62-.79,8.32,2.07Z"/>
      <path d="M143.75,188.13c1.64,2.86.56,6.69-2.34,8.25-2.82,1.53-6.49.49-8.08-2.29-1.64-2.86-.56-6.69,2.34-8.25,2.82-1.53,6.49-.49,8.08,2.29Z"/>
      <path d="M211.99,167.54c1.64,2.86.59,6.63-2.29,8.24-2.88,1.61-6.64.52-8.22-2.37-1.53-2.81-.52-6.45,2.24-8.07,2.84-1.67,6.63-.66,8.26,2.2Z"/>
      <path d="M103.91,189.59c2.72-1.63,6.48-.7,8.16,2.02,1.72,2.78.7,6.69-2.15,8.3-2.77,1.57-6.5.56-8.11-2.19-1.6-2.75-.63-6.49,2.11-8.13Z"/>
      <path d="M180.35,171.21c1.57,2.77.55,6.51-2.22,8.08-2.77,1.57-6.51.55-8.08-2.22-1.57-2.77-.55-6.51,2.22-8.08,2.77-1.57,6.51-.55,8.08,2.22Z"/>
      <path d="M198.62,162.67c1.49,2.86.33,6.58-2.5,8-2.89,1.46-6.58.26-7.97-2.59-1.38-2.83-.27-6.37,2.44-7.83,2.82-1.52,6.57-.39,8.03,2.42Z"/>
      <path d="M127.93,191.2c-2.86,1.49-6.54.34-7.97-2.49-1.46-2.88-.27-6.54,2.58-7.93,2.83-1.38,6.33-.29,7.8,2.43,1.52,2.83.41,6.53-2.4,8Z"/>
      <path d="M217.02,154.33c1.53,2.81.42,6.55-2.38,8.02-2.85,1.5-6.55.36-8-2.47-1.42-2.79-.37-6.33,2.33-7.85,2.79-1.56,6.53-.5,8.04,2.29Z"/>
      <path d="M140.78,172.68c2.82-1.59,6.48-.52,7.99,2.33,1.48,2.78.46,6.28-2.28,7.82-2.82,1.59-6.48.52-7.99-2.32-1.48-2.78-.46-6.28,2.28-7.82Z"/>
      <path d="M232.78,153.57c-2.81,1.48-6.28.44-7.79-2.35-1.56-2.88-.44-6.46,2.49-7.92,2.85-1.43,6.28-.32,7.73,2.51,1.45,2.83.37,6.28-2.43,7.76Z"/>
      <path d="M185.27,157.87c1.61,2.75.72,6.21-2.02,7.84-2.82,1.69-6.4.72-7.99-2.15-1.55-2.79-.58-6.22,2.19-7.8,2.77-1.58,6.21-.65,7.82,2.1Z"/>
      <path d="M166.88,166.29c1.54,2.82.54,6.24-2.29,7.79-2.82,1.54-6.24.54-7.79-2.29-1.54-2.82-.54-6.24,2.29-7.79,2.82-1.54,6.24-.54,7.79,2.29Z"/>
      <path d="M203.4,149.22c1.63,2.8.72,6.18-2.09,7.78-2.81,1.6-6.18.65-7.76-2.18-1.52-2.73-.64-6.01,2.05-7.61,2.79-1.66,6.18-.79,7.8,2.01Z"/>
      <path d="M245.33,135.47c2.83-1.58,6.21-.59,7.77,2.27,1.55,2.84.52,6.22-2.35,7.75-2.76,1.47-6.04.51-7.6-2.22-1.61-2.82-.66-6.21,2.18-7.79Z"/>
      <path d="M116.99,178.67c1.56,2.82.54,6.16-2.35,7.68-2.74,1.45-5.99.46-7.51-2.3-1.56-2.82-.54-6.16,2.35-7.68,2.74-1.45,5.99-.46,7.51,2.3Z"/>
      <path d="M213.78,139.14c2.82-1.58,6.18-.59,7.72,2.28,1.48,2.75.51,6.01-2.24,7.55-2.82,1.58-6.18.59-7.72-2.28-1.48-2.75-.51-6.01,2.24-7.55Z"/>
      <path d="M153.54,161.6c1.56,2.7.67,6.04-2.03,7.61-2.7,1.56-6.04.67-7.61-2.03-1.56-2.7-.67-6.04,2.03-7.61,2.7-1.56,6.04-.67,7.61,2.03Z"/>
      <path d="M96.41,194.51c-2.82,1.62-6.18.68-7.76-2.18-1.52-2.75-.6-6.01,2.14-7.59,2.82-1.62,6.18-.68,7.76,2.18,1.52,2.75.6,6.01-2.14,7.59Z"/>
      <path d="M125.23,175.12c-1.4-2.77-.31-6.01,2.51-7.47,2.85-1.47,6.18-.31,7.61,2.65,1.34,2.78.18,6.01-2.68,7.42-2.77,1.37-6.01.24-7.44-2.6Z"/>
      <path d="M237.61,140.17c-2.79,1.65-6.16.76-7.76-2.05-1.55-2.72-.68-6,2-7.59,2.79-1.65,6.16-.76,7.76,2.05,1.55,2.72.68,6-2,7.59Z"/>
      <path d="M103.53,173.58c1.49,2.68.49,6.09-2.2,7.55-2.69,1.46-6.1.42-7.52-2.29-1.38-2.62-.42-5.91,2.16-7.38,2.66-1.52,6.08-.57,7.57,2.12Z"/>
      <path d="M171.77,152.99c1.49,2.69.5,6.09-2.2,7.55-2.7,1.46-6.09.43-7.53-2.29-1.39-2.63-.43-5.91,2.16-7.38,2.67-1.52,6.08-.57,7.58,2.12Z"/>
      <path d="M187.67,152.47c-2.68,1.51-6.14.5-7.58-2.2-1.4-2.63-.44-5.95,2.16-7.41,2.68-1.51,6.14-.5,7.58,2.2,1.4,2.62.43,5.95-2.16,7.41Z"/>
      <path d="M218.83,126c2.5-1.5,5.98-.61,7.49,1.9,1.5,2.5.61,5.98-1.9,7.49-2.5,1.5-5.98.61-7.49-1.9-1.5-2.5-.61-5.98,1.9-7.49Z"/>
      <path d="M198.29,141.53c-1.41-2.7-.3-6.16,2.42-7.5,2.65-1.3,5.97-.23,7.33,2.36,1.41,2.7.3,6.16-2.42,7.5-2.65,1.3-5.97.23-7.33-2.36Z"/>
      <path d="M121.66,164.83c1.46,2.55.56,5.96-1.97,7.46-2.6,1.54-6.17.55-7.6-2.1-1.4-2.58-.41-5.99,2.14-7.41,2.57-1.43,5.97-.49,7.43,2.06Z"/>
      <path d="M114,231.86c-3.19-2.68-6.29-5.29-9.36-7.88,1.22-2.92,3.31-4.33,6.16-4.24,2.73.08,5.19,1.91,6.03,4.49.91,2.76,0,5.33-2.84,7.63Z"/>
      <path d="M137.69,164.24c-2.5,1.48-5.98.57-7.46-1.94-1.48-2.5-.57-5.98,1.94-7.46,2.5-1.48,5.98-.57,7.46,1.94,1.48,2.5.57,5.98-1.94,7.46Z"/>
      <path d="M82.58,166.53c2.49-1.49,5.96-.59,7.43,1.93,1.46,2.52.52,5.98-2.02,7.41-2.46,1.38-5.76.53-7.26-1.88-1.52-2.46-.66-5.95,1.85-7.45Z"/>
      <path d="M244.5,119.3c1.45,2.53.5,5.98-2.04,7.4-2.55,1.42-6,.43-7.37-2.13-1.34-2.49-.43-5.78,2-7.23,2.5-1.49,5.97-.57,7.42,1.96Z"/>
      <path d="M106,167.81c-2.56,1.45-6.01.45-7.37-2.12-1.34-2.52-.39-5.81,2.08-7.2,2.56-1.45,6.01-.45,7.37,2.12,1.34,2.52.39,5.81-2.08,7.2Z"/>
      <path d="M155.87,155.5c-2.51,1.48-5.99.54-7.43-1.99-1.44-2.53-.47-6,2.07-7.4,2.47-1.36,5.79-.48,7.26,1.94,1.51,2.48.61,5.97-1.9,7.45Z"/>
      <path d="M176.27,139.88c1.45,2.53.5,5.98-2.04,7.4-2.55,1.42-6,.43-7.38-2.13-1.34-2.49-.43-5.78,2-7.23,2.5-1.49,5.97-.57,7.42,1.96Z"/>
      <path d="M258.72,152.71c.18,3.42.27,6.7.57,9.96.15,1.6-.5,2.1-1.91,2.18-2.58.15-4.57-.81-5.9-3.03-1.32-2.22-1.32-4.5.16-6.61,1.65-2.33,3.94-3.22,7.07-2.49Z"/>
      <path d="M194.39,131.23c1.43,2.5.58,5.72-1.9,7.19-2.56,1.51-5.92.58-7.33-2.03-1.37-2.54-.44-5.74,2.07-7.14,2.52-1.4,5.73-.51,7.16,1.99Z"/>
      <path d="M126.17,151.77c1.44,2.47.59,5.78-1.87,7.25-2.53,1.52-5.98.59-7.4-2-1.38-2.52-.45-5.8,2.04-7.21,2.5-1.41,5.79-.52,7.23,1.96Z"/>
      <path d="M94.37,155.43c1.48,2.48.75,5.48-1.69,6.97-2.56,1.56-5.64.77-7.12-1.82-1.42-2.5-.62-5.48,1.86-6.92,2.5-1.45,5.48-.69,6.95,1.78Z"/>
      <path d="M155.69,133.02c2.58-1.48,5.63-.6,7.06,2.02,1.37,2.52.53,5.46-1.98,6.89-2.59,1.48-5.63.6-7.06-2.02-1.37-2.52-.53-5.46,1.98-6.89Z"/>
      <path d="M230.99,114.32c1.46,2.58.58,5.69-2.01,7.13-2.58,1.43-5.7.51-7.11-2.1-1.36-2.51-.51-5.52,1.97-6.96,2.56-1.49,5.69-.65,7.15,1.93Z"/>
      <path d="M247.41,113.1c-2.52,1.41-5.49.58-6.93-1.94-1.48-2.6-.59-5.66,2.07-7.08,2.54-1.35,5.49-.44,6.88,2.11,1.38,2.53.51,5.49-2.02,6.91Z"/>
      <path d="M250.61,122.54c2.57-1.46,5.71-.58,7.14,2.02,1.43,2.58.5,5.71-2.1,7.12-2.51,1.35-5.53.5-6.97-1.97-1.49-2.56-.64-5.7,1.93-7.17Z"/>
      <path d="M197.41,124.94c-2.5,1.42-5.48.62-6.92-1.87-1.5-2.58-.64-5.64,2-7.07,2.52-1.36,5.47-.49,6.88,2.04,1.4,2.52.56,5.47-1.95,6.9Z"/>
      <path d="M212.78,123.06c1.45,2.58.56,5.66-2.04,7.09-2.58,1.42-5.66.49-7.06-2.12-1.35-2.51-.49-5.49,1.99-6.92,2.57-1.48,5.66-.63,7.11,1.95Z"/>
      <path d="M179.24,133.62c-2.5,1.45-5.47.67-6.94-1.8-1.52-2.57-.68-5.64,1.94-7.09,2.52-1.39,5.47-.54,6.89,1.97,1.42,2.51.61,5.47-1.89,6.92Z"/>
      <path d="M142.59,150.68c-2.57,1.47-5.66.61-7.1-1.98-1.44-2.58-.54-5.66,2.07-7.08,2.5-1.36,5.49-.53,6.93,1.94,1.5,2.56.68,5.65-1.9,7.13Z"/>
      <path d="M78.47,188.71c-1.18-2.57-2.08-4.25-2.68-6.03-.2-.58.18-1.6.63-2.11,1.54-1.74,4.32-2.05,6.44-.91,2.13,1.15,3.26,3.51,2.82,5.89-.44,2.37-2.42,4.42-4.75,4.37-1.05-.02-2.07-1.01-2.45-1.21Z"/>
      <path d="M235.51,101.33c1.37,2.45.44,5.59-2.04,6.9-2.4,1.26-5.4.37-6.73-2-1.37-2.45-.44-5.59,2.04-6.9,2.4-1.26,5.4-.37,6.73,2Z"/>
      <path d="M112.78,147.19c1.47,2.45.68,5.53-1.78,6.96-2.47,1.44-5.53.61-6.94-1.87-1.36-2.39-.6-5.36,1.74-6.79,2.44-1.49,5.53-.74,6.99,1.7Z"/>
      <path d="M217.68,109.63c1.47,2.45.68,5.53-1.78,6.96-2.47,1.44-5.53.61-6.94-1.87-1.36-2.39-.6-5.36,1.74-6.79,2.44-1.49,5.53-.74,6.99,1.7Z"/>
      <path d="M124.13,136.76c2.32-1.36,5.43-.58,6.82,1.73,1.45,2.39.58,5.62-1.87,6.97-2.36,1.3-5.44.44-6.78-1.91-1.33-2.35-.51-5.43,1.82-6.8Z"/>
      <path d="M142.8,128.38c2.38-1.23,5.46-.29,6.72,2.06,1.31,2.45.28,5.66-2.2,6.86-2.42,1.17-5.48.15-6.67-2.23-1.2-2.39-.21-5.47,2.14-6.69Z"/>
      <path d="M161.01,119.69c2.36-1.22,5.46-.27,6.7,2.06,1.3,2.43.27,5.66-2.19,6.84-2.41,1.16-5.47.13-6.65-2.22-1.19-2.38-.2-5.47,2.14-6.68Z"/>
      <path d="M117.58,133.64c1.27,2.34.3,5.51-2.05,6.69-2.31,1.16-5.31.24-6.52-2-1.27-2.34-.3-5.51,2.05-6.69,2.31-1.16,5.31-.24,6.52,2Z"/>
      <path d="M179.22,111.63c2.25-1.38,5.45-.57,6.81,1.71,1.35,2.27.5,5.47-1.8,6.78-2.21,1.26-5.26.5-6.63-1.67-1.41-2.22-.64-5.44,1.63-6.83Z"/>
      <path d="M201.89,111.66c-2.35,1.27-5.48.31-6.67-2.04-1.16-2.31-.25-5.28,1.99-6.5,2.35-1.27,5.48-.31,6.67,2.04,1.16,2.31.25,5.28-1.99,6.5Z"/>
      <path d="M215.56,94.91c2.29-1.34,5.46-.46,6.72,1.87,1.23,2.26.39,5.26-1.83,6.55-2.29,1.34-5.46.46-6.72-1.87-1.23-2.26-.39-5.26,1.83-6.55Z"/>
      <path d="M99.37,142.34c1.27,2.34.3,5.51-2.05,6.69-2.31,1.16-5.31.24-6.52-2-1.27-2.34-.31-5.51,2.05-6.69,2.31-1.16,5.31-.24,6.52,2Z"/>
      <path d="M253.86,93.02c1.34,2.29.47,5.5-1.84,6.8-2.32,1.31-5.51.4-6.78-1.92-1.23-2.26-.41-5.3,1.79-6.63,2.27-1.37,5.48-.55,6.82,1.75Z"/>
      <path d="M79.18,157.19c-2.26,1.37-5.46.56-6.81-1.74-1.34-2.28-.48-5.48,1.82-6.79,2.22-1.26,5.27-.48,6.64,1.69,1.4,2.23.62,5.45-1.65,6.83Z"/>
      <path d="M135.86,125.3c1.35,2.29.61,5.17-1.68,6.52-2.29,1.35-5.17.61-6.52-1.68-1.35-2.29-.61-5.17,1.68-6.52,2.29-1.35,5.17-.61,6.52,1.68Z"/>
      <path d="M84.28,198.88c3.09-2.53,6.47-2.36,8.75.15,2.11,2.32,1.91,6.16-.45,8.36-.85.79-1.75,1.45-2.66.07-1.86-2.82-3.71-5.64-5.64-8.58Z"/>
      <path d="M152.4,123.03c-2.31,1.4-5.12.69-6.49-1.62-1.37-2.33-.63-5.12,1.71-6.46,2.25-1.29,4.95-.62,6.32,1.58,1.43,2.3.76,5.12-1.54,6.51Z"/>
      <path d="M102.49,135.33c-2.27,1.31-4.95.6-6.28-1.64-1.38-2.34-.61-5.12,1.78-6.43,2.28-1.25,4.95-.47,6.23,1.81,1.28,2.28.54,4.95-1.73,6.26Z"/>
      <path d="M240.33,88.19c1.29,2.37.42,5.15-2,6.4-2.31,1.19-4.97.35-6.23-1.95-1.29-2.37-.42-5.15,2-6.4,2.31-1.19,4.97-.36,6.23,1.95Z"/>
      <path d="M190.25,100.08c1.26,2.28.49,4.95-1.79,6.24-2.36,1.33-5.12.51-6.39-1.92-1.2-2.3-.36-4.95,1.96-6.2,2.29-1.23,4.95-.42,6.22,1.87Z"/>
      <path d="M165.66,106.97c2.34-1.35,5.11-.57,6.42,1.81,1.25,2.28.49,4.94-1.76,6.25-2.34,1.35-5.11.57-6.42-1.81-1.25-2.28-.49-4.94,1.76-6.25Z"/>
      <path d="M84.03,143.71c-2.35,1.32-5.16.51-6.45-1.86-1.29-2.36-.44-5.16,1.95-6.43,2.29-1.21,4.98-.44,6.28,1.82,1.35,2.34.58,5.15-1.78,6.47Z"/>
      <path d="M120.16,126.89c-2.26,1.25-4.96.46-6.22-1.81-1.25-2.26-.46-4.96,1.81-6.22,2.26-1.25,4.96-.46,6.22,1.81,1.25,2.26.46,4.96-1.81,6.22Z"/>
      <path d="M72.69,132.71c1.26,2.29.5,4.98-1.79,6.27-2.14,1.21-5.01.58-5.97-1.32-1.2-2.37-.44-5.78,1.51-6.83,2.3-1.23,4.98-.43,6.25,1.88Z"/>
      <path d="M220.61,81.39c2.19-1.25,5.05-.43,6.24,1.8,1.15,2.14.36,4.86-1.75,6.07-2.2,1.25-5.05.43-6.24-1.8-1.15-2.14-.36-4.86,1.75-6.07Z"/>
      <path d="M208.62,91.81c1.25,2.24.45,5-1.81,6.22-2.24,1.22-5,.38-6.2-1.89-1.15-2.17-.38-4.82,1.76-6.05,2.22-1.28,4.99-.52,6.25,1.72Z"/>
      <path d="M102.52,114.39c2.04-1.24,4.9-.54,6.15,1.51,1.24,2.04.54,4.9-1.51,6.15-2.04,1.24-4.9.54-6.15-1.51-1.24-2.04-.54-4.9,1.51-6.15Z"/>
      <path d="M158.57,103.67c1.27,2.24.45,5.04-1.83,6.25-2.18,1.16-4.86.38-6.08-1.78-1.27-2.24-.45-5.04,1.83-6.25,2.18-1.16,4.86-.38,6.08,1.78Z"/>
      <path d="M175.26,101.56c-2.13,1.18-4.94.38-6.12-1.74-1.18-2.13-.38-4.94,1.74-6.12,2.13-1.18,4.94-.38,6.12,1.74,1.18,2.13.38,4.94-1.74,6.11Z"/>
      <path d="M245.3,74.9c1.2,2.22.31,5.06-1.94,6.2-2.16,1.09-4.87.24-6.03-1.89-1.2-2.22-.31-5.06,1.94-6.2,2.16-1.09,4.87-.24,6.03,1.89Z"/>
      <path d="M134.11,110.68c2.22-1.3,4.99-.55,6.26,1.68,1.27,2.23.48,4.99-1.77,6.23-2.15,1.19-4.82.47-6.09-1.64-1.32-2.2-.61-4.99,1.6-6.28Z"/>
      <path d="M71.57,172.04c-.85-2.72-1.69-5.41-2.55-8.1-.42-1.31.06-2,1.39-2.31,2.15-.49,3.96.03,5.4,1.69,1.38,1.59,1.68,3.44.9,5.36-.89,2.22-2.6,3.35-5.14,3.35Z"/>
      <path d="M90.32,124.35c1.14,2.12.3,4.94-1.8,6.06-2.12,1.14-4.94.3-6.06-1.8-1.14-2.12-.3-4.94,1.8-6.06,2.12-1.14,4.94-.3,6.06,1.8Z"/>
      <path d="M195.16,86.74c1.18,2.09.36,4.96-1.74,6.1-2.11,1.15-4.97.29-6.07-1.83-1.07-2.05-.29-4.76,1.69-5.93,2.07-1.21,4.94-.43,6.12,1.66Z"/>
      <path d="M213.55,78.38c1.23,2.04.48,4.92-1.59,6.12-2.06,1.2-4.94.41-6.1-1.67-1.12-2-.41-4.73,1.54-5.95,2.01-1.26,4.91-.55,6.14,1.5Z"/>
      <path d="M145.18,99.03c1.23,2.03.54,4.72-1.51,5.92-2.05,1.2-4.73.47-5.9-1.6-1.12-1.98-.47-4.54,1.46-5.75,2.01-1.26,4.71-.61,5.94,1.42Z"/>
      <path d="M126.82,107.42c1.14,2.06.37,4.73-1.68,5.86-2.06,1.14-4.73.37-5.86-1.68-1.14-2.06-.37-4.73,1.68-5.86,2.06-1.14,4.73-.37,5.86,1.68Z"/>
      <path d="M231.68,69.75c1.19,2.01.49,4.74-1.52,5.94-2.01,1.19-4.74.49-5.94-1.52-1.19-2.01-.49-4.74,1.52-5.94,2.01-1.19,4.74-.49,5.94,1.52Z"/>
      <path d="M258.68,108.25c.09,3.7.18,7.22.27,10.72-3.3.45-5.83-1.48-6.17-4.62-.38-3.4,1.94-5.91,5.91-6.1Z"/>
      <path d="M176,80.72c2.01-1.22,4.47-.65,5.7,1.33,1.3,2.08.66,4.64-1.46,5.85-2.04,1.16-4.47.52-5.65-1.5-1.19-2.03-.59-4.47,1.41-5.68Z"/>
      <path d="M163.36,90.55c1.13,2.05.45,4.45-1.59,5.61-2.12,1.2-4.62.45-5.75-1.73-1.07-2.06-.31-4.45,1.76-5.56,2.06-1.1,4.45-.38,5.58,1.68Z"/>
      <path d="M89.53,109.51c2.05-1.12,4.44-.4,5.57,1.67,1.12,2.05.4,4.44-1.67,5.57-2.05,1.12-4.44.4-5.57-1.67-1.12-2.05-.4-4.44,1.67-5.57Z"/>
      <path d="M249.43,61.67c1.3,2.25.75,4.64-1.34,5.87-2.02,1.19-4.46.58-5.67-1.42-1.27-2.1-.6-4.63,1.54-5.82,1.98-1.1,4.41-.49,5.48,1.37Z"/>
      <path d="M74.99,124.87c-1.89,1.06-4.39.37-5.45-1.52-1.06-1.89-.37-4.39,1.52-5.45,1.89-1.06,4.39-.37,5.45,1.52,1.06,1.89.37,4.39-1.52,5.45Z"/>
      <path d="M217.86,65.44c1.22,2,.58,4.48-1.45,5.63-1.94,1.11-4.3.5-5.46-1.4-1.22-2-.58-4.48,1.45-5.63,1.94-1.11,4.3-.5,5.46,1.4Z"/>
      <path d="M148.37,90.91c-1.87,1.09-4.33.46-5.45-1.39-1.17-1.93-.46-4.52,1.52-5.6,1.9-1.03,4.35-.32,5.4,1.56,1.06,1.89.39,4.34-1.48,5.43Z"/>
      <path d="M100,97.72c1.1,1.83.46,4.37-1.38,5.47-1.83,1.1-4.37.46-5.47-1.38-1.1-1.83-.46-4.37,1.38-5.47,1.83-1.1,4.37-.46,5.47,1.38Z"/>
      <path d="M126.06,92.67c1.92-1.15,4.3-.59,5.49,1.29,1.25,1.97.66,4.48-1.34,5.67-2.01,1.2-4.48.53-5.62-1.51-1.09-1.95-.46-4.31,1.46-5.45Z"/>
      <path d="M236.06,56.76c1.19,1.97.53,4.48-1.48,5.6-1.92,1.08-4.3.45-5.43-1.43-1.19-1.97-.53-4.48,1.48-5.6,1.92-1.08,4.3-.45,5.43,1.43Z"/>
      <path d="M113.21,102.39c1.16,2.02.49,4.44-1.54,5.58-2.02,1.13-4.45.42-5.55-1.63-1.05-1.95-.41-4.27,1.5-5.41,2-1.19,4.44-.56,5.6,1.46Z"/>
      <path d="M194.35,72.03c2.04-1.17,4.45-.49,5.59,1.56,1.14,2.04.42,4.46-1.65,5.57-1.97,1.06-4.28.41-5.42-1.52-1.2-2.02-.56-4.45,1.48-5.62Z"/>
      <path d="M168.26,77.23c1.04,1.86.31,4.43-1.56,5.43-1.88,1.01-4.44.23-5.41-1.65-.93-1.81-.24-4.24,1.51-5.26,1.83-1.07,4.42-.37,5.46,1.47Z"/>
      <path d="M180.73,67.26c1.88-.99,4.46-.16,5.37,1.73.88,1.83.1,4.27-1.67,5.2-1.88.99-4.46.16-5.37-1.73-.88-1.83-.1-4.27,1.67-5.2Z"/>
      <path d="M202.81,65.93c-1.83.91-4.28.14-5.21-1.64-.99-1.89-.13-4.47,1.78-5.35,1.88-.85,4.29-.01,5.15,1.8.88,1.85.07,4.29-1.72,5.19Z"/>
      <path d="M112.83,87.67c1.76-1.02,4.25-.37,5.3,1.38,1.1,1.82.37,4.46-1.51,5.45-1.8.95-4.27.23-5.25-1.55-.98-1.78-.3-4.26,1.46-5.28Z"/>
      <path d="M79.89,111.51c-1.83.91-4.29.14-5.23-1.65-.99-1.9-.13-4.49,1.79-5.36,1.88-.85,4.3,0,5.17,1.81.88,1.85.07,4.3-1.73,5.2Z"/>
      <path d="M130.8,79.79c1.77-1.1,4.21-.5,5.28,1.3,1.07,1.79.43,4.22-1.39,5.26-1.72.99-4.03.42-5.11-1.25-1.12-1.74-.56-4.21,1.21-5.31Z"/>
      <path d="M217.38,50.53c1.78-1.03,3.95-.48,5.02,1.26,1.13,1.83.56,4.12-1.3,5.19-1.86,1.07-4.13.43-5.15-1.47-.97-1.81-.35-3.95,1.43-4.98Z"/>
      <path d="M152.82,77.56c-1.88,1.05-4.1.39-5.1-1.53-.95-1.81-.31-3.92,1.48-4.93,1.88-1.05,4.1-.39,5.1,1.53.95,1.82.31,3.92-1.48,4.93Z"/>
      <path d="M171.41,69.2c-1.78,1.09-3.94.6-5.04-1.14-1.17-1.85-.62-4.11,1.28-5.19,1.81-1.04,3.93-.48,5,1.31,1.06,1.8.54,3.93-1.23,5.02Z"/>
      <path d="M104.43,85.05c.89,1.74.25,3.78-1.48,4.73-1.81.99-3.96.32-4.9-1.53-.93-1.83-.17-3.97,1.7-4.85,1.77-.83,3.79-.12,4.68,1.65Z"/>
      <path d="M86.33,92.98c.93,1.72.32,3.81-1.38,4.77-1.79,1.01-4,.32-4.91-1.52-.87-1.74-.18-3.82,1.55-4.72,1.73-.9,3.81-.25,4.74,1.47Z"/>
      <path d="M190.77,55.6c1.02,1.79.38,3.95-1.44,4.91-1.73.91-3.77.31-4.74-1.4-1.02-1.79-.38-3.95,1.44-4.91,1.73-.91,3.77-.31,4.74,1.4Z"/>
      <path d="M240.82,43.8c.93,1.72.32,3.81-1.38,4.77-1.79,1.01-4,.32-4.91-1.52-.87-1.74-.18-3.82,1.55-4.72,1.73-.9,3.81-.25,4.74,1.47Z"/>
      <path d="M255.78,86.92c-3.25.24-5.32-1.06-5.93-3.43-.66-2.55.45-4.65,3.58-6.2.8,3.25,1.57,6.4,2.36,9.62Z"/>
      <path d="M227.42,38.68c.92,1.66.33,3.81-1.32,4.76-1.73,1-4,.33-4.91-1.45-.86-1.69-.19-3.82,1.49-4.71,1.68-.89,3.81-.26,4.74,1.4Z"/>
      <path d="M209.14,47.26c.99,1.63.48,3.8-1.13,4.81-1.69,1.07-3.98.49-4.96-1.26-.93-1.66-.34-3.81,1.3-4.76,1.65-.96,3.8-.41,4.79,1.21Z"/>
      <path d="M117.7,74.88c1.67-.95,3.8-.38,4.78,1.27,1.03,1.73.39,3.99-1.4,4.92-1.69.89-3.81.24-4.73-1.44-.92-1.68-.31-3.81,1.35-4.75Z"/>
      <path d="M159,59.24c.92,1.54.38,3.7-1.16,4.63-1.54.92-3.7.38-4.63-1.16-.92-1.54-.38-3.7,1.16-4.63,1.54-.92,3.7-.38,4.63,1.16Z"/>
      <path d="M140.94,67.99c.9,1.64.23,3.89-1.42,4.76-1.66.87-3.97.19-4.72-1.51-.81-1.85-.35-3.47,1.36-4.56,1.58-1.01,3.87-.33,4.77,1.32Z"/>
      <path d="M172.95,49.76c1.58-.86,3.7-.24,4.56,1.33.86,1.58.24,3.7-1.33,4.56-1.58.86-3.7.24-4.56-1.33-.86-1.58-.24-3.7,1.33-4.56Z"/>
      <path d="M195.63,42.48c.77,1.83.38,3.32-1.32,4.34-1.61.97-3.7.29-4.45-1.43-.79-1.82-.27-3.36,1.47-4.25,1.77-.9,3.24-.28,4.29,1.34Z"/>
      <path d="M108.94,71.44c.74,1.56.44,3.05-1.22,4.13-1.58,1.02-3.63.46-4.45-1.23-.86-1.77-.41-3.25,1.27-4.26,1.53-.92,3.4-.37,4.41,1.37Z"/>
      <path d="M213.85,33.93c.94,1.86.73,3.4-.97,4.44-1.67,1.03-3.25.69-4.3-.99-1.04-1.67-.69-3.24.98-4.3,1.69-1.07,3.15-.53,4.28.84Z"/>
      <path d="M90.72,80.18c.71,1.81.29,3.31-1.48,4.18-1.78.88-3.3.32-4.17-1.43-.88-1.78-.32-3.3,1.43-4.17,1.78-.89,3.2-.25,4.23,1.43Z"/>
      <path d="M163.88,46.14c.68,1.7.42,3.19-1.24,4.09-1.64.89-3.16.46-4.06-1.18-.9-1.64-.46-3.15,1.18-4.06,1.65-.92,3.04-.35,4.12,1.15Z"/>
      <path d="M122.74,61.99c1.89-.93,3.42-.72,4.44,1.01,1.01,1.71.6,3.25-1.12,4.25-1.61.93-3.09.57-4.11-.99-1.1-1.69-.56-3.14.79-4.27Z"/>
      <path d="M145.46,54.31c.81,1.78.52,3.3-1.24,4.26-1.75.95-3.27.47-4.21-1.27-.88-1.64-.46-3.11,1.14-4.07,1.72-1.02,3.17-.52,4.3,1.08Z"/>
      <path d="M130.83,54.34c-1.22-.55-2.81-.79-3.58-1.71-1.08-1.29-.56-2.96.92-3.85,1.48-.9,3.19-.56,3.83.99.46,1.11-.08,2.63-.17,3.97-.33.2-.66.4-.99.6Z"/>
      <path d="M108.94,57.2c2.4-.98,3.92-.73,4.8.91.82,1.51.4,3.03-1.09,3.89-1.6.92-3.35.53-3.98-1.16-.43-1.13.17-2.64.27-3.64Z"/>
      <path d="M94.04,71.36c-1.2-.59-2.78-.9-3.51-1.85-1.02-1.33-.45-2.98,1.08-3.81,1.52-.83,3.22-.44,3.79,1.15.41,1.13-.19,2.63-.33,3.96-.34.18-.68.37-1.02.55Z"/>
      <path d="M200.57,29.63c-.52,1.24-.78,2.72-1.63,3.65-1.01,1.11-3.37.41-4.04-.99-.74-1.56-.44-3.21,1.11-3.82,1.13-.44,2.63.1,3.97.2.2.32.39.64.59.96Z"/>
      <path d="M177.12,36.65c2.41-1.03,3.93-.82,4.85.83.86,1.52.46,3.03-1.03,3.93-1.6.96-3.36.6-4.03-1.1-.45-1.13.12-2.65.2-3.66Z"/>
      <path d="M231.29,29.52c-2.4,1.04-3.91.82-4.84-.81-.86-1.51-.46-3.03,1.01-3.92,1.59-.96,3.35-.61,4.02,1.08.45,1.13-.11,2.65-.19,3.65Z"/>
      <path d="M101.61,52.86c-.94,2.03-1.21,3.62-2.15,4.39-1.31,1.07-2.95.52-3.88-.95-1.11-1.76.02-3.29,1.35-3.96.95-.48,2.48.22,4.68.52Z"/>
      <path d="M258.65,150.87c-4.18-3.65-4.1-7.71-.03-11.07,0,3.66.02,7.07.03,11.07Z"/>
      <path d="M103.44,222.83c-2.61-2.74-4.99-5.23-7.44-7.8,4.75-1.02,8.22,2.49,7.44,7.8Z"/>
      <path d="M150.38,41.58c-.49,1.16-.69,2.68-1.55,3.41-1.33,1.13-2.92.64-3.81-.92-.82-1.45-.48-3.02,1.03-3.6,1.07-.41,2.48.07,3.75.15.19.32.39.64.58.95Z"/>
      <path d="M184.91,28.69c-1.03-.55-2.6-.89-2.93-1.72-.35-.88.13-2.63.88-3.29,1.24-1.09,2.89-.55,3.41,1.02.34,1-.19,2.29-.32,3.45-.35.18-.69.36-1.04.54Z"/>
      <path d="M212.59,22.96c.63-1.07,1.03-2.47,1.95-3.12,1.35-.95,2.76-.29,3.49,1.21.74,1.52.27,3.02-1.28,3.46-1.08.31-2.43-.29-3.65-.48-.17-.35-.34-.71-.51-1.06Z"/>
      <path d="M168.75,33.38c-.51,1.12-.75,2.56-1.59,3.29-1.25,1.08-2.95.66-3.47-.91-.32-.97.07-2.8.8-3.32.81-.58,2.37-.12,3.6-.11.22.35.44.7.66,1.04Z"/>
      <path d="M136.14,41.04c-1.81-.73-3.48-.92-3.75-1.64-.35-.93.41-2.27.69-3.44,1.1.3,2.64.26,3.18.98.51.69,0,2.15-.13,4.09Z"/>
      <path d="M205.56,15.82c-.83,1.77-1.1,3.42-1.83,3.65-.95.3-2.25-.52-3.4-.86.35-1.09.4-2.62,1.14-3.13.71-.48,2.15.12,4.09.33Z"/>
      <path d="M66.46,152.32c-.45-2.91-.87-5.6-1.31-8.38,3.86,1.11,4.53,5.11,1.31,8.38Z"/>
      <path d="M114.82,43.82c1.01.45,2.55.66,2.89,1.41.36.8-.12,2.46-.82,3.07-.48.41-2.43-.04-2.88-.69-.51-.74-.08-2.13-.05-3.23.29-.19.58-.37.87-.56Z"/>
      <path d="M155.33,27.88c-.91,1.67-1.2,2.96-1.94,3.33-.65.32-2.41-.2-2.6-.73-.28-.81.07-2.34.71-2.83.6-.45,1.93.06,3.82.23Z"/>
      <path d="M173.62,19.54c-.79,1.63-1.01,2.93-1.72,3.32-.62.34-1.8-.36-2.73-.6.26-.99.23-2.29.86-2.86.48-.44,1.8.03,3.59.15Z"/>
      <path d="M191.71,11.14c-.8,1.44-1.09,2.65-1.78,2.98-.58.28-2.26-.33-2.37-.8-.18-.8.24-2.1.87-2.6.47-.38,1.68.17,3.28.42Z"/>
      <path d="M123.29,31.55c-.64,1.46-.8,2.69-1.41,2.98-.64.3-1.71-.3-2.6-.51.21-.88.15-2.11.7-2.55.53-.42,1.71,0,3.3.08Z"/>
      <path d="M242.9,35.93c-3.61-1.18-4.32-2.62-3.13-6.18,1.11,2.19,1.99,3.92,3.13,6.18Z"/>
      <path d="M137.92,22.24c1.23.6,2.22.77,2.54,1.33.26.46-.27,1.38-.44,2.1-.77-.19-1.77-.17-2.24-.65-.34-.35.03-1.38.14-2.77Z"/>
      <path d="M158.87,17.91c-1.21-.46-2.23-.54-2.49-1.03-.27-.51.18-1.41.32-2.14.73.14,1.73.04,2.11.48.36.41.07,1.39.06,2.69Z"/>
      <path d="M177.58,6.34c-.46,1.03-.63,2.05-1.04,2.15-.61.15-1.39-.33-2.09-.54.23-.64.28-1.55.73-1.84.43-.28,1.28.09,2.4.24Z"/>
    </g>
  </g>
  <g class="cls-7">
    <g>
      <path d="M252.17,403.89c2.18,1.77,3.54,3.93,3.14,6.71,1.63-.68,3.2-1.81,4.83-1.89,1.55-.08,3.4.61,4.69,1.55,2.34,1.69,2.8,5.07,1.46,7.63-1.3,2.48-4.14,3.84-6.89,3.3-3.17-.62-4.94-3.04-5.17-6.87-2.15.8-4.37,1.62-6.26,2.33.64,1.79,1.45,4.05,2.27,6.33,2.39-2.13,5.45-3.09,8.77-.76,2.65,1.87,3.07,4.53,2.36,7.5-.06.35-.11.7-.17,1.04-2.08,1.31-4.15,2.62-6.17,3.89.52,1.37,1.26,3.33,2.02,5.37,2.17-2.06,4.81-2.39,7.67-1.38l.18.12c3.55,2.33,3.88,5.59,2.67,9.3,0,0,.05-.1.05-.1-.57.51-1.13,1.04-1.72,1.53-3.28,2.81-8.58,1.52-10.1-2.49-.37-.98-.46-2.05-.63-2.8-2.07.75-4.12,1.48-5.88,2.12.67,1.85,1.43,3.95,2.17,5.99,5.64-3.86,10.5-1.77,11.69,5.47,2.09-1.93,4.5-2.46,7.16-1.98.29.21.59.41.88.62,2.11.96,3.19,2.72,3.54,4.89.27,1.69.35,3.08-2.14,3.68-3.05.74-5.9,2.3-8.81,3.57-4.84,2.11-9.61,4.41-14.51,6.38-8.05,3.23-16.33,5.62-25.47,6.14.72-.4,1.1-.66,1.52-.82.51-.19,1.05-.29,1.71-.47-.4-1.25-.78-2.48-1.21-3.83-1.37.57-2.7,1.13-4.02,1.68.44,1.2.86,2.34,1.4,3.81-5.31.31-10.31.66-15.32.88-9.56.43-19.2,1.07-28.61-.96-6-1.29-11.87-3.37-17.61-5.6-3.82-1.48-7.44-3.62-10.91-5.84-4.98-3.18-7.31-7.87-6.79-13.86.04-.5-.06-1.02-.49-1.6-.48,1.71-.96,3.43-1.44,5.14-.2-.03-.39-.07-.59-.1,1.11-6.78,2.21-13.56,3.32-20.34.23,0,.47.02.7.02-.08,3.08-.16,6.17-.24,9.34,2.08-2.88,4.29-5.62,6.14-8.58,1.91-3.05,5.04-3.61,8.02-4.58.29-.09.58-.17,1.05-.31-1.11-1.76-.99-2.97,1.06-4.06,2.76-1.47,5.14-3.66,7.92-5.09,9.14-4.7,18.5-9,27.55-13.86,5.22-2.8,10-6.4,14.99-9.63.32-.2.68-.33,1.29-.63.36,1.24.68,2.31,1.02,3.49,1.5-.56,3.05-1.14,4.79-1.79-.79-1.66-1.62-3.39-2.55-5.33,2.57-2.02,3.28-7.13,9.13-6.35-3.44-2.89-1.21-5.16.07-7.42,1.23-2.17,1.52-5.62,5.84-4.45-3.47-2.56-1.65-5.21-.63-7.73,1.05-2.58,2.09-5.37,6.08-4.12-2.78-3.75-2.95-6.98-.73-9.85,1.44-1.86,4.92-2.44,7.34-1.22,2.45,1.24,3.86,4.2,3.28,6.89-.69,3.2-3.14,4.91-7.48,5.02,2.33,2.26,3.26,4.8,2.3,7.83-.13.39-.26.78-.39,1.17-1.86,2.21-4.11,3.53-6.74,3.09.8,2.21,1.61,4.46,2.44,6.75,1.71-1.98,4.24-2.53,7.1-1.83.41.15.83.3,1.24.44,3.83,3.89,4.18,8.11.67,10.82-1.26.98-3.01,1.33-4.25,1.85.65,1.99,1.34,4.11,2.05,6.3,2.05-2.34,4.77-2.62,7.74-1.68.19.08.37.16.56.23ZM250.22,432.26c-.61-1.87-1.3-3.99-1.88-5.76-1.85.73-3.94,1.57-5.76,2.29.64,1.82,1.39,3.95,2.14,6.1,1.7-.81,3.72-1.78,5.5-2.63ZM238.27,416.65c1.91-.61,4.03-1.28,5.74-1.82-.69-1.92-1.47-4.1-2.16-6.01-1.61.68-3.67,1.54-5.51,2.32.62,1.78,1.33,3.78,1.93,5.51ZM236.86,397.01c-.6-1.98-1.22-4.06-1.73-5.72-1.93.77-3.92,1.57-5.6,2.24.64,1.95,1.32,4.01,1.99,6.03,1.68-.8,3.64-1.74,5.34-2.55ZM242.95,438.37c-1.61.77-3.45,1.65-5.12,2.45.63,1.87,1.22,3.64,1.73,5.16,1.9-.58,3.79-1.16,5.37-1.65-.64-1.92-1.35-4.06-1.98-5.96ZM236.11,421.27c-1.69.68-3.45,1.38-5.11,2.05.56,1.65,1.18,3.49,1.71,5.08,1.91-.58,3.83-1.15,5.45-1.64-.67-1.8-1.39-3.7-2.05-5.48ZM250.89,461.41c-.49-1.78-.99-3.61-1.41-5.15-1.83.73-3.78,1.51-5.52,2.21.64,1.71,1.32,3.53,1.98,5.3,1.63-.78,3.29-1.57,4.95-2.37ZM229.72,403.28c-1.64.79-3.47,1.66-5.15,2.46.69,1.64,1.37,3.26,1.99,4.73,1.72-.54,3.42-1.08,4.94-1.55-.62-1.97-1.22-3.86-1.77-5.64ZM233.89,457.86c1.78-.58,3.52-1.15,5.18-1.7-.61-1.67-1.27-3.45-1.87-5.07-1.62.67-3.29,1.36-4.87,2.01.54,1.64,1.07,3.25,1.57,4.76ZM215.35,435.2c1.54-.74,3.09-1.48,4.55-2.18-.61-1.46-1.2-2.88-1.8-4.29-1.45.52-2.95,1.07-4.44,1.6.54,1.56,1.09,3.15,1.69,4.86ZM232.02,438.41c-.61-1.73-1.18-3.36-1.74-4.98-1.47.71-2.92,1.4-4.4,2.1.59,1.4,1.23,2.92,1.84,4.37,1.48-.52,2.87-1,4.29-1.49ZM214.83,459.96c.57,1.51,1.14,3.04,1.68,4.46,1.68-.58,3.24-1.13,4.8-1.67-.71-1.49-1.4-2.93-2.1-4.38-1.39.5-2.88,1.04-4.38,1.59ZM211.83,410.73c-1.59.61-3.08,1.18-4.48,1.71.59,1.57,1.18,3.11,1.74,4.6,1.47-.52,2.91-1.02,4.32-1.52-.53-1.59-1.06-3.19-1.59-4.79ZM214.58,445.05c-.54-1.49-1.08-3-1.69-4.69-1.45.7-2.93,1.4-4.36,2.08.52,1.46,1.04,2.88,1.54,4.28,1.47-.55,2.91-1.08,4.51-1.68ZM202.77,454.32c.54,1.48,1.09,2.98,1.64,4.46,1.5-.55,3-1.1,4.48-1.65-.55-1.5-1.1-3-1.65-4.49-1.45.54-2.89,1.08-4.48,1.68ZM174.79,459.94c1.52-.56,3.02-1.12,4.51-1.67-.52-1.45-1.06-2.95-1.61-4.46-1.48.54-3.02,1.11-4.53,1.66.54,1.49,1.07,2.92,1.63,4.46ZM162.72,454.32c1.58-.58,3.06-1.13,4.54-1.67-.56-1.5-1.11-3-1.67-4.49-1.45.53-2.96,1.08-4.48,1.63.51,1.42,1.05,2.94,1.62,4.53ZM196.83,451.49c-.54-1.48-1.09-2.99-1.65-4.51-1.48.54-3.04,1.11-4.74,1.73.72,1.5,1.4,2.92,2.06,4.31,1.46-.52,2.89-1.03,4.33-1.54ZM183.14,441.64l-4.18,2c.54,1.5,1.04,2.91,1.53,4.26,1.58-.58,3.07-1.13,4.57-1.68-.63-1.5-1.25-2.97-1.93-4.58ZM225.85,420.81c-.65-1.37-1.34-2.8-2.02-4.22-1.5.54-3.01,1.09-4.58,1.66.55,1.35,1.11,2.75,1.64,4.05,1.69-.51,3.29-.99,4.96-1.49ZM231.48,463.29c-1.66.65-3.27,1.28-4.97,1.95.68,1.43,1.36,2.84,1.97,4.12,1.52-.62,2.91-1.18,4.25-1.73-.43-1.48-.83-2.87-1.25-4.35ZM203.29,429.2c1.48-.54,2.97-1.08,4.48-1.63-.55-1.46-1.11-2.94-1.64-4.32-1.55.57-3.02,1.12-4.42,1.64.52,1.44,1.02,2.8,1.57,4.31ZM201.64,464.71c-1.5.55-3.05,1.11-4.57,1.66.6,1.55,1.16,3.03,1.7,4.44,1.46-.7,2.84-1.36,4.23-2.02-.44-1.32-.9-2.7-1.36-4.08ZM222.1,451.91c1.5-.52,2.94-1.02,4.46-1.54-.53-1.38-1.06-2.78-1.58-4.17-1.56.58-3.05,1.12-4.54,1.67.57,1.38,1.11,2.71,1.66,4.03ZM200.44,434.98c-1.31.63-2.66,1.27-3.94,1.88.5,1.45.97,2.82,1.46,4.24,1.31-.53,2.65-1.07,4.01-1.63-.49-1.43-.99-2.88-1.54-4.5ZM189.59,459.56c-1.45.5-2.9,1-4.4,1.51.54,1.3,1.1,2.63,1.67,3.99,1.46-.5,2.89-.99,4.38-1.49-.54-1.33-1.09-2.67-1.64-4.02ZM168.43,442.27c1.37-.57,2.69-1.11,3.95-1.64-.54-1.53-1.04-2.95-1.55-4.39-1.33.53-2.66,1.06-3.99,1.59.51,1.44,1.03,2.88,1.58,4.44ZM261.33,461.73c-1.56.74-3.13,1.5-4.72,2.26.51,1.07,1.07,2.23,1.64,3.43,1.47-.49,2.83-.95,4.16-1.4-.37-1.45-.71-2.79-1.08-4.29ZM190.02,433.8l-1.64-3.43c-1.47.48-2.83.93-4.21,1.39.53,1.35,1.02,2.6,1.52,3.85,1.47-.61,2.87-1.2,4.34-1.81ZM159.96,460.15c-1.35.54-2.69,1.07-4.07,1.63l1.8,3.76c1.29-.4,2.5-.77,3.72-1.15-.48-1.42-.93-2.73-1.44-4.24ZM167.93,467.43c.48,1.22,1,2.54,1.57,3.97,1.26-.6,2.43-1.16,3.68-1.76-.39-1.27-.78-2.55-1.17-3.82-1.39.55-2.68,1.06-4.08,1.61ZM240.88,474.08c1.37-.49,2.71-.97,3.98-1.42-.38-1.51-.72-2.88-1.05-4.19-1.46.7-2.9,1.39-4.39,2.1.47,1.13.97,2.31,1.47,3.51ZM215.19,474.64c-.56-1.56-1.05-2.96-1.55-4.36l-3.62,1.73c.48,1.43.91,2.74,1.36,4.11,1.28-.5,2.49-.97,3.8-1.48ZM196.21,476.56c-1.37.66-2.6,1.24-3.79,1.81l1.66,3.46c1.19-.44,2.25-.83,3.31-1.22-.41-1.41-.77-2.67-1.18-4.06ZM151.37,448.25c1.43-.44,2.65-.82,3.89-1.21-.6-1.43-1.16-2.76-1.71-4.08-1.2.58-2.31,1.11-3.46,1.66.43,1.21.83,2.36,1.28,3.63ZM176.38,425.48c-1.37.49-2.59.93-3.83,1.37.36,1.24.69,2.4,1.03,3.58,1.45-.57,2.85-1.13,4.35-1.72-.51-1.06-1-2.08-1.54-3.22ZM180.64,473.1c.51,1.23,1,2.39,1.51,3.61,1.24-.48,2.28-.87,3.33-1.28-.55-1.39-1.04-2.63-1.55-3.91-1.12.54-2.15,1.03-3.29,1.57ZM194.03,418.57c-1.28.49-2.42.92-3.63,1.38.36,1.15.7,2.23,1.07,3.38,1.4-.5,2.74-.99,4.13-1.49-.52-1.1-1.01-2.12-1.57-3.28ZM144.89,457.02c.4,1.03.77,1.98,1.15,2.97,1.32-.37,2.4-.67,3.57-1-.54-1.12-1.03-2.15-1.55-3.24-1.03.41-2.01.81-3.17,1.27Z"/>
      <path d="M245.41,386.36c-.41-.15-.83-.3-1.24-.44-2.38-2.16-3.57-4.75-2.8-8.01.13-.39.26-.78.39-1.17,2.56-3,5.68-3.82,9.38-2.39l-.11-.04c2.08,1.92,3.57,4.1,2.9,7.46.8-.65,1.26-1.06,1.75-1.41,2.45-1.75,5.35-1.76,7.62-.05,2.22,1.68,3.09,4.76,2.06,7.36-1.03,2.6-3.62,4.16-6.54,3.96-.53-.04-1.06-.03-1.59-.05,0,0,.11.05.11.05-2.74-1.78-4.62-4.06-4.05-8.21-2.32,3.05-4.95,3.47-7.87,2.94Z"/>
      <path d="M252.17,403.89c-.19-.08-.37-.16-.56-.23-.58-.51-1.19-.99-1.73-1.55-2.98-3.1-2.3-8.34,1.61-10.05,1.69-.74,3.88-.32,5.85-.43,0,0-.11-.05-.11-.05,2.5,1.83,4.11,4.12,3.68,7.62,2.1-2.5,4.77-2.81,7.61-2.58l-.11-.04c.43.32.84.65,1.28.95,2.64,1.82,3.63,4.95,2.46,7.77-1.13,2.72-4.14,4.33-7.02,3.77-2.99-.58-5.05-3.14-5.11-6.35,0-.44.02-.87.04-1.81-2.17,3.03-4.9,3.36-7.87,2.98Z"/>
      <path d="M261.21,430.76c.06-.35.11-.7.17-1.04,1.91-2.65,4.44-3.98,7.75-3.66.4.13.8.26,1.2.39,1.01,1.16,2.35,2.17,2.97,3.51,1.98,4.25-1.35,9-6.06,8.87-.77-.02-1.54-.06-2.31-.09l-.18-.12c-2.54-2.01-4.19-4.42-3.53-7.87Z"/>
      <path d="M251.13,374.35c-.41-.33-.8-.68-1.23-.98-2.7-1.89-3.65-5.13-2.33-7.98,1.24-2.67,4.28-4.16,7.15-3.49,3.05.71,5.05,3.48,4.87,6.75-.03.52,0,1.04,0,1.56l.04-.11c-1.93,3.32-4.79,4.75-8.61,4.22,0,0,.11.04.11.04Z"/>
      <path d="M270.32,426.44c-.4-.13-.8-.26-1.2-.39-.56-.73-1.2-1.42-1.68-2.21-1.57-2.58-1.18-5.7.9-7.71,2.08-2.02,5.32-2.34,7.76-.77,2.42,1.55,3.46,4.67,2.47,7.39-.99,2.71-3.72,4.37-6.65,4.03-.54-.06-1.06-.22-1.59-.33Z"/>
      <path d="M252.06,347.79c1.53,3.15.31,6.76-2.82,8.31-3.22,1.6-6.92.3-8.44-2.95-1.47-3.16-.18-6.76,2.98-8.26,3.15-1.5,6.76-.24,8.28,2.9Z"/>
      <path d="M246.56,341.17c-1.55-3.18-.29-6.78,2.89-8.3,3.18-1.52,6.77-.23,8.27,2.97,1.45,3.1.23,6.62-2.84,8.14-3.17,1.57-6.78.35-8.33-2.81Z"/>
      <path d="M273.99,440.82c-1.53-3.17-.27-6.76,2.9-8.27,3.17-1.51,6.75-.21,8.24,2.98,1.44,3.09.21,6.61-2.85,8.11-3.16,1.56-6.77.33-8.3-2.82Z"/>
      <path d="M260.97,361.31c-3.17,1.52-6.78.2-8.26-3-1.43-3.1-.15-6.62,2.95-8.1,3.17-1.52,6.78-.21,8.26,3,1.43,3.1.15,6.62-2.95,8.1Z"/>
      <path d="M259.58,370.21c.79-.73,1.5-1.6,2.4-2.16,2.61-1.62,5.89-1.08,7.84,1.18,1.88,2.17,1.99,5.48.26,7.78-1.74,2.31-4.91,3.09-7.54,1.86-2.63-1.23-4.02-4.08-3.39-6.98.13-.6.32-1.19.48-1.79,0,0-.04.11-.04.11Z"/>
      <path d="M287.35,431.79c-3.05,1.42-6.68.1-8.1-2.96-1.42-3.05-.1-6.68,2.96-8.1,3.05-1.42,6.68-.1,8.1,2.96,1.42,3.05.1,6.68-2.96,8.1Z"/>
      <path d="M266.66,349.16c-3.01,1.47-6.67.22-8.14-2.79-1.47-3.01-.22-6.67,2.79-8.14,3.01-1.47,6.67-.22,8.14,2.79,1.47,3.01.22,6.67-2.79,8.14Z"/>
      <path d="M268.5,396.62c-.37-.38-.74-.77-1.12-1.15-2.28-2.24-2.6-5.56-.78-8.06,1.77-2.42,5.06-3.22,7.71-1.86,2.75,1.4,4.03,4.65,2.99,7.54-1.05,2.9-4.03,4.52-7.12,3.88-.6-.12-1.19-.26-1.79-.4,0,0,.11.04.11.04Z"/>
      <path d="M280.9,414.06c-3.05,1.39-6.72,0-8.08-3.06-1.36-3.06.07-6.72,3.14-8.05,2.99-1.29,6.54.05,7.92,3,1.42,3.04.06,6.72-2.98,8.1Z"/>
      <path d="M297.07,441.2c1.42,3,.03,6.76-2.98,8.11-2.96,1.32-6.57-.01-7.95-2.93-1.42-3-.03-6.76,2.98-8.11,2.96-1.32,6.57.01,7.95,2.93Z"/>
      <path d="M278.56,398.98c-1.33-2.93.01-6.6,2.92-7.96,2.99-1.4,6.81.04,8.09,3.05,1.27,2.98-.15,6.62-3.07,7.91-2.95,1.3-6.61-.08-7.94-2.99Z"/>
      <path d="M271.83,381.62c-1.43-2.85-.2-6.55,2.66-8.03,2.9-1.5,6.76-.18,8.16,2.79,1.36,2.9.07,6.57-2.81,7.97-2.87,1.4-6.57.13-8-2.74Z"/>
      <path d="M273.34,366.71c-3.01,1.38-6.77-.05-8.07-3.07-1.28-2.97.1-6.58,3.01-7.91,3.01-1.38,6.77.05,8.07,3.07,1.28,2.97-.1,6.58-3.01,7.91Z"/>
      <path d="M259.81,331.56c-2.86,1.42-6.59.17-8.04-2.71-1.34-2.67.31-6.94,3.21-8.28,2.56-1.19,6.25.25,7.57,2.97,1.41,2.88.14,6.59-2.75,8.02Z"/>
      <path d="M293.07,419.53c-2.88,1.43-6.59.16-7.99-2.75-1.4-2.9-.09-6.6,2.83-7.96,2.85-1.33,6.39-.11,7.84,2.69,1.47,2.85.22,6.58-2.67,8.02Z"/>
      <path d="M288.26,364.34c1.37,2.93.02,6.62-2.91,7.95-2.95,1.34-6.63-.05-7.92-2.98-1.27-2.89.02-6.42,2.85-7.79,2.9-1.4,6.61-.09,7.97,2.83Z"/>
      <path d="M278.53,354.74c-2.95,1.35-6.59-.02-7.89-2.95-1.31-2.97.08-6.6,3.03-7.86,2.91-1.25,6.4.06,7.73,2.9,1.38,2.93.05,6.58-2.88,7.92Z"/>
      <path d="M272.29,336.95c-2.87,1.44-6.58.17-8-2.73-1.41-2.9-.1-6.6,2.81-7.97,2.84-1.34,6.39-.12,7.84,2.68,1.47,2.85.24,6.57-2.66,8.02Z"/>
      <path d="M291.79,433.95c-1.47-2.9-.22-6.57,2.73-7.97,2.86-1.37,6.38-.16,7.82,2.67,1.47,2.9.21,6.57-2.73,7.97-2.86,1.37-6.38.16-7.82-2.67Z"/>
      <path d="M291.81,389.89c-2.96,1.42-6.51.13-7.87-2.85-1.32-2.91-.08-6.33,2.79-7.71,2.96-1.42,6.51-.13,7.87,2.85,1.32,2.91.08,6.33-2.79,7.71Z"/>
      <path d="M298.44,406.91c-2.93,1.43-6.32.27-7.75-2.66-1.43-2.94-.28-6.32,2.66-7.75,2.94-1.43,6.32-.28,7.75,2.66,1.43,2.93.28,6.31-2.66,7.75Z"/>
      <path d="M307.51,416.91c1.42,2.94.25,6.31-2.69,7.73-2.94,1.42-6.31.25-7.73-2.69-1.42-2.94-.25-6.31,2.69-7.73,2.94-1.42,6.31-.25,7.73,2.69Z"/>
      <path d="M277.35,325c-2.95,1.39-6.31.18-7.71-2.77-1.39-2.95-.18-6.31,2.77-7.71,2.95-1.39,6.31-.18,7.71,2.77,1.39,2.95.18,6.31-2.77,7.71Z"/>
      <path d="M314.41,434.82c1.22,2.9-.09,6.08-3.03,7.37-2.97,1.31-6.24-.04-7.53-3.09-1.25-2.98.16-6.23,3.25-7.46,2.9-1.16,6.06.21,7.31,3.18Z"/>
      <path d="M297,377.3c-2.85,1.27-6.12,0-7.43-2.86-1.33-2.93,0-6.28,3-7.55,2.86-1.21,6.11.12,7.37,3.02,1.24,2.86-.06,6.12-2.94,7.4Z"/>
      <path d="M284.15,342.45c-2.95,1.4-6.25.2-7.63-2.77-1.37-2.95-.14-6.24,2.85-7.6,2.87-1.31,6.09-.14,7.47,2.71,1.43,2.94.26,6.25-2.69,7.65Z"/>
      <path d="M303.48,395c-2.86,1.31-6.13.1-7.47-2.76-1.38-2.94-.1-6.29,2.9-7.6,2.87-1.26,6.12.02,7.42,2.92,1.28,2.86.04,6.13-2.84,7.45Z"/>
      <path d="M290.59,360.13c-2.94,1.42-6.27.23-7.64-2.74-1.33-2.87-.17-6.11,2.68-7.49,2.94-1.42,6.27-.23,7.64,2.74,1.33,2.87.17,6.11-2.68,7.49Z"/>
      <path d="M285.64,305.31c1.32,2.81.1,6.17-2.7,7.49-2.81,1.32-6.17.1-7.49-2.7-1.32-2.81-.1-6.17,2.7-7.49,2.81-1.32,6.17-.1,7.49,2.7Z"/>
      <path d="M323.58,447.67c-2.77,1.31-6.25.02-7.49-2.77-1.21-2.72.03-6.06,2.71-7.33,2.77-1.31,6.25-.02,7.49,2.77,1.21,2.72-.03,6.06-2.71,7.33Z"/>
      <path d="M316.75,430.16c-2.78,1.31-6.25.02-7.5-2.78-1.21-2.73.03-6.07,2.72-7.34,2.78-1.31,6.25-.02,7.5,2.78,1.21,2.73-.03,6.07-2.72,7.34Z"/>
      <path d="M302.91,365.06c-2.74,1.38-6.24.18-7.56-2.6-1.28-2.69-.12-6.06,2.54-7.4,2.74-1.38,6.24-.18,7.56,2.6,1.28,2.69.12,6.06-2.54,7.4Z"/>
      <path d="M289.67,329.83c-2.78,1.38-6.2.21-7.56-2.58-1.35-2.79-.15-6.21,2.65-7.53,2.72-1.28,6.04-.15,7.4,2.52,1.41,2.76.28,6.2-2.5,7.59Z"/>
      <path d="M295.98,347.58c-2.78,1.32-6.25.05-7.51-2.75-1.22-2.73,0-6.07,2.69-7.35,2.78-1.32,6.25-.05,7.51,2.75,1.22,2.73,0,6.07-2.69,7.35Z"/>
      <path d="M310.38,412.43c-2.78,1.32-6.21.09-7.5-2.7-1.29-2.79-.02-6.21,2.77-7.47,2.72-1.23,6.03-.04,7.35,2.64,1.35,2.76.16,6.2-2.62,7.53Z"/>
      <path d="M297.39,310.46c1.33,2.65.2,6.07-2.45,7.44-2.7,1.4-6.26.19-7.57-2.58-1.27-2.69-.07-6.08,2.6-7.39,2.66-1.3,6.08-.14,7.41,2.52Z"/>
      <path d="M309.16,382.77c-2.69,1.27-6.09.06-7.35-2.62-1.27-2.69-.06-6.09,2.62-7.35,2.69-1.27,6.08-.06,7.35,2.62,1.27,2.69.06,6.09-2.62,7.35Z"/>
      <path d="M315.83,400.34c-2.76,1.18-6.13-.15-7.26-2.88-1.15-2.79.22-6.13,2.96-7.23,2.72-1.09,5.94.19,7.11,2.81,1.21,2.73-.09,6.13-2.8,7.3Z"/>
      <path d="M294.22,332.66c-1.19-2.76.14-6.1,2.87-7.23,2.78-1.15,6.1.2,7.19,2.94,1.09,2.72-.17,5.9-2.8,7.08-2.73,1.22-6.1-.07-7.26-2.79Z"/>
      <path d="M322.3,418.02c-2.72,1.23-6.11-.06-7.29-2.77-1.2-2.75.12-6.12,2.85-7.26,2.69-1.13,5.91.09,7.13,2.71,1.26,2.7.01,6.1-2.69,7.32Z"/>
      <path d="M310.55,345.89c1.28,2.73.03,6.06-2.72,7.26-2.69,1.18-5.87-.01-7.11-2.66-1.28-2.73-.03-6.06,2.72-7.26,2.69-1.18,5.87.01,7.11,2.66Z"/>
      <path d="M321.92,432.72c-1.18-2.72.03-5.86,2.72-7.08,2.79-1.25,6.04.04,7.19,2.86,1.13,2.75-.14,5.86-2.87,7.01-2.73,1.15-5.87-.09-7.05-2.79Z"/>
      <path d="M321.22,388.27c-2.67,1.3-5.82.24-7.15-2.42-1.37-2.74-.23-6,2.55-7.28,2.7-1.24,5.82-.11,7.09,2.57,1.27,2.69.18,5.82-2.5,7.12Z"/>
      <path d="M314.67,370.59c-2.73,1.24-5.84.07-7.08-2.66-1.24-2.73-.07-5.84,2.66-7.08,2.73-1.24,5.84-.07,7.08,2.66,1.24,2.73.07,5.84-2.66,7.08Z"/>
      <path d="M328.01,405.71c-2.72,1.32-5.79.24-7.09-2.48-1.29-2.72-.18-5.79,2.56-7.06,2.64-1.23,5.63-.18,6.93,2.43,1.35,2.71.3,5.8-2.41,7.11Z"/>
      <path d="M306.63,323.37c-2.73,1.25-5.76.07-6.98-2.71-1.16-2.65,0-5.6,2.66-6.82,2.73-1.25,5.76-.07,6.98,2.71,1.16,2.65,0,5.6-2.66,6.82Z"/>
      <path d="M336.65,416.06c1.27,2.73.12,5.78-2.66,7.02-2.66,1.18-5.62.06-6.86-2.6-1.27-2.73-.12-5.78,2.66-7.02,2.66-1.18,5.62-.06,6.86,2.6Z"/>
      <path d="M319.96,358.52c-2.62,1.27-5.66.21-6.93-2.41-1.27-2.62-.21-5.66,2.41-6.93,2.62-1.27,5.66-.21,6.93,2.41,1.27,2.62.21,5.66-2.41,6.93Z"/>
      <path d="M293.34,303.15c-1.31-2.73-.2-5.79,2.57-7.06,2.66-1.22,5.63-.14,6.9,2.51,1.31,2.73.2,5.79-2.57,7.06-2.66,1.22-5.63.14-6.9-2.51Z"/>
      <path d="M309.36,331.28c2.68-1.11,5.61.13,6.77,2.85,1.17,2.75-.14,5.77-2.99,6.89-2.68,1.05-5.59-.25-6.71-3.01-1.08-2.67.19-5.6,2.93-6.74Z"/>
      <path d="M334.04,438.14c-1.34-2.71-.28-5.78,2.44-7.07,2.64-1.25,5.62-.22,6.91,2.39,1.34,2.71.28,5.78-2.44,7.07-2.64,1.25-5.62.22-6.91-2.39Z"/>
      <path d="M312.29,311.21c-2.59,1.2-5.69.04-6.86-2.57-1.17-2.6.03-5.69,2.65-6.83,2.53-1.1,5.52.02,6.71,2.51,1.23,2.58.1,5.69-2.49,6.89Z"/>
      <path d="M326.69,376.06c-2.6,1.2-5.69.04-6.87-2.57-1.17-2.61.02-5.69,2.65-6.84,2.54-1.11,5.52.01,6.71,2.52,1.23,2.59.11,5.69-2.49,6.89Z"/>
      <path d="M326.07,390.87c-1.22-2.59-.04-5.74,2.57-6.89,2.54-1.12,5.56,0,6.74,2.52,1.22,2.59.04,5.74-2.57,6.89-2.54,1.12-5.56,0-6.74-2.52Z"/>
      <path d="M348.51,421.66c1.22,2.43.15,5.6-2.29,6.83-2.43,1.22-5.6.15-6.83-2.29-1.22-2.43-.15-5.6,2.29-6.83,2.43-1.22,5.6-.15,6.83,2.29Z"/>
      <path d="M335.51,401.5c2.61-1.12,5.74.15,6.8,2.77,1.03,2.55-.2,5.56-2.7,6.65-2.61,1.12-5.74-.15-6.8-2.77-1.03-2.55.2-5.56,2.7-6.65Z"/>
      <path d="M319.17,328.67c-2.47,1.18-5.58.11-6.79-2.35-1.25-2.52-.08-5.77,2.48-6.92,2.5-1.12,5.59.03,6.74,2.5,1.15,2.49.04,5.58-2.43,6.76Z"/>
      <path d="M257.41,316.9c2.71-2.78,5.36-5.48,7.97-8.15,2.63,1.34,3.79,3.38,3.51,6.02-.27,2.53-2.14,4.69-4.6,5.3-2.63.65-4.95-.37-6.89-3.17Z"/>
      <path d="M318.6,343.61c-1.2-2.42-.12-5.6,2.32-6.8,2.42-1.2,5.6-.12,6.8,2.32,1.2,2.42.12,5.6-2.32,6.8-2.42,1.2-5.6.12-6.8-2.32Z"/>
      <path d="M320.3,292.23c1.22,2.42.14,5.58-2.31,6.77-2.44,1.19-5.59.07-6.74-2.39-1.11-2.38-.09-5.39,2.25-6.61,2.39-1.25,5.57-.2,6.8,2.23Z"/>
      <path d="M352.96,445.99c-2.45,1.18-5.59.05-6.73-2.41-1.14-2.47.02-5.61,2.49-6.71,2.41-1.07,5.41,0,6.58,2.36,1.21,2.43.12,5.58-2.33,6.76Z"/>
      <path d="M317.48,313.91c-1.17-2.48,0-5.61,2.49-6.71,2.43-1.07,5.42.04,6.55,2.43,1.17,2.48,0,5.61-2.49,6.71-2.43,1.07-5.42-.04-6.55-2.43Z"/>
      <path d="M325.46,361.11c-1.2-2.43-.09-5.6,2.36-6.76,2.45-1.17,5.61-.02,6.74,2.44,1.1,2.39.04,5.41-2.31,6.61-2.41,1.23-5.59.16-6.79-2.28Z"/>
      <path d="M338.57,381.15c-2.45,1.18-5.59.05-6.73-2.41-1.14-2.47.02-5.61,2.49-6.71,2.41-1.07,5.41,0,6.58,2.36,1.21,2.43.12,5.58-2.33,6.76Z"/>
      <path d="M345.34,398.59c-2.42,1.16-5.36.14-6.55-2.27-1.23-2.49-.13-5.54,2.4-6.68,2.45-1.1,5.37-.01,6.49,2.42,1.13,2.44.08,5.36-2.34,6.52Z"/>
      <path d="M330.99,333.77c-2.4,1.17-5.41.15-6.61-2.24-1.24-2.46-.13-5.6,2.38-6.74,2.44-1.11,5.42-.01,6.56,2.4,1.14,2.42.08,5.41-2.32,6.58Z"/>
      <path d="M329.8,303.96c-2.41,1.2-5.15.32-6.36-2.06-1.27-2.49-.33-5.3,2.19-6.49,2.43-1.15,5.13-.2,6.31,2.21,1.18,2.42.26,5.14-2.13,6.33Z"/>
      <path d="M346.37,362.5c1.19,2.5.17,5.27-2.37,6.42-2.44,1.1-5.11.11-6.27-2.31-1.19-2.51-.17-5.27,2.37-6.42,2.44-1.1,5.11-.11,6.27,2.31Z"/>
      <path d="M358.52,433.78c-2.49,1.18-5.33.15-6.49-2.36-1.15-2.5-.08-5.33,2.44-6.46,2.43-1.09,5.16-.09,6.33,2.31,1.21,2.48.21,5.33-2.29,6.51Z"/>
      <path d="M350.98,401.83c-1.15-2.43-.2-5.13,2.22-6.3,2.51-1.22,5.29-.2,6.43,2.35,1.09,2.44.07,5.12-2.37,6.25-2.44,1.12-5.12.14-6.28-2.29Z"/>
      <path d="M351.66,416.25c-2.5,1.17-5.3.13-6.45-2.39-1.14-2.5-.06-5.3,2.47-6.42,2.43-1.08,5.13-.07,6.29,2.33,1.2,2.49.2,5.3-2.31,6.47Z"/>
      <path d="M344.17,384.35c-1.17-2.42-.25-5.13,2.16-6.32,2.5-1.24,5.29-.24,6.45,2.29,1.12,2.43.12,5.12-2.31,6.27-2.43,1.14-5.13.18-6.3-2.24Z"/>
      <path d="M330.87,349.11c-1.19-2.49-.18-5.3,2.33-6.46,2.5-1.16,5.3-.11,6.44,2.41,1.09,2.42.11,5.14-2.28,6.31-2.48,1.22-5.3.24-6.49-2.26Z"/>
      <path d="M299.97,286.88c2.47-.92,4.09-1.64,5.79-2.08.55-.14,1.47.27,1.92.73,1.51,1.55,1.61,4.16.4,6.05-1.21,1.9-3.49,2.79-5.67,2.21-2.18-.58-3.94-2.56-3.73-4.72.09-.97,1.08-1.86,1.3-2.2Z"/>
      <path d="M370.28,438.88c-2.37,1.1-5.23.02-6.27-2.38-1.01-2.32.03-5.05,2.32-6.11,2.37-1.1,5.23-.02,6.27,2.38,1.01,2.32-.03,5.05-2.32,6.11Z"/>
      <path d="M336.18,321.64c-2.38,1.19-5.18.25-6.35-2.14-1.17-2.39-.19-5.18,2.22-6.32,2.32-1.1,5.02-.19,6.19,2.09,1.22,2.37.31,5.19-2.06,6.38Z"/>
      <path d="M363.8,421.74c-2.38,1.19-5.18.25-6.35-2.14-1.17-2.39-.19-5.18,2.22-6.32,2.32-1.1,5.02-.19,6.19,2.09,1.22,2.37.31,5.19-2.06,6.38Z"/>
      <path d="M345.08,332.91c1.11,2.25.16,5.08-2.09,6.22-2.32,1.18-5.27.15-6.35-2.22-1.05-2.29-.03-5.09,2.24-6.17,2.27-1.08,5.09-.1,6.19,2.16Z"/>
      <path d="M351.57,350.84c.98,2.3-.11,5.09-2.38,6.1-2.37,1.05-5.28-.13-6.22-2.52-.92-2.33.24-5.1,2.53-6.04,2.31-.95,5.1.18,6.07,2.46Z"/>
      <path d="M358.39,368.37c.97,2.28-.13,5.09-2.38,6.09-2.35,1.04-5.28-.15-6.21-2.51-.91-2.32.26-5.1,2.52-6.02,2.3-.94,5.1.2,6.06,2.45Z"/>
      <path d="M348.43,327.05c-2.27,1.02-5.14-.1-6.08-2.37-.92-2.22.14-4.95,2.31-5.92,2.27-1.02,5.14.1,6.08,2.37.92,2.22-.14,4.95-2.31,5.92Z"/>
      <path d="M364.62,385.86c1.12,2.18.15,5.11-2.07,6.21-2.21,1.09-5.12.08-6.18-2.14-1.02-2.14-.1-4.92,2.01-6.05,2.16-1.15,5.1-.21,6.23,1.99Z"/>
      <path d="M363.01,406.92c-1.02-2.27.09-5.12,2.36-6.06,2.22-.92,4.93.13,5.9,2.3,1.02,2.27-.09,5.12-2.36,6.06-2.23.92-4.93-.13-5.9-2.3Z"/>
      <path d="M377.63,420.79c1.08,2.22.04,5.1-2.21,6.11-2.19.98-4.91,0-5.96-2.15-1.08-2.22-.05-5.1,2.21-6.11,2.19-.98,4.91,0,5.96,2.15Z"/>
      <path d="M341.61,309.52c-2.27,1.02-5.14-.1-6.08-2.37-.92-2.22.14-4.95,2.31-5.93,2.27-1.02,5.14.1,6.08,2.37.92,2.22-.14,4.95-2.31,5.93Z"/>
      <path d="M329.21,289.72c-1.12-2.19-.14-5.12,2.09-6.21,2.21-1.09,5.13-.07,6.18,2.16,1.02,2.15.08,4.93-2.03,6.05-2.17,1.15-5.11.2-6.24-2.01Z"/>
      <path d="M354.92,344.61c-2.22,1.1-4.85.21-5.95-2.02-1.1-2.22-.21-4.85,2.02-5.95,2.22-1.1,4.85-.21,5.95,2.02,1.1,2.22.21,4.85-2.02,5.95Z"/>
      <path d="M290.12,291.57c2.13,3.04,1.74,6.17-.75,8.12-2.31,1.8-5.86,1.35-7.73-.99-.67-.84-1.23-1.72.12-2.47,2.75-1.54,5.5-3.06,8.36-4.65Z"/>
      <path d="M355.88,360.14c-1.14-2.24-.29-4.81,1.96-5.92,2.26-1.11,4.81-.23,5.89,2.04,1.04,2.19.23,4.65-1.9,5.76-2.23,1.17-4.81.35-5.94-1.88Z"/>
      <path d="M347.91,312.9c-1.06-2.2-.22-4.64,1.96-5.72,2.27-1.12,4.8-.21,5.85,2.1,1,2.21.09,4.64-2.12,5.67-2.21,1.03-4.64.16-5.7-2.04Z"/>
      <path d="M382.15,444.27c-2.29,1.04-4.81.04-5.8-2.3-.94-2.23.01-4.64,2.24-5.65,2.29-1.04,4.81-.04,5.8,2.3.94,2.23-.01,4.64-2.24,5.65Z"/>
      <path d="M374.58,396.9c-2.21,1.01-4.64.11-5.68-2.09-1.08-2.29-.11-4.8,2.23-5.8,2.22-.95,4.63.01,5.62,2.25.98,2.21.05,4.63-2.17,5.65Z"/>
      <path d="M369.88,373.57c1.09,2.27.18,4.79-2.13,5.84-2.2,1-4.63.12-5.68-2.07-1.09-2.27-.17-4.79,2.13-5.84,2.2-1,4.63-.12,5.68,2.07Z"/>
      <path d="M341.4,295.17c-1.06-2.28-.12-4.83,2.18-5.86,2.28-1.03,4.83-.05,5.84,2.26.97,2.21.06,4.66-2.12,5.71-2.26,1.09-4.83.18-5.89-2.1Z"/>
      <path d="M354.53,329.91c-1-2.18-.08-4.64,2.11-5.65,2.18-1,4.64-.08,5.65,2.11,1,2.18.08,4.64-2.11,5.65-2.18,1-4.64.08-5.65-2.11Z"/>
      <path d="M352.42,285.39c-2.22,1.02-4.66.12-5.71-2.1-.98-2.07-.19-4.7,1.64-5.46,2.28-.95,5.41,0,6.25,1.88.99,2.22.05,4.66-2.18,5.68Z"/>
      <path d="M389.84,426.42c1.01,2.13.05,4.72-2.1,5.67-2.07.92-4.55,0-5.52-2.05-1.01-2.13-.05-4.72,2.1-5.67,2.07-.92,4.55,0,5.52,2.05Z"/>
      <path d="M381,414.55c-2.16,1.01-4.67.07-5.66-2.11-.98-2.17,0-4.67,2.19-5.63,2.1-.92,4.51-.02,5.5,2.06,1.04,2.16.14,4.67-2.03,5.69Z"/>
      <path d="M367.37,314.39c1.01,1.98.16,4.59-1.83,5.61-1.98,1.01-4.59.16-5.61-1.83-1.01-1.98-.16-4.59,1.83-5.61,1.98-1.01,4.59-.16,5.61,1.83Z"/>
      <path d="M373.45,367.22c-2.17,1.02-4.71.07-5.68-2.13-.93-2.1-.01-4.54,2.08-5.53,2.17-1.02,4.71-.07,5.68,2.13.93,2.1.01,4.54-2.08,5.53Z"/>
      <path d="M374.24,382.88c-.95-2.06-.01-4.61,2.04-5.56,2.06-.95,4.61-.01,5.56,2.04.95,2.06.01,4.61-2.04,5.56-2.06.95-4.61.01-5.56-2.04Z"/>
      <path d="M368.63,344c1.05,2.15.16,4.67-2,5.7-2.16,1.02-4.67.1-5.67-2.08-.95-2.08-.1-4.51,1.94-5.54,2.14-1.08,4.68-.22,5.72,1.92Z"/>
      <path d="M315.94,281.62c2.58-.61,5.14-1.2,7.7-1.81,1.25-.3,1.86.19,2.05,1.45.3,2.04-.31,3.68-1.95,4.9-1.57,1.17-3.31,1.32-5.04.47-2.01-.98-2.93-2.65-2.76-5.01Z"/>
      <path d="M358.96,302.35c-2.04.91-4.61-.07-5.51-2.1-.91-2.04.07-4.61,2.1-5.51,2.05-.91,4.61.07,5.51,2.1.91,2.04-.07,4.61-2.1,5.51Z"/>
      <path d="M386.64,402.39c-2.03.95-4.63,0-5.55-2.04-.92-2.04.08-4.64,2.12-5.52,1.98-.85,4.45.06,5.39,1.99.98,2.01.06,4.63-1.96,5.57Z"/>
      <path d="M393.13,420.07c-1.98,1-4.61.1-5.58-1.9-.97-2-.04-4.62,1.98-5.55,1.94-.9,4.43-.05,5.42,1.84,1.03,1.95.17,4.6-1.82,5.61Z"/>
      <path d="M378.69,355.09c-1.97,1-4.43.17-5.4-1.81-.97-1.99-.11-4.43,1.89-5.37,1.92-.9,4.25-.12,5.24,1.76,1.03,1.95.24,4.42-1.74,5.42Z"/>
      <path d="M372.16,337.45c-1.99.91-4.42.01-5.33-1.97-.91-1.99-.01-4.42,1.97-5.33,1.99-.91,4.42-.01,5.33,1.97.91,1.99.01,4.42-1.97,5.33Z"/>
      <path d="M399.89,437.51c-1.95.97-4.44.13-5.41-1.83-.97-1.95-.13-4.44,1.83-5.41,1.95-.97,4.44-.13,5.41,1.83.97,1.95.13,4.44-1.83,5.41Z"/>
      <path d="M393.57,385c.99,1.95.29,4.2-1.63,5.21-2.02,1.06-4.36.29-5.33-1.76-.94-1.97-.17-4.19,1.79-5.15,1.97-.97,4.19-.23,5.18,1.71Z"/>
      <path d="M385.31,372.57c-1.98.91-4.16.11-5.1-1.87-.97-2.05-.1-4.33,2-5.23,1.99-.85,4.16.02,5.04,2.03.88,1.99.05,4.16-1.95,5.07Z"/>
      <path d="M372.81,302.65c.9,1.98.06,4.16-1.94,5.06-1.99.9-4.16.07-5.06-1.94-.9-1.99-.07-4.16,1.94-5.06,1.98-.9,4.16-.06,5.06,1.94Z"/>
      <path d="M359.54,288.07c-.86-1.83-.04-4.1,1.79-4.96,1.83-.86,4.1-.04,4.96,1.79.86,1.83.04,4.1-1.79,4.96-1.83.86-4.1.04-4.96-1.79Z"/>
      <path d="M404.86,424.97c-1.94.99-4.2.23-5.14-1.74-.89-1.88-.17-4.04,1.68-4.98,1.94-.99,4.2-.23,5.14,1.74.89,1.88.17,4.04-1.68,4.98Z"/>
      <path d="M386.01,358.62c-.88-1.81-.13-4.06,1.67-4.97,1.88-.95,4.24-.12,5.1,1.8.82,1.84,0,4.06-1.82,4.91-1.83.85-4.06.07-4.94-1.75Z"/>
      <path d="M383.04,313.2c-1.78.89-4.09.12-4.99-1.66-.89-1.78-.12-4.09,1.66-4.99,1.78-.89,4.09-.12,4.99,1.66.89,1.78.12,4.09-1.66,4.99Z"/>
      <path d="M385.92,337.77c.93,1.87.25,4.04-1.58,5.02-1.92,1.03-4.21.3-5.17-1.63-.97-1.95-.19-4.2,1.79-5.12,1.89-.88,4.03-.13,4.96,1.74Z"/>
      <path d="M411.66,442.49c-1.91.97-4.2.18-5.1-1.76-.87-1.86-.12-4.03,1.71-4.95,1.91-.97,4.2-.18,5.1,1.76.87,1.86.12,4.03-1.71,4.95Z"/>
      <path d="M377.78,325.14c-1.95.94-4.16.15-5.08-1.82-.91-1.96-.08-4.16,1.9-5.05,1.89-.84,4-.09,4.92,1.77.97,1.94.21,4.17-1.74,5.1Z"/>
      <path d="M400.36,402.66c.94,1.97.15,4.17-1.84,5.09-1.98.91-4.17.08-5.06-1.92-.85-1.9-.09-4.01,1.78-4.94,1.96-.97,4.17-.21,5.12,1.76Z"/>
      <path d="M397.34,378.06c-1.8.84-4.14-.02-4.94-1.83-.81-1.81.09-4.14,1.9-4.91,1.75-.74,3.95.07,4.79,1.77.87,1.77.04,4.13-1.75,4.97Z"/>
      <path d="M405.74,390.34c.79,1.82-.16,4.16-1.98,4.87-1.77.69-3.97-.2-4.72-1.92-.79-1.82.16-4.16,1.98-4.87,1.77-.69,3.97.2,4.72,1.92Z"/>
      <path d="M405.45,410.95c-.72-1.76.17-3.99,1.89-4.73,1.83-.79,4.17.19,4.84,2.03.66,1.8-.29,3.98-2.03,4.66-1.78.69-3.99-.23-4.7-1.96Z"/>
      <path d="M391.48,325.82c.82,1.7.05,3.97-1.65,4.83-1.77.89-4.17.03-4.96-1.78-.76-1.74.09-3.99,1.8-4.78,1.72-.79,3.98.02,4.8,1.72Z"/>
      <path d="M371.62,293.56c-.72-1.76.17-4,1.89-4.74,1.83-.79,4.18.19,4.86,2.03.66,1.8-.29,4-2.04,4.68-1.78.69-4-.23-4.71-1.97Z"/>
      <path d="M397.56,343.06c.9,1.72.17,3.95-1.57,4.82-1.74.87-3.96.1-4.79-1.65-.8-1.67-.11-3.78,1.52-4.66,1.7-.92,3.95-.23,4.85,1.5Z"/>
      <path d="M418.75,425.56c.83,1.72.18,3.7-1.52,4.58-1.78.93-3.87.23-4.74-1.57-.87-1.8-.11-3.87,1.73-4.68,1.74-.77,3.7-.05,4.53,1.67Z"/>
      <path d="M398.11,363.68c-.85-1.82-.08-3.83,1.77-4.63,1.75-.75,3.66-.02,4.48,1.72.85,1.82.08,3.83-1.77,4.63-1.75.75-3.66.02-4.48-1.72Z"/>
      <path d="M404.58,381.54c-.89-1.73-.29-3.7,1.41-4.61,1.8-.96,3.86-.29,4.74,1.55.84,1.75.17,3.69-1.57,4.55-1.74.87-3.69.23-4.58-1.49Z"/>
      <path d="M394.51,318.19c-1.68.7-3.53-.03-4.29-1.71-.8-1.75-.02-3.7,1.76-4.45,1.76-.74,3.7.11,4.39,1.92.65,1.7-.15,3.53-1.85,4.24Z"/>
      <path d="M388.39,300.82c-1.66.74-3.56.03-4.33-1.62-.81-1.73-.02-3.74,1.75-4.46,1.68-.69,3.56.09,4.28,1.77.71,1.67-.03,3.56-1.7,4.31Z"/>
      <path d="M415.88,400.47c-1.73.82-3.7.08-4.47-1.68-.73-1.67-.02-3.53,1.63-4.31,1.73-.82,3.7-.08,4.47,1.68.73,1.67.02,3.53-1.63,4.31Z"/>
      <path d="M429.06,435.71c-1.61.74-3.56.04-4.33-1.56-.81-1.68-.03-3.74,1.69-4.46,1.63-.68,3.56.09,4.28,1.71.71,1.62-.02,3.56-1.63,4.3Z"/>
      <path d="M422.35,418.13c-1.58.8-3.56.18-4.39-1.38-.88-1.65-.18-3.73,1.52-4.52,1.61-.75,3.56-.06,4.34,1.54.78,1.6.12,3.56-1.46,4.36Z"/>
      <path d="M403.04,331.23c.77,1.61.09,3.56-1.51,4.35-1.68.83-3.73.08-4.48-1.64-.71-1.63.04-3.56,1.66-4.3,1.63-.74,3.56-.03,4.32,1.59Z"/>
      <path d="M414.71,370.7c-1.49.75-3.46.1-4.22-1.4-.75-1.49-.1-3.46,1.4-4.22,1.49-.75,3.46-.1,4.22,1.4.75,1.49.1,3.46-1.4,4.22Z"/>
      <path d="M407.82,353.31c-1.59.73-3.63-.05-4.32-1.65-.69-1.6.1-3.71,1.73-4.28,1.77-.62,3.25-.08,4.15,1.58.83,1.54.03,3.62-1.55,4.34Z"/>
      <path d="M422.55,384.32c.69,1.53-.03,3.46-1.55,4.15-1.53.69-3.46-.03-4.15-1.55-.69-1.53.03-3.46,1.55-4.15,1.53-.69,3.46.03,4.15,1.55Z"/>
      <path d="M427.74,405.91c-1.75.59-3.11.13-3.94-1.52-.78-1.57-.02-3.46,1.64-4.04,1.75-.61,3.14-.02,3.84,1.66.71,1.7.04,3.03-1.54,3.9Z"/>
      <path d="M406.84,323.33c-1.5.58-2.87.2-3.75-1.42-.84-1.54-.18-3.4,1.45-4.05,1.7-.68,3.05-.16,3.87,1.48.75,1.49.11,3.18-1.58,4Z"/>
      <path d="M434.42,423.43c-1.79.74-3.21.44-4.06-1.21-.84-1.63-.42-3.07,1.22-3.92,1.62-.85,3.06-.42,3.93,1.21.88,1.65.28,2.96-1.08,3.92Z"/>
      <path d="M399.99,305.79c-1.73.53-3.09.04-3.78-1.67-.69-1.71-.07-3.09,1.62-3.78,1.71-.7,3.09-.07,3.78,1.62.71,1.72,0,2.99-1.62,3.83Z"/>
      <path d="M426.54,376.14c-1.63.51-2.99.17-3.71-1.43-.71-1.59-.21-2.97,1.38-3.69,1.58-.72,2.96-.21,3.69,1.37.74,1.6.11,2.85-1.36,3.75Z"/>
      <path d="M414.66,336.81c.73,1.82.43,3.23-1.25,4.05-1.66.82-3.06.33-3.87-1.34-.76-1.56-.31-2.92,1.21-3.75,1.65-.9,2.95-.3,3.92,1.03Z"/>
      <path d="M420.22,358.45c-1.71.63-3.11.26-3.87-1.44-.76-1.69-.21-3.07,1.48-3.82,1.58-.7,2.93-.21,3.7,1.34.83,1.67.26,2.98-1.3,3.92Z"/>
      <path d="M421.21,344.86c.59-1.1.93-2.56,1.84-3.21,1.28-.91,2.79-.31,3.51,1.12.73,1.44.3,3.01-1.19,3.49-1.07.35-2.44-.25-3.67-.43-.16-.32-.33-.64-.49-.97Z"/>
      <path d="M420.07,324.32c.74,2.3.41,3.69-1.18,4.4-1.46.66-2.84.17-3.54-1.28-.75-1.55-.26-3.15,1.35-3.62,1.08-.32,2.44.34,3.36.5Z"/>
      <path d="M407.95,309.48c.64-1.07,1.03-2.52,1.97-3.13,1.31-.85,2.8-.21,3.46,1.26.66,1.47.18,3.02-1.33,3.44-1.08.3-2.43-.35-3.65-.58-.15-.33-.3-.66-.44-.99Z"/>
      <path d="M439.33,411.38c-1.11-.57-2.47-.91-3.28-1.77-.96-1.01-.15-3.16,1.21-3.69,1.5-.58,3.02-.19,3.47,1.3.33,1.08-.27,2.44-.46,3.68-.31.16-.62.32-.94.48Z"/>
      <path d="M434.44,389.1c.79,2.31.49,3.7-1.1,4.45-1.47.69-2.85.22-3.58-1.23-.78-1.55-.32-3.16,1.3-3.67,1.08-.34,2.46.29,3.39.44Z"/>
      <path d="M437.31,439.94c-.8-2.3-.49-3.69,1.09-4.44,1.46-.69,2.85-.22,3.57,1.22.78,1.54.33,3.15-1.28,3.66-1.08.34-2.46-.29-3.38-.43Z"/>
      <path d="M424.61,317.8c-1.82-1.01-3.29-1.37-3.93-2.3-.9-1.29-.28-2.78,1.16-3.54,1.71-.91,3.06.25,3.58,1.53.38.91-.38,2.29-.81,4.32Z"/>
      <path d="M266.53,307.72c2.73-2.24,5.21-4.28,7.77-6.38.62,4.49-2.88,7.47-7.77,6.38Z"/>
      <path d="M431.71,363.91c-1.05-.54-2.44-.83-3.06-1.68-.96-1.31-.39-2.76,1.12-3.48,1.4-.66,2.84-.24,3.27,1.21.31,1.03-.24,2.3-.4,3.47-.31.16-.62.32-.93.48Z"/>
      <path d="M441.3,396.9c.59-.91,1.01-2.35,1.8-2.6.84-.26,2.43.3,2.99,1.04.93,1.23.31,2.72-1.18,3.1-.95.24-2.11-.33-3.18-.54-.14-.33-.29-.67-.43-1Z"/>
      <path d="M444.7,423.02c.95.66,2.22,1.13,2.76,2.03.79,1.32.07,2.59-1.36,3.16-1.47.58-2.82.04-3.13-1.43-.21-1.03.44-2.24.7-3.36.34-.13.68-.27,1.02-.4Z"/>
      <path d="M438.06,381.55c-1.01-.55-2.33-.87-2.95-1.71-.92-1.24-.41-2.79,1.08-3.16.92-.23,2.59.26,3.03.97.48.79-.06,2.21-.15,3.35-.34.18-.68.36-1.02.54Z"/>
      <path d="M433.2,350.72c.81-1.63,1.1-3.17,1.78-3.37.89-.26,2.08.54,3.15.88-.35,1-.43,2.43-1.13,2.88-.67.43-2-.16-3.8-.4Z"/>
      <path d="M451.82,416.98c-1.59-.89-3.1-1.26-3.27-1.95-.22-.9.64-2.06,1.03-3.1.98.4,2.41.55,2.83,1.28.4.69-.26,1.99-.59,3.78Z"/>
      <path d="M334.62,278.24c2.73-.22,5.26-.42,7.88-.63-1.3,3.51-5.07,3.86-7.88.63Z"/>
      <path d="M432.1,330.71c-.49.91-.79,2.33-1.51,2.58-.77.28-2.28-.28-2.79-.98-.35-.47.21-2.26.84-2.63.72-.42,1.98.08,3.01.17l.46.85Z"/>
      <path d="M444.1,369.47c-1.49-.96-2.67-1.32-2.96-2.03-.25-.62.36-2.23.86-2.36.77-.21,2.17.23,2.58.86.38.59-.19,1.79-.48,3.54Z"/>
      <path d="M450.58,387.04c-1.46-.84-2.65-1.14-2.96-1.83-.27-.6.46-1.65.75-2.5.9.31,2.11.37,2.6,1,.38.48-.15,1.67-.39,3.33Z"/>
      <path d="M457.14,404.43c-1.28-.85-2.39-1.19-2.64-1.86-.22-.56.46-2.08.9-2.15.75-.12,1.93.37,2.35.99.32.47-.27,1.55-.61,3.02Z"/>
      <path d="M442.91,339.44c-1.31-.69-2.45-.93-2.67-1.52-.24-.62.4-1.57.66-2.38.81.26,1.95.28,2.32.83.35.52-.11,1.59-.3,3.06Z"/>
      <path d="M450.55,353.68c-.64,1.1-.87,2.01-1.41,2.27-.45.21-1.26-.34-1.92-.56.23-.7.28-1.63.76-2.04.34-.29,1.28.13,2.57.32Z"/>
      <path d="M453.12,373.45c.51-1.1.66-2.04,1.13-2.24.5-.22,1.3.27,1.97.45-.18.67-.16,1.61-.59,1.93-.41.31-1.3-.04-2.5-.13Z"/>
      <path d="M462.58,391.64c-.92-.5-1.86-.73-1.93-1.11-.1-.58.4-1.26.65-1.9.58.25,1.42.37,1.66.81.23.42-.17,1.18-.39,2.21Z"/>
    </g>
  </g>
  <path class="cls-8" d="M112.31,89.28c-.85-.41-1.7-.83-2.57-1.22-3.59-1.63-7.37-3.11-11.26-3.94-.02.02-.04.04-.06.06.04.05.08.1.13.14.39.09.78.19,1.15.29,5.04,1.36,9.85,3.71,14.47,6.22-.62-.51-1.24-1.03-1.85-1.55Z"/>
  <path class="cls-8" d="M436.19,155.48c-.04-.19-.1-.37-.18-.53-.09-.19-.24-.32-.41-.42-.03-.02-.06-.02-.08-.04-.16-.08-.35-.13-.55-.16,0,0,0,0,0,0-1.02-.12-2.33.39-2.33.39,0,0-4,2.39-5.48,3.43-1.47,1.03-9.69,2.86-9.69,2.86l-.42-1.15,2.74-4.9,5.69-7.65s4.21-5.35,5.05-7.25c.84-1.9-1.47-3.58-2.74-3.58s-4,5.05-4,5.05l-3.37,3.79-7.79,8.42,6.32-11.37s3.05-5.81,5.25-9.01c1.8-2.62-1.45-4.47-2.93-3.77-1.47.7-3.58,4.36-3.58,4.36l-5.27,7.37-6.11,10.36-.42-2.3s1.9-9.33,2.95-11.02c1.05-1.68,2.11-8.63,1.26-9.9-.84-1.26-3.16-.21-4,1.12s-4,10.67-4.84,12.99c-.84,2.32-5.69,12.14-5.69,12.14l-6.32,3.43-2.95-1.69s-6.42-8.31-7.4-10.08c-1.01-1.81-4.82-2.32-5.41.69-.12.62,2.38,3.37,2.38,3.37l5.17,10.57s2.74,8.96,4.42,12.33c1.68,3.37,2.53,2.74,2.53,2.74l-3.16,22.11s-6.53,22.54-7.37,26.76c-.84,4.23-2.95,16.3-5.27,19.09-.81.98-1.66,2.51-2.49,4.34l-2.04,1.12-4.25,2.89-11.17,26.53-17.12,14.61-3.74-.62c.27-.34.53-.68.8-1.02,1.22-1.59,2.33-3.19,3.29-4.69.11-.18.22-.36.33-.54,1.72-2.75,3.18-5.56,4.27-8.6,2.86-1.48,5.15-4.02,6.42-6.99.76-1.78,1.15-3.71,1.08-5.65h0c-.02-.42-.05-.85-.24-1.23-.54-1.08-1.33-1.51-2.21-1.55.08-.8.12-1.6.15-2.4.02-.76.03-1.52.02-2.27h0c0-.12,0-.24,0-.35,1.78,2.5,3.22,5.23,4.27,8.11,1.64-7.07,1.18-14.62-1.3-21.45,1.24,1.41,2.33,2.95,3.25,4.58-.05-8.53-5.36-16.47-12.48-21.17-6.28-4.15-15.24-6.73-23.69-6.36.26-3.41.2-6.24.2-6.24l5.02-15.92,6.65-8.17,2.22-15.11,14.09-12.25,2.69-13.88,8.03-16.94c1.23-.64,2.5-1.19,4.02-1.78,11.45-4.5,20.75-13.4,29.56-21.98,1.96-1.91,3.9-3.95,6.39-5.07,6.15-2.76,14.42.61,19.5-3.82,2.31-2.01,3.28-5.43,2.37-8.35,2.58-1.18,2.71-5.53.19-6.85,1.59-1.37.99-4.44-1.01-5.11,1.35-.93.14-3.61-1.42-3.91,1.61,0,3.21-.68,4.33-1.84.73-.76,1.17-2.17.3-2.75-.4-.26-.92-.23-1.39-.19-1.47.13-2.94.25-4.41.38-.5.04-1.02.08-1.49-.09-.39-.15-.72-.43-1.12-.53-.49-.12-1,.06-1.47.24-2.87,1.09-5.75,2.18-8.62,3.27-.92.35-1.86.53-2.2,1.45-2.07,5.67-6.12,10.47-10.86,14.22-4.74,3.75-10.16,6.52-15.65,9.04-10.64,4.89-22.02,9.17-30.17,17.57l-18.27.8-17.61,12.25-16.64,6.94-.14.21-1.27-1.64-.22-4.32c2.04-2.17,4-4.68,5.78-7.41.05-.07.1-.14.15-.22.34-.53.67-1.08,1-1.62.24-.4.49-.8.72-1.2.18-.32.36-.65.54-.98,3.32-1.56,9.26-6.59,10.56-11.43.8-2.97-1.31-5.78-3.35-5.78-.65,0-1.18.11-1.63.28.09-.81.18-1.63.22-2.41.06-1.03.04-2.02.02-3,0-.09,0-.18,0-.27-.17-5.33-1.5-9.87-3.66-13.61,2.72-.99,5.25-2.49,7.34-4.49-3.14.34-6.77.51-8.97-1.76-.38-.39-.7-.84-1.1-1.22-.4-.38-.87-.67-1.35-.95-9.39-5.57-18.43-12.35-32.16-6.01l7.93.07c-12.74,1.39-24.18,11.06-27.67,23.39,2.04-1,4.07-1.99,6.11-2.99-2.21,2.49-3.71,5.6-4.31,8.87,1.15-.38,1.24-.06,2.21-.91-.07,1.02,0,1.7.06,2.34-.54-.35-1.13-.56-1.75-.52-2.1.13-4.06,2.77-3.46,5.79,1.28,6.38,8.59,13.37,10.88,13.57.82,1.5,1.66,2.92,2.45,4.17.35.56.71,1.07,1.06,1.61l-.34.05-1.38,8.15v-.28s-29.37-7.68-29.37-7.68l-28.62-10.28-7.35,2.04s.3,2.18.57,5.23c-.95-.41-1.9-.83-2.83-1.3-2.17-1.09-4.23-2.4-6.27-3.74-1.07-.7-2.14-1.4-3.21-2.09-.25-.16-.5-.32-.75-.48-1.04-.66-2.09-1.3-3.17-1.89-9.83-5.36-21.12-6.6-31.88-9.32-2.81-.71-7.15-1.98-11.03-3.32.83.48,1.66.97,2.5,1.44,1.25.7,1.43,2.11.94,3.2,2.07,1.17,4.13,2.34,6.23,3.46,7.78,4.13,15.6,8.2,23.4,12.3,2.63,1.38.71,5.06-1.83,4.55,2.31,1.41,4.61,2.84,6.86,4.35,2.06,1.38,1.24,3.95-.69,4.5,5.16,3.04,10.34,5.94,15.6,8.47.87.42,1.74.83,2.62,1.23-1.04,1.55-1.07,1.59-1.07,1.59l12.03,6.12,8.01,7.76,12.31,3.27,4.49,9.39,4.36,6.94-2.46,26.13,4.86,29.8-5.68,8.98-.78,19.19-18.79,13.07,1.49,10.09c-.3.6-.59,1.21-.88,1.82-1.13,2.43-2.26,4.88-3.09,7.43l-3.73-.8-2.69.35-1.98-13.67h0c.07-.13.13-.27.2-.4.32-.6.63-1.21.94-1.82.12-.25.25-.5.37-.76.41-.86.8-1.72,1.17-2.6,3.24-2.15,7.1-5.82,8.56-9.65,1.1-2.87-.4-5.81-2.45-6.28-.68-.16-1.37-.02-2.02.32.11-1.12.17-2.24.19-3.35,0-.1-.01-.18,0-.27,2.43-.13,4.96.89,6.29,2.96-.43-5.11-2.38-10.13-5.8-13.96.91.57,1.82,1.14,2.73,1.71-1.55-3.61-3.72-6.95-6.39-9.83,1.7.73,3.35,1.57,4.94,2.51-3.74-6.42-10.03-11.3-17.17-13.33-5.45-1.55-11.35-1.4-16.75.3-.07,0-.15.02-.22.02-10.59-2.61-22.55.91-29.89,9.01,4.42-1.8,9.22-2.65,13.98-2.49-.77.68-1.49,1.41-2.18,2.19-3.34,1.92-6.21,4.64-8.3,7.87-3.44,3.09-5.66,7.56-5.85,12.19,1.43-1.33,3-2.52,4.68-3.53-2.74,3.62-3.65,8.55-2.38,12.91.97-1.3,2.21-2.39,3.61-3.18-.21,2.82.3,5.68,1.41,8.28-.49-.02-.97.06-1.4.29-1.86.97-2.59,4.18-.81,6.69,3.26,4.61,10.86,7.8,14.24,8.07.79.9,1.56,1.74,2.34,2.55l1.77,11.29-5.43-1.17-5.5-8.86-29.64-31.29c-.7-1.15-1.95-2.16-3.23-3.16-.18-.14-.36-.28-.54-.42-.28-.22-.55-.43-.82-.65-.2-.16-.39-.33-.58-.49-.17-.15-.35-.3-.51-.45-.22-.2-.41-.41-.6-.62-.11-.12-.23-.24-.34-.37-.27-.34-.51-.69-.69-1.06-.19-.38-.38-.77-.59-1.17-.21-.4-.42-.8-.64-1.2-.43-.81-.88-1.64-1.3-2.48-.21-.42-.41-.84-.61-1.26-.39-.84-.73-1.69-1-2.53-.13-.42-.24-.84-.33-1.26-.21-1-.46-1.99-.73-2.97,0,1,0,1.99-.05,2.97-.1,2.18-2.4,2.98-3.87,2.04.12,1.38.25,2.77.39,4.15.27,2.81-4.41,3.41-4.91.66-.35-1.92-.76-3.83-1.13-5.74-.26-1.36-.52-2.72-.76-4.09-1.09.07-2.15-.47-2.37-1.78-.64-3.84-1.19-7.74-1.58-11.65-.51-.28-.93-.76-1.13-1.51-.98-3.64-1.82-7.3-2.59-10.98-.14.03-.28.04-.42.04-1.2,0-1.98-.8-2.41-1.84-2.37-5.69-3.89-11.61-5.12-17.6-4.15-9.16-5.75-19.54-6.19-29.5-.11-2.62,3.3-3.17,4.57-1.35-1.08-6.54-2.36-13.05-4.21-19.42l-.54.63-.76.93s-2.89.51-3.48,1.27c-.59.76.17,4.25.17,4.25,0,0-.03,0-.04,0h0s0,0,0,0c-.23.01-3.64.19-4.46.93-.85.76-.95,4.25-.95,4.25-.24-.16-.51-.29-.78-.4-.04-.02-.06-.04-.1-.05-.04-.02-.09-.03-.13-.04-.91-.35-2.02-.51-2.96-.04-1.31.66-1.86,2.23-1.86,2.23l-.3,6.08.26.43c-.17-.01-.28,0-.25.06.95,1.82,1.91,3.63,2.86,5.45.97,1.86,1.95,3.72,3.14,5.44.56.81,1.16,1.59,1.73,2.39.72,1.03,1.91,2.14,2.56,3.21,1.39,2.29,2.26,4.55,3.24,7.04.3.77.63,2.84.91,3.61,0-.05,0-.12,0-.18,4.73,23.78,7.79,48.27,18.19,70.17,1.16,2.44,3.57,7.89,5.15,10.09l8.14,20.28,9.95,12.62,21.48,28.43,3.97,13.21c.07,8.37.36,18.26.36,18.26l11.25,25.73-1.07,43.22-6.71,11.74,8.86,8.93h103.19l-1.15-5.15,13.28.29c.22.7.4,1.4.63,2.09h0c5.54-.02,11.09-.05,16.63-.07.01,0,.03,0,.04,0,.29,0,.58-.05.85-.15.09-.04.19-.05.27-.12.33-.28.42-.74.48-1.17,0-.06.01-.12.02-.17l78.56,1.69s-.36-18.2-.46-32.31c-.06-8.46-.03-15.45.23-16.15.24-.64,2.18-4.3,4.62-8.82,1.33-2.47,2.81-5.19,4.25-7.83.48-.88.95-1.75,1.42-2.59,3-5.49,5.49-10.02,5.49-10.02l2.55-40.59h0s-.01-.46-.03-1.19c-.02-.83-.05-2.02-.09-3.43-.04-1.55-.09-3.32-.13-5.07h0c-.11-4.23-.21-8.31-.21-8.64,0-.7,7.19-14.93,7.19-14.93,0,0,3.25-26.38,3.25-27.31,0-.79-.85-4.45-1.53-4.49.07-.39.14-.8.21-1.2h0s0-.02,0-.02c.1-.56.19-1.13.29-1.69.02-.12.04-.24.06-.37.08-.45.15-.89.23-1.32.03-.15.05-.29.07-.44.08-.44.15-.86.22-1.28,0-.04.01-.08.02-.12.08-.49.16-.95.24-1.39,0-.05.02-.09.02-.14.05-.29.1-.57.14-.84.04-.26.08-.49.12-.71.09-.53.16-.92.2-1.18.02-.14.04-.21.05-.27,0-.05.02-.11.02-.11,0,0,.63-1.16,1.4-2.98.76-1.82,1.66-4.31,2.18-6.97.3-1.5,1.19-6.61,2.33-13.19.25-1.46.52-3,.79-4.58.41-2.37.83-4.86,1.26-7.37,2.58-15.08,5.31-31.24,5.31-31.24,0,0,.73-.99,1.99-2.81.74-1.07,1.66-2.39,2.76-4.03.43-.63.88-1.3,1.35-2.01s.98-1.42,1.5-2.12c.78-1.05,1.59-2.07,2.38-3.03.26-.32.53-.63.79-.94,1.3-1.52,2.5-2.84,3.38-3.77.88-.93,1.43-1.49,1.43-1.49,0,0,.14-.06.41-.17.26-.11.64-.27,1.1-.47.46-.2,1.01-.44,1.62-.71,2.42-1.08,5.76-2.65,8.15-4.07.6-.36,1.13-.71,1.58-1.03.9-.66,1.59-1.29,2.13-1.87.53-.59.9-1.14,1.14-1.65.12-.25.2-.5.26-.73.11-.47.11-.89.03-1.27ZM362.58,270.16c-.03-.2-.06-.42-.1-.59.18-.38.38-.78.57-1.2-.19.71-.35,1.31-.47,1.8Z"/>
  <path class="cls-8" d="M105.4,92.51c-.04-.1-.09-.2-.13-.31.04.1.09.2.13.31Z"/>
  <path class="cls-9" d="M322.1,291.83l23.24-19.83,11.17-26.53,4.25-2.89v2.89s-6.57,10.91-5.18,17.17c1.39,6.27-.93,26.46,7.19,26.22,8.12-.23,18.33-28.78,19.03-30.4s1.86,3.25,1.86,4.18-3.25,27.31-3.25,27.31c0,0-7.19,14.23-7.19,14.93s.46,18.33.46,18.33l-2.55,40.59s-15.08,27.4-15.78,29.26.23,48.46.23,48.46l-121.57,5.47,9.02-32.81,21.69-26.69,4.74-67.87,3.96-29.67,41.77-5.5,20.1,3.32"/>
  <path class="cls-9" d="M130.47,324.99c-.83,1.21,0,29.7,0,29.7l11.25,25.73-1.07,43.22-6.71,11.74,8.86,8.93h103.19l-22.73-101.73-92.78-17.58Z"/>
  <path class="cls-5" d="M235.35,379.26s1.69,2.37,4.91,2.54,21.84,1.86,26.07-2.54c4.23-4.4,36.57-26.92,40.29-26.92s9.99,2.03,14.9,1.69c4.91-.34,12.19,1.52,12.19,1.52l3.52.77c1.52.34,3.07-.58,3.46-2.09.08-.3.13-.56.13-.74,0-.7-2.21-1.32-2.97-1.97-.16-.14-.34-.25-.54-.34l-3.43-1.56,6.41.71c.76.08,1.5-.22,1.98-.81l.25-.3c.16-.19.31-.91.43-1.66.17-1.08-.46-2.12-1.49-2.49l-4.86-1.72,6.25.71c.75.09,1.49-.21,1.98-.79h0c.56-.67.68-1.61.3-2.4l-.69-1.45c-.25-.52-.68-.92-1.21-1.13l-7.47-2.89,5.47,1.35c.93.23,1.9-.16,2.42-.96h0c.56-.88.46-2.02-.25-2.77l-.72-.76c-.3-.32-.69-.54-1.12-.64l-11.76-2.72c-.31-.07-.63-.08-.95-.01l-17.98,3.63-7.21,1.15c-.16.03-.3.06-.45.12-1.71.67-13.22,5.15-18.07,7.03-5.25,2.03-38.09,7.45-42.66,8.13-4.57.68-27.6,17.1-8.3,30.14"/>
  <path class="cls-9" d="M86.15,260.8s15.84,21.33,20.67,16.52c4.83-4.81.81-29.24.81-29.24l31.28,33.02,5.5,8.86,7.25,1.56,37.05-4.78,42.74,9.18,29.19,44.24,5.93,27.64c-2.4,2.86-6.21,6.68-11.74,9.88-9.16,5.3-17.96,5.97-22.39,5.99-4.59-9.66-9.18-19.32-13.77-28.98l-80.33,9.12-12.19-40.59-21.48-28.43-9.95-12.62-8.57-21.37Z"/>
  <path class="cls-4" d="M260.63,340.16l-29.19-44.24-18.73-4.03c.77,1.28,1.51,2.58,2.25,3.88,4.26,7.53,9.51,14.45,13.64,22.07,2.11,3.88,3.73,7.99,5.88,11.85,2.07,3.71,4.38,7.27,6.57,10.9,2.12,3.51,4.15,7.09,5.68,10.91.72,1.79,1.34,3.66,1.66,5.56.37,2.21-.07,4.53-.58,6.69-1.03,4.38-1.89,8.74-2.71,13.17-.33,1.75-.7,3.51-1.2,5.23,3.4-.89,7.12-2.26,10.94-4.47,5.53-3.2,9.34-7.02,11.74-9.88l-5.93-27.64Z"/>
  <path class="cls-4" d="M114.33,266.85c2.3,2.57,4.67,5.07,7.05,7.56,2.28,2.38,4.47,4.88,7.09,6.9,1.27.98,2.71,1.99,3.63,3.33.67.98,1.09,2.17,1.52,3.27,1.09,2.78,1.97,5.66,4.63,7.32,5.99,3.74,12.59.17,17.94-2.92,1-.57,1.98-1.17,2.97-1.76l-7.52.97-7.25-1.56-5.5-8.86-31.28-33.02s.98,5.95,1.39,12.55c1.71,2.12,3.5,4.19,5.31,6.21Z"/>
  <path class="cls-5" d="M253.55,353.44c1.44,7.55,2.88,15.1,4.32,22.65.13.69.29,1.43.79,1.92.48.47,1.17.64,1.83.76,3.27.64,6.6.99,9.93,1.04,1.44.02,2.92-.02,4.23-.61,1.27-.57,2.26-1.6,3.17-2.65,4.84-5.62,8.14-12.57,9.43-19.88.83-4.72.84-9.53,1.26-14.31.84-9.71,3.35-19.6,1.01-29.06-.44-1.81-12.85-2.79-14.56-2.93-5.05-.42-10.14-.24-15.15.54-2.3.36-5.31.58-7.42,1.61-2.51,1.22-2.14,2.88-2.36,5.75-.42,5.44-.16,10.9.44,16.31.71,6.33,1.89,12.59,3.09,18.84Z"/>
  <path class="cls-5" d="M261.68,366.62c-1.6.7-2.49,1.36-3.2,3.33-1.7,4.69-3.89,10.1-4.62,15.05-.91,6.15-.74,12.4-.57,18.61.13,4.9.27,9.81.7,14.7.7,7.89,2.19,15.72,4.74,23.22,5.54-.02,11.09-.05,16.63-.07.4,0,.84-.02,1.16-.27.33-.28.42-.74.47-1.17.57-4.08.96-8.19,1.17-12.31.21-4,.25-8.03,1.03-11.96,1.42-7.14,5.22-13.68,6.22-20.88.5-3.58.28-7.21.07-10.81-.21-3.59-.43-7.19-1.2-10.7-.36-1.62-.84-3.24-1.73-4.64-2.36-3.72-7.21-5.24-11.61-4.84-2.59.24-5.06,1.03-7.45,2.01-.69.28-1.28.51-1.8.74Z"/>
  <path class="cls-4" d="M285.32,381.54c-4.84.67-9.69,1.31-14.58,1.54-5.46.25-10.94.04-16.35-.75-.21.9-.4,1.79-.53,2.67-.91,6.15-.74,12.4-.57,18.61.13,4.9.27,9.81.7,14.7.7,7.89-.54,21.19,2.01,28.69,5.54-.02,14.46-.98,20-1,.4,0,.2-4.56.52-4.81.33-.28.42-.74.47-1.17.57-4.08.96-8.19,1.17-12.31.21-4,.25-8.03,1.03-11.96,1.42-7.14,5.22-13.68,6.22-20.88.5-3.58.28-7.21.07-10.81-.05-.84-.1-1.68-.16-2.52Z"/>
  <path class="cls-4" d="M96.22,75.32c.04-1.13,2.2-2.09,3.2-2.5s2.64.57,3.71.58c1.78.02,4.37.13,5.74,1.31,1.18,1.02.52,1.62,1.07,3.12,2.42,6.64,4.47,11.97,11.67,17.14-5.16-.02-10.47-.83-14.75-3.87-4.28-3.03-7.68-7.42-9.65-12.45-.43-1.09-1.05-2.15-1-3.33Z"/>
  <path class="cls-1" d="M105.92,78.37c-3.46-1.01-5.23-2.64-7.34-4.12-.59-.42-1.23-.85-1.94-.85-.87,0-1.61.64-2.27,1.24-1.9,1.75-3.81,3.5-5.71,5.24.07,1.04.3,1.74,1.21,2.15s1.95.38,2.9.12,1.84-.74,2.72-1.21c3.9,3.06,3.4,9.88,7.27,12.97-.36,2.37.77,2.98,2.5,4.52,1.13,1.01,2.92,1.2,6.08,2.27,22.28,7.56,42.37,23.78,63.67,34.04,3.31,1.6,6.7,3.21,10.33,3.55,4.12.38,8.76-1.35,10.49-5.31,2.01-4.59-.71-10.14-4.55-13.16-3.85-3.02-8.62-4.33-12.95-6.51-4.67-2.34-8.82-5.69-13.41-8.2-9.83-5.36-21.12-6.6-31.88-9.32-5.44-1.37-12.24-2.38-16.82-5.55-4.48-3.1-5.03-10.34-10.3-11.88Z"/>
  <path class="cls-1" d="M198.26,274.97c-1.09,1.61-1.92,3.38-2.74,5.14-1.58,3.4-3.18,6.83-3.93,10.5-.8,3.89-.62,7.91-.44,11.88.14,3.16.29,6.31.43,9.47.02.48.06,1,.35,1.39.35.46.96.61,1.53.73,7.07,1.45,14.24,2.44,21.43,2.98.7.05,1.46.08,2.03-.32.55-.39.78-1.07.97-1.71,1.02-3.46,1.74-7.01,2.13-10.59,6.43-.73,12.7-2.84,18.26-6.16,1.42-8.22.08-16.89-3.75-24.3-1.03-1.99-2.29-3.95-4.16-5.18-1.63-1.08-3.6-1.53-5.51-1.95-9.68-2.15-20.54-.83-26.6,8.13Z"/>
  <path class="cls-1" d="M95.31,84.46c-.89.61-1.41,1.77-1.29,2.89s.86,2.13,1.86,2.52c-.68,1.42.04,3.22,1.23,4.2,1.19.97,2.73,1.32,4.2,1.63.86.18,1.92.3,2.48-.41.41-.52.36-1.32.07-1.92s-.78-1.07-1.24-1.54c-2.35-2.43-4.1-5.48-5.07-8.8-.33-1.13-1.27-4.06-2.89-2.91-1.45,1.03-.69,3.69.66,4.35Z"/>
  <path class="cls-1" d="M317.19,119.29c3.33-1.93,6.68-3.88,10.32-5.15,1.25-.44,2.55-.81,3.66-1.53,1.05-.68,1.89-1.64,2.75-2.55,8.16-8.57,19.67-12.88,30.43-17.81,5.49-2.52,10.92-5.29,15.65-9.04,4.74-3.75,8.79-8.55,10.86-14.22.34-.92,1.28-1.1,2.2-1.45,2.87-1.09,5.75-2.18,8.62-3.27.47-.18.98-.36,1.47-.24.4.1.73.38,1.12.53.47.18.99.14,1.49.09,1.47-.13,2.94-.25,4.41-.38.48-.04.99-.07,1.39.19.88.59.44,1.99-.3,2.75-1.24,1.29-3.07,1.97-4.85,1.82,1.79-.31,3.44,2.89,1.95,3.92,2,.67,2.6,3.74,1.01,5.11,2.51,1.32,2.39,5.68-.19,6.85.91,2.92-.06,6.34-2.37,8.35-5.08,4.43-13.35,1.07-19.5,3.82-2.5,1.12-4.43,3.16-6.39,5.07-8.81,8.58-18.11,17.48-29.56,21.98-3.05,1.2-5.1,2.2-7.77,4.1-2.48,1.76-6.74,2.13-8.64,4.5-2.25,2.81-4.51,5.62-6.76,8.44-2.53,3.15-5.66,6.6-9.69,6.48-4.61-.13-7.71-4.96-8.6-9.49-1.06-5.41-.18-11.18,2.46-16.02.98-1.8,3.01-3.81,4.84-2.86Z"/>
  <path class="cls-10" d="M293.66,97.08c-2.51,17.42-18.52,36.15-28.31,35.18-6.65-.66-12.6-6.68-18.76-16.48-3.33-5.29-7.59-13.35-7.59-19.52,0-17.6,10.07-33.59,25.71-33.59s32.33,11.02,28.95,34.42Z"/>
  <path class="cls-4" d="M291.4,100.76c-.19,3.07-1.51,6.01-2.83,7.57-9.01,10.65,7.89,1.47,10.21-7.12.8-2.97-1.31-5.78-3.35-5.78-3.26,0-3.84,2.26-4.03,5.33Z"/>
  <path class="cls-10" d="M240.86,97.57c.19,3.07,5.55,13.92,3.45,14.05-2.1.13-9.73-7.06-11.04-13.59-.6-3.01,1.36-5.66,3.46-5.79,2.1-.13,3.95,2.26,4.13,5.33Z"/>
  <polygon class="cls-10" points="247.31 117.44 244.31 135.16 246.59 145.96 260.33 158.01 273.62 153.3 285.11 134.61 280.27 128.37 279.44 112.31 247.31 117.44"/>
  <path class="cls-9" d="M245.94,125.31l-29.38-7.68-28.62-10.28-7.35,2.04s2.58,18.37-.73,23.27l-3.31,4.9,12.03,6.12,8.01,7.76,12.31,3.27,4.49,9.39,4.36,6.94-2.46,26.13,4.86,29.8-5.68,8.98-.78,19.19-18.79,13.07,1.69,11.43s7.16-8.57,13.77-7.35c6.61,1.22,18.8,13.05,21.69,25.92,2.89,12.87,7.48,9.52,7.48,9.52l6.81-8.78,5.9,2.95-4.61,9.14s2.83,14.35,21.4,13.92c18.57-.42,27.99-6.64,27.99-6.64l-3.61-31.35-6.63-21.64,1.29-28.99s12.89-7.83,16.89-10.68,3.65-17.49,3.65-17.49l5.02-15.92,6.65-8.17,2.22-15.11,14.09-12.25,2.69-13.88,8.14-17.16-11.01,3.69s-7.63,11.02-14.54,11.43c-6.91.41-8.68-15.61-4.53-19.85,4.15-4.24,12.92-7.1,12.92-7.1l4.26-4.08-18.62.82-17.61,12.25-16.64,6.94-13.52,20.58c-2.33,3.55-7.45,3.81-10.12.5l-12.45-15.37.35-10.21Z"/>
  <path class="cls-9" d="M286.8,265.35l1.02-22.81c-.09.01-.18.03-.27.04-5.82.7-11.69,1.01-17.53.27-5.96-.75-11.75-2.56-17.39-4.56-5.55-1.97-10.98-4.25-16.37-6.64-5.52-2.44-11.01-4.99-16.54-7.4l.45,2.73-5.68,8.98-.78,19.19-18.8,13.07,1.69,11.43s7.16-8.57,13.77-7.35c6.61,1.22,18.8,13.05,21.69,25.92,2.89,12.87,7.48,9.52,7.48,9.52l6.81-8.78,5.9,2.95-4.61,9.14s2.83,14.35,21.4,13.92c18.57-.42,27.99-6.64,27.99-6.64l-3.61-31.35-6.63-21.64Z"/>
  <path class="cls-4" d="M190.28,125.44c2.76,2.44,5.51,4.92,8.52,7.05,2.79,1.98,5.72,3.78,8.55,5.71,3.19,2.17,6.41,4.32,9.8,6.19,2.61,1.44,5.82,3.35,8.9,3.29,2.64-.06,5.24-1.13,7.57-2.28,2.82-1.4,5.48-3.11,8.05-4.91,1.68-1.18,3.31-2.43,4.92-3.7l-1.01-1.25.35-10.21-29.38-7.68-28.62-10.28-7.35,2.04s.54,3.9.81,8.57c3.14,2.31,6.06,4.98,8.88,7.48Z"/>
  <path class="cls-4" d="M291.08,146.09c2.09,1.55,4.53,3.06,7.18,3.27,2.86.23,5.23-1.27,7.14-3.28,2.71-2.84,4.07-6.24,5.6-9.79,1.07-2.47,2.41-4.68,4.16-6.64-.14-3.57.57-7.02,2.19-8.68,4.15-4.24,12.92-7.1,12.92-7.1l4.26-4.08-18.62.82-17.61,12.25-16.64,6.94-3.17,4.82c4.33,3.66,8,8.08,12.57,11.47Z"/>
  <path class="cls-4" d="M295.93,273.41c-1.1,1.51-8.24,4.89-9.22,6.47-2.9,4.65-5.37,9.55-7.76,14.47-2.64,5.47-5.58,10.92-7.63,16.65-1,2.78-1.76,5.67-1.86,8.63-.07,1.78.04,3.55.24,5.32,18.13-.56,27.34-6.61,27.34-6.61l-4.58-21.52,3.47-23.41Z"/>
  <path class="cls-4" d="M196.6,279.64s7.16-8.57,13.77-7.35c6.61,1.22,18.8,13.05,21.69,25.92.16.72.33,1.37.5,1.99.79-3.35,1.33-6.76,1.69-10.17.43-4.11.91-8.26-.39-12.25-1.11-3.4-2.73-6.62-4.1-9.92-1.12-2.69-2.39-5.73-2.17-8.71.19-2.66,1.79-4.61,3.7-6.34,2.39-2.17,5.1-3.98,7.71-5.88,2.03-1.47,3.74-2.93,5.18-4.98,1.71-2.44,3.23-5.01,4.64-7.64,1.57-2.92,3.01-5.93,4.09-9.07.62-1.81,1.37-3.99,1.2-6-3.35.73-6.73,1.39-10.18,1.43-.78,0-1.31-.9-.9-1.57,3.29-5.38,7.31-10.26,11.75-14.73,15.36-15.49,35.53-26.52,47.28-45.36-6.9.03-13.7,1.36-20.41,2.91-6.58,1.53-13.12,3.17-19.71,4.67-6.55,1.49-13.13,2.84-19.69,4.26-6.56,1.42-13.31,2.67-19.65,4.88-1.86.65-3.68,1.41-5.49,2.19l-1.81,19.24,4.86,29.8-5.68,8.98-.78,19.19-18.8,13.07,1.69,11.43Z"/>
  <path class="cls-4" d="M213.42,316.46c1.66.1,3.54.25,4.58,1.54.44.55.67,1.24.86,1.92,2.46,8.92-.36,18.38-.2,27.64.07,4.23.77,8.43.89,12.66.43,14.95-6.37,29.64-4.53,44.49-5.91-2.19-11.81-4.38-17.72-6.57-.7-3.31-1.4-6.61-2.1-9.92-1-4.75-2.01-9.51-2.7-14.32-.65-4.55-1.02-9.13-1.39-13.7-.66-8.26-1.33-16.53-1.99-24.79-.32-3.97-.64-7.97-.28-11.94.44-4.76.36-10.93,6.19-9.88,6.16,1.11,12.08,2.52,18.38,2.88Z"/>
  <path class="cls-4" d="M219.35,413.81c-1.22-4.02-3.93-11.86-7.95-13.83-2.13-1.04-6.11-.88-8.49-1.2-1.39-.19-2.52-.37-3.63-.53-.79.83-1.56,1.68-2.37,2.49-1.43,1.45-3.04,3.66-5.32,3.19-2.92-.61-5.64-2.14-8.28-3.46-1.25-.63-2.51-1.13-3.78-1.54-1.81.38-3.56.86-5.18,1.46-1.68.62-3.38,1.42-4.46,2.85-1.78,2.35-1.38,5.64-.89,8.55.35,2.08.71,4.19,1.65,6.07,1.74,3.47,5.18,5.71,8.48,7.76,7.06,4.39,14.52,8.84,22.82,9.39,5.78.38,10.3,1.6,15.89.06.45-.12,2.12-3.05,2.4-3.42.22-.28.29-.65.34-1.01.88-5.61.41-11.41-1.23-16.83Z"/>
  <path class="cls-8" d="M219.35,413.81c-1.22-4.02-3.93-11.86-7.95-13.83-2.13-1.04-6.11-.88-8.49-1.2-1.69-.23-3.01-.45-4.36-.64-1.27,1.58-2.61,3.11-3.95,4.64-.38.44-1.08.37-1.48,0-2.59-2.41-5.62-3.79-8.85-4.62-3.48.4-6.91,1.11-9.92,2.22-1.68.62-3.38,1.42-4.46,2.85-.64.84-.99,1.81-1.16,2.83,1.89-.74,3.89-1.16,6.04-1.26.85-.04,1.77-.18,2.55.2.81.4,1.58.98,2.31,1.5,1.53,1.09,2.97,2.3,4.36,3.55,4.8,4.3,9.48,9.65,15.92,11.44,4.61,1.28,9.47.49,14.11-.2,2.17-.32,4.46-.69,6.73-.73-.27-2.29-.73-4.56-1.4-6.77Z"/>
  <path class="cls-4" d="M211.05,423.83c-4.47.59-9.16.81-13.43-.89-5.98-2.38-10.39-7.19-15.1-11.39-1.22-1.09-2.46-2.15-3.78-3.11-.63-.46-1.28-.96-1.97-1.32-.7-.37-1.42-.25-2.21-.21-2.17.11-4.13.63-5.97,1.5.05,1.13.22,2.28.41,3.38.35,2.08.71,4.19,1.65,6.07,1.74,3.47,5.18,5.71,8.48,7.76,7.06,4.39,14.52,8.84,22.82,9.39,5.78.38,10.3,1.6,15.89.06.45-.12,2.12-3.05,2.4-3.42.22-.28.29-.65.34-1.01.41-2.64.52-5.32.35-7.99-3.3,0-6.66.75-9.88,1.18Z"/>
  <path class="cls-8" d="M186.95,418.31c2.16,2.15,4.67,4.15,7.51,5.32,1.75.72,3.62,1.19,5.46,1.63,4.24,1.02,8.57,1.76,12.71,3.15,2.49.84,5.24,1.99,7.2,3.88.19-.31.35-.56.42-.64.22-.28.29-.65.34-1.01.41-2.64.52-5.32.35-7.99-3.3,0-6.66.75-9.88,1.18-4.47.59-9.16.81-13.43-.89-5.98-2.38-10.39-7.19-15.1-11.39-1.22-1.09-2.46-2.15-3.78-3.11-.19-.14-.38-.28-.57-.41,2.92,3.42,5.57,7.1,8.78,10.29Z"/>
  <path class="cls-2" d="M218.66,434.11s-.07-.08-.11-.12c-2.6-2.64-6.62-3.72-10.1-4.62-4-1.03-8.09-1.7-12.05-2.87-5.14-1.52-9.3-4.75-12.83-8.73-3.14-3.53-5.86-7.47-9.15-10.85-2.11.13-4.02.64-5.82,1.48.05,1.13.22,2.28.41,3.38.35,2.08.71,4.19,1.65,6.07,1.74,3.47,5.18,5.71,8.48,7.76,7.06,4.39,14.52,8.84,22.82,9.39,5.78.38,10.3,1.6,15.89.06.16-.04.47-.45.82-.96Z"/>
  <path class="cls-4" d="M271.35,63.33c2.86,3.79,6.92,10.38,8.92,14.69,2.3,4.96,3.98,10.53,3.02,16.05l-.04.04c-1.44.15-2.82.23-3.89.08-1.7-.23-3.34.74-3.9,2.36-.72,2.06-1.56,5.1-.86,6.49.33.66,1.64,2.04,3.16,3.39,1,.89,1.44,2.23,1.21,3.54-.01.08-.03.16-.04.24-.29,1.61-.93,3.01-1.77,4.32-.92,1.43-2.61,2.12-4.29,1.87-6.16-.93-14.67-.79-14.67-.79,0,0,1.96,6.84,9.04,7.09.91.03,1.76-.03,2.54-.16.03.08.07.14.09.24.15,1.34-.98,2-2.1,2.29-1.1.29-2.23.51-3.21,1.07-.98.56-1.81,1.55-1.81,2.69,0,1.06.71,1.99,1.52,2.68.41.36.87.67,1.39.86,1.23.43,2.51,0,3.67-.68,9.65-3.17,22.17-19.35,24.37-34.59,2.83-19.66-9.5-31.33-22.32-33.75Z"/>
  <path class="cls-10" d="M184.03,273.41l2.25,15.47s-7.25,17.61-13.15,21.28l-22.55-14.31-3.24-20.63,36.69-1.83Z"/>
  <path class="cls-10" d="M262.07,62.07c-12.74,1.39-24.18,11.06-27.67,23.39,2.04-1,4.07-1.99,6.11-2.99-2.21,2.49-3.71,5.6-4.31,8.87,1.15-.38,1.24-.06,2.21-.91-.14,2.23.33,2.8,0,5,6.63-1.24,13.02-2.92,18.96-6.11,1.49-.8,3-1.68,4.68-1.86,1.68-.18,3.6.55,4.21,2.13,3.27-4.14,6.16-8.58,8.63-13.24,7.6,3.06,16.91,1.25,22.82-4.41-3.14.34-6.77.51-8.97-1.76-.38-.39-.7-.84-1.1-1.22-.4-.38-.87-.67-1.35-.95-9.39-5.57-18.43-12.35-32.16-6.01"/>
  <path class="cls-5" d="M79.15,162.27c-1.67.89-2.73,2.68-2.87,4.56s.42,3.75.98,5.55c4.37,14.3,8.75,28.62,14.19,42.55,2.28,5.83,4.76,11.63,6.04,17.75.7,3.34,2.97,6.83,4.46,9.9,1.33,2.74,5.72,4.63,7.3,7.23,2.53,4.16,1.21,10.43,1.16,15.19-.04,3.75.98,7.91-1.11,11.02-.51.75-1.64,1.62-2.45,2.02-1.16.57-2.55.44-3.74-.11-2.71-1.25-3.09-1.49-5.44-3.32-4.21-3.28-7.97-8.39-11.09-12.73-1.58-2.19-3.99-7.65-5.15-10.09-10.48-22.07-13.51-46.79-18.3-70.74-1.07-5.35-3.88-10.41-7.12-14.81-1.66-2.25-2.23-4.57-3.97-6.76-1.74-2.19-3.13-4.88-2.89-7.67.17-2.08,1.22-3.97,1.84-5.96,1.3-.43,2.79-.23,3.93.53,0,0,.1-3.48.95-4.25s4.5-.93,4.5-.93c0,0-.76-3.48-.17-4.25s3.48-1.27,3.48-1.27l.76-.93,2.04-2.38s3.82-1.1,4.84,0,2.04,8.07,2.04,8.07c0,0,4.5,4.33,5.52,5.78,1.02,1.44.82,8.66.82,8.66,0,0,.08,7.04-.56,7.38Z"/>
  <path class="cls-4" d="M54.88,146.39s2.23,1.36,3.42,2.89,4.25,6.54,3.48,7.3-3.57-.85-5.01-1.95-5.69-3.4-5.69-3.4c-.39,2.21-1.3,4.23.84,5.75,2.04,1.44,4.21,2.71,6.47,3.78,1.89.89,3.96,1.75,5.08,3.5,1.41,2.19.89,5.04.48,7.62-.45,2.86-.65,7.03-.71,9.93-.29-.77-.61-2.84-.91-3.61-.98-2.49-1.84-4.76-3.24-7.04-.65-1.07-1.84-2.18-2.56-3.21-.56-.81-1.17-1.58-1.73-2.39-1.19-1.72-2.17-3.58-3.14-5.44-.95-1.82-1.91-3.63-2.86-5.45-.1-.19,1.23.07,1.39.2.34.28.49.8.67,1.19.43.92.86,1.85,1.28,2.77.64,1.37,1.27,2.75,1.91,4.12l-5.26-8.78.3-6.08s.55-1.56,1.86-2.23c1.31-.66,2.99-.11,3.93.53Z"/>
  <path class="cls-6" d="M63.22,157.35s1.95,1.53,2.8,1.02,1.95-2.89,1.95-2.89l-1.02-2.12-6.63-12.15"/>
  <path class="cls-4" d="M65.26,134.93s-1.1,0-1.53,2.04-.93,4.42,1.53,6.12,2.72,1.7,2.72,1.7c0,0,.85,2.46,1.95,3.65,0,0-.93,3.4-.93,4.5s-1.36,5.95,1.61,8.83c2.97,2.89,6.05,3.07,6.45,2.48s2.4-.87,2.6-3.24c.2-2.38-.36-13.77-.67-14.23-1.39-2.01-4.72-4.04-4.88-5.56-.11-1.09-3.42-2.97-4.52-3.14s-4.33-3.14-4.33-3.14Z"/>
  <path class="cls-4" d="M76.29,166.83c.13-1.89,1.2-3.67,2.87-4.56.21-.11.34-.96.42-2.03-2.23.73-4.44,1.55-6.26,3-3.52,2.8-1.67,8-1.15,11.76,1.39,9.93,2.82,19.92,5.85,29.51,1.33,4.21,2.75,8.41,4.15,12.6,1.37,4.11,2.84,8.21,4.74,12.11,3.56,7.31,8.66,14.16,16.66,16.78.83.27,1.67.5,2.52.7-1.64-1.28-3.37-2.56-4.12-4.11-1.49-3.07-3.76-6.56-4.46-9.9-1.29-6.12-3.77-11.92-6.04-17.75-5.44-13.93-9.82-28.25-14.19-42.55-.55-1.81-1.11-3.67-.98-5.55Z"/>
  <path class="cls-10" d="M197.27,251.56c-.43-5.11-2.38-10.13-5.8-13.96.91.57,1.82,1.14,2.73,1.71-1.55-3.61-3.72-6.95-6.39-9.83,1.7.73,3.35,1.57,4.94,2.51-3.74-6.42-10.03-11.3-17.17-13.33-5.45-1.55-11.35-1.4-16.75.3-.07,0-.15.02-.22.02-10.59-2.61-22.55.91-29.89,9.01,4.42-1.8,9.22-2.65,13.98-2.49-.77.68-1.49,1.41-2.18,2.19-3.34,1.92-6.21,4.64-8.3,7.87-3.44,3.09-5.66,7.56-5.85,12.19,1.43-1.33,3-2.52,4.68-3.53-2.74,3.62-3.65,8.55-2.38,12.91.97-1.3,2.21-2.39,3.61-3.18-.21,2.82.3,5.68,1.41,8.28-.49-.02-.97.06-1.4.29-1.86.97-2.59,4.18-.81,6.69,3.26,4.61,10.86,7.8,14.24,8.07,7.15,8.18,13.72,12.87,20.28,12.66,6.96-.23,15.62-10.05,20.7-22.12,3.24-2.15,7.1-5.82,8.56-9.65,1.1-2.87-.4-5.81-2.45-6.28-.68-.16-1.37-.02-2.02.32.11-1.12.17-2.24.19-3.35,0-.1,0-.18,0-.27,2.43-.13,4.96.89,6.29,2.96Z"/>
  <path class="cls-4" d="M124.96,96.13c3.67,1.78,7.69,2.7,11.6,3.71,4.37,1.13,8.75,2.19,13.11,3.35,8.41,2.23,16.69,4.99,24.88,7.99-3.22-1.99-6.31-4.24-9.63-6.05-9.83-5.36-21.12-6.6-31.88-9.32-4.39-1.11-12.54-3.59-16.82-5.55,1.71,1.71,6.47,4.78,8.74,5.88Z"/>
  <path class="cls-5" d="M249.88,359.03l-.76,5.27c-.31,2.16-1.18,4.2-2.58,5.87-.25.29-.39.44-.56.58l-5.48,4.35c-.07.06-.13.1-.21.15-.85.55-6.74,4.24-16.34,6.7-9.41,2.41-38.9,9.63-44.42,10.98-.59.14-1.1.48-1.47.96l-2.69,3.46c-.28.36-.47.77-.54,1.23-.21,1.3-.93,4.31-3.39,6.1-2.27,1.66-2.26,5.3-2.06,7.28.08.83.54,1.56,1.24,2.01l5.47,3.55c.45.29.97.44,1.5.44h3.18s1.3,1.67.72,2.25c-.4.4,1.3.69,2.39.83.59.08,1.13.33,1.55.74.78.76,1.9,1.98,1.51,2.37-.58.58,3.48-1.04,4.41,0s-.35,2.9-.35,2.9l-4.8,1.6c-.68.23-1.23.7-1.56,1.33-.47.91-1.28,2.15-2.23,2.29-1.12.17-3.72-1.51-4.98-2.39-.48-.33-1.04-.5-1.63-.49l-3.75.08c-.44,0-.88-.09-1.27-.28l-10.67-5.24c-.97-.47-1.45-1.48-1.49-2.56-.03-.72-.34-1.39-.86-1.89l-.28-.27c-.6-.57-.91-1.37-.86-2.19l.14-2.07.58-6.15.79-6.43c.01-.12.02-.23.02-.35-.01-1.25-.06-9.17.58-11.09.7-2.09,3.95-7.77,6.96-8.82,3.02-1.04,26.8-10.44,29.82-13.34,3.02-2.9,21.35-14.16,25.06-16.01,2.91-1.46,10.11-5.13,13.08-6.64.82-.42,6,.27,6.8.73l4.92,1.61"/>
  <path class="cls-4" d="M153.4,268.12s3.56-3.56,11.84-4.14c8.28-.58,10.3,1.15,10.3,1.15,0,0-2.02,3.85-5.58,5.39-3.56,1.54-9.53,2.69-12.6,1.31s-3.95-3.71-3.95-3.71Z"/>
  <path class="cls-4" d="M192.82,251.9c-.68-.16-1.37-.02-2.02.32.02-.18-1.38-.7-1.56-1.18-4.25-11.45-13.96-23.69-26.81-25.36-1.39,1.73-.4,5.12-.17,7.1.17,1.45.3,2.92.79,4.3.82,2.31,2.07,1.75,2.96,1.83,1.03.1,2.07.08,3.1.15,1.89.12,4.11.43,5.25,2.14.91,1.36.73,3.26.55,4.81-.2,1.82-.47,3.67-1.84,5.02-1.41,1.38-4,1.46-4.91,3.36-.98,2.03.17,4.71.63,6.75.44,1.97,1.22,3.65,2.03,5.48.6,1.36,1.12,2.83.68,4.32-.57,1.95-2.45,2.97-4.09,3.9-1.4.79-3.4,1.54-4.22,3.03-.82,1.48-.21,3.62.37,5.09.54,1.35,1.43,2.53,2.53,3.47.01.01.02.02.04.03,2.21,1.86,5.52,1.73,7.75-.1,4.82-3.95,9.56-10.77,12.83-18.52,3.24-2.15,7.1-5.82,8.56-9.65,1.1-2.87-.4-5.81-2.45-6.28Z"/>
  <path class="cls-1" d="M344.6,241.96c-.05-8.53-5.36-16.47-12.48-21.17-12.28-8.1-34.78-10.32-43.68,4.08,1.58-1.13,3.58-1.64,5.51-1.42-4.85,1.76-8.47,6.08-10.32,10.89-1.85,4.82-2.11,10.1-1.78,15.25.72-.96,1.43-1.91,2.15-2.87-.47,3.14-.51,6.49.01,10.01,3.16,21.12,11.77,38.76,23.65,40.09,7.71.86,16.15-9.1,20.91-16.54,1.87-2.92,3.43-5.89,4.59-9.13,4.57-2.37,7.69-7.46,7.5-12.63-.02-.42-.05-.85-.24-1.23-.54-1.08-1.33-1.51-2.21-1.55.17-1.67.18-3.38.17-5.03,1.78,2.5,3.22,5.23,4.27,8.11,1.64-7.07,1.18-14.62-1.3-21.45,1.24,1.41,2.33,2.95,3.25,4.58Z"/>
  <path class="cls-1" d="M322.85,281.68l-.75,10.16c-.12,1.56-.75,3.03-1.81,4.18-3.24,3.5-10.46,10.95-13.76,11.66s-9.27-5.48-12.28-8.81c-1.15-1.27-1.78-2.91-1.78-4.62v-15.83l30.39,3.26Z"/>
  <path class="cls-4" d="M339.56,299.17c1.96-1.7,4.23-3.02,6.25-4.64,2.31-1.84,3.62-3.9,4.5-6.7,1.68-5.36,2.08-11.05,3.98-16.35.59-1.63,1.14-3.28,1.72-4.92-.09-1.57-.89-3-.44-3.92,3.41-6.92,8.8-22.06,8.8-22.06l-3.63,2-4.25,2.89-11.17,26.53-16.86,14.39c3.62,4.33,7.03,8.85,11.08,12.78Z"/>
  <path class="cls-4" d="M328.94,404.18c-2.69,5.73-5.34,11.47-7.92,17.24-2.73,6.11-4.29,12.91-8.24,18.31-6.77,9.26-1.65,5.98-1.77,6.26l44.57-4.47s-.93-46.6-.23-48.46c.7-1.86,15.78-29.26,15.78-29.26l2.55-40.59s-.13-4.94-.25-9.69c-10.1,9.88-18.66,21.24-28.63,31.26,1.34.25,2.45,1.03,2.79,2.69.53,2.54-.57,5.4-1.48,7.73-1.33,3.4-3.01,6.66-4.76,9.85-2.44,4.44-5.23,8.68-7.77,13.05,1.6-.46,3.2-.91,4.75-1.51.48-.19,1.21.21,1.28.73.74,5.18-1.47,10.2-3.84,14.68-2.18,4.11-4.85,7.97-6.83,12.18Z"/>
  <path class="cls-5" d="M355.32,264.6s5.43-22.02,9.95-27.49c2.31-2.79,4.42-14.87,5.27-19.09.84-4.23,7.37-26.76,7.37-26.76l3.16-22.11s-.84.63-2.53-2.74c-1.68-3.37-4.42-12.33-4.42-12.33l-5.17-10.57s-2.5-2.75-2.38-3.37c.59-3,4.4-2.5,5.41-.69.98,1.77,7.4,10.08,7.4,10.08l2.95,1.69,6.32-3.43s4.84-9.82,5.69-12.14,4-11.66,4.84-12.99,3.16-2.38,4-1.12-.21,8.21-1.26,9.9-2.95,11.02-2.95,11.02l.42,2.3,6.11-10.36,5.27-7.37s2.11-3.66,3.58-4.36,4.73,1.15,2.93,3.77c-2.2,3.2-5.25,9.01-5.25,9.01l-6.32,11.37,7.79-8.42,3.37-3.79s2.74-5.05,4-5.05,3.58,1.68,2.74,3.58c-.84,1.9-5.05,7.25-5.05,7.25l-5.69,7.65-2.74,4.9.42,1.15s8.21-1.83,9.69-2.86,5.48-3.43,5.48-3.43c0,0,2.74-1.08,3.37.23.63,1.32.21,3.41-3.37,6.05-3.58,2.64-12.85,6.46-12.85,6.46,0,0-5.69,5.66-9.48,11.34-3.79,5.69-6.11,8.85-6.11,8.85,0,0-8.64,51.06-9.69,56.39-1.05,5.32-3.58,9.96-3.58,9.96,0,0-2.74,16.22-2.95,16.85s-7.58,23.59-10.53,25.69c-2.95,2.11-8.64,2.11-10.32,0-1.68-2.11-4.41-7.4-5.25-9.35-.84-1.94.35-15.67.35-15.67Z"/>
  <path class="cls-4" d="M324.79,344.54c-3.76-.4-7.3-.41-10.88.91-1.94.71-3.82,1.57-5.8,2.17-1.83.55-3.7.93-5.58,1.24-3.45.57-6.97.75-10.26,2.03-3.08,1.2-5.87,3.09-8.49,5.08-2.63,2-5.13,4.16-7.78,6.14-2.66,1.98-5.39,3.82-7.75,6.16-2.18,2.16-4.1,4.77-4.64,7.86-.24,1.4-.3,3.18.26,4.6,1.03-.39,1.89-.87,2.47-1.47,4.23-4.4,36.57-26.92,40.29-26.92s9.99,2.03,14.9,1.69c4.91-.34,12.19,1.52,12.19,1.52l3.52.77c1.52.34,3.07-.58,3.46-2.09.08-.3.13-.56.13-.74,0-.7-2.21-1.32-2.97-1.97-.16-.14-.34-.25-.54-.34l-3.43-1.56,6.41.71c.76.08,1.5-.22,1.98-.81l.25-.3c.11-.13.21-.51.3-.97-5.94-1.56-11.86-3.08-18.03-3.73Z"/>
  <path class="cls-4" d="M429.09,148.03c-.19-.4-.59-.57-1.04-.62-3.01,4.19-7.28,7.23-12.01,9.3-5.67,2.47-12.04,3.95-18.25,3.5-2.2-.16-5.44-.89-7.32.61-1.32,1.05-1.79,2.93-2.03,4.52-.61,4.17.23,8.26,1.45,12.22.91,2.98.95,5.66.53,8.73-.41,3.04-1.06,6.04-1.81,9.02-1.56,6.2-3.39,12.31-4.71,18.57-2.67,12.64-3.9,25.61-2.25,38.48.2,1.54.43,3.07.69,4.6.8-4.64,1.69-9.88,1.69-9.88,0,0,2.53-4.63,3.58-9.96,1.05-5.32,9.69-56.39,9.69-56.39,0,0,2.32-3.16,6.11-8.85,3.79-5.69,9.48-11.34,9.48-11.34,0,0,9.27-3.82,12.85-6.46,3.58-2.64,4-4.73,3.37-6.05Z"/>
  <path class="cls-4" d="M307.28,268.31c.9.2,1.76.56,2.67.64,1.6.14,3.2-.59,4.79-.36,1.81.27,3.19,1.71,4.41,3.07.3.34.62.7.71,1.14.07.33.01.67-.05,1-.37,2.08-.77,4.21-1.92,5.98-.73,1.13-1.72,2.05-2.76,2.91-1.56,1.29-3.31,2.49-5.31,2.74-3.01.37-5.94-1.54-7.65-4.06-1.06-1.57-1.75-3.35-2.28-5.15-.36-1.23-1.27-3.14-.76-4.38,1.15-2.84,5.4-4.14,8.13-3.53Z"/>
  <path class="cls-4" d="M338.2,255.74c.16-1.55.18-3.14.17-4.68-.87-2.54-.88-5.52-2.62-7.61-.43-.52-.6-1.17-.48-1.78-.75-1.43-1.53-2.85-2.44-4.19-1.2-1.76-2.55-3.22-4.2-4.55-1.31-1.06-2.92-2.3-4.61-2.62-1.93-.36-1.96,1.89-1.41,3.2.96,2.26,2.95,4.04,4.56,5.82,2.55,2.82,3.81,6.19,4.46,9.84-.16-.14-.3-.28-.47-.41-2.1-1.58-4.63-2.52-7.19-3.09-1.55-.35-3.16-.58-4.74-.38-3.94.48-7.35,3.81-7.92,7.74-.15,1.06-.08,2.25.66,3.02.81.84,2.11.91,3.28.9,2.94-.03,5.92-.22,8.79.4,2.99.64,8.19,3.1,7.08,6.93-.67,2.3-1.65,4.59-3.13,6.49-.82,1.06-1.82,1.95-2.65,3-.85,1.06-1.57,2.22-2.25,3.4-2.43,4.24-4.39,10.38-9.4,12.26-2.84,1.06-6.01.99-8.92,1.79-.77.21-2.23.56-2.54,1.41-.36,1,.83,2.31,1.75,3.2,1.19.5,2.41.86,3.68,1,7.71.86,16.15-9.1,20.91-16.54,1.87-2.92,3.43-5.89,4.59-9.13,4.57-2.37,7.69-7.46,7.5-12.63-.02-.42-.05-.85-.24-1.23-.54-1.08-1.33-1.51-2.21-1.55Z"/>
</svg>