<svg width="966" height="453" viewBox="0 0 966 453" fill="none" xmlns="http://www.w3.org/2000/svg">
<path d="M398.2 449.4L-0.299988 450.1V-0.200012H966L398.2 449.4Z" fill="#FF0E49"/>
<path d="M966 453H-0.299988V221.2L966 453Z" fill="#FF7900"/>
<path d="M199.6 369.1C294.262 369.1 371 292.362 371 197.7C371 103.038 294.262 26.3 199.6 26.3C104.938 26.3 28.2 103.038 28.2 197.7C28.2 292.362 104.938 369.1 199.6 369.1Z" fill="#00AF3F"/>
<path d="M254.5 237.2C325.689 237.2 383.4 179.489 383.4 108.3C383.4 37.1105 325.689 -20.6 254.5 -20.6C183.31 -20.6 125.6 37.1105 125.6 108.3C125.6 179.489 183.31 237.2 254.5 237.2Z" fill="#44697D"/>
<g opacity="0.2">
<path d="M174.9 127.1C177.8 125.7 180.7 125.4 183.4 127.1C183.4 125.1 183.1 122.9 183.8 121.2C184.5 119.6 186.1 118 187.7 117.1C190.6 115.5 194.3 116.7 196.3 119.4C198.2 122 198.2 125.6 196.3 128.1C194.1 131.1 190.7 131.7 186.7 130C186.5 132.6 186.2 135.3 186 137.6C188.2 137.8 190.9 138.1 193.6 138.4C192.6 134.9 193.1 131.3 197.1 129C200.3 127.2 203.3 128.1 206 130.3C206.3 130.5 206.7 130.8 207 131C207.3 133.8 207.7 136.6 208 139.3C209.7 139.4 212 139.6 214.5 139.9C213.4 136.7 214.5 133.8 216.9 131.3H217.1C221.3 128.7 224.8 129.9 228 133V132.9C228.2 133.7 228.5 134.6 228.7 135.4C230 140.2 226 145 221.2 144.6C220 144.5 218.9 144.1 218 143.9C217.7 146.4 217.5 148.9 217.3 151C219.5 151.2 222.1 151.5 224.5 151.7C223.3 144 227.9 140 235.9 142.4C234.9 139.3 235.6 136.6 237.4 134C237.8 133.8 238.1 133.6 238.5 133.4C240.5 131.7 242.9 131.5 245.3 132.2C247.2 132.8 248.6 133.4 248 136.2C247.3 139.7 247.5 143.4 247.3 147C247.1 153 247.1 159.1 246.7 165.1C246.1 175 244.4 184.7 240.5 194.4C240.5 193.5 240.4 192.9 240.4 192.4C240.4 191.8 240.6 191.2 240.8 190.4C239.3 190.2 237.9 190 236.3 189.8C236.3 191.5 236.1 193.1 236 194.8C237.5 194.9 238.8 195.1 240.6 195.2C238.3 200.8 236.2 206.1 234 211.4C229.7 221.5 225.6 231.7 218.9 240.4C214.6 245.9 209.6 251 204.5 255.8C201.1 259 197.1 261.7 193.1 264.2C187.4 267.8 181.4 267.8 175.5 264.4C175 264.1 174.4 264 173.6 264.1C175.1 265.4 176.7 266.8 178.2 268.1C178.1 268.3 177.9 268.5 177.8 268.7C171.4 264.2 164.9 259.7 158.5 255.3C158.6 255.1 158.7 254.8 158.9 254.6C162 256.2 165.2 257.8 168.4 259.4C166.5 255.8 164.7 252.2 162.6 248.8C160.4 245.3 161.4 241.8 161.8 238.3C161.8 238 161.9 237.6 162 237.1C159.6 237.4 158.5 236.7 158.3 234C158.1 230.4 157.1 226.9 157 223.3C156.7 211.6 156.8 199.8 156.3 188.1C156 181.3 154.6 174.6 153.8 167.9C153.8 167.5 153.8 167 153.8 166.3C155.3 166.5 156.5 166.7 157.9 167C158.1 165.2 158.2 163.3 158.4 161.2H151.7C150.9 157.6 146 154.3 149.7 148.7C145 150.8 143.8 147.4 142.1 145C140.5 142.7 137.1 140.7 140.4 136.8C136.1 139.1 134.2 135.9 132.1 133.6C130 131.3 127.6 128.8 130.9 125.3C125.7 126.3 122.3 124.9 120.4 121.2C119.2 118.8 120.4 114.9 122.8 113C125.3 111.1 129 111.1 131.5 113C134.5 115.3 135 118.7 133 123.2C136.5 121.9 139.6 122.2 142.2 124.7C142.5 125 142.9 125.3 143.2 125.7C144.6 128.7 144.8 131.7 143.1 134.2C145.8 134.5 148.5 134.7 151.3 135C150.1 132.3 150.8 129.4 152.9 126.8C153.3 126.4 153.6 126.1 154 125.7C159.9 123.7 164.4 125.4 165.5 130.3C165.9 132.1 165.4 134.1 165.3 135.6C167.7 135.9 170.2 136.3 172.8 136.6C171.4 133.3 172.4 130.4 174.9 127.8C175.1 127.6 175.2 127.5 175.4 127.3L174.9 127.1ZM203.1 143.1C200.9 142.8 198.4 142.5 196.2 142.2C196 144.5 195.9 147 195.7 149.3C197.9 149.5 200.5 149.8 203 150.1V143.1H203.1ZM181.1 147.7C181.4 145.4 181.8 142.9 182.1 140.9C179.8 140.7 177.2 140.4 174.8 140.2C174.8 142.2 174.6 144.7 174.5 147C176.6 147.2 179 147.5 181.1 147.7ZM160.2 139.5C157.9 139.1 155.4 138.8 153.5 138.5C153.3 140.9 153.2 143.3 153.1 145.4C155.4 145.7 157.9 146 160.3 146.3V139.5H160.2ZM205.8 153.6V160.1C208 160.4 210.1 160.6 212 160.9C212.3 158.7 212.7 156.4 212.9 154.6C210.6 154.3 208.1 154 205.8 153.7V153.6ZM184.8 152.2C184.7 154.3 184.5 156.4 184.4 158.5C186.4 158.7 188.6 159 190.5 159.2C190.8 157 191.2 154.7 191.5 152.8C189.3 152.6 187 152.4 184.8 152.2ZM233.5 156.8C231.4 156.4 229.3 156 227.5 155.7C227.4 157.9 227.2 160.3 227.1 162.5C229.2 162.7 231.4 162.9 233.5 163.1V156.8ZM163.2 149.9V156.4C165.2 156.4 167.2 156.6 169 156.7C169.3 154.7 169.6 152.6 169.8 150.8C167.5 150.5 165.2 150.1 163.1 149.8L163.2 149.9ZM221.4 172.5C221.7 170.4 221.9 168.3 222.2 166.3C220.2 166.1 218 165.9 216.1 165.7C216 167.7 215.9 169.8 215.8 171.7C217.8 172 219.7 172.2 221.5 172.4L221.4 172.5ZM189 180.5V174.7C187.2 174.7 185.4 174.5 183.7 174.4C183.5 176.1 183.3 178 183.2 179.8C185.1 180 187 180.2 189 180.5ZM200.5 164.9C198.4 164.7 196.5 164.5 194.5 164.2V169.8C196.2 169.8 198.1 170 199.9 170.1C200.1 168.3 200.3 166.7 200.5 164.9ZM214.2 193.2C216 193.4 217.9 193.5 219.6 193.7C219.8 191.7 220 189.8 220.2 187.9H214.7C214.5 189.6 214.4 191.4 214.2 193.2ZM162 172C161.8 173.9 161.7 175.8 161.6 177.5C163.5 177.7 165.4 177.8 167.2 178C167.4 176.2 167.6 174.5 167.8 172.8C165.9 172.6 164 172.3 162.1 172.1L162 172ZM198.7 186.1C196.9 185.9 195.1 185.7 193 185.5V191C194.8 191.2 196.5 191.4 198.2 191.5C198.4 189.7 198.5 188 198.7 186V186.1ZM202.5 202.8C204.3 203 206.1 203.1 207.9 203.3C208.1 201.5 208.2 199.7 208.4 197.9C206.6 197.7 204.8 197.6 203 197.4C202.8 199.2 202.7 200.9 202.5 202.8ZM194.4 234.4C194.6 232.6 194.7 230.7 194.9 228.9C193.1 228.7 191.3 228.5 189.5 228.4C189.3 230.2 189.2 232.1 189 233.9C190.8 234.1 192.5 234.2 194.4 234.4ZM182.7 244.1C182.9 242.2 183 240.4 183.2 238.6C181.4 238.4 179.6 238.3 177.7 238.1C177.5 239.9 177.3 241.7 177.2 243.5C178.9 243.7 180.7 243.9 182.7 244.1ZM196.6 207.6C194.8 207.4 193 207.3 191.1 207.1C190.9 208.9 190.7 210.8 190.5 212.8H196C196.2 211 196.4 209.3 196.5 207.6H196.6ZM179.7 216.8V222.1C181.5 222.3 183.2 222.5 184.8 222.6C185 220.7 185.2 218.9 185.3 217.1C183.4 217.1 181.6 216.9 179.6 216.8H179.7ZM179.3 162.6H174C173.8 164.4 173.6 166.2 173.5 168.1C175.2 168.2 176.9 168.3 178.5 168.4C178.8 166.4 179.1 164.5 179.4 162.6H179.3ZM225.8 177.7C225.7 179.7 225.5 181.7 225.4 183.8H230.6C230.7 181.9 230.8 180.2 230.9 178.6C229.2 178.3 227.5 178 225.8 177.7ZM176.8 189.9C177 188.1 177.1 186.3 177.3 184.5C175.5 184.4 173.7 184.2 172 184.1C171.8 186 171.7 187.8 171.5 189.5C173.2 189.7 174.9 189.8 176.7 190L176.8 189.9ZM212.6 209.1C212.4 210.9 212.2 212.8 212.1 214.6C214 214.8 215.8 214.9 217.5 215V209.7C215.9 209.5 214.3 209.3 212.6 209.1ZM209.5 181.8C209.7 180 209.9 178.3 210.1 176.4C208.4 176.3 206.7 176.1 205 176C204.8 177.9 204.7 179.7 204.5 181.5C206.2 181.5 207.8 181.7 209.5 181.8ZM181.4 195.7V200.7C183.1 200.9 184.8 201.1 186.5 201.3C186.5 199.7 186.7 198 186.8 196.4C185.1 196.2 183.3 196 181.4 195.8V195.7ZM201.4 219C201.2 220.7 201 222.5 200.8 224.3C202.4 224.3 204.1 224.5 205.7 224.5C205.9 222.8 206.1 221 206.3 219.3C204.7 219.3 203 219.1 201.4 219ZM173.1 232.3C173.1 230.6 173.3 229 173.4 227.4C171.6 227.2 169.9 227 168.1 226.8C168 228.4 167.9 230.1 167.8 231.7C169.5 231.9 171.3 232.1 173.2 232.3H173.1ZM238.9 146.2V152.2H243.2C243.4 150.4 243.6 148.8 243.8 147.2C242.1 146.9 240.6 146.6 238.8 146.2H238.9ZM175 205.9H170.7C170.5 207.7 170.3 209.3 170.1 210.9C171.8 211 173.3 211.1 174.8 211.2C174.8 209.4 175 207.7 175.1 205.8L175 205.9ZM187.4 249.8C187.3 251.5 187.2 253.1 187.1 254.8H191.9C192.1 253.3 192.3 251.8 192.6 250.4C190.9 250.2 189.3 250 187.5 249.8H187.4ZM198.8 245.2C200.3 245.3 201.9 245.4 203.7 245.5V240.8C202.2 240.6 200.7 240.3 199.2 240.1C199.1 241.8 199 243.4 198.8 245.1V245.2ZM241.6 173.3C241.8 171.6 241.9 170 242.1 168.5C240.4 168.1 238.8 167.8 237.3 167.5V173.1C238.7 173.1 240.2 173.2 241.6 173.3ZM229.5 200.1C227.6 199.9 225.9 199.7 224.2 199.5V204.1C225.9 204.3 227.5 204.5 229.1 204.7C229.2 203.1 229.3 201.7 229.4 200.1H229.5ZM222.1 220.6V225.4H226.5C226.6 224 226.8 222.7 226.9 221.4C225.3 221.1 223.8 220.9 222.1 220.6ZM170.9 252.8C171.1 251.1 171.4 249.7 171.6 248.2C169.8 248.2 168.2 248 166.6 248V252.4C168.1 252.6 169.4 252.7 171 252.9L170.9 252.8ZM159.7 215.8C159.5 217.5 159.4 218.9 159.2 220.4C160.7 220.6 162 220.9 163.4 221.1C163.5 219.3 163.6 217.6 163.8 215.8H159.7ZM210.9 234.9C212.4 234.9 213.9 235.1 215.4 235.1C215.5 233.6 215.6 232.3 215.7 231C214 230.9 212.5 230.8 210.9 230.7V234.9ZM161.3 194.2C161.2 195.8 161.1 197.1 160.9 198.6C162.3 198.8 163.5 199 164.9 199.2C165.1 197.5 165.2 195.9 165.4 194.2H161.3ZM176.7 263.8C178 263.8 179.1 264 180.3 264.1C180.6 262.6 180.8 261.3 181 259.9H176.9C176.9 261.2 176.7 262.4 176.6 263.8H176.7Z" fill="black"/>
<path d="M153.5 125.4C153.1 125.8 152.8 126.1 152.4 126.5C149 127.9 145.8 127.8 142.8 125.4C142.5 125.1 142.1 124.8 141.8 124.4C140 120.3 140.7 116.7 144 113.6C147 112.5 150 112 153.1 114.4C152.8 113.3 152.6 112.6 152.5 111.9C151.9 108.5 153.3 105.5 156.2 104C159 102.5 162.6 103.2 164.8 105.5C167 107.8 167.3 111.3 165.7 114.2C165.4 114.7 165.1 115.3 164.9 115.8H165C161.8 117.7 158.5 118.6 154.5 115.9C156.5 119.8 155.6 122.7 153.7 125.5L153.5 125.4Z" fill="black"/>
<path d="M174.9 127.1C174.7 127.3 174.6 127.4 174.4 127.6C173.6 127.9 172.8 128.3 172 128.6C167.3 130.1 162.3 126.9 162.4 122C162.4 119.9 164 117.8 164.8 115.8H164.7C167.8 114.1 171 113.6 174.4 115.8C172.9 112.4 173.9 109.5 175.5 106.7C176 106.5 176.6 106.2 177.1 105.9C180.3 104.1 184 104.6 186.3 107.2C188.5 109.7 188.7 113.6 186.7 116.3C184.6 119.1 181 120 177.6 118.4C177.1 118.2 176.7 118 175.8 117.5C177.8 121.2 176.8 124.2 175 127.1H174.9Z" fill="black"/>
<path d="M238.7 122.2C238.3 120.7 237.7 119.1 237.7 117.6C237.8 112.8 242.5 109.6 247.1 110.9C247.8 111.1 248.4 111.3 249.1 111.6C249.1 104.6 250 102.7 254 101.5C251.9 111.7 249.7 122.1 247.6 132.2C246.2 130.1 246.9 127.6 247.8 124.8C243.9 126.1 241.1 124.5 238.5 122.1L238.7 122.2Z" fill="black"/>
<path d="M207 131C206.7 130.8 206.3 130.5 206 130.3C204.2 127 204.1 123.8 206 120.5C206.3 120.2 206.7 119.8 207 119.5C208.7 119 210.4 118.2 212.1 118.2C217.5 118.2 220.7 124 218.3 128.8C217.9 129.6 217.5 130.4 217.1 131.1H216.9C213.6 132.9 210.3 133.4 207.1 131H207Z" fill="black"/>
<path d="M238.3 133.3C237.9 133.5 237.6 133.7 237.2 133.9C233.9 135.1 230.8 134.7 227.8 132.8V132.9C227.6 132.4 227.4 131.9 227.2 131.5C225.4 128.4 225.7 124.9 228 122.5C230.4 120 234 119.7 237.2 121.6C237.6 121.9 238.1 122 238.6 122.2C241 126 240.8 129.7 238.3 133.4V133.3Z" fill="black"/>
<path d="M143.9 113.6C143.4 113.9 142.8 114.1 142.3 114.4C139 116.3 135.2 115.6 132.9 112.9C130.8 110.3 130.7 106.4 132.9 103.8C135.1 101 139 100.3 142.2 102.1C142.7 102.4 143.3 102.6 143.8 102.9C146.3 106.4 146.3 110.1 143.9 113.7V113.6Z" fill="black"/>
<path d="M207 119.5C206.7 119.8 206.3 120.2 206 120.5C205 120.7 203.9 121 202.9 121.1C199.5 121.4 196.4 119.5 195.4 116.4C194.3 113.3 195.6 109.8 198.4 108C201.2 106.3 204.9 106.7 207.2 109.1C209.5 111.5 209.9 115.1 208.1 117.9C207.8 118.4 207.4 118.9 207 119.4V119.5Z" fill="black"/>
<path d="M117 99.6C121 99.6 124.1 102.6 124.2 106.6C124.2 110.7 121.1 113.9 117 113.8C113 113.8 110 110.7 110 106.7C110 102.7 113.1 99.6 117.1 99.6H117Z" fill="black"/>
<path d="M107.5 102C103.5 102 100.4 99 100.4 94.9C100.4 90.9 103.5 87.8 107.5 87.8C111.4 87.8 114.4 90.8 114.5 94.7C114.5 98.7 111.5 101.9 107.5 101.9V102Z" fill="black"/>
<path d="M223.7 122.8C219.7 122.8 216.6 119.7 216.6 115.7C216.6 111.7 219.7 108.6 223.7 108.7C227.6 108.7 230.6 111.7 230.7 115.6C230.7 119.6 227.7 122.7 223.7 122.8Z" fill="black"/>
<path d="M135.3 97C135.3 101 132.2 104.1 128.1 104C124.2 104 121.2 100.9 121.2 97C121.2 93 124.3 89.9 128.4 90C132.3 90 135.3 93.1 135.3 97Z" fill="black"/>
<path d="M143.8 102.9C143.4 101.7 142.9 100.6 142.8 99.4C142.4 95.9 144.6 92.8 147.9 91.9C151.1 91 154.5 92.6 156 95.5C157.5 98.4 156.8 102.1 154.2 104.2C151.6 106.3 148 106.3 145.3 104.2C144.7 103.8 144.2 103.3 143.7 102.8L143.8 102.9Z" fill="black"/>
<path d="M220.9 104.6C220.9 108.4 217.7 111.5 213.9 111.5C210.1 111.5 207 108.3 207 104.5C207 100.7 210.2 97.6 214 97.6C217.8 97.6 220.9 100.8 220.9 104.6Z" fill="black"/>
<path d="M125.6 85.2C125.6 89 122.5 92.2 118.7 92.2C114.9 92.2 111.7 89.1 111.7 85.3C111.7 81.5 114.8 78.3 118.6 78.3C122.4 78.3 125.6 81.4 125.6 85.2Z" fill="black"/>
<path d="M175.4 106.7C174.8 106.9 174.2 107.1 173.7 107.3C170.3 108.5 166.7 107.3 165 104.1C163.4 101.1 164.2 97.3 166.9 95.2C169.7 93.1 173.7 93.3 176.1 95.8C178.6 98.3 178.8 102.2 176.6 105.1C176.2 105.7 175.7 106.2 175.3 106.7H175.4Z" fill="black"/>
<path d="M199.5 102.5C199.5 106.3 196.2 109.4 192.4 109.3C188.6 109.2 185.5 105.9 185.7 102.1C185.8 98.4 189 95.4 192.7 95.4C196.5 95.4 199.7 98.6 199.6 102.5H199.5Z" fill="black"/>
<path d="M235.4 99.2C239.2 99.2 242.4 102.5 242.3 106.3C242.3 110 239 113.1 235.4 113C231.6 113 228.4 109.7 228.5 105.9C228.5 102.2 231.8 99.1 235.4 99.2Z" fill="black"/>
<path d="M182.8 97.5C179.1 97.5 176 94.2 176 90.6C176 86.8 179.4 83.6 183.1 83.8C186.8 84 189.8 87.2 189.7 90.9C189.6 94.6 186.4 97.7 182.7 97.6L182.8 97.5Z" fill="black"/>
<path d="M161.6 95.9C158 95.9 154.7 92.9 154.6 89.2C154.5 85.5 157.7 82.1 161.5 82.2C165.2 82.2 168.3 85.4 168.3 89C168.3 92.6 165.2 95.8 161.5 95.9H161.6Z" fill="black"/>
<path d="M147 87C147 90.8 143.6 93.9 139.9 93.8C136.2 93.7 133.2 90.5 133.2 86.8C133.2 83 136.6 79.9 140.3 80C144 80.1 147 83.3 147 87Z" fill="black"/>
<path d="M104.1 83.6C104.1 87.3 101 90.5 97.4 90.5C94 90.5 90.4 86.8 90.4 83.1C90.4 79.9 93.7 76.8 97.2 76.8C100.9 76.8 104.1 79.9 104.1 83.6Z" fill="black"/>
<path d="M211.1 92.7C211.1 96.4 208 99.6 204.3 99.6C200.6 99.6 197.5 96.4 197.5 92.8C197.5 89.2 200.5 86.2 204.1 86.1C207.8 86 211 89.1 211 92.8L211.1 92.7Z" fill="black"/>
<path d="M151.9 70.4C155.6 70.4 158.7 73.6 158.7 77.3C158.7 81 155.4 84.1 151.7 84C148.1 83.9 145.1 80.8 145.1 77.2C145.1 73.5 148.3 70.3 151.9 70.4Z" fill="black"/>
<path d="M137.2 75.7C137.2 79.4 133.9 82.5 130.3 82.4C126.6 82.3 123.5 79.1 123.7 75.4C123.9 71.8 126.9 68.8 130.5 68.9C134.2 68.9 137.3 72.1 137.2 75.8V75.7Z" fill="black"/>
<path d="M115.8 73.4C115.8 77.1 112.7 80.3 109 80.3C105.3 80.3 102.2 77.2 102.2 73.5C102.2 69.9 105.2 66.9 108.8 66.7C112.5 66.6 115.7 69.7 115.8 73.4Z" fill="black"/>
<path d="M225.3 101.1C221.6 101.1 218.4 98.1 218.4 94.4C218.4 90.8 221.4 87.7 225 87.7C228.7 87.7 231.9 90.7 231.9 94.4C231.9 98 228.9 101.1 225.3 101.1Z" fill="black"/>
<path d="M253.3 96.9C253 100.7 249.8 103.5 246.1 103.2C242.4 102.9 239.7 99.7 239.9 96.1C240.2 92.3 243.4 89.5 247.1 89.8C250.8 90.1 253.5 93.3 253.3 96.9Z" fill="black"/>
<path d="M180 79.4C180 83.1 176.9 86.2 173.2 86.1C169.6 86.1 166.6 83.1 166.6 79.4C166.6 75.7 169.7 72.6 173.4 72.7C177 72.7 180 75.7 180 79.4Z" fill="black"/>
<path d="M200.8 80.9C200.8 84.6 198 87.5 194.2 87.6C190.5 87.6 187.6 84.8 187.5 81C187.5 77.3 190.3 74.4 194.1 74.3C197.8 74.3 200.7 77.1 200.8 80.9Z" fill="black"/>
<path d="M215.5 76.5C219.2 76.5 222.1 79.4 222.1 83.1C222.1 86.8 219.2 89.7 215.5 89.7C211.8 89.7 208.9 86.8 208.9 83.1C208.9 79.4 211.8 76.5 215.5 76.5Z" fill="black"/>
<path d="M106 62.3C106 66 103.1 68.9 99.3001 68.9C95.6001 68.9 92.7001 66 92.7001 62.2C92.7001 58.5 95.6001 55.6 99.4001 55.6C103.1 55.6 106 58.5 106 62.3Z" fill="black"/>
<path d="M237.4 78.2C241 78.4 243.6 81.3 243.5 85C243.4 88.7 240.4 91.4 236.6 91.2C232.9 91 230.3 88 230.5 84.2C230.7 80.6 233.7 78.1 237.4 78.2Z" fill="black"/>
<path d="M169.6 67.8C169.5 71.4 166.6 74.1 163 74C159.3 74 156.5 70.9 156.7 67.2C156.9 63.7 159.8 61 163.4 61.1C167 61.2 169.7 64.2 169.6 67.8Z" fill="black"/>
<path d="M127.3 63.9C127.3 67.6 124.4 70.4 120.7 70.4C117 70.4 114.2 67.5 114.3 63.7C114.3 60.1 117.2 57.4 120.8 57.3C124.5 57.3 127.4 60.1 127.4 63.8L127.3 63.9Z" fill="black"/>
<path d="M191 69.9C191 73.5 188.1 76.3 184.5 76.2C180.8 76.2 178 73.2 178.1 69.5C178.2 65.9 181.1 63.2 184.8 63.3C188.4 63.3 191.1 66.3 191.1 69.9H191Z" fill="black"/>
<path d="M148.7 65.9C148.7 69.6 145.8 72.5 142.1 72.4C138.5 72.4 135.7 69.6 135.7 65.9C135.7 62.2 138.6 59.3 142.3 59.4C145.9 59.4 148.7 62.2 148.7 65.9Z" fill="black"/>
<path d="M89.8 44C93.3 44 96.2 46.9 96.2 50.5C96.2 54 93.3 56.9 89.7 56.9C86.2 56.9 83.3 54 83.3 50.4C83.3 46.9 86.2 44 89.8 44Z" fill="black"/>
<path d="M255.2 75.1C255.2 78.6 252.1 81.5 248.7 81.4C245.3 81.4 242.5 78.4 242.5 75C242.5 71.5 245.6 68.6 249 68.7C252.4 68.7 255.2 71.7 255.2 75.1Z" fill="black"/>
<path d="M233.7 73.5C233.7 77 230.6 80 227.1 79.9C223.7 79.9 220.9 76.9 220.9 73.5C220.9 70 224 67 227.5 67.1C230.9 67.1 233.7 70.1 233.7 73.5Z" fill="black"/>
<path d="M159.9 55.7C159.9 59.2 157 62.2 153.5 62.2C150.1 62.2 147.2 59.3 147.1 55.9C147.1 52.4 150 49.4 153.5 49.4C156.9 49.4 159.8 52.3 159.9 55.7Z" fill="black"/>
<path d="M117 52C117 55.5 114.2 58.5 110.6 58.5C107.1 58.5 104.1 55.6 104.2 52.1C104.2 48.7 107 45.8 110.4 45.7C113.9 45.7 116.9 48.5 117 52Z" fill="black"/>
<path d="M138.4 54.2C138.4 57.7 135.4 60.7 131.9 60.6C128.5 60.6 125.6 57.6 125.7 54.2C125.7 50.7 128.7 47.7 132.2 47.8C135.6 47.8 138.5 50.8 138.4 54.2Z" fill="black"/>
<path d="M212.3 71.3C212.3 74.8 209.3 77.7 205.8 77.7C202.3 77.7 199.4 74.7 199.5 71.2C199.5 67.8 202.4 65 205.8 64.9C209.3 64.9 212.3 67.8 212.3 71.3Z" fill="black"/>
<path d="M100.9 34.5C104.3 34.5 107.3 37.3 107.4 40.7C107.5 44.2 104.5 47.2 101 47.2C97.6001 47.2 94.7001 44.3 94.7001 40.9C94.7001 37.5 97.6001 34.6 101 34.5H100.9Z" fill="black"/>
<path d="M181.2 58C181.2 61.4 178.3 64.3 174.9 64.3C171.5 64.3 168.6 61.4 168.6 58C168.6 54.6 171.5 51.7 174.9 51.7C178.3 51.7 181.2 54.6 181.2 58Z" fill="black"/>
<path d="M202.6 59.8C202.5 63.2 199.4 66 196.1 65.9C192.7 65.7 189.9 62.7 190.1 59.3C190.3 56 193.2 53.3 196.5 53.4C199.9 53.4 202.8 56.5 202.6 59.9V59.8Z" fill="black"/>
<path d="M122.2 48.7C118.8 48.6 116 45.6 116.2 42.2C116.4 38.8 119.4 36 122.8 36.2C126.1 36.4 128.8 39.3 128.7 42.6C128.7 46 125.6 48.8 122.2 48.7Z" fill="black"/>
<path d="M224 61.8C224 65.2 220.9 68.1 217.6 67.9C214.2 67.8 211.4 64.8 211.5 61.4C211.7 58.1 214.5 55.4 217.8 55.4C221.2 55.4 224.1 58.4 224 61.8Z" fill="black"/>
<path d="M143.9 38.4C147.3 38.4 150.2 41.4 150 44.8C149.9 48.2 147.1 50.8 143.8 50.8C140.4 50.8 137.5 47.8 137.7 44.4C137.8 41 140.6 38.4 143.9 38.4Z" fill="black"/>
<path d="M238.9 69.5C235.5 69.4 232.9 66.6 233 63.2C233 59.7 236 57 239.5 57.2C242.9 57.4 245.5 60.2 245.3 63.6C245.1 67 242.3 69.6 238.9 69.5Z" fill="black"/>
<path d="M192.8 48.3C192.8 51.7 190.2 54.4 186.8 54.5C183.3 54.5 180.5 51.8 180.6 48.3C180.6 44.9 183.4 42.2 186.7 42.3C190.1 42.3 192.8 45 192.8 48.4V48.3Z" fill="black"/>
<path d="M171.4 46.3C171.4 49.7 168.6 52.3 165.2 52.3C161.8 52.3 159.2 49.5 159.2 46.1C159.2 42.7 162 40.1 165.4 40.1C168.8 40.1 171.4 42.9 171.4 46.3Z" fill="black"/>
<path d="M214.1 49.9C214.1 53.3 211.5 56 208 56C204.6 56 201.9 53.3 202 49.9C202 46.6 204.6 44 207.9 44C211.4 44 214 46.5 214 50L214.1 49.9Z" fill="black"/>
<path d="M260.1 59.4C263.5 59.4 266.1 62.1 266.1 65.6C266.1 69 263.3 71.6 259.8 71.5C256.5 71.4 254 68.8 254 65.4C254 61.9 256.7 59.3 260.1 59.4Z" fill="black"/>
<path d="M118.7 31.3C118.7 34.7 115.9 37.3 112.5 37.1C109.2 37 106.7 34.3 106.8 31C106.8 27.6 109.6 25 113 25.2C116.3 25.3 118.8 28 118.7 31.3Z" fill="black"/>
<path d="M229 46.1C232.4 46.1 235 48.8 234.9 52.3C234.9 55.6 232.2 58.1 228.8 58.1C225.4 58.1 222.8 55.4 222.9 51.9C222.9 48.6 225.6 46.1 229 46.1Z" fill="black"/>
<path d="M161.5 34.9C161.5 38.2 158.9 40.8 155.6 40.8C152.3 40.8 149.7 38.2 149.7 34.9C149.7 31.6 152.3 29 155.6 29C158.9 29 161.5 31.6 161.5 34.9Z" fill="black"/>
<path d="M91.4 35C87.9 35 85.3 32.4 85.4 28.9C85.4 25.6 88 23 91.4 23C94.9 23 97.5 25.6 97.4 29.1C97.4 32.4 94.8 35 91.4 35Z" fill="black"/>
<path d="M128.2 32.4C128.4 29.1 131.1 26.7 134.5 26.8C137.9 26.9 140.4 29.8 140.1 33.3C139.9 36.6 137.1 38.9 133.7 38.7C130.4 38.5 128 35.7 128.2 32.4Z" fill="black"/>
<path d="M250.5 59.6C247 59.6 244.4 57 244.4 53.6C244.4 50.3 246.9 47.7 250.3 47.7C253.8 47.7 256.4 50.3 256.4 53.7C256.4 57 253.9 59.6 250.5 59.6Z" fill="black"/>
<path d="M109 19.5C109 22.8 106.2 25.4 103 25.3C99.7 25.3 97.1 22.5 97.3 19.2C97.4 16 100 13.5 103.2 13.5C106.5 13.5 109.1 16.2 109.1 19.5H109Z" fill="black"/>
<path d="M182.9 36.6C182.9 39.9 180.1 42.5 176.9 42.4C173.6 42.4 171 39.6 171.2 36.3C171.3 33.1 173.9 30.6 177.1 30.6C180.4 30.6 183 33.3 183 36.6H182.9Z" fill="black"/>
<path d="M197.9 44.5C194.6 44.5 192 41.7 192.1 38.5C192.1 35.3 194.8 32.8 198 32.8C201.3 32.8 203.9 35.6 203.8 38.8C203.8 42 201.1 44.5 197.9 44.5Z" fill="black"/>
<path d="M240.7 36.6C243.8 36.6 246.5 39.2 246.6 42.3C246.6 45.4 244 48.1 240.9 48.2C237.8 48.2 235.1 45.6 235 42.5C235 39.4 237.6 36.7 240.7 36.6Z" fill="black"/>
<path d="M213.5 40.1C213.6 36.9 216.5 34.3 219.7 34.5C222.8 34.7 225.3 37.4 225.2 40.6C225.1 43.8 222.2 46.4 219 46.2C215.9 46 213.4 43.3 213.5 40.1Z" fill="black"/>
<path d="M130.4 21C130.4 24.1 127.8 26.8 124.6 26.8C121.4 26.8 118.6 24 118.7 20.8C118.7 17.7 121.5 15.1 124.6 15.1C127.7 15.1 130.4 17.8 130.4 20.9V21Z" fill="black"/>
<path d="M87.8 78.8C86.3 74.6 84.8 70.6 83.3 66.6C86 64.6 88.7 64.4 91.2 65.9C93.7 67.4 95 70.4 94.4 73.2C93.8 76.2 91.6 78.1 87.7 78.7L87.8 78.8Z" fill="black"/>
<path d="M145.5 28.9C142.4 28.9 139.7 26.3 139.6 23.2C139.6 20.1 142.2 17.4 145.3 17.3C148.4 17.3 151.1 19.9 151.2 23C151.2 26.1 148.6 28.8 145.5 28.9Z" fill="black"/>
<path d="M93.4001 1.89996C96.5001 1.89996 99.2001 4.49996 99.2001 7.59996C99.2001 10.7 96.5001 13.4 93.4001 13.4C90.4001 13.4 87.8001 10.8 87.7001 7.79996C87.6001 4.69996 90.2001 1.99996 93.3001 1.89996H93.4001Z" fill="black"/>
<path d="M267.9 44C267.9 47.1 265.2 49.8 262.1 49.7C259 49.7 256.3 46.9 256.4 43.8C256.4 40.8 259.1 38.2 262.1 38.2C265.2 38.2 267.9 40.8 267.9 43.9V44Z" fill="black"/>
<path d="M114.4 15.5C111.3 15.5 108.6 12.7 108.7 9.59996C108.8 6.59996 111.4 3.99996 114.4 4.09996C117.5 4.09996 120.2 6.89996 120.1 9.99996C120 13 117.4 15.6 114.4 15.5Z" fill="black"/>
<path d="M166.9 30.5C163.8 30.5 161.1 27.8 161.1 24.7C161.1 21.6 163.8 18.9 166.9 19C169.9 19 172.5 21.6 172.6 24.6C172.6 27.7 170 30.4 166.9 30.5Z" fill="black"/>
<path d="M194 26.9C194 30 191.3 32.7 188.2 32.6C185.1 32.6 182.4 29.8 182.5 26.7C182.5 23.7 185.2 21.1 188.2 21.1C191.3 21.1 194 23.7 194 26.8V26.9Z" fill="black"/>
<path d="M263.3 82.4C261.7 85.7 260 88.7 258.6 91.9C257.9 93.5 257 93.6 255.7 92.9C253.2 91.7 251.9 89.7 251.9 87C251.9 84.3 253.1 82.1 255.6 81C258.4 79.7 260.9 80.1 263.4 82.4H263.3Z" fill="black"/>
<path d="M215.3 28.5C215.3 31.6 212.8 34.1 209.7 34.1C206.5 34.1 203.9 31.5 204 28.3C204 25.2 206.6 22.8 209.7 22.8C212.8 22.8 215.3 25.4 215.3 28.4V28.5Z" fill="black"/>
<path d="M141.5 11.3C141.5 14.3 139 16.9 135.9 17C132.8 17 130.1 14.4 130.1 11.2C130.1 8.09998 132.8 5.59998 135.8 5.59998C138.9 5.59998 141.4 8.19998 141.4 11.2L141.5 11.3Z" fill="black"/>
<path d="M110.2 -2.10003C110.2 0.999969 108 3.39997 104.9 3.39997C101.7 3.39997 99.3 1.09997 99.3 -2.10003C99.3 -5.20003 101.6 -7.50003 104.7 -7.50003C107.8 -7.50003 110.1 -5.20003 110.2 -2.20003V-2.10003Z" fill="black"/>
<path d="M178.6 9.69998C181.8 9.69998 184.1 12.1 184 15.3C184 18.4 181.6 20.6 178.5 20.6C175.3 20.6 173 18.2 173.1 15C173.1 11.9 175.5 9.69998 178.6 9.69998Z" fill="black"/>
<path d="M258.1 32.3C258.1 35.5 255.6 37.9 252.5 37.8C249.4 37.8 247 35.3 247.1 32.1C247.1 29.1 249.6 26.7 252.6 26.7C255.8 26.7 258.2 29.1 258.2 32.3H258.1Z" fill="black"/>
<path d="M273.9 39.8C270.8 39.8 268.5 37.4 268.5 34.3C268.5 31.1 271 28.8 274.2 28.9C277.3 28.9 279.5 31.4 279.4 34.5C279.4 37.6 277 39.8 273.9 39.8Z" fill="black"/>
<path d="M271.8 50.3C274.9 50.3 277.4 52.8 277.3 55.9C277.3 59 274.7 61.4 271.6 61.4C268.6 61.4 266.2 58.9 266.2 55.9C266.2 52.7 268.6 50.3 271.8 50.3Z" fill="black"/>
<path d="M221.4 24.3C218.3 24.3 216 22 216 18.9C216 15.7 218.4 13.4 221.6 13.4C224.6 13.4 226.9 15.8 226.9 18.9C226.9 22 224.5 24.2 221.4 24.2V24.3Z" fill="black"/>
<path d="M236.6 30.7C236.6 33.8 234.1 36.2 231 36.2C227.9 36.2 225.5 33.7 225.6 30.5C225.6 27.5 228.1 25.2 231.1 25.2C234.3 25.2 236.7 27.6 236.6 30.8V30.7Z" fill="black"/>
<path d="M200.1 22.7C197 22.7 194.7 20.4 194.6 17.4C194.6 14.2 197 11.8 200.1 11.9C203.2 11.9 205.4 14.3 205.4 17.4C205.4 20.5 203.1 22.8 200 22.8L200.1 22.7Z" fill="black"/>
<path d="M157.2 19C154 19 151.7 16.6 151.7 13.4C151.7 10.3 154.2 7.89996 157.4 7.99996C160.4 7.99996 162.7 10.4 162.8 13.5C162.8 16.7 160.4 19.1 157.3 19.1L157.2 19Z" fill="black"/>
<path d="M77.9 20.2C78.2 17.2 78.2 15.2 78.6 13.2C78.7 12.6 79.6 11.8 80.3 11.6C82.6 10.8 85.4 12 86.7 14.2C88.1 16.4 87.9 19.2 86.2 21.1C84.5 23.1 81.6 23.9 79.5 22.6C78.5 22 78.1 20.6 77.9 20.2Z" fill="black"/>
<path d="M269.1 22.7C269.1 25.7 266.5 28.1 263.6 28C260.7 27.9 258.4 25.5 258.4 22.6C258.4 19.6 261 17.2 263.9 17.3C266.8 17.4 269.1 19.8 269.1 22.7Z" fill="black"/>
<path d="M131.5 -1.81198e-05C131.5 2.99998 129.2 5.49998 126.2 5.49998C123.2 5.49998 120.8 3.09998 120.8 0.0999818C120.8 -2.80002 123.1 -5.20002 126 -5.30002C129 -5.30002 131.5 -3.10002 131.6 -1.81198e-05H131.5Z" fill="black"/>
<path d="M248.3 20.9C248.3 23.9 246 26.4 243 26.4C240 26.4 237.6 24 237.6 21C237.6 18.1 239.9 15.7 242.8 15.6C245.8 15.6 248.3 17.8 248.4 20.9H248.3Z" fill="black"/>
<path d="M147.5 -3.60004C150.4 -3.60004 152.8 -1.30004 152.9 1.59996C152.9 4.59996 150.5 7.09996 147.5 6.99996C144.6 6.99996 142.2 4.49996 142.3 1.69996C142.3 -1.20004 144.7 -3.60004 147.6 -3.60004H147.5Z" fill="black"/>
<path d="M169.2 -1.50003C172 -1.40003 174.4 1.09997 174.3 3.99997C174.3 6.99997 171.6 9.39997 168.6 9.19997C165.8 8.99997 163.5 6.39997 163.6 3.59997C163.8 0.799969 166.3 -1.60003 169.1 -1.40003L169.2 -1.50003Z" fill="black"/>
<path d="M190.6 0.19996C193.4 0.29996 195.8 2.79996 195.7 5.59996C195.7 8.49996 192.9 11 190.1 10.8C187.3 10.6 185 7.99996 185.1 5.19996C185.3 2.39996 187.8 -3.97563e-05 190.6 0.19996Z" fill="black"/>
<path d="M211.7 2.39996C214.5 2.39996 217 4.79996 217.1 7.59996C217.1 10.4 214.7 12.9 211.8 12.9C209.1 12.9 206.7 10.6 206.6 7.79996C206.5 4.99996 208.9 2.39996 211.7 2.39996Z" fill="black"/>
<path d="M232.6 14.4C229.8 14.4 227.4 11.8 227.5 8.99998C227.6 6.29998 230.1 3.99998 232.8 4.09998C235.6 4.09998 238 6.69998 237.9 9.49998C237.8 12.2 235.3 14.5 232.6 14.4Z" fill="black"/>
<path d="M254.1 6.19998C256.9 6.19998 259.4 8.69998 259.3 11.5C259.3 14.2 256.9 16.6 254.1 16.6C251.3 16.6 248.8 14.1 248.9 11.3C248.9 8.59998 251.3 6.19998 254.1 6.19998Z" fill="black"/>
<path d="M290.5 24.7C290.5 27.5 288 30 285.2 30C282.4 30 279.9 27.5 280 24.6C280 21.9 282.4 19.5 285.2 19.4C288 19.4 290.5 21.8 290.6 24.6L290.5 24.7Z" fill="black"/>
<path d="M77.8 32.6C82 31.9 85 33.8 85.8 37.4C86.5 40.7 84.3 44.1 81 44.9C79.8 45.2 78.6 45.3 78.5 43.6C78.3 40 78.1 36.4 77.8 32.7V32.6Z" fill="black"/>
<path d="M280.5 13.1C280.5 16 278.2 18.1 275.3 17.9C272.5 17.8 270.5 15.6 270.6 12.8C270.6 9.89999 272.9 7.79999 275.8 7.99999C278.6 8.09999 280.6 10.3 280.5 13.1Z" fill="black"/>
<path d="M228 -2.50002C228 0.299982 225.8 2.29998 223 2.29998C220.1 2.29998 218 0.0999818 218.1 -2.90002C218.2 -5.70002 220.4 -7.70002 223.2 -7.60002C226 -7.60002 228 -5.40002 227.9 -2.60002L228 -2.50002Z" fill="black"/>
<path d="M201.6 -9.10004C204.5 -9.10004 206.6 -6.90004 206.6 -4.00004C206.6 -1.20004 204.4 0.799964 201.7 0.799964C198.8 0.799964 196.7 -1.40004 196.7 -4.30004C196.7 -7.10004 198.9 -9.10004 201.6 -9.10004Z" fill="black"/>
<path d="M265.9 -3.60004C268.6 -3.60004 270.8 -1.30004 270.7 1.39996C270.7 3.99996 268.5 6.09996 265.9 6.09996C263.2 6.09996 261 3.79996 261.1 1.09996C261.1 -1.50004 263.3 -3.60004 265.9 -3.60004Z" fill="black"/>
<path d="M249.3 -0.400018C249.3 2.29998 247.1 4.49998 244.3 4.39998C241.6 4.39998 239.5 2.09998 239.6 -0.600018C239.6 -3.20002 241.8 -5.20002 244.4 -5.30002C247.1 -5.30002 249.3 -3.10002 249.3 -0.400018Z" fill="black"/>
<path d="M292.1 3.49999C292.1 6.19999 289.7 8.29999 287 8.19999C284.4 8.09999 282.4 5.79999 282.4 3.29999C282.4 0.599986 284.8 -1.50001 287.5 -1.40001C290.1 -1.30001 292.1 0.999986 292.1 3.49999Z" fill="black"/>
<path d="M80.3 1.09997C81 -1.90003 81.6 -4.80003 82.2 -7.70003C82.5 -9.10003 83.3 -9.50003 84.7 -9.10003C86.9 -8.40003 88.3 -7.00003 88.8 -4.70003C89.2 -2.50003 88.5 -0.600027 86.8 0.699973C84.8 2.29997 82.6 2.39997 80.3 1.09997Z" fill="black"/>
<path d="M286.8 41.3C284.9 44.8 283.1 48.1 281.4 51.3C278.1 50 276.8 46.8 278.1 43.8C279.6 40.5 283 39.4 286.8 41.3Z" fill="black"/>
<path d="M295.5 20.1C292.4 18.6 291.1 16.3 291.8 13.8C292.5 11.1 294.7 9.69998 298.4 9.99998C297.4 13.4 296.5 16.7 295.5 20.1Z" fill="black"/>
<path d="M264.2 80.7C262.3 75.1 264.5 71.4 270 70.5C268.1 73.9 266.3 77 264.2 80.7Z" fill="black"/>
<path d="M82.9001 64.9C81.9001 61 81.1001 57.4 80.2001 53.8C85.1001 55.4 86.5001 60.4 82.9001 64.9Z" fill="black"/>
</g>
<g opacity="0.2">
<path d="M272.3 271.8C268.4 272.2 265 271.2 262.3 267.3C262.1 271.9 260.5 275.3 256.5 276.8C252.5 278.4 249.1 277.2 246 274C245.2 279.3 242.7 283 237.2 283.3C233.5 283.5 230.7 281.8 229.1 278.5C227.1 274.5 228.1 271 231.1 267.9C228.5 266.9 226 266 223.6 265.1C222.3 267.3 221 269.6 219.7 271.8C220.9 272.3 222.6 272.7 224 273.4C228.7 276 231.2 284.1 223.4 289.1C222.9 289.3 222.4 289.6 221.9 289.8C215.3 289.2 214.5 288.8 211.2 283.9C211.8 288.8 210.6 292.7 206.1 294.6C201.8 296.5 198.2 294.9 195.2 291.3C194.1 297.7 191.8 300.5 187.4 301.1C183.8 301.6 180.2 299.6 178.6 296.4C176.7 292.5 177.9 288.9 182.7 284.4C181.5 284.4 180.6 284.5 179.7 284.4C174.9 284.2 172.5 281.8 172.6 277C173 267.3 173.1 257.5 174.1 247.8C174.7 241.8 176.7 235.8 178.1 229.9C178.8 226.8 179.5 223.7 180.4 220.6C181.4 217.5 182.7 214.5 183.9 211.2C184.7 211.4 185.4 211.7 186.1 211.9C187 210.1 187.8 208.4 188.8 206.4C188.3 206.1 187.7 205.7 187.1 205.3C191.6 196.9 197.7 190 204.4 183.5C207 181 209.1 180.7 211.9 182.5C212.4 182.8 213 183.1 213.6 183.4C214.6 181.5 215.5 179.7 216.5 177.7C215.7 177.3 214.9 177 213.1 176.2C218.3 173.5 222.9 171.2 227.4 168.9C226.6 171 225.8 173.1 225 175.2C226.7 176 228.6 176.9 230.5 177.9C231.4 176 232.4 174.1 233.3 172.2C231.3 171.1 229.3 170.1 227.3 169C232.5 167.6 237.7 166.2 242.9 164.8C243.1 165.1 243.3 165.5 243.5 165.8C242.9 166.9 242.3 168 241.6 169.3C243.5 170.2 245.4 171.2 247.5 172.2C248.1 171 248.7 169.6 249.3 168.1C262 169.9 275.5 168.1 285.9 176.5C287.4 176 288.5 175.2 289.2 175.5C294.6 177.4 300 179.5 305.7 181.6C304.9 183 304.3 184.1 303.7 185.3C305.7 186.3 307.6 187.2 309.8 188.3C310.3 186.9 310.8 185.5 311.5 183.9C317.4 186.5 323 189 329 191.7C328.1 193.4 327.4 194.7 326.8 196C328.7 196.9 330.7 197.9 332.8 198.9C333.3 197.6 333.8 196.2 334.6 194.1C340.3 197.5 345.7 200.7 351.2 204C350.5 205.3 349.9 206.3 349.4 207.2C351.4 208.2 353.4 209.1 355.4 210.1C355.7 209.5 356 208.9 356.3 208.3C370.7 219.9 376.6 235.5 377.6 254.6C374.2 252.9 371.5 251.5 368.8 250.2C368.6 253.7 367.1 257 363.1 258.6C359.1 260.2 355.7 259 352.5 255.7C351.9 260.2 350.1 263.7 345.6 264.8C341.2 265.9 337.9 264 335.1 260C335.4 265.4 333.5 269.1 328.7 270.5C324.3 271.8 320.9 269.9 318.2 265.7C318.2 271 316.6 275 311.4 276.3C307.1 277.4 303.9 275.4 301 271.1C302.1 277 299.9 280.5 295.6 283H295.7C295.1 283 294.5 283 293.9 283C290 283.3 286.7 281.5 285.1 278.2C283.5 274.9 284.2 271.2 286.9 268.4C287.3 267.9 287.8 267.5 288 267.3C285.1 266 282.2 264.7 279.9 263.7C278.1 266.3 276 269.1 274 272C273.4 272 272.8 272 272.3 272.1V271.8ZM193.2 287.5C194.5 284.6 195.9 281.7 197 279.2C194.8 278.2 191.9 277 189.6 275.9C187.9 278.5 186 281.4 184.3 284.1C187.7 283.4 191 284.7 193.2 287.4V287.5ZM210.5 281.9C211.4 279.4 212.6 276.4 213.6 273.6C211.4 272.6 208.8 271.4 206.5 270.4C205.2 272.7 203.8 275.2 202.7 277.2C205.4 278.8 208.1 280.4 210.5 281.8V281.9ZM292.4 265C294.9 266.2 297.9 267.7 300.3 268.8C301.3 266.3 302.3 263.4 303.3 260.8C301.1 259.8 298.7 258.8 296.7 258C295.2 260.5 293.6 263 292.4 265.1V265ZM337.3 248.9C335.1 247.9 332.5 246.7 330.2 245.6C329.1 247.9 328 250.4 327.1 252.5C329.6 254 332.1 255.6 334.3 257L337.3 248.9ZM317.3 262.8C318.1 260.6 319.2 257.8 320.2 255.2C317.9 254.1 315.4 253 313.1 251.8C312 254 310.9 256.3 309.9 258.2C312.5 259.8 315.1 261.5 317.3 262.8ZM260.7 263.2C261.7 261 262.8 258.3 263.8 255.9C261.6 254.9 259.2 253.7 257 252.7C256 254.9 255 257.2 254.1 259.3C256.3 260.6 258.6 262 260.7 263.2ZM370.4 237.3C368.4 236.4 366.1 235.4 363.9 234.5C362.6 236.7 361.3 238.9 360.2 240.7C362.6 242 365.1 243.4 367.2 244.6C368.2 242.3 369.3 239.7 370.4 237.3ZM277.6 257.2C278.6 254.9 279.8 252.3 280.9 249.9C278.9 249.1 276.5 248.3 274.3 247.4C273 249.6 271.8 251.6 270.8 253.4C273.2 254.7 275.6 256.1 277.6 257.2ZM350.4 250C351.5 247.7 352.7 245.2 353.8 242.8C351.7 242 349.5 241.2 347.5 240.4C346.1 242.6 344.8 244.8 343.6 246.7C345.9 247.8 348.3 248.9 350.4 249.9V250ZM290.7 241.3C289.5 243.5 288.2 245.7 287 247.9C289.4 248.8 291.8 249.7 294 250.5C295 248.4 296 246.3 296.9 244.2C294.9 243.3 292.8 242.3 290.7 241.3ZM239.9 258.9C238.8 261 237.7 263.3 236.7 265.2C239.1 266.3 241.6 267.5 244 268.6C244.8 266.4 245.7 264 246.5 262.1C244.3 261 242.1 259.9 239.9 258.9ZM310.8 245.1C311.8 242.8 312.8 240.6 313.8 238.5C311.8 237.6 309.7 236.6 307.7 235.7C306.6 237.8 305.5 239.9 304.5 241.8C306.6 242.9 308.8 244.1 310.9 245.2L310.8 245.1ZM200.9 254C199.9 256.2 199 258.3 198.1 260.2C200.2 261.3 202.2 262.5 204.2 263.5C205.2 261.3 206.2 259 207.2 256.9C205.2 256 203.1 255 200.9 254ZM180.9 266C183 267.2 185.2 268.4 187.4 269.6C188.2 267.5 189 265.3 189.8 263.2C187.8 262.2 185.8 261.3 183.7 260.3C182.7 262.2 181.8 264.1 180.9 266ZM324.6 230.2C323.5 232.2 322.4 234.1 321.5 235.9C323.7 237.1 325.9 238.2 327.9 239.3C328.7 237.1 329.6 234.9 330.5 232.5C328.6 231.8 326.6 231 324.6 230.3V230.2ZM237.4 251.5C238.4 249.4 239.4 247.3 240.4 245.3C238.5 244.4 236.5 243.4 234.5 242.5C233.5 244.5 232.4 246.6 231.5 248.4C233.6 249.5 235.6 250.5 237.5 251.5H237.4ZM251.3 236.6C250.4 238.5 249.4 240.5 248.5 242.4C250.5 243.5 252.5 244.7 254.6 245.8C255.4 243.7 256.2 241.6 257 239.4C255.2 238.5 253.4 237.6 251.3 236.7V236.6ZM357.9 217.4C357.1 219.5 356.3 221.6 355.6 223.5C357.5 224.6 359.4 225.6 361.1 226.5C362.1 224.5 363 222.4 364 220.4C362.1 219.5 360.2 218.5 357.8 217.4H357.9ZM178 243.4C177.1 245.4 176.1 247.3 175.2 249.2C177.2 250.2 179 251.1 180.9 252.1C181.8 250.2 182.8 248.2 183.8 246.2C181.8 245.3 179.9 244.3 178 243.4ZM205.7 200.6C203.7 199.6 201.8 198.7 199.9 197.8C198.9 199.8 198 201.7 197.1 203.6C199.1 204.6 201 205.5 202.9 206.4C203.8 204.5 204.8 202.6 205.7 200.6ZM299.1 224.4C301.1 225.4 303 226.3 304.9 227.2C305.8 225.3 306.8 223.3 307.7 221.4C305.8 220.5 303.8 219.5 301.9 218.6C300.9 220.6 300 222.4 299.1 224.4ZM338.2 215.4C339.1 213.5 340.1 211.6 341 209.7C339.1 208.8 337.1 207.8 335.2 206.9C334.3 208.8 333.3 210.8 332.4 212.7C334.3 213.6 336.1 214.5 338.2 215.5V215.4ZM262 199.5C260.2 198.6 258.2 197.6 256.3 196.6C255.4 198.4 254.4 200.4 253.4 202.3C255.2 203.2 257.2 204.2 259.1 205.2C260 203.4 261 201.4 262 199.5ZM284.6 224.2C283.8 226.3 283.1 228.3 282.3 230.3C284.2 231.2 286 232.2 287.8 233.1C288.8 231.1 289.7 229.2 290.7 227.3C288.9 226.4 286.9 225.4 284.6 224.3V224.2ZM279 193.8C276.9 192.8 275 191.9 273.2 191C272.2 193 271.3 194.9 270.4 196.8C272.4 197.8 274.3 198.7 276.1 199.6C277.1 197.6 278 195.8 278.9 193.9L279 193.8ZM231.6 233.9C232.5 232 233.5 230.1 234.4 228.1C232.5 227.2 230.5 226.2 228.6 225.3C227.7 227.2 226.7 229.2 225.8 231.1C227.7 232 229.5 232.9 231.6 233.9ZM284.4 210.7C282.5 209.7 280.7 208.8 279 207.9C278.1 209.8 277.1 211.7 276.1 213.7C278 214.6 280 215.6 282.1 216.7L284.3 210.7H284.4ZM214.1 197.8C216 198.7 218 199.7 219.9 200.6C220.8 198.7 221.8 196.7 222.8 194.6C220.8 193.9 218.8 193.1 216.8 192.3C215.9 194 215.1 195.8 214.1 197.7V197.8ZM259.1 219.7C261 220.4 263.1 221.2 265.1 221.9C266 220.1 266.9 218.3 267.8 216.5C265.9 215.6 263.9 214.6 262 213.7C261.1 215.6 260.1 217.6 259.1 219.7ZM220.5 257.1C221.5 255 222.5 252.9 223.5 250.7C221.5 250 219.6 249.2 217.9 248.6C216.8 250.7 215.7 252.5 214.7 254.4C216.6 255.3 218.5 256.2 220.4 257.1H220.5ZM251.5 222.2C249.4 221.4 247.4 220.7 245.5 219.9C244.5 221.8 243.6 223.6 242.8 225.4C244.8 226.4 246.7 227.3 248.6 228.2C249.6 226.2 250.5 224.4 251.6 222.2H251.5ZM211.1 217.5C209.2 216.5 207.4 215.6 205.7 214.7C204.8 216.6 203.8 218.5 202.8 220.5C204.7 221.4 206.7 222.4 208.8 223.5C209.6 221.5 210.3 219.5 211 217.5H211.1ZM238.7 188.8C237 187.9 235.1 187 233.3 186C232.4 187.9 231.4 189.9 230.3 192.1C232.4 192.9 234.3 193.6 236.6 194.5C237.3 192.7 238 190.8 238.7 188.8ZM265 179.9C266.8 180.8 268.6 181.7 270.4 182.6C271.3 180.7 272.3 178.7 273.4 176.5C271.3 175.7 269.3 175 267.1 174.1C266.4 176 265.7 177.9 265 179.8V179.9ZM315.5 204C316.5 202 317.4 200.2 318.3 198.5C316.3 197.5 314.4 196.6 312.3 195.6C311.5 197.6 310.8 199.7 310 201.7C311.9 202.5 313.7 203.3 315.6 204.1L315.5 204ZM194.9 238C194 239.8 193.1 241.7 192.2 243.5C194.3 244.5 196.2 245.4 198.3 246.4C199.1 244.3 199.8 242.3 200.7 240.1C198.9 239.4 197 238.7 195 237.9L194.9 238ZM214.7 239.4C215.6 237.6 216.5 235.8 217.4 234C215.5 233.1 213.5 232.1 211.3 231C210.5 233.1 209.8 235.1 209 237.2L214.7 239.3V239.4ZM341 223.9C340.1 225.8 339.2 227.7 338.3 229.6C340.4 230.4 342.4 231.1 344.4 231.9C345.2 230.2 346.1 228.4 346.9 226.7C345 225.8 343.1 224.9 341.1 223.9H341ZM292.6 193.4C293.6 191.5 294.5 189.6 295.4 187.8C293.6 187 291.9 186.3 290.1 185.5C289.1 187.4 288.2 189.2 287.3 191.1C289 191.9 290.7 192.6 292.5 193.4H292.6ZM191.7 228.8C192.7 226.8 193.6 225 194.5 223.2C192.7 222.4 190.9 221.6 189.2 220.9C188.2 222.9 187.3 224.7 186.4 226.5C188.2 227.3 189.9 228 191.7 228.8ZM228.2 211.7C226.3 210.8 224.4 209.8 222.6 208.9C221.8 210.8 221.1 212.5 220.3 214.1C222.2 215 224 216 225.9 216.9C226.7 215.2 227.4 213.4 228.2 211.6V211.7ZM321.3 221C322.3 219 323.2 217.2 324.1 215.4C322.3 214.6 320.5 213.8 318.8 213.1C317.8 215.1 316.9 216.9 316 218.7C317.8 219.5 319.5 220.2 321.3 221ZM250 180.1C249.3 182.1 248.6 183.8 248 185.5C249.9 186.5 251.7 187.4 253.5 188.2C254.3 186.3 255.1 184.6 255.8 182.9C253.9 181.9 252.1 181 250.1 180L250 180.1ZM293.5 207.4C295.4 208.4 297.3 209.3 299.2 210.2C300 208.3 300.8 206.5 301.6 204.6C299.6 203.8 297.7 203.1 295.8 202.4C295.1 204 294.3 205.7 293.5 207.4ZM237.3 208.6C239 209.4 240.6 210.1 242.2 210.8C243.2 208.8 244.1 207 245 205.2C243.2 204.4 241.4 203.6 239.5 202.7C238.8 204.6 238.1 206.5 237.3 208.5V208.6ZM271 238.7C271.8 236.9 272.6 235.2 273.4 233.4C271.6 232.6 269.9 231.9 268.1 231.1C267.3 232.9 266.5 234.6 265.8 236.2C267.6 237 269.2 237.8 270.9 238.7H271Z" fill="black"/>
<path d="M272.3 271.8C272.9 271.8 273.5 271.8 274 271.7C280.9 271 285.7 276 284 282.1C283 285.8 280 288.2 276.3 288.4C272.8 288.6 269.4 286.5 268.1 283.2C266.7 279.9 267.7 275.9 270.5 273.5C271.1 273 271.7 272.4 272.4 271.9L272.3 271.8Z" fill="black"/>
<path d="M373.9 270.3C372.2 274.7 367.6 276.8 363.1 275.1C358.7 273.4 356.6 268.8 358.3 264.3C360 259.9 364.6 257.8 369.1 259.5C373.5 261.2 375.6 265.8 373.9 270.3Z" fill="black"/>
<path d="M255.9 293.4C251.5 291.7 249.4 287.1 251.1 282.7C252.8 278.3 257.4 276.2 261.8 277.8C266.2 279.5 268.3 284.1 266.7 288.5C265 292.9 260.4 295 256 293.4H255.9Z" fill="black"/>
<path d="M356.9 275.9C355.3 280.4 350.6 282.5 346.2 280.8C341.9 279.2 339.8 274.6 341.4 270.3C343 265.8 347.7 263.7 352.1 265.4C356.4 267 358.5 271.6 357 275.9H356.9Z" fill="black"/>
<path d="M221.7 289.8C222.2 289.6 222.7 289.3 223.2 289.1C224.5 289.1 225.9 289.1 227.2 289.3C231 290.1 233.6 293.3 233.7 297.1C233.7 300.8 231.4 304.1 227.9 305.2C224.3 306.3 220.3 304.8 218.4 301.5C216.5 298.3 217 294.1 219.8 291.4C220.4 290.8 221.1 290.3 221.7 289.8Z" fill="black"/>
<path d="M329.4 286.6C325.1 285 322.9 280.4 324.4 276.2C326 271.8 330.7 269.6 335.1 271.2C339.3 272.8 341.4 277.5 339.9 281.7C338.3 286 333.7 288.1 329.4 286.6Z" fill="black"/>
<path d="M239.7 299.4C235.3 297.8 233.1 293.1 234.8 288.7C236.4 284.4 241 282.3 245.3 283.9C249.7 285.5 251.9 290.2 250.2 294.6C248.6 298.9 244 301 239.7 299.4Z" fill="black"/>
<path d="M312.5 292.3C308.4 290.5 306.5 285.5 308.3 281.5C310.2 277.4 315.1 275.5 319.2 277.4C323.2 279.3 325 284 323.3 288C321.5 292.1 316.6 294.1 312.5 292.3Z" fill="black"/>
<path d="M215.9 306.7C214.2 310.9 209.4 313 205.2 311.3C201 309.6 199 304.7 200.7 300.6C202.4 296.6 207.1 294.6 211.2 296.1C215.4 297.7 217.5 302.5 215.9 306.7Z" fill="black"/>
<path d="M295.7 282.6C296.6 282.6 297.5 282.5 298.5 282.4C302.4 282.2 305.9 284.9 306.8 288.7C307.6 292.6 305.6 296.4 302 297.9C298.2 299.4 294 297.9 291.9 294.4C289.9 291 290.7 286.7 293.8 284.2C294.5 283.6 295.2 283 295.9 282.4H295.8L295.7 282.6Z" fill="black"/>
<path d="M189 317.2C185 315.6 182.8 310.8 184.4 306.8C186 302.6 191 300.5 195.1 302.2C199.1 303.9 201.2 308.7 199.5 312.7C197.9 316.7 193.1 318.8 189 317.2Z" fill="black"/>
<path d="M289.3 299.2C287.7 303.2 282.9 305.4 278.9 303.8C274.9 302.2 272.7 297.4 274.3 293.4C275.9 289.4 280.7 287.2 284.7 288.8C288.7 290.4 290.9 295.2 289.3 299.2Z" fill="black"/>
<path d="M272.6 305.6C271.1 309.7 266.4 311.8 262.3 310.2C258.3 308.6 256.3 304.1 257.8 300.1C259.3 296 264 293.9 268.1 295.5C272.1 297.1 274.1 301.6 272.6 305.6Z" fill="black"/>
<path d="M251 301.3C255.1 302.9 257 307.2 255.5 311.3C253.9 315.4 249.6 317.3 245.5 315.8C241.4 314.2 239.5 309.9 241 305.8C242.6 301.7 246.9 299.8 251 301.3Z" fill="black"/>
<path d="M362.4 292.2C360.8 296.3 356.5 298.3 352.4 296.7C348.3 295.1 346.3 290.8 347.9 286.7C349.5 282.6 353.8 280.6 357.9 282.2C362 283.8 364 288.1 362.4 292.2Z" fill="black"/>
<path d="M212.1 327.3C208.2 325.7 206.3 321.4 207.8 317.5C209.4 313.4 213.8 311.6 217.9 313.2C221.8 314.8 223.6 319.2 222 323.1C220.4 327 216.1 328.8 212.1 327.3Z" fill="black"/>
<path d="M330.8 293C332.4 288.9 336.7 287.1 340.8 288.7C344.9 290.3 346.7 294.7 345 298.8C343.4 302.7 339.2 304.5 335.2 303C331.1 301.4 329.2 297.1 330.8 293Z" fill="black"/>
<path d="M328.6 304.5C327.1 308.5 322.8 310.4 318.8 308.9C314.7 307.4 312.8 302.9 314.5 298.9C316.1 295 320.4 293.2 324.4 294.7C328.3 296.3 330.2 300.6 328.7 304.5H328.6Z" fill="black"/>
<path d="M238.4 317C236.9 321.1 232.6 323 228.5 321.5C224.4 319.9 222.5 315.6 224.1 311.5C225.7 307.5 229.9 305.7 233.8 307.1C237.9 308.6 239.9 312.9 238.4 317Z" fill="black"/>
<path d="M307.4 300.5C311.2 302.1 313.1 306.5 311.5 310.4C309.9 314.2 305.5 316.1 301.6 314.5C297.8 312.9 295.9 308.5 297.5 304.6C299.1 300.8 303.5 298.9 307.4 300.5Z" fill="black"/>
<path d="M200.7 319C204.6 320.5 206.5 325 204.9 328.9C203.3 332.8 198.8 334.6 195 333C191.3 331.4 189.4 327.1 190.9 323.3C192.4 319.4 196.9 317.4 200.7 319Z" fill="black"/>
<path d="M290.3 306.2C294.1 307.7 296.1 312.3 294.6 316.1C293.1 319.8 288.7 321.7 284.9 320.3C281.1 318.8 279.1 314.2 280.6 310.4C282.1 306.7 286.5 304.8 290.3 306.2Z" fill="black"/>
<path d="M183.2 325.3C187 326.6 189.1 331 187.8 334.8C186.5 338.7 181.9 340.8 178 339.3C174.3 337.9 172.3 333.5 173.6 329.7C175 325.9 179.4 323.9 183.2 325.2V325.3Z" fill="black"/>
<path d="M367.7 309C366.3 312.7 361.9 314.7 358.2 313.3C354.5 311.8 352.5 307.4 354 303.7C355.5 300.1 359.7 298.2 363.3 299.5C367.1 300.8 369.1 305.2 367.7 309Z" fill="black"/>
<path d="M278.1 321.9C276.6 325.6 272.2 327.6 268.5 326.1C264.8 324.6 262.8 320.2 264.3 316.5C265.8 312.8 270.2 310.8 273.9 312.3C277.6 313.8 279.6 318.2 278.1 321.9Z" fill="black"/>
<path d="M251.7 331.8C247.9 330.4 245.9 326 247.4 322.2C248.8 318.5 253.1 316.6 256.8 318C260.6 319.4 262.6 323.8 261.1 327.6C259.7 331.3 255.4 333.2 251.7 331.8Z" fill="black"/>
<path d="M243.8 333.7C242.4 337.5 238.5 339.4 234.7 338.1C230.9 336.7 229 332.8 230.3 329C231.7 325.2 235.6 323.3 239.4 324.6C243.2 326 245.1 329.9 243.8 333.7Z" fill="black"/>
<path d="M341.9 319.1C338.1 317.7 336.3 313.6 337.8 309.8C339.2 306 343.3 304.2 347.1 305.7C350.9 307.1 352.7 311.2 351.2 315C349.8 318.8 345.7 320.6 341.9 319.1Z" fill="black"/>
<path d="M330.2 311.6C333.9 313.1 335.6 317.2 333.9 321C332.4 324.6 328.4 326.2 324.7 324.6C321 323.1 319.3 319 321 315.2C322.5 311.6 326.5 310 330.2 311.6Z" fill="black"/>
<path d="M227.2 339.8C225.8 343.6 221.7 345.3 218 343.8C214.4 342.3 212.7 338.4 214.1 334.8C215.5 331 219.6 329.3 223.3 330.8C226.9 332.3 228.6 336.2 227.2 339.8Z" fill="black"/>
<path d="M206.1 336.5C209.8 337.9 211.5 341.9 210.1 345.5C208.7 349.2 204.7 350.9 201.1 349.5C197.4 348.1 195.7 344.1 197.1 340.5C198.5 336.8 202.5 335.1 206.1 336.5Z" fill="black"/>
<path d="M316.8 327C315.4 330.7 311.5 332.4 307.8 331C304.1 329.6 302.4 325.7 303.8 322C305.2 318.3 309.1 316.6 312.8 318C316.5 319.4 318.2 323.3 316.9 327H316.8Z" fill="black"/>
<path d="M184.1 355.2C180.5 353.8 178.8 349.7 180.2 346.1C181.7 342.5 185.8 340.8 189.3 342.3C192.7 343.7 194.4 347.7 193.1 351.2C191.7 354.8 187.7 356.6 184.1 355.2Z" fill="black"/>
<path d="M291.4 336.9C287.8 335.5 286 331.4 287.5 327.9C288.9 324.3 293 322.6 296.6 324.1C300 325.5 301.7 329.4 300.4 332.9C299.1 336.5 295 338.3 291.4 336.9Z" fill="black"/>
<path d="M274.4 342.6C271 341.3 269.2 337.2 270.5 333.8C271.8 330.2 276.1 328.4 279.6 329.9C283 331.3 284.7 335.4 283.3 338.8C281.9 342.2 277.8 344 274.4 342.6Z" fill="black"/>
<path d="M266.3 344.3C265 347.7 260.8 349.5 257.5 348.2C254.1 346.8 252.3 342.7 253.7 339.3C255.1 336 259 334.3 262.3 335.5C265.7 336.8 267.6 340.9 266.3 344.3Z" fill="black"/>
<path d="M375.9 276.5C375.1 281.4 374.4 285.8 373.5 290.2C373.4 290.8 372 291.5 371.2 291.5C367.1 291.4 363.9 287.5 364.1 283.4C364.3 279.1 367.9 275.6 372.2 275.8C373.3 275.8 374.4 276.2 375.9 276.5Z" fill="black"/>
<path d="M348 335.7C344.6 334.5 342.8 330.7 343.9 327.3C345.1 323.8 349.1 321.9 352.6 323.2C356 324.5 357.7 328.3 356.5 331.7C355.3 335.1 351.5 336.9 348 335.7Z" fill="black"/>
<path d="M249.7 350.2C248.4 353.6 244.6 355.3 241.2 354.1C237.7 352.8 235.9 348.8 237.3 345.4C238.7 342.1 242.5 340.4 245.9 341.7C249.3 343 250.9 346.8 249.7 350.2Z" fill="black"/>
<path d="M215.4 362.1C214.2 365.5 210.7 367.2 207.3 366C203.8 364.8 202.1 361.2 203.4 357.7C204.7 354.3 208.2 352.7 211.6 354C215 355.2 216.6 358.7 215.4 362.1Z" fill="black"/>
<path d="M224.1 360.3C220.6 359 219 355.3 220.4 351.8C221.7 348.4 225.3 346.9 228.7 348.2C232.2 349.5 233.8 353.2 232.4 356.7C231.1 360.1 227.5 361.6 224.1 360.3Z" fill="black"/>
<path d="M322.2 343.2C320.9 346.6 317.4 348.1 314 346.8C310.5 345.5 308.9 341.8 310.4 338.3C311.8 335 315.3 333.5 318.7 334.9C322 336.2 323.5 339.8 322.2 343.2Z" fill="black"/>
<path d="M335.5 329C339 330.3 340.6 333.9 339.3 337.4C338 340.9 334.3 342.5 330.8 341.1C327.5 339.8 325.9 336.3 327.1 332.9C328.4 329.4 332 327.7 335.5 329Z" fill="black"/>
<path d="M294 344.4C295.4 341.1 299.1 339.7 302.4 341.1C305.6 342.5 307.1 346.3 305.6 349.5C304.2 352.6 300.6 354 297.5 352.7C294.2 351.4 292.7 347.7 294.1 344.4H294Z" fill="black"/>
<path d="M198.9 368C197.7 371.3 194 373.1 190.7 371.8C187.5 370.6 185.8 367 187 363.8C188.2 360.5 191.9 358.7 195.2 360C198.4 361.2 200.1 364.8 198.9 368Z" fill="black"/>
<path d="M284.9 347.3C288 348.5 289.6 352.2 288.5 355.3C287.3 358.5 283.4 360.2 280.2 358.9C277.1 357.6 275.6 353.9 276.8 350.8C278.1 347.7 281.8 346.1 284.9 347.3Z" fill="black"/>
<path d="M271.5 360.9C270.4 364 266.7 365.8 263.6 364.6C260.5 363.5 258.8 359.7 260 356.6C261.1 353.6 264.7 351.9 267.7 353C270.8 354 272.6 357.8 271.5 360.9Z" fill="black"/>
<path d="M173.8 307.6C179.2 307.3 183 310.6 182.9 315.4C182.9 320.3 179 323.5 173.7 323C173.7 318 173.7 312.9 173.7 307.6H173.8Z" fill="black"/>
<path d="M254.9 367C253.7 370.1 250.2 371.6 247.1 370.4C244 369.2 242.5 365.7 243.7 362.6C244.9 359.5 248.4 358 251.5 359.2C254.6 360.4 256.1 363.9 254.9 367Z" fill="black"/>
<path d="M237.8 372.6C236.7 375.7 233.5 377.2 230.5 376.1C227.3 375 225.7 371.7 226.9 368.5C228.1 365.3 231.4 363.8 234.5 365.1C237.5 366.3 239 369.5 237.8 372.5V372.6Z" fill="black"/>
<path d="M344.4 354.2C343.2 357.4 339.9 358.8 336.7 357.6C333.7 356.4 332.3 353.2 333.4 350.1C334.6 346.9 337.9 345.5 341.1 346.7C344.1 347.9 345.5 351.1 344.4 354.2Z" fill="black"/>
<path d="M328 360C326.9 363.1 323.7 364.6 320.7 363.5C317.6 362.4 316.1 359.2 317.2 356.2C318.3 353.1 321.5 351.6 324.5 352.7C327.6 353.8 329.1 357 328 360Z" fill="black"/>
<path d="M220.6 378.6C219.4 381.6 216.1 382.9 213.1 381.6C210.1 380.4 208.8 377.1 210.1 374.1C211.3 371.1 214.6 369.8 217.6 371.1C220.6 372.3 221.9 375.6 220.6 378.6Z" fill="black"/>
<path d="M181.6 374.9C180.3 375.6 178.6 377.1 176.5 377.7C174.3 378.3 172.7 377.3 172.6 374.6C172.6 372.9 172.3 371 171.7 369.5C170.8 367.3 172 366.6 173.6 366C176 365 178.3 365.3 180.3 367.2C182.2 369.1 182.5 371.4 181.6 374.9Z" fill="black"/>
<path d="M310.9 365.7C309.9 368.6 306.7 370.1 303.8 369.1C300.8 368.1 299.2 364.8 300.3 361.8C301.4 358.8 304.8 357.3 307.7 358.5C310.5 359.6 312 362.9 310.9 365.7Z" fill="black"/>
<path d="M293.8 371.6C292.7 374.4 289.3 375.8 286.5 374.7C283.7 373.6 282.3 370.2 283.4 367.4C284.5 364.6 287.9 363.2 290.7 364.3C293.5 365.4 294.9 368.8 293.8 371.6Z" fill="black"/>
<path d="M196.7 388.2C193.9 387.1 192.4 383.8 193.4 381C194.5 378 198 376.5 200.9 377.7C203.7 378.9 205.1 382.2 204 385C202.9 387.8 199.6 389.3 196.7 388.2Z" fill="black"/>
<path d="M359 341C359.3 341.6 360.4 342.8 360.3 343.9C360.1 346.4 359.3 348.9 358.6 351.4C358.4 351.9 357.2 352.3 356.5 352.4C353.9 352.6 351.8 351.5 350.6 349.1C349.4 346.7 349.8 344.4 351.5 342.4C353.3 340.4 355.6 340 359 341.1V341Z" fill="black"/>
<path d="M187 390.7C185.9 393.4 182 395.5 180.1 393.8C178.3 392 176.9 388.9 176.8 386.4C176.8 383.8 181 382.4 183.7 383.4C186.5 384.5 188 387.9 186.9 390.7H187Z" fill="black"/>
<path d="M277.1 377.9C276.1 380.7 272.9 382.2 270.1 381.2C267.3 380.2 265.8 377 266.8 374.2C267.8 371.4 271 369.9 273.8 370.9C276.6 371.9 278.1 375.1 277.1 377.9Z" fill="black"/>
<path d="M346.9 363.7C349.6 364.8 350.8 367.7 349.7 370.4C348.6 373.1 345.7 374.3 343 373.2C340.3 372.1 339.1 369.2 340.2 366.5C341.3 363.8 344.2 362.6 346.9 363.7Z" fill="black"/>
<path d="M253.1 386.7C250.3 385.6 249 382.6 250.2 379.8C251.3 377.1 254.2 375.9 256.9 377C259.7 378.1 261 381.1 259.8 383.9C258.7 386.6 255.8 387.8 253.1 386.7Z" fill="black"/>
<path d="M326.6 379.8C324 378.9 322.6 376 323.5 373.4C324.4 370.7 327.4 369.3 330.1 370.3C332.7 371.3 334 374.2 333 376.8C332 379.4 329.2 380.7 326.6 379.8Z" fill="black"/>
<path d="M239.8 382.8C242.6 383.8 243.9 386.7 242.9 389.4C241.9 392.2 239 393.4 236.2 392.4C233.6 391.4 232.3 388.6 233.2 386C234.2 383.2 237 381.8 239.8 382.8Z" fill="black"/>
<path d="M219.8 398.2C217.2 397.2 216 394.3 217 391.7C218 389 221.1 387.7 223.8 388.9C226.3 390 227.5 393 226.4 395.5C225.3 398 222.4 399.2 219.9 398.2H219.8Z" fill="black"/>
<path d="M316 382.5C315.1 385 312 386.4 309.5 385.4C307 384.4 305.7 381.3 306.7 378.9C307.7 376.5 310.6 375.3 313 376.1C315.5 377 316.9 380 316 382.5Z" fill="black"/>
<path d="M209.3 401.1C208.3 403.6 205.3 404.9 202.8 403.9C200.3 402.9 199 399.8 200.1 397.4C201.1 395.1 204 393.8 206.4 394.7C208.9 395.6 210.3 398.7 209.3 401.1Z" fill="black"/>
<path d="M298.8 388.3C297.8 390.7 294.9 392 292.5 391C290.1 390 288.8 387.1 289.8 384.7C290.8 382.3 293.7 381 296.1 382C298.5 383 299.8 385.9 298.8 388.3Z" fill="black"/>
<path d="M170.5 348.1C174.5 348.5 176.9 350.9 177.1 354.3C177.3 357.9 175 360.5 170.7 361.3C170.7 356.9 170.7 352.6 170.6 348.1H170.5Z" fill="black"/>
<path d="M279.6 388.2C282 389.1 283.2 391.6 282.3 394C281.4 396.6 278.8 397.7 276.2 396.7C273.8 395.7 272.7 393.2 273.7 390.8C274.6 388.4 277.1 387.3 279.6 388.2Z" fill="black"/>
<path d="M265.1 399.9C264.1 402.3 261.5 403.3 259.1 402.3C256.9 401.3 255.9 398.8 256.8 396.5C257.8 394.1 260.4 393.1 262.8 394.1C265 395.1 266 397.6 265.1 399.9Z" fill="black"/>
<path d="M367 316.8C366.1 321 365.2 325.2 364.3 329.3C361.1 328.4 359.4 325.7 359.9 322.3C360.4 319 362.9 316.9 367.1 316.8H367Z" fill="black"/>
<path d="M338.3 392.9C337.6 395 335 396.2 332.9 395.5C330.7 394.8 329.4 392.1 330.3 389.9C331.1 387.8 333.7 386.7 335.8 387.5C337.9 388.3 339.1 390.8 338.3 392.9Z" fill="black"/>
<path d="M247.9 406.1C247.1 408.3 244.4 409.5 242.2 408.6C240 407.7 238.8 405 239.8 402.9C240.9 400.6 242.8 399.7 245.2 400.5C247.4 401.2 248.7 403.9 247.8 406.1H247.9Z" fill="black"/>
<path d="M183.6 402.5C186.2 399.7 189.1 399.4 191.2 401.6C193.1 403.6 193.1 406.8 191 408.6C189.8 409.7 188.6 410.2 187.5 408.3C186.3 406.3 184.9 404.4 183.6 402.5Z" fill="black"/>
<path d="M231.4 411.9C230.7 414 228.1 415.2 226 414.5C223.9 413.8 222.7 411.2 223.4 409.1C224.1 407 226.7 405.8 228.8 406.5C230.9 407.2 232.1 409.8 231.4 411.9Z" fill="black"/>
<path d="M214.2 417.7C213.1 419.9 211.4 420.8 209 419.9C206.7 419 205.9 417.1 206.8 414.8C207.7 412.5 209.6 411.7 211.9 412.6C214.2 413.5 214.9 415.4 214.2 417.7Z" fill="black"/>
<path d="M315.7 400.8C313.7 399.9 312.8 398.2 313.6 395.8C314.3 393.5 316.7 392.4 318.9 393.4C321.1 394.4 321.9 396.2 321.1 398.5C320.4 400.6 318.1 401.6 315.8 400.7L315.7 400.8Z" fill="black"/>
<path d="M302.1 400.1C304.1 401.2 305 402.7 304.3 405C303.6 407.1 301.2 408.1 299.2 407.2C297.1 406.2 296.3 404.4 297.2 402.3C298.1 400.1 299.9 399.6 302.1 400.2V400.1Z" fill="black"/>
<path d="M287.7 410C286 412.8 284.3 413.7 282.2 412.7C280.2 411.8 279.5 410 280.3 408C281.2 405.9 283.2 404.9 285.2 406.1C286.5 406.9 287 408.9 287.7 410Z" fill="black"/>
<path d="M173.1 291.3C178.8 294.3 179.1 301.2 173.7 305.2C173.5 300.5 173.3 296 173.1 291.3Z" fill="black"/>
<path d="M268.7 411.6C269.1 413.2 270.2 414.9 269.9 416.4C269.5 418.5 267.3 419.5 265.5 418.4C264.3 417.7 263.2 415.4 263.5 414.2C263.9 412.9 265.9 412.1 267.3 411.1C267.8 411.3 268.2 411.4 268.7 411.6Z" fill="black"/>
<path d="M248.2 424.4C247.9 423 247.1 421.5 247.3 420.1C247.7 418 249.5 417.4 251.5 418.2C253.5 419 254.3 420.7 253.1 422.5C252.4 423.6 250.7 424.2 249.5 425C249 424.8 248.6 424.6 248.1 424.5L248.2 424.4Z" fill="black"/>
<path d="M236.4 428.9C235 429.2 233.3 430.1 232.2 429.6C231.2 429.2 230.2 426.7 230.6 426C231.2 424.9 233.3 423.9 234.4 424.2C235.5 424.4 236.1 426.4 237 427.6C236.8 428 236.6 428.5 236.5 428.9H236.4Z" fill="black"/>
<path d="M377.7 253.9C377.6 258.4 377.4 262.4 377.3 266.6C373.1 264 373.2 258.4 377.7 253.9Z" fill="black"/>
<path d="M325.4 411.4C325.7 412.8 326.6 414.5 326.1 415.4C325.6 416.4 323.5 417.1 322.4 416.9C321.6 416.7 320.6 414.4 321 413.5C321.4 412.4 323.1 411.8 324.2 411L325.4 411.5V411.4Z" fill="black"/>
<path d="M307.9 416.4C308.5 418.6 309.3 420 309 420.9C308.7 421.7 307 422 305.9 422.5C305.3 421.4 304.3 420.1 304.4 419.1C304.4 418.3 306.1 417.7 307.9 416.3V416.4Z" fill="black"/>
<path d="M288.1 429.7C287.7 427.7 286.9 426.3 287.3 425.6C287.7 424.8 289.3 424.6 290.3 424.2C290.7 425.3 291.7 426.5 291.5 427.3C291.3 428.1 289.8 428.6 288.1 429.7Z" fill="black"/>
<path d="M341 405.6C340.1 407.3 339.1 409.1 338.2 410.8C337.9 410.8 337.6 410.8 337.3 410.8C337.3 409.4 336.8 407.9 337.3 406.8C337.8 405.8 339.3 405.4 340.4 404.8C340.6 405 340.7 405.3 340.9 405.5L341 405.6Z" fill="black"/>
<path d="M218.8 434.3C217.2 433.4 215.5 432.5 213.9 431.6C213.9 431.3 213.9 431.1 213.9 430.8C215.1 430.7 216.5 430 217.4 430.5C218.4 431 219 432.5 219.7 433.6C219.4 433.9 219.2 434.1 218.9 434.4L218.8 434.3Z" fill="black"/>
<path d="M248.2 165C252 163.9 255.7 162.8 259.1 161.8C257.6 164.2 251.1 166.2 248.2 165Z" fill="black"/>
<path d="M275.8 433.6C274.1 433.9 273 434.4 272.2 434.1C271.6 433.8 271 432.1 271.3 431.7C271.8 431 273.1 430.5 274 430.7C274.6 430.8 275 432.1 275.8 433.6Z" fill="black"/>
<path d="M253.7 437.2C255.1 436.8 256.2 436.1 256.6 436.4C257.2 436.9 257.4 438 257.8 438.8C257 439.1 256.1 439.8 255.4 439.6C254.8 439.4 254.5 438.3 253.7 437.1V437.2Z" fill="black"/>
<path d="M347.5 387.6C346.3 384.5 346.6 383.6 349.8 381.5L347.5 387.6Z" fill="black"/>
</g>
<path d="M218.5 83.2C229.6 77.8 236 74.7 236.1 74.8L230.5 63.7C230.5 63.7 227.6 65.2 222.3 68C221 73.1 219.8 78.1 218.6 83.2H218.5Z" fill="#456A7D"/>
<path d="M212.1 112.3C247.1 95.2 270.7 83.8 270.8 83.9L265.2 72.8C265.2 72.8 245.3 83.2 214.9 99.1C213.9 103.5 213 107.9 212.1 112.3Z" fill="#456A7D"/>
<path d="M205.8 144.8C233 132.2 250.5 124.2 250.5 124.3L245.1 113.1C245.1 113.1 230.9 120.1 208.3 131.4C207.4 135.9 206.6 140.3 205.8 144.8Z" fill="#456A7D"/>
<path d="M254.9 77.6C254.8 77 254.1 76.5 253.7 76.1C252.5 74.8 251.4 73.4 250.4 71.9C250.4 71.8 250.2 71.7 250.2 71.6C249.8 70.9 249.4 70.2 249 69.5C249 68.1 249 66.7 249 65.3C249 64.7 249.1 64.1 249.2 63.5C249.4 62 249.2 60.6 248.8 59.2C248.6 58.5 248 57.9 247.8 57.2C247.5 56.4 247.7 55.9 247.6 55.2C247.6 54.9 247.5 54.7 247.3 54.4C243.5 48.4 233.8 39 219 40.1C211 40.7 203.6 43.7 198.8 50.4C198.3 51.1 197.7 52.6 197.1 53.2C196.8 53.4 196.5 53.5 196.3 53.6C196.1 53.6 195.8 53.6 195.6 53.6C195.3 53.5 194.9 53.3 194.4 53.2C191.7 52.3 188.9 51.8 186.2 50.8C181.2 49 176.7 45.7 171 46C161.6 46.6 150.8 48.7 143.7 59.5C147 57.8 150.7 56.7 154.4 56.2C152.6 57.1 150.9 58.2 149.4 59.5C144.7 63.5 144.4 67.7 143 69.9C136.7 79.5 129.1 85.8 125 88.5C130.8 88.9 144.1 81.1 143.3 81.6C137.1 85.6 134.1 95.8 133.1 102.7C137.3 96.3 148.7 90 148.8 90.5C149.2 95.5 144.3 100.8 140.5 104.1C143 103.9 145.4 103.2 147.6 101.9C150.1 100.4 152.1 98.4 153.9 96.2C154.7 95.2 155.5 94 156.4 93.2C157.3 92.4 158.4 92 159.5 91.7C162 91.1 164.4 90.4 166.7 89.4C167.3 90.8 168 92.2 168.6 93.5C166.6 95 164.6 96.5 162.7 98C164.4 99.3 166.2 100.6 167.9 101.9C167.7 102.7 167.5 103.5 167.2 104.3C164.9 104.8 163.3 105.5 161.1 106.4C157.3 108 154 110.5 150.3 112.3C146.7 114.1 142.9 115.2 139.2 116.5C134.3 118.2 129.5 120.3 124.7 122.4C114.4 127 102.7 130.5 93.9 137.6C93 138.6 90.6 143.1 95.4 147.7C109.8 161.4 125.7 165.5 136 171.2C136.2 170.8 142.4 174.2 145.1 175.7C146.4 176.4 147.2 176.7 147.4 178.3C147.9 182 148.3 185.8 148.3 189.5C148.3 191.4 148.1 193.3 147.3 194.9C145.9 197.9 142.8 199.5 140.7 201.9C138.2 204.7 136.2 208.2 134.6 211.7C132.3 216.8 133.6 223.9 135.2 228.9C136.1 231.7 137.6 234.1 137.3 237C136.9 240.4 135.2 243.9 133.3 246.8C134.6 247.7 135.9 248.5 137.3 249.3C136.6 254.2 133.9 266 133.1 269.5C132.2 273.6 131.4 277.8 130.8 282C130 287.3 129.5 292.8 127.9 297.9C125.6 305.4 121.1 309.9 115.1 314.6C108.3 320 101.9 325.7 95.7 331.7C89.5 337.5 85.7 344.5 80.9 351.2C76.2 357.3 69.5 363.8 63 367.6C54.8 372.6 42.5 369.4 39.2 374.8C37.6 378.1 36.1 386.6 42.7 397.6L42.4 404.4C42.4 404.9 42.4 405.4 42.4 405.8C43.7 414.6 43.1 424.5 46.4 432.9C53 444.3 61 447.5 65.2 441.3C68.5 436.6 64.7 426.7 67.4 421.9C68.1 420.9 64.1 415.6 64 414.5C63.7 411.8 65.6 409.3 66.2 406.5C67.9 398.7 70.5 388.3 73.1 386.7C72.8 386.9 73 386.7 73.1 386.7C79.6 380.9 86.3 375.3 93.3 369.6C101.1 363.3 108.8 357 116.6 350.8C121 347.2 125.3 343.5 129.7 339.9C133.5 337 137.2 334.1 141 331.2C142.9 329.5 144.8 327.9 146.6 326.2C148.6 324.1 151.2 322.3 152.7 319.8C157.1 312 161.3 304.1 165.3 296.1C170.6 285.5 184.3 255.9 185.8 254.2C187.1 253.9 188.5 253.5 190.2 253.1C185.7 247.7 181.6 241.9 181 234.7C180.6 230.4 181.7 226.3 183.4 222.3C185.1 218.3 187.3 214.5 188.5 210.3C191.5 200.3 192.3 189.6 193.5 179.2C194.6 169.3 195.9 159.4 198.9 149.9C204.2 133.5 213.5 118.4 224.7 105.3C233.4 95 243.6 85.8 254.9 78.3C255.1 78 255.2 77.8 255.1 77.4L254.9 77.6ZM186.2 77.5C187.1 76.4 187.8 75.2 188.8 74.3C190.8 72.5 196.3 66.4 196.7 69.1C197.1 72.2 197.8 75.6 198.1 77.6C197 77.6 195.9 77.6 194.8 77.6C191.3 77.8 187.9 78.3 184.6 79.1C185.1 78.6 185.7 78 186.2 77.5Z" fill="#44697D"/>
<path d="M324.7 355.7C322.4 351.1 316 350.2 313.5 345.9C313.1 344.9 306.4 338.3 304.5 336.6C299 331.9 292 325.3 291.8 322.6C291.8 322.7 291.8 322.9 291.8 322.6C291.7 322.1 290.8 311.4 290.3 306.5C290.5 300.2 290.8 293.8 291.4 287.6C291.5 280.2 291.7 271.7 293.1 265.8C294.3 259.2 297.1 252.7 298.4 245.9C304.3 230.8 302.2 224.1 300 221C294.6 213.3 234.1 203 230.6 201.9C231.9 191.3 231.2 186.8 232.8 184.6C237.6 178.3 243.6 169.7 248.9 159.7C254.2 165.3 269 175.4 273.4 175C276.6 174.7 280.3 168.5 282.1 165.2C288.9 153.8 286.7 151.1 292.5 139C293.8 136.4 303 129.7 303.5 122.2C301.8 119.3 297.5 116.8 295.3 116.3C293.4 115.7 291 114.9 288.9 114.5C285.4 113.7 284 118.4 281.7 120.7C280.3 122.1 277.4 120.7 276.6 122.3C276 123.5 276.1 124.9 276.9 126C278.5 128.4 280.7 132.6 282 133.8C280.4 136.4 278.9 139 277.3 141.5C276.2 142.1 275.2 142.8 274.1 143.4C272.6 143 271.7 142.8 270.2 142.4C267.2 137.1 264.1 131.8 261.1 126.5C260.8 126 260.5 125.5 260.5 124.9C261.3 116.1 255.4 113.2 253.4 110.3C253.4 110.3 254.6 109.4 257.5 106.5C260 103.2 266.1 109.6 268.9 104.1C270.1 101.6 268.9 98.9 269.5 96.3C270.2 92.1 270.1 92.3 271.5 89.1C271.5 89.1 271.5 89 271.6 88.9C272 88.6 272.4 88.2 272.7 87.8C273.3 87.2 274.1 86.8 273.9 86C273.8 85.4 273.1 84.9 272.7 84.5C271.5 83.2 270.4 81.8 269.4 80.3C269.4 80.2 269.2 80.1 269.2 80C268.8 79.3 268.4 78.6 268 77.9C268 76.5 268 75.1 268 73.7C268 73.1 268.1 72.5 268.2 71.9C268.4 70.4 268.2 69 267.8 67.6C267.6 66.9 267 66.3 266.8 65.6C266.5 64.8 266.7 64.3 266.6 63.6C266.6 63.3 266.5 63.1 266.3 62.8C262.5 56.8 252.8 47.4 238 48.5C230 49.1 222.6 52.1 217.8 58.8C217.3 59.5 216.7 61 216.1 61.6C215.8 61.8 215.5 61.9 215.3 62C215.1 62 214.8 62 214.6 62C214.3 61.9 213.9 61.7 213.4 61.6C210.7 60.7 207.9 60.2 205.2 59.2C200.2 57.4 195.7 54.1 190 54.4C180.6 55 169.8 57.1 162.7 67.9C166 66.2 169.7 65.1 173.4 64.6C171.6 65.5 169.9 66.6 168.4 67.9C163.7 71.9 163.4 76.1 162 78.3C155.7 87.9 148.1 94.2 144 96.9C149.8 97.3 163.1 89.5 162.3 90C156.1 94 153.1 104.2 152.1 111.1C156.3 104.7 167.7 98.4 167.8 98.9C168.2 103.9 163.3 109.2 159.5 112.5C162 112.3 164.4 111.6 166.6 110.3C169.1 108.8 171.1 106.8 172.9 104.6C173.7 103.6 174.5 102.4 175.4 101.6C176.3 100.8 177.4 100.4 178.5 100.1C181.6 99.3 184.6 98.5 187.5 97.1C190.2 95.8 192.8 94.4 195.5 93.1C197.8 91.9 200.1 90.7 202.2 89C203.3 88.1 204.3 87.2 205.2 86.1C206.1 85 206.8 83.8 207.8 82.9C209.8 81.1 215.3 75 215.7 77.7C216.4 82.5 217.5 87.8 217.5 88C220.1 98.7 227.7 93.6 226.3 98.8C220.4 100.6 215 101.7 209.2 103.7C203.9 105.5 197.3 107.1 193.2 111.1C192.7 111.5 191.9 112 191.2 112C185.7 112.5 183.7 113.3 180.2 114.8C176.4 116.4 173.1 118.9 169.4 120.7C165.8 122.5 162 123.6 158.3 124.9C153.4 126.6 148.6 128.7 143.8 130.8C133.5 135.4 121.8 138.9 113 146C112.1 147 109.7 151.5 114.5 156.1C128.9 169.8 144.8 173.9 155.1 179.6C155.3 179.2 161.5 182.6 164.2 184.1C165.5 184.8 166.3 185.1 166.5 186.7C167 190.4 167.4 194.2 167.4 197.9C167.4 199.8 167.2 201.7 166.4 203.3C165 206.3 161.9 207.9 159.8 210.3C157.3 213.1 155.3 216.6 153.7 220.1C151.4 225.2 152.7 232.3 154.3 237.3C155.2 240.1 156.7 242.5 156.4 245.4C156 248.8 154.3 252.3 152.4 255.2C153.7 256.1 155 256.9 156.4 257.7C155.7 262.6 153 274.4 152.2 277.9C151.3 282 150.5 286.2 149.9 290.4C149.1 295.7 148.6 301.2 147 306.3C144.7 313.8 140.2 318.3 134.2 323C127.4 328.4 121 334.1 114.8 340.1C108.6 345.9 104.8 352.9 100 359.6C95.3 365.7 88.6 372.2 82.1 376C73.9 381 61.6 377.8 58.3 383.2C56.7 386.5 55.2 395 61.8 406L61.5 412.8C61.5 413.3 61.5 413.8 61.5 414.2C62.8 423 62.2 432.9 65.5 441.3C68 446.3 73.3 450.9 77.5 444.7C80.8 440 78.3 433.3 81.1 428.6C81.8 427.6 83.3 424 83.2 422.9C82.9 420.2 84.8 417.7 85.4 414.9C87.1 407.1 89.7 396.7 92.3 395.1C92 395.3 92.2 395.1 92.3 395.1C98.8 389.3 105.5 383.7 112.5 378C120.3 371.7 128 365.4 135.8 359.2C140.2 355.6 144.5 351.9 148.9 348.3C152.7 345.4 156.4 342.5 160.2 339.6C162.1 337.9 164 336.3 165.8 334.6C167.8 332.5 170.4 330.7 171.9 328.2C176.3 320.4 180.5 312.5 184.5 304.5C189.8 293.9 203.5 264.3 205 262.6C206.3 262.3 207.7 261.9 209.4 261.4C209.5 259.8 209.1 254.4 210.1 253.1C210.6 252.4 218 253.7 235.5 251.7C250 250.1 267 246.2 267 246.2C267 246.2 265 256.8 264.4 259.6C263.3 265.3 262.9 271.1 263.3 276.9C264.1 287.2 267.3 297 270.8 306.6C272.1 310.1 272.3 312.7 272.2 316.3C272.2 317 272.4 319.6 272.7 322.3C272.9 330.9 265.3 339.2 268.1 344.1C270 346.8 276.1 351.6 287.7 351.2L293 354.4C293.4 354.6 293.8 354.8 294.2 355C301.7 357.8 309.3 362.6 317.5 363.6C322.6 363.8 328.5 361.6 325.4 355.5L324.7 355.7ZM172.3 169.3C169.1 172.2 165.9 168.8 163.4 166.9C157.9 162.7 152.9 157.9 147.4 153.7C159 149.8 170.6 145.9 182.2 142C182.2 142 182.2 142 182.2 142.1C182.5 142.1 182.8 142.3 182.9 142.7C187.6 156.5 182.4 160.2 172.3 169.3Z" fill="#A71930"/>
<path d="M231.2 194.2C224 194.4 216.9 195.1 209.8 196C202.7 196.9 195.7 197.9 188.6 199.1C180.8 200.4 172.9 202.3 165.4 205.1C163.8 207.4 161.3 208.8 159.5 210.9C157 213.7 155 217.2 153.4 220.7C151.1 225.8 152.4 232.9 154 237.9C154.9 240.7 156.4 243.1 156.1 246C155.7 249.4 154 252.9 152.1 255.8C153.2 256.6 154.4 257.3 155.6 258C156.7 257.8 157.7 257.7 158.8 257.5C169.7 256.3 180.9 257.5 191.5 259.9C195.7 260.9 200 262 204.2 263.5V263.4C205.5 263.1 206.9 262.7 208.6 262.2C208.7 260.6 208.3 255.2 209.3 253.9C209.8 253.2 217.2 254.5 234.7 252.5C236.7 252.3 238.7 252 240.7 251.7C239.9 244 240.5 236.2 242.6 228.8C244.8 220.9 248.7 213.4 254.4 207.4C242.1 204.8 231.7 202.9 230.3 202.4C230.7 199.1 230.9 196.4 231.1 194.1L231.2 194.2Z" fill="#FF0E49"/>
<path d="M243.9 144.1C242.1 143.3 240.3 142.5 238.7 141.3C237.9 140.7 237.1 140.1 236.4 139.3C235.8 138.7 235 137.7 234.8 136.9C234.7 136.1 234.9 135.1 235 134.4C235 133.6 235.2 132.9 235.3 132.1C235.6 130.5 235.9 128.9 236.3 127.4C237.1 124.5 238.3 121.6 240 119C243.2 114.2 247.9 111.3 253.4 110.1C249 108.2 244.3 107.5 239.4 107.7C233.6 107.9 227.9 109.1 222.1 107.9C220 107.5 217.6 106.8 216.4 104.9C215.8 104 215.7 103 215.9 102.1C213.6 102.7 211.3 103.4 208.9 104.2C203.6 106 197 107.6 192.9 111.6C192.4 112 191.6 112.5 190.9 112.5C189 112.7 187.5 112.9 186.3 113.1C186.3 113.3 186.1 113.4 186 113.6C185.5 114.9 186.1 116.3 186.4 117.6C186.7 118.9 186.6 120.4 186.4 121.7C186.1 124.2 185.3 126.6 184.6 129C183.9 131.4 183.5 133.9 183.4 136.4C183.3 139.6 183.5 142.7 183.6 145.9C186.4 156.4 182.5 160.5 174.7 167.5C173.5 168.7 172.4 169.9 171.2 171C168.5 173.9 165.6 177 164 180.7C163.5 181.8 163.2 182.9 163.1 184.1C163.3 184.2 163.6 184.4 163.8 184.5C165.1 185.2 165.9 185.5 166.1 187.1C166.4 189.7 166.7 192.3 166.9 194.9C179.2 192.4 191.7 190.7 204.3 190.1C213.3 189.6 222.4 189.8 231.4 190.4C231.6 187.7 231.8 186.1 232.6 185C237.3 178.7 243.3 170.3 248.4 160.5C247.7 158.3 246.6 156.2 245.8 154C244.6 150.8 243.5 147.3 243.8 143.9L243.9 144.1Z" fill="#FF0E49"/>
<path d="M240.4 49.5C251 52.9 257.9 55.4 262.1 62.9C264 66.3 261.4 75.2 261.4 79.2C261.4 81.4 261 83.5 260.3 85.5C259.4 88 259.8 90.9 261.6 92.9C263.4 94.9 261.6 93 261.7 93.1C264 95.9 265.3 99.3 267.4 102.2C267.8 102.8 268.3 103.4 268.9 103.9C269.9 101.5 268.9 98.8 269.4 96.3C270.1 92.1 270 92.3 271.4 89.1C271.4 89.1 271.4 89 271.5 88.9C271.9 88.6 272.3 88.2 272.6 87.8C273.2 87.2 274 86.8 273.8 86C273.7 85.4 273 84.9 272.6 84.5C271.4 83.2 270.3 81.8 269.3 80.3C269.3 80.2 269.1 80.1 269.1 80C268.7 79.3 268.3 78.6 267.9 77.9C267.9 76.4 267.9 75 267.9 73.6C267.9 73 268 72.4 268.1 71.8C268.3 70.3 268.1 68.9 267.7 67.5C267.5 66.8 266.9 66.2 266.7 65.5C266.4 64.7 266.6 64.2 266.5 63.5C266.4 62.8 266.4 63 266.2 62.7C262.5 56.9 253.1 47.7 238.8 48.4C239.4 48.8 239.9 49.4 240.6 49.7L240.4 49.5Z" fill="#FF7900"/>
<path d="M163.4 167C160.1 164.5 157 161.8 153.9 159.1C151.1 156.7 152 152.2 155.4 151.1C163.6 148.3 171.8 145.6 180 142.8C177.7 142.2 175.3 142 172.9 142.1C166.6 142.4 160.5 144.7 154.8 147.2C151.7 148.6 148.6 150.1 145.5 151.5C142.3 153 141.8 157.4 144.6 159.5C150.4 164 157 168.1 164 170.4C166.1 171.1 169.1 172 171.2 171.1C172.1 170.7 172.6 169.9 172.8 169C172.6 169.2 172.4 169.3 172.3 169.5C169.1 172.4 165.9 169 163.4 167.1V167Z" fill="#FF7900"/>
<path d="M203.2 263.3C202 262.4 200.6 261.7 199.1 261.8C197.8 261.9 196.7 262.7 195.8 263.6C181.9 276.8 163.9 324.5 161.5 336.4C161.2 337.9 160 339 159.1 340.2C159.3 340.1 159.5 339.9 159.7 339.8C161.6 338.1 163.5 336.5 165.3 334.8C167.3 332.7 169.9 330.9 171.4 328.4C175.8 320.6 180 312.7 184 304.7C188.8 295 200.7 269.4 203.8 263.8C203.6 263.6 203.4 263.5 203.2 263.3Z" fill="#FF7900"/>
<path d="M295.2 116.3C293.3 115.7 290.9 114.9 288.8 114.5C287 114.1 285.7 115.1 284.6 116.6C285.6 116.6 286.5 116.8 287.2 117.5C288.7 118.9 288.4 121.2 287.9 122.9C287.2 125.6 286.1 128.3 284.7 130.7C283.4 132.9 281.7 133.8 280 136.6C279 138.2 278 139.9 277 141.5C275.9 142.1 274.9 142.8 273.8 143.4C272.3 143 271.4 142.8 269.9 142.4C266.9 137.1 263.8 131.8 260.8 126.5C260.5 126 260.2 125.5 260.2 124.9C261 116.5 255.5 113.4 253.4 110.7C249.9 111.3 246.1 111.9 243 113.8C247.7 118.7 254.7 121.6 257.4 128.1C258.7 131.3 259.2 134.7 260.1 138C260.6 139.9 261.3 141.7 262.3 143.3C263.3 145.1 264.8 146.7 266.2 148.3C268.3 150.8 270.9 152.7 273.4 154.7C275 156 277 157.2 277.7 159.2C278.4 161.2 278.2 163.4 278 165.4C277.7 167.8 277.2 170.2 276.7 172.7C278.8 170.5 280.7 167.2 281.9 165.1C288.7 153.7 286.5 151 292.3 138.9C293.6 136.3 302.8 129.6 303.3 122.1C301.6 119.2 297.3 116.7 295.1 116.2L295.2 116.3Z" fill="#FF7900"/>
<path d="M291.7 322.6C291.7 322.7 291.7 322.9 291.7 322.6C291.6 322.1 290.7 311.4 290.2 306.5C290.4 300.2 290.7 293.8 291.3 287.6C291.4 280.2 291.6 271.7 293 265.8C294.2 259.2 297 252.7 298.3 245.9C301.4 238 302.3 232.4 302.1 228.4C302 225.7 301.4 223.8 300.7 222.3C300.7 222.3 300.7 222.3 300.7 222.2C300.6 222 300.5 221.8 300.4 221.6C300.3 221.4 300.1 221.2 300 221C299.8 220.8 299.6 220.5 299.3 220.3C299 220.1 298.7 219.8 298.4 219.6C287.3 212.2 233.9 203 230.6 202C231.9 191.4 231.2 186.9 232.8 184.7C237.3 178.7 243 170.7 248 161.5C247.3 162 246.6 162.6 245.9 163.1C233.1 172.9 219.6 182.2 208.4 193.9C203.8 198.8 200.2 204.6 199.8 211.5C199.6 215 200.2 218.6 201.2 222C201.8 223.9 202.8 225.9 205 226.3C207.2 226.7 209.7 226.7 211.8 226C250.7 213.6 266.7 225.5 289.1 228C291.2 228.2 292.6 230.4 291.7 232.4C291.6 232.7 291.5 232.9 291.4 233.2C289.2 238.8 288.1 244.5 287.3 250.5C285.5 262.9 284.4 275.5 284.4 288.1C284.4 297.2 285.3 306.2 287.8 315.1C288.5 317.8 289.5 320.4 290.7 322.8C291.9 325.2 294.2 328.9 297.1 330.7C297.6 331 298.1 331.2 298.6 331.4C295 327.9 292 324.5 291.9 322.8L291.7 322.6Z" fill="#FF7900"/>
</svg>
