<svg xmlns="http://www.w3.org/2000/svg" width="40" height="40" viewBox="0 0 40 40" fill="none" aria-labelledby="email">
	<title id="email">
		E-mail
	</title>
	<path d="M20 40C8.95978 40 0 31.0464 0 20.0139C0 8.95357 8.95978 0 20 0C31.0402 0 40 8.95357 40 19.9861C40 31.0187 31.0402 39.9723 20 39.9723V40Z" fill="white" />
	<path d="M30.3189 11.282H9.90286C8.71007 11.282 7.7392 12.2522 7.7392 13.4442V26.5003C7.7392 27.6923 8.71007 28.6625 9.90286 28.6625H30.3189C31.5117 28.6625 32.4826 27.6923 32.4826 26.5003V13.4442C32.4826 12.2522 31.5117 11.282 30.3189 11.282ZM29.9861 12.7512C29.2926 13.4442 21.0263 21.7602 20.6657 22.0929C20.3883 22.3701 19.8335 22.3701 19.5284 22.0929L10.208 12.7512H29.9583H29.9861ZM9.1539 26.2509V13.7214L15.3952 19.9861L9.1539 26.2509ZM10.2357 27.2488L16.4493 21.0118L18.5298 23.0908C19.3897 23.9501 20.8599 23.9501 21.7198 23.0908L23.8002 21.0118L30.0138 27.2488H10.2357ZM31.0402 26.2509L24.7988 19.9861L31.0402 13.7214V26.2509Z" fill="#00345F" />
</svg>
