<svg xmlns="http://www.w3.org/2000/svg" width="40" height="40" viewBox="0 0 40 40" fill="none" aria-labelledby="instagram">
	<title id="instagram">
		Instagram
	</title>
	<g clip-path="url(#clip0_114_950)">
		<path d="M19.9861 40C8.95357 40 0 31.0464 0 20.0139C0 8.95357 8.95357 0 19.9861 0C31.0187 0 39.9723 8.95357 39.9723 19.9861C39.9723 31.0187 31.0187 39.9723 19.9861 39.9723V40Z" fill="white" />
		<path d="M19.9861 11.0049C22.9245 11.0049 23.2571 11.0049 24.4214 11.0603C25.5024 11.1157 26.0846 11.2821 26.4449 11.4484C26.9439 11.6424 27.332 11.8919 27.6923 12.28C28.0804 12.6681 28.3022 13.0284 28.5239 13.5274C28.6625 13.9155 28.8566 14.4976 28.912 15.5509C28.9674 16.7152 28.9674 17.0478 28.9674 19.9861C28.9674 22.9245 28.9674 23.2571 28.912 24.4214C28.8566 25.5024 28.6902 26.0846 28.5239 26.4449C28.3299 26.9439 28.0804 27.332 27.6923 27.6923C27.3042 28.0804 26.9439 28.3022 26.4449 28.5239C26.0568 28.6625 25.4747 28.8566 24.4214 28.912C23.2571 28.9674 22.9245 28.9674 19.9861 28.9674C17.0478 28.9674 16.7152 28.9674 15.5509 28.912C14.4699 28.8566 13.8877 28.6902 13.5274 28.5239C13.0284 28.3299 12.6403 28.0804 12.28 27.6923C11.8919 27.3042 11.6701 26.9439 11.4484 26.4449C11.3098 26.0568 11.1157 25.4747 11.0603 24.4214C11.0049 23.2571 11.0049 22.9245 11.0049 19.9861C11.0049 17.0478 11.0049 16.7152 11.0603 15.5509C11.1157 14.4699 11.2821 13.8877 11.4484 13.5274C11.6424 13.0284 11.8919 12.6403 12.28 12.28C12.6681 11.8919 13.0284 11.6701 13.5274 11.4484C13.9155 11.3098 14.4976 11.1157 15.5509 11.0603C16.7152 11.0049 17.0478 11.0049 19.9861 11.0049ZM19.9861 9.03674C17.0201 9.03674 16.632 9.03674 15.4678 9.09218C14.3035 9.14762 13.4997 9.34166 12.8067 9.59114C12.0859 9.86834 11.4761 10.2564 10.8663 10.8663C10.2564 11.4761 9.86834 12.0859 9.59114 12.8067C9.31394 13.4997 9.14762 14.3035 9.09218 15.4678C9.03674 16.632 9.03674 17.0201 9.03674 19.9861C9.03674 22.9522 9.03674 23.3403 9.09218 24.5045C9.14762 25.6688 9.34166 26.4726 9.59114 27.1656C9.86834 27.8864 10.2564 28.4962 10.8663 29.106C11.4761 29.7159 12.0859 30.104 12.8067 30.3812C13.4997 30.6584 14.3035 30.8247 15.4678 30.8801C16.632 30.9356 17.0201 30.9356 19.9861 30.9356C22.9522 30.9356 23.3403 30.9356 24.5045 30.8801C25.6688 30.8247 26.4726 30.6306 27.1656 30.3812C27.8864 30.104 28.4962 29.7159 29.106 29.106C29.7159 28.4962 30.104 27.8864 30.3812 27.1656C30.6584 26.4726 30.8247 25.6688 30.8801 24.5045C30.9356 23.3403 30.9356 22.9522 30.9356 19.9861C30.9356 17.0201 30.9356 16.632 30.8801 15.4678C30.8247 14.3035 30.6306 13.4997 30.3812 12.8067C30.104 12.0859 29.7159 11.4761 29.106 10.8663C28.4962 10.2564 27.8864 9.86834 27.1656 9.59114C26.4726 9.31394 25.6688 9.14762 24.5045 9.09218C23.3403 9.03674 22.9522 9.03674 19.9861 9.03674Z" fill="#00345F" />
		<path d="M19.9862 14.359C16.8815 14.359 14.359 16.8815 14.359 19.9862C14.359 23.0908 16.8815 25.6133 19.9862 25.6133C23.0908 25.6133 25.6133 23.0908 25.6133 19.9862C25.6133 16.8815 23.0908 14.359 19.9862 14.359ZM19.9862 23.6452C17.9626 23.6452 16.3271 22.0097 16.3271 19.9862C16.3271 17.9626 17.9626 16.3271 19.9862 16.3271C22.0097 16.3271 23.6452 17.9626 23.6452 19.9862C23.6452 22.0097 22.0097 23.6452 19.9862 23.6452Z" fill="#00345F" />
		<path d="M27.1656 14.1373C27.1656 14.858 26.5835 15.4401 25.8628 15.4401C25.1421 15.4401 24.5599 14.858 24.5599 14.1373C24.5599 13.4165 25.1421 12.8344 25.8628 12.8344C26.5835 12.8344 27.1656 13.4165 27.1656 14.1373Z" fill="#00345F" />
	</g>
	<defs>
		<clipPath id="clip0_114_950">
			<rect width="40" height="40" fill="white" />
		</clipPath>
	</defs>
</svg>
