<svg xmlns="http://www.w3.org/2000/svg" width="45" height="50" viewBox="0 0 45 50" fill="none" class="viewmap__ico" aria-labelledby="viewmapIco">
	<title id="viewmapIco">
		Pin
	</title>
	<path d="M22.0248 0.678955C13.796 0.678955 7.14246 7.3597 7.14246 15.5884C7.14246 21.8075 15.6428 34.4357 19.7979 40.2203C20.8842 41.7411 23.1654 41.7411 24.2517 40.2203C28.4068 34.4357 36.9071 21.8075 36.9071 15.5884C36.9342 7.3597 30.2535 0.678955 22.0248 0.678955ZM22.0248 21.5631C18.277 21.5631 15.2626 18.5214 15.2626 14.8009C15.2626 11.0803 18.3042 8.03864 22.0248 8.03864C25.7454 8.03864 28.787 11.0803 28.787 14.8009C28.787 18.5214 25.7454 21.5631 22.0248 21.5631Z" fill="white" />
	<path opacity="0.5" d="M22.3235 47.933C28.248 47.933 33.0508 47.0211 33.0508 45.8962C33.0508 44.7713 28.248 43.8594 22.3235 43.8594C16.3991 43.8594 11.5963 44.7713 11.5963 45.8962C11.5963 47.0211 16.3991 47.933 22.3235 47.933Z" fill="white" />
</svg>
