<?xml version="1.0" encoding="UTF-8" standalone="no"?>
<!DOCTYPE svg PUBLIC "-//W3C//DTD SVG 1.1//EN" "http://www.w3.org/Graphics/SVG/1.1/DTD/svg11.dtd">
<svg width="100%" height="100%" viewBox="0 0 753 88" version="1.1" xmlns="http://www.w3.org/2000/svg" xmlns:xlink="http://www.w3.org/1999/xlink" xml:space="preserve" xmlns:serif="http://www.serif.com/" style="fill-rule:evenodd;clip-rule:evenodd;stroke-linejoin:round;stroke-miterlimit:2;">
    <g id="Artboard1" transform="matrix(0.974276,0,0,0.375075,0,-32.2706)">
        <rect x="0" y="86.038" width="772.82" height="233.754" style="fill:none;"/>
        <g id="Vrstva-1" serif:id="Vrstva 1" transform="matrix(4.27668,0,0,11.1089,41.7367,-219.521)">
            <g transform="matrix(1,0,0,1,-22.32,0)">
                <g transform="matrix(28,0,0,28,12.1147,47.9048)">
                    <path d="M0.415,0.014C0.631,0.014 0.793,-0.149 0.793,-0.35L0.793,-0.352C0.793,-0.553 0.633,-0.714 0.417,-0.714C0.201,-0.714 0.039,-0.551 0.039,-0.35L0.039,-0.348C0.039,-0.147 0.199,0.014 0.415,0.014ZM0.417,-0.161C0.31,-0.161 0.237,-0.249 0.237,-0.35L0.237,-0.352C0.237,-0.453 0.308,-0.539 0.415,-0.539C0.522,-0.539 0.594,-0.452 0.594,-0.35L0.594,-0.348C0.594,-0.247 0.523,-0.161 0.417,-0.161Z" style="fill:white;fill-rule:nonzero;"/>
                </g>
                <g transform="matrix(28,0,0,28,35.3889,47.9048)">
                    <path d="M0.337,0.012C0.507,0.012 0.62,-0.073 0.62,-0.216L0.62,-0.218C0.62,-0.349 0.52,-0.401 0.36,-0.436C0.262,-0.458 0.238,-0.472 0.238,-0.504L0.238,-0.506C0.238,-0.532 0.261,-0.551 0.308,-0.551C0.37,-0.551 0.44,-0.528 0.504,-0.482L0.601,-0.619C0.525,-0.68 0.432,-0.712 0.313,-0.712C0.145,-0.712 0.042,-0.618 0.042,-0.488L0.042,-0.486C0.042,-0.343 0.157,-0.301 0.306,-0.267C0.402,-0.244 0.425,-0.229 0.425,-0.199L0.425,-0.197C0.425,-0.167 0.397,-0.149 0.344,-0.149C0.263,-0.149 0.187,-0.178 0.117,-0.233L0.009,-0.104C0.096,-0.027 0.213,0.012 0.337,0.012Z" style="fill:white;fill-rule:nonzero;"/>
                </g>
                <g transform="matrix(28,0,0,28,53.6511,47.9048)">
                    <path d="M0.233,-0L0.427,-0L0.427,-0.53L0.637,-0.53L0.637,-0.7L0.024,-0.7L0.024,-0.53L0.233,-0.53L0.233,-0Z" style="fill:white;fill-rule:nonzero;"/>
                </g>
                <g transform="matrix(28,0,0,28,72.1374,47.9048)">
                    <path d="M0.062,-0L0.256,-0L0.256,-0.212L0.342,-0.212L0.483,-0L0.706,-0L0.539,-0.244C0.626,-0.281 0.683,-0.352 0.683,-0.46L0.683,-0.462C0.683,-0.531 0.662,-0.584 0.621,-0.625C0.574,-0.672 0.5,-0.7 0.393,-0.7L0.062,-0.7L0.062,-0ZM0.256,-0.364L0.256,-0.533L0.384,-0.533C0.448,-0.533 0.489,-0.505 0.489,-0.449L0.489,-0.447C0.489,-0.396 0.45,-0.364 0.385,-0.364L0.256,-0.364Z" style="fill:white;fill-rule:nonzero;"/>
                </g>
                <g transform="matrix(28,0,0,28,92.2756,47.9048)">
                    <path d="M0.007,-0L0.21,-0L0.26,-0.126L0.531,-0.126L0.581,-0L0.789,-0L0.491,-0.705L0.304,-0.705L0.007,-0ZM0.317,-0.277L0.396,-0.475L0.474,-0.277L0.317,-0.277Z" style="fill:white;fill-rule:nonzero;"/>
                </g>
                <g transform="matrix(28,0,0,28,114.542,47.9048)">
                    <path d="M0.29,0.005L0.47,0.005L0.754,-0.7L0.542,-0.7L0.382,-0.257L0.223,-0.7L0.007,-0.7L0.29,0.005Z" style="fill:white;fill-rule:nonzero;"/>
                </g>
                <g transform="matrix(28,0,0,28,135.828,47.9048)">
                    <path d="M0.007,-0L0.21,-0L0.26,-0.126L0.531,-0.126L0.581,-0L0.789,-0L0.491,-0.705L0.304,-0.705L0.007,-0ZM0.317,-0.277L0.396,-0.475L0.474,-0.277L0.317,-0.277Z" style="fill:white;fill-rule:nonzero;"/>
                </g>
            </g>
            <g transform="matrix(0,-1,-1,0,146.361,42.4424)">
                <path d="M-2.831,-2.831C-4.395,-2.831 -5.662,-1.561 -5.662,0C-5.662,1.563 -4.395,2.831 -2.831,2.831C-1.268,2.831 -0.001,1.563 -0.001,0C-0.001,-1.561 -1.268,-2.831 -2.831,-2.831" style="fill:white;fill-rule:nonzero;"/>
            </g>
            <g transform="matrix(0,-1,-1,0,156.11,42.4439)">
                <path d="M-2.83,-2.83C-4.393,-2.83 -5.661,-1.563 -5.661,0C-5.661,1.564 -4.393,2.83 -2.83,2.83C-1.267,2.83 0.001,1.564 0.001,0C0.001,-1.563 -1.267,-2.83 -2.83,-2.83" style="fill:white;fill-rule:nonzero;"/>
            </g>
            <g transform="matrix(0,-1,-1,0,165.858,42.4424)">
                <path d="M-2.831,-2.831C-4.395,-2.831 -5.662,-1.562 -5.662,0C-5.662,1.562 -4.395,2.831 -2.831,2.831C-1.268,2.831 -0.001,1.562 -0.001,0C-0.001,-1.562 -1.268,-2.831 -2.831,-2.831" style="fill:white;fill-rule:nonzero;"/>
            </g>
            <g transform="matrix(0.0111914,0.999937,0.999937,-0.0111914,171.725,31.3674)">
                <path d="M-3.202,-8.556L8.593,-8.556L8.651,-3.37L-3.141,-3.106L-3.202,-8.556Z" style="fill:white;fill-rule:nonzero;"/>
            </g>
            <g transform="matrix(0.0111067,0.999938,0.999938,-0.0111067,161.977,31.3679)">
                <path d="M-3.201,-8.557L8.593,-8.557L8.651,-3.368L-3.141,-3.106L-3.201,-8.557Z" style="fill:white;fill-rule:nonzero;"/>
            </g>
            <g transform="matrix(0.0112762,0.999936,0.999936,-0.0112762,152.227,31.3664)">
                <path d="M-3.201,-8.556L8.593,-8.556L8.652,-3.37L-3.14,-3.105L-3.201,-8.556Z" style="fill:white;fill-rule:nonzero;"/>
            </g>
        </g>
    </g>
</svg>
